<svg xmlns="http://www.w3.org/2000/svg" xmlns:xlink="http://www.w3.org/1999/xlink" width="1080" zoomAndPan="magnify" viewBox="0 0 810 179.999997" height="240" preserveAspectRatio="xMidYMid meet" version="1.0"><defs><clipPath id="e4b1e80d32"><path d="M 417.921875 6.324219 L 461.550781 6.324219 L 461.550781 51 L 417.921875 51 Z M 417.921875 6.324219 " clip-rule="nonzero"/></clipPath><clipPath id="33e4e0ccaf"><path d="M 439.738281 6.324219 C 468.820312 6.457031 468.820312 50.738281 439.738281 50.867188 C 410.648438 50.738281 410.648438 6.441406 439.738281 6.324219 " clip-rule="nonzero"/></clipPath></defs><path fill="#28509e" d="M 157.523438 75.960938 L 157.523438 144.886719 C 149.714844 153.269531 140.117188 159.707031 128.71875 164.203125 C 117.316406 168.703125 104.785156 170.953125 91.113281 170.953125 C 74.785156 170.953125 60.472656 167.628906 48.199219 161.003906 C 35.917969 154.375 26.429688 144.941406 19.738281 132.71875 C 13.058594 120.492188 9.722656 106.285156 9.722656 90.089844 C 9.722656 74.339844 13.246094 60.316406 20.292969 48.019531 C 27.355469 35.726562 37.246094 26.15625 49.96875 19.308594 C 62.6875 12.449219 77.28125 9.015625 93.757812 9.015625 C 105.664062 9.015625 116.4375 11.082031 126.078125 15.207031 C 135.710938 19.335938 144.574219 25.601562 152.660156 33.996094 L 130.832031 55.640625 C 125.972656 50.769531 120.261719 47.011719 113.710938 44.367188 C 107.167969 41.722656 100.449219 40.398438 93.546875 40.398438 C 78.695312 40.398438 66.960938 44.855469 58.347656 53.761719 C 49.746094 62.671875 45.449219 74.78125 45.449219 90.089844 C 45.449219 99.972656 47.359375 108.664062 51.183594 116.179688 C 55.003906 123.679688 60.441406 129.488281 67.492188 133.617188 C 74.550781 137.730469 82.71875 139.78125 91.988281 139.78125 C 106.554688 139.78125 118.175781 136.039062 126.84375 128.535156 L 126.84375 104.90625 L 84.929688 104.90625 L 84.929688 75.960938 Z M 157.523438 75.960938 " fill-opacity="1" fill-rule="nonzero"/><path fill="#1d1d1b" d="M 294.964844 58.285156 L 294.964844 167.40625 L 264.945312 167.40625 L 262.75 154.359375 C 253.480469 164.523438 241.425781 169.601562 226.574219 169.601562 C 216.425781 169.601562 207.414062 167.214844 199.539062 162.429688 C 191.679688 157.65625 185.539062 150.960938 181.121094 142.347656 C 176.714844 133.722656 174.515625 123.890625 174.515625 112.84375 C 174.515625 101.804688 176.714844 91.980469 181.121094 83.371094 C 185.539062 74.742188 191.679688 68.042969 199.539062 63.257812 C 207.414062 58.484375 216.425781 56.089844 226.574219 56.089844 C 233.921875 56.089844 240.683594 57.378906 246.867188 59.953125 C 253.050781 62.53125 258.34375 66.242188 262.75 71.09375 L 264.945312 58.285156 Z M 234.738281 140.46875 C 242.382812 140.46875 248.625 137.929688 253.476562 132.847656 C 258.335938 127.769531 260.769531 121.101562 260.769531 112.84375 C 260.769531 104.609375 258.335938 97.949219 253.476562 92.867188 C 248.625 87.789062 242.382812 85.246094 234.738281 85.246094 C 227.089844 85.246094 220.871094 87.828125 216.082031 92.972656 C 211.304688 98.128906 208.921875 104.75 208.921875 112.84375 C 208.921875 120.941406 211.304688 127.578125 216.082031 132.742188 C 220.871094 137.894531 227.089844 140.46875 234.738281 140.46875 Z M 234.738281 140.46875 " fill-opacity="1" fill-rule="nonzero"/><path fill="#1d1d1b" d="M 382.976562 55.851562 C 387.976562 55.851562 392.976562 56.777344 397.984375 58.628906 C 402.988281 60.46875 407.328125 63.148438 411.015625 66.671875 L 396.453125 92.074219 C 393.347656 90.167969 390.480469 88.78125 387.839844 87.894531 C 385.195312 87.015625 382.402344 86.570312 379.460938 86.570312 C 372.09375 86.570312 366.28125 88.925781 362.019531 93.636719 C 357.753906 98.34375 355.625 105.265625 355.625 114.378906 L 355.625 167.40625 L 321.007812 167.40625 L 321.007812 58.285156 L 351.210938 58.285156 L 353.855469 71.992188 C 360.917969 61.234375 370.621094 55.851562 382.976562 55.851562 Z M 382.976562 55.851562 " fill-opacity="1" fill-rule="nonzero"/><path fill="#1d1d1b" d="M 440.121094 47.464844 C 434.097656 47.464844 429.207031 45.703125 425.457031 42.171875 C 421.703125 38.625 419.828125 34.128906 419.828125 28.675781 C 419.828125 23.085938 421.738281 18.53125 425.5625 14.996094 C 429.378906 11.472656 434.234375 9.703125 440.121094 9.703125 C 446.003906 9.703125 450.859375 11.472656 454.683594 14.996094 C 458.5 18.53125 460.417969 23.085938 460.417969 28.675781 C 460.417969 34.128906 458.542969 38.625 454.789062 42.171875 C 451.035156 45.703125 446.148438 47.464844 440.121094 47.464844 Z M 422.707031 58.285156 L 457.324219 58.285156 L 457.324219 167.40625 L 422.707031 167.40625 Z M 422.707031 58.285156 " fill-opacity="1" fill-rule="nonzero"/><path fill="#1d1d1b" d="M 525.710938 170.289062 C 506.453125 170.289062 489.691406 165.433594 475.421875 155.710938 L 488.660156 131.84375 C 493.945312 135.089844 500.078125 137.597656 507.050781 139.359375 C 514.042969 141.125 521.003906 142.003906 527.929688 142.003906 C 537.476562 142.003906 542.253906 139.429688 542.253906 134.277344 C 542.253906 131.632812 540.929688 129.648438 538.289062 128.324219 C 535.644531 126.988281 531.234375 126.09375 525.046875 125.652344 C 511.234375 124.910156 500.242188 121.457031 492.070312 115.28125 C 483.910156 109.089844 479.832031 100.992188 479.832031 90.988281 C 479.832031 80.089844 484.246094 71.4375 493.074219 65.03125 C 501.898438 58.628906 513.804688 55.425781 528.800781 55.425781 C 537.324219 55.425781 545.449219 56.460938 553.167969 58.523438 C 560.894531 60.574219 567.554688 63.4375 573.144531 67.121094 L 559.691406 90.328125 C 551.449219 85.605469 541.671875 83.238281 530.359375 83.238281 C 519.167969 83.238281 513.578125 85.894531 513.578125 91.203125 C 513.578125 93.410156 514.714844 95.105469 516.988281 96.28125 C 519.273438 97.464844 523.144531 98.34375 528.589844 98.925781 C 544.179688 100.113281 556.054688 103.652344 564.210938 109.539062 C 572.363281 115.433594 576.449219 123.679688 576.449219 134.277344 C 576.449219 145.464844 571.960938 154.269531 562.996094 160.683594 C 554.023438 167.089844 541.597656 170.289062 525.710938 170.289062 Z M 525.710938 170.289062 " fill-opacity="1" fill-rule="nonzero"/><path fill="#1d1d1b" d="M 673.09375 163.199219 C 664.5625 167.464844 654.925781 169.601562 644.183594 169.601562 C 632.269531 169.601562 622.855469 166.261719 615.933594 159.574219 C 609.023438 152.871094 605.574219 142.082031 605.574219 127.214844 L 605.574219 85.910156 L 587.050781 85.910156 L 587.050781 58.285156 L 605.574219 58.285156 L 605.574219 31.109375 L 640.007812 27.355469 L 640.007812 58.285156 L 667.121094 58.285156 L 667.121094 85.910156 L 640.007812 85.910156 L 640.007812 127.214844 C 640.007812 131.625 641.105469 134.898438 643.308594 137.03125 C 645.511719 139.167969 648.523438 140.230469 652.347656 140.230469 C 656.609375 140.230469 660.804688 139.199219 664.925781 137.136719 Z M 673.09375 163.199219 " fill-opacity="1" fill-rule="nonzero"/><path fill="#1d1d1b" d="M 802.804688 58.285156 L 802.804688 167.40625 L 772.785156 167.40625 L 770.59375 154.359375 C 761.324219 164.523438 749.265625 169.601562 734.417969 169.601562 C 724.269531 169.601562 715.257812 167.214844 707.382812 162.429688 C 699.519531 157.65625 693.382812 150.960938 688.964844 142.347656 C 684.558594 133.722656 682.355469 123.890625 682.355469 112.84375 C 682.355469 101.804688 684.558594 91.980469 688.964844 83.371094 C 693.382812 74.742188 699.519531 68.042969 707.382812 63.257812 C 715.257812 58.484375 724.269531 56.089844 734.417969 56.089844 C 741.761719 56.089844 748.527344 57.378906 754.710938 59.953125 C 760.894531 62.53125 766.1875 66.242188 770.59375 71.09375 L 772.785156 58.285156 Z M 742.582031 140.46875 C 750.226562 140.46875 756.46875 137.929688 761.316406 132.847656 C 766.179688 127.769531 768.609375 121.101562 768.609375 112.84375 C 768.609375 104.609375 766.179688 97.949219 761.316406 92.867188 C 756.46875 87.789062 750.226562 85.246094 742.582031 85.246094 C 734.929688 85.246094 728.714844 87.828125 723.925781 92.972656 C 719.148438 98.128906 716.761719 104.75 716.761719 112.84375 C 716.761719 120.941406 719.148438 127.578125 723.925781 132.742188 C 728.714844 137.894531 734.929688 140.46875 742.582031 140.46875 Z M 742.582031 140.46875 " fill-opacity="1" fill-rule="nonzero"/><g clip-path="url(#e4b1e80d32)"><g clip-path="url(#33e4e0ccaf)"><path fill="#28509e" d="M 417.921875 6.324219 L 461.550781 6.324219 L 461.550781 50.863281 L 417.921875 50.863281 Z M 417.921875 6.324219 " fill-opacity="1" fill-rule="nonzero"/></g></g></svg>