<svg xmlns="http://www.w3.org/2000/svg" xmlns:xlink="http://www.w3.org/1999/xlink" width="1500" zoomAndPan="magnify" viewBox="0 0 1125 239.999995" height="320" preserveAspectRatio="xMidYMid meet" version="1.0"><defs><clipPath id="87653787b6"><path d="M 578.175781 4.476562 L 639.019531 4.476562 L 639.019531 66.75 L 578.175781 66.75 Z M 578.175781 4.476562 " clip-rule="nonzero"/></clipPath><clipPath id="481ab190e4"><path d="M 608.597656 4.476562 C 649.15625 4.660156 649.15625 66.335938 608.597656 66.519531 C 568.03125 66.335938 568.03125 4.644531 608.597656 4.476562 " clip-rule="nonzero"/></clipPath><clipPath id="f53ccfb198"><path d="M 577.117188 4.09375 L 640 4.09375 L 640 66.976562 L 577.117188 66.976562 Z M 577.117188 4.09375 " clip-rule="nonzero"/></clipPath><clipPath id="8aa4b58ebc"><path d="M 608.558594 4.09375 C 591.195312 4.09375 577.117188 18.171875 577.117188 35.535156 C 577.117188 52.902344 591.195312 66.976562 608.558594 66.976562 C 625.925781 66.976562 640 52.902344 640 35.535156 C 640 18.171875 625.925781 4.09375 608.558594 4.09375 Z M 608.558594 4.09375 " clip-rule="nonzero"/></clipPath></defs><path fill="#1d1d1b" d="M 215.023438 101.46875 L 215.023438 197.472656 C 204.132812 209.144531 190.746094 218.109375 174.851562 224.375 C 158.949219 230.640625 141.472656 233.773438 122.410156 233.773438 C 99.632812 233.773438 79.675781 229.148438 62.558594 219.917969 C 45.429688 210.683594 32.199219 197.546875 22.867188 180.519531 C 13.554688 163.492188 8.898438 143.703125 8.898438 121.148438 C 8.898438 99.210938 13.8125 79.679688 23.640625 62.550781 C 33.492188 45.433594 47.285156 32.101562 65.027344 22.566406 C 82.765625 13.011719 103.117188 8.230469 126.09375 8.230469 C 142.699219 8.230469 157.726562 11.101562 171.167969 16.851562 C 184.601562 22.601562 196.964844 31.328125 208.242188 43.019531 L 177.800781 73.164062 C 171.019531 66.382812 163.058594 61.152344 153.917969 57.464844 C 144.796875 53.78125 135.429688 51.9375 125.800781 51.9375 C 105.089844 51.9375 88.726562 58.148438 76.710938 70.546875 C 64.714844 82.957031 58.726562 99.828125 58.726562 121.148438 C 58.726562 134.914062 61.390625 147.019531 66.722656 157.484375 C 72.050781 167.933594 79.632812 176.023438 89.460938 181.773438 C 99.3125 187.503906 110.699219 190.359375 123.625 190.359375 C 143.941406 190.359375 160.148438 185.144531 172.234375 174.695312 L 172.234375 141.785156 L 113.785156 141.785156 L 113.785156 101.46875 Z M 215.023438 101.46875 " fill-opacity="1" fill-rule="nonzero"/><path fill="#1d1d1b" d="M 406.699219 76.851562 L 406.699219 228.835938 L 364.832031 228.835938 L 361.773438 210.667969 C 348.847656 224.816406 332.03125 231.894531 311.320312 231.894531 C 297.167969 231.894531 284.601562 228.566406 273.617188 221.90625 C 262.65625 215.253906 254.09375 205.929688 247.929688 193.933594 C 241.785156 181.921875 238.71875 168.230469 238.71875 152.84375 C 238.71875 137.464844 241.785156 123.785156 247.929688 111.789062 C 254.09375 99.773438 262.65625 90.441406 273.617188 83.777344 C 284.601562 77.125 297.167969 73.792969 311.320312 73.792969 C 321.566406 73.792969 331 75.589844 339.625 79.171875 C 348.246094 82.765625 355.628906 87.933594 361.773438 94.6875 L 364.832031 76.851562 Z M 322.707031 191.316406 C 333.367188 191.316406 342.074219 187.78125 348.835938 180.703125 C 355.617188 173.628906 359.007812 164.339844 359.007812 152.84375 C 359.007812 141.371094 355.617188 132.09375 348.835938 125.019531 C 342.074219 117.941406 333.367188 114.40625 322.707031 114.40625 C 312.039062 114.40625 303.367188 117.996094 296.6875 125.164062 C 290.027344 132.34375 286.703125 141.566406 286.703125 152.84375 C 286.703125 164.121094 290.027344 173.359375 296.6875 180.558594 C 303.367188 187.734375 312.039062 191.316406 322.707031 191.316406 Z M 322.707031 191.316406 " fill-opacity="1" fill-rule="nonzero"/><path fill="#1d1d1b" d="M 529.4375 73.460938 C 536.414062 73.460938 543.386719 74.75 550.371094 77.328125 C 557.347656 79.890625 563.398438 83.621094 568.539062 88.53125 L 548.234375 123.914062 C 543.902344 121.257812 539.90625 119.324219 536.21875 118.089844 C 532.535156 116.863281 528.636719 116.246094 524.539062 116.246094 C 514.265625 116.246094 506.15625 119.527344 500.214844 126.085938 C 494.261719 132.648438 491.296875 142.285156 491.296875 154.980469 L 491.296875 228.835938 L 443.015625 228.835938 L 443.015625 76.851562 L 485.140625 76.851562 L 488.828125 95.941406 C 498.675781 80.960938 512.210938 73.460938 529.4375 73.460938 Z M 529.4375 73.460938 " fill-opacity="1" fill-rule="nonzero"/><path fill="#1d1d1b" d="M 609.136719 61.777344 C 600.734375 61.777344 593.914062 59.328125 588.683594 54.40625 C 583.449219 49.46875 580.832031 43.203125 580.832031 35.609375 C 580.832031 27.824219 583.496094 21.476562 588.828125 16.558594 C 594.15625 11.648438 600.925781 9.1875 609.136719 9.1875 C 617.335938 9.1875 624.109375 11.648438 629.441406 16.558594 C 634.765625 21.476562 637.4375 27.824219 637.4375 35.609375 C 637.4375 43.203125 634.824219 49.46875 629.589844 54.40625 C 624.355469 59.328125 617.539062 61.777344 609.136719 61.777344 Z M 584.847656 76.851562 L 633.128906 76.851562 L 633.128906 228.835938 L 584.847656 228.835938 Z M 584.847656 76.851562 " fill-opacity="1" fill-rule="nonzero"/><path fill="#1d1d1b" d="M 728.496094 232.851562 C 701.636719 232.851562 678.265625 226.089844 658.363281 212.546875 L 676.828125 179.304688 C 684.199219 183.828125 692.746094 187.320312 702.476562 189.769531 C 712.222656 192.230469 721.933594 193.457031 731.589844 193.457031 C 744.90625 193.457031 751.566406 189.871094 751.566406 182.695312 C 751.566406 179.007812 749.722656 176.246094 746.039062 174.402344 C 742.351562 172.542969 736.199219 171.296875 727.574219 170.679688 C 708.308594 169.648438 692.976562 164.839844 681.582031 156.234375 C 670.203125 147.609375 664.515625 136.332031 664.515625 122.402344 C 664.515625 107.21875 670.671875 95.167969 682.980469 86.25 C 695.289062 77.328125 711.894531 72.871094 732.808594 72.871094 C 744.691406 72.871094 756.023438 74.308594 766.785156 77.183594 C 777.566406 80.039062 786.851562 84.027344 794.648438 89.160156 L 775.890625 121.480469 C 764.390625 114.902344 750.753906 111.601562 734.980469 111.601562 C 719.375 111.601562 711.578125 115.308594 711.578125 122.695312 C 711.578125 125.773438 713.164062 128.132812 716.332031 129.773438 C 719.523438 131.421875 724.921875 132.648438 732.511719 133.457031 C 754.257812 135.105469 770.8125 140.035156 782.191406 148.234375 C 793.5625 156.445312 799.253906 167.933594 799.253906 182.695312 C 799.253906 198.273438 793 210.539062 780.496094 219.472656 C 767.984375 228.394531 750.652344 232.851562 728.496094 232.851562 Z M 728.496094 232.851562 " fill-opacity="1" fill-rule="nonzero"/><path fill="#1d1d1b" d="M 934.035156 222.976562 C 922.140625 228.917969 908.699219 231.894531 893.71875 231.894531 C 877.105469 231.894531 863.976562 227.242188 854.320312 217.925781 C 844.683594 208.59375 839.875 193.566406 839.875 172.855469 L 839.875 115.324219 L 814.039062 115.324219 L 814.039062 76.851562 L 839.875 76.851562 L 839.875 39 L 887.894531 33.769531 L 887.894531 76.851562 L 925.707031 76.851562 L 925.707031 115.324219 L 887.894531 115.324219 L 887.894531 172.855469 C 887.894531 179 889.425781 183.558594 892.5 186.527344 C 895.570312 189.503906 899.769531 190.988281 905.105469 190.988281 C 911.046875 190.988281 916.898438 189.550781 922.648438 186.675781 Z M 934.035156 222.976562 " fill-opacity="1" fill-rule="nonzero"/><path fill="#1d1d1b" d="M 1114.933594 76.851562 L 1114.933594 228.835938 L 1073.070312 228.835938 L 1070.011719 210.667969 C 1057.085938 224.816406 1040.269531 231.894531 1019.558594 231.894531 C 1005.40625 231.894531 992.839844 228.566406 981.855469 221.90625 C 970.894531 215.253906 962.332031 205.929688 956.167969 193.933594 C 950.023438 181.921875 946.957031 168.230469 946.957031 152.84375 C 946.957031 137.464844 950.023438 123.785156 956.167969 111.789062 C 962.332031 99.773438 970.894531 90.441406 981.855469 83.777344 C 992.839844 77.125 1005.40625 73.792969 1019.558594 73.792969 C 1029.804688 73.792969 1039.238281 75.589844 1047.863281 79.171875 C 1056.484375 82.765625 1063.867188 87.933594 1070.011719 94.6875 L 1073.070312 76.851562 Z M 1030.945312 191.316406 C 1041.605469 191.316406 1050.3125 187.78125 1057.074219 180.703125 C 1063.855469 173.628906 1067.246094 164.339844 1067.246094 152.84375 C 1067.246094 141.371094 1063.855469 132.09375 1057.074219 125.019531 C 1050.3125 117.941406 1041.605469 114.40625 1030.945312 114.40625 C 1020.277344 114.40625 1011.605469 117.996094 1004.925781 125.164062 C 998.265625 132.34375 994.941406 141.566406 994.941406 152.84375 C 994.941406 164.121094 998.265625 173.359375 1004.925781 180.558594 C 1011.605469 187.734375 1020.277344 191.316406 1030.945312 191.316406 Z M 1030.945312 191.316406 " fill-opacity="1" fill-rule="nonzero"/><g clip-path="url(#87653787b6)"><g clip-path="url(#481ab190e4)"><path fill="#1d1d1b" d="M 578.175781 4.476562 L 639.019531 4.476562 L 639.019531 66.511719 L 578.175781 66.511719 Z M 578.175781 4.476562 " fill-opacity="1" fill-rule="nonzero"/></g></g><g clip-path="url(#f53ccfb198)"><g clip-path="url(#8aa4b58ebc)"><path fill="#28509e" d="M 577.117188 4.09375 L 640 4.09375 L 640 66.976562 L 577.117188 66.976562 Z M 577.117188 4.09375 " fill-opacity="1" fill-rule="nonzero"/></g></g></svg>