<?xml version="1.0" encoding="utf-8"?>
<svg viewBox="-336.626 -592.911 1316.647 378.762" xmlns="http://www.w3.org/2000/svg">
  <path fill="#1d1d1b" d="M -120.849 -317.732 C -180.634 -317.732 -147.54 -325.661 -178.638 -325.661 C -235.274 -325.661 -271.985 -359.344 -271.985 -413.02 C -271.985 -471.954 -226.899 -501.446 -178.638 -501.446 C -166.399 -501.446 -149.263 -499.692 -138.095 -491.969 L -119.204 -516.536 L -82.852 -488.465 L -104.888 -462.149 C -92.653 -447.415 -86.356 -429.504 -87.067 -412.333 C -87.778 -387.77 -98.95 -364.602 -124.134 -351.622 C -85.673 -334.422 -73.325 -317.732 -120.849 -317.732 Z M -223.395 -413.02 C -223.395 -388.098 -204.177 -371.61 -178.638 -371.61 C -155.915 -371.61 -135.302 -385.305 -135.302 -413.02 C -135.302 -437.227 -153.477 -456.536 -178.638 -456.536 C -203.794 -456.536 -223.395 -441.09 -223.395 -413.02 Z M -223.395 -413.02" fill-opacity="1" fill-rule="nonzero"/>
  <path fill="#1d1d1b" d="M 70.253 -496.188 L 117.448 -496.188 L 117.448 -322.864 L 72.006 -322.864 L 69.213 -344.61 C 57.69 -326.371 32.858 -319.332 16.081 -319.004 C -35.658 -318.649 -73.052 -352.332 -73.052 -409.539 C -73.052 -466.75 -33.552 -500.762 17.475 -500.078 C 39.155 -500.078 59.413 -491.641 68.503 -476.223 L 70.253 -496.215 L 70.253 -496.188 Z M -22.74 -409.512 C -22.74 -380.731 -2.454 -363.887 22.702 -363.887 C 51.01 -363.887 68.503 -385.989 68.503 -407.762 C 68.503 -432.68 52.76 -455.492 22.702 -455.492 C -2.454 -455.492 -22.74 -438.293 -22.74 -409.512 Z M -22.74 -409.512" fill-opacity="1" fill-rule="nonzero"/>
  <path fill="#1d1d1b" d="M 194.014 -495.832 L 197.846 -476.879 C 209.37 -493.012 224.756 -500.051 243.999 -500.051 C 260.424 -500.051 274.057 -495.149 286.292 -484.246 L 265.323 -444.239 C 256.948 -450.207 248.186 -453 237.702 -453 C 216.022 -453 197.491 -438.981 197.491 -412.992 L 197.491 -322.809 L 147.147 -322.809 L 147.147 -495.832 L 194.014 -495.832 Z M 194.014 -495.832" fill-opacity="1" fill-rule="nonzero"/>
  <path fill="#1d1d1b" d="M 346.764 -542.141 C 346.764 -504.239 289.44 -504.239 289.44 -542.141 C 289.44 -580.043 346.764 -580.043 346.764 -542.141 Z M 292.944 -496.516 L 292.944 -322.836 L 343.288 -322.836 L 343.288 -496.516 L 292.944 -496.516 Z M 292.944 -496.516" fill-opacity="1" fill-rule="nonzero"/>
  <path fill="#1d1d1b" d="M 481.694 -447.059 C 468.745 -456.176 456.538 -459.684 440.796 -459.684 C 425.057 -459.684 415.967 -453.711 415.967 -445.305 C 415.967 -435.828 424.698 -430.571 441.479 -430.215 C 475.397 -429.176 516.296 -422.137 516.651 -374.434 C 517.006 -346.364 496.038 -316.184 441.151 -316.184 C 415.639 -316.184 389.413 -321.086 360.042 -345.649 L 381.721 -381.442 C 403.046 -363.887 423.659 -360.028 441.835 -359.699 C 456.51 -359.344 468.061 -365.313 467.706 -374.434 C 467.706 -382.512 461.764 -389.164 438.331 -389.879 C 406.167 -391.274 365.979 -404.61 365.979 -445.305 C 365.979 -486 403.046 -501.09 440.44 -501.09 C 467.022 -501.09 488.346 -494.434 506.522 -478.633 L 481.694 -447.059 Z M 481.694 -447.059" fill-opacity="1" fill-rule="nonzero"/>
  <path fill="#1d1d1b" d="M 602.307 -543.535 L 602.307 -495.121 L 645.995 -495.121 L 645.995 -453 L 601.952 -453 L 601.952 -387.742 C 601.952 -369.504 612.077 -364.574 621.522 -364.574 C 627.463 -364.574 636.909 -365.969 642.491 -368.789 L 654.018 -326.672 C 641.424 -321.77 631.296 -319.66 617.663 -318.949 C 580.268 -317.196 551.936 -333.684 551.936 -387.715 L 551.936 -452.973 L 521.167 -452.973 L 521.167 -495.094 L 551.936 -495.094 L 551.936 -537.895 L 602.28 -543.508 L 602.307 -543.535 Z M 602.307 -543.535" fill-opacity="1" fill-rule="nonzero"/>
  <path fill="#1d1d1b" d="M 800.881 -496.188 L 848.077 -496.188 L 848.077 -322.864 L 802.631 -322.864 L 799.842 -344.61 C 788.315 -326.371 763.487 -319.332 746.706 -319.004 C 694.967 -318.649 657.577 -352.332 657.577 -409.539 C 657.577 -466.75 697.077 -500.762 748.131 -500.078 C 769.811 -500.078 790.069 -491.641 799.155 -476.223 L 800.909 -496.215 L 800.881 -496.188 Z M 707.889 -409.512 C 707.889 -380.731 728.174 -363.887 753.331 -363.887 C 781.635 -363.887 799.128 -385.989 799.128 -407.762 C 799.128 -432.68 783.389 -455.492 753.331 -455.492 C 728.174 -455.492 707.889 -438.293 707.889 -409.512 Z M 707.889 -409.512" fill-opacity="1" fill-rule="nonzero"/>
  <path fill="#28509e" d="M 351.156 -544.958 C 351.156 -543.915 351.105 -542.876 350.999 -541.841 C 350.898 -540.802 350.745 -539.774 350.542 -538.755 C 350.339 -537.732 350.089 -536.724 349.785 -535.728 C 349.484 -534.732 349.132 -533.751 348.734 -532.79 C 348.335 -531.825 347.894 -530.888 347.402 -529.97 C 346.91 -529.052 346.374 -528.157 345.796 -527.294 C 345.218 -526.427 344.601 -525.591 343.941 -524.786 C 343.281 -523.982 342.581 -523.212 341.847 -522.474 C 341.109 -521.739 340.339 -521.04 339.535 -520.38 C 338.73 -519.72 337.894 -519.099 337.031 -518.521 C 336.163 -517.942 335.273 -517.407 334.355 -516.915 C 333.437 -516.427 332.495 -515.982 331.535 -515.583 C 330.574 -515.185 329.593 -514.833 328.597 -514.532 C 327.601 -514.228 326.593 -513.978 325.574 -513.774 C 324.55 -513.571 323.523 -513.415 322.488 -513.314 C 321.452 -513.212 320.413 -513.161 319.37 -513.161 C 318.331 -513.161 317.292 -513.212 316.257 -513.314 C 315.222 -513.415 314.195 -513.571 313.171 -513.774 C 312.152 -513.978 311.144 -514.228 310.148 -514.532 C 309.152 -514.833 308.171 -515.185 307.21 -515.583 C 306.249 -515.982 305.308 -516.427 304.39 -516.915 C 303.472 -517.407 302.581 -517.942 301.714 -518.521 C 300.851 -519.099 300.015 -519.72 299.21 -520.38 C 299.21 -520.38 297.636 -521.739 296.898 -522.474 C 296.163 -523.212 295.464 -523.982 294.804 -524.786 C 294.144 -525.591 293.527 -526.427 292.945 -527.294 C 292.367 -528.157 291.835 -529.052 291.343 -529.97 C 290.851 -530.888 290.41 -531.825 290.011 -532.79 C 289.613 -533.751 289.261 -534.732 288.96 -535.728 C 288.656 -536.724 288.406 -537.732 288.202 -538.755 C 287.999 -539.774 287.847 -540.802 287.742 -541.841 C 287.64 -542.876 287.589 -543.915 287.589 -544.958 C 287.589 -545.997 287.64 -547.036 287.742 -548.071 C 287.847 -549.11 287.999 -550.138 288.202 -551.157 C 288.406 -552.181 288.656 -553.189 288.96 -554.185 C 289.261 -555.181 289.613 -556.161 290.011 -557.122 C 290.41 -558.087 290.851 -559.024 291.343 -559.942 C 291.835 -560.864 292.367 -561.755 292.945 -562.622 C 293.527 -563.485 294.144 -564.321 294.804 -565.126 C 295.464 -565.931 296.163 -566.7 296.898 -567.439 C 297.636 -568.173 298.406 -568.872 299.21 -569.532 C 300.015 -570.192 300.851 -570.814 301.714 -571.392 C 302.581 -571.97 303.472 -572.505 304.39 -572.997 C 305.308 -573.485 306.249 -573.931 307.21 -574.329 C 308.171 -574.728 309.152 -575.079 310.148 -575.38 C 311.144 -575.685 312.152 -575.939 313.171 -576.142 C 314.195 -576.345 315.222 -576.497 316.257 -576.599 C 317.292 -576.7 318.331 -576.751 319.37 -576.751 C 320.413 -576.751 321.452 -576.7 322.488 -576.599 C 323.523 -576.497 324.55 -576.345 325.574 -576.142 C 326.593 -575.939 327.601 -575.685 328.597 -575.38 C 329.593 -575.079 330.574 -574.728 331.535 -574.329 C 332.495 -573.931 333.437 -573.485 334.355 -572.997 C 335.273 -572.505 336.163 -571.97 337.031 -571.392 C 337.894 -570.814 338.73 -570.192 339.535 -569.532 C 340.339 -568.872 341.109 -568.173 341.847 -567.439 C 342.581 -566.7 343.281 -565.931 343.941 -565.126 C 344.601 -564.321 345.218 -563.485 345.796 -562.622 C 346.374 -561.755 346.91 -560.864 347.402 -559.942 C 347.894 -559.024 348.335 -558.087 348.734 -557.122 C 349.132 -556.161 349.484 -555.181 349.785 -554.185 C 350.089 -553.189 350.339 -552.181 350.542 -551.157 C 350.745 -550.138 350.898 -549.11 350.999 -548.071 C 351.105 -547.036 351.156 -545.997 351.156 -544.958 Z M 351.156 -544.958" fill-opacity="1" fill-rule="nonzero" style=""/>
</svg>