<svg xmlns="http://www.w3.org/2000/svg" xmlns:xlink="http://www.w3.org/1999/xlink" width="1500" zoomAndPan="magnify" viewBox="0 0 1125 367.499994" height="490" preserveAspectRatio="xMidYMid meet" version="1.0"><defs><clipPath id="2ffd611245"><path d="M 2 63 L 192 63 L 192 360.328125 L 2 360.328125 Z M 2 63 " clipRule="nonzero"/></clipPath><clipPath id="e93e22cbe6"><path d="M 560 6.808594 L 624 6.808594 L 624 71 L 560 71 Z M 560 6.808594 " clipRule="nonzero"/></clipPath></defs><g clipPath="url(#2ffd611245)"><path fill="#1d1d1b" d="M 51.773438 280.664062 C 53.523438 307.335938 72.058594 315.746094 95.105469 315.746094 C 118.15625 315.746094 137.753906 305.226562 137.753906 283.8125 C 137.753906 266.972656 126.914062 253.988281 95.816406 253.988281 C 39.179688 253.988281 2.46875 220.304688 2.46875 166.628906 C 2.46875 107.695312 47.554688 78.203125 95.816406 78.203125 C 108.054688 78.203125 125.191406 79.957031 136.359375 87.679688 L 155.25 63.113281 L 191.601562 91.183594 L 169.566406 117.5 C 181.800781 132.234375 188.097656 150.144531 187.386719 167.316406 C 186.675781 191.878906 175.503906 215.046875 150.320312 228.027344 C 188.78125 245.226562 188.78125 273.652344 188.78125 283.8125 C 188.78125 335.378906 142.628906 360.300781 95.105469 360.300781 C 35.320312 360.300781 4.222656 330.476562 4.90625 280.664062 Z M 51.058594 166.628906 C 51.058594 191.550781 70.277344 208.039062 95.816406 208.039062 C 118.539062 208.039062 139.152344 194.34375 139.152344 166.628906 C 139.152344 142.421875 120.976562 123.113281 95.816406 123.113281 C 70.660156 123.113281 51.058594 138.558594 51.058594 166.628906 Z M 51.058594 166.628906 " fillOpacity="1" fillRule="nonzero"/></g><path fill="#1d1d1b" d="M 344.707031 83.460938 L 391.902344 83.460938 L 391.902344 256.785156 L 346.460938 256.785156 L 343.667969 235.039062 C 332.144531 253.277344 307.3125 260.316406 290.535156 260.644531 C 238.796875 261 201.402344 227.316406 201.402344 170.109375 C 201.402344 112.898438 240.902344 78.886719 291.929688 79.570312 C 313.609375 79.570312 333.867188 88.007812 342.957031 103.425781 L 344.707031 83.433594 Z M 251.714844 170.136719 C 251.714844 198.917969 272 215.761719 297.15625 215.761719 C 325.464844 215.761719 342.957031 193.660156 342.957031 171.886719 C 342.957031 146.96875 327.214844 124.15625 297.15625 124.15625 C 272 124.15625 251.714844 141.355469 251.714844 170.136719 Z M 251.714844 170.136719 " fillOpacity="1" fillRule="nonzero"/><path fill="#1d1d1b" d="M 468.46875 83.816406 L 472.300781 102.769531 C 483.824219 86.636719 499.210938 79.597656 518.453125 79.597656 C 534.878906 79.597656 548.511719 84.5 560.746094 95.402344 L 539.777344 135.410156 C 531.402344 129.441406 522.640625 126.648438 512.15625 126.648438 C 490.476562 126.648438 471.945312 140.667969 471.945312 166.65625 L 471.945312 256.839844 L 421.601562 256.839844 L 421.601562 83.816406 Z M 468.46875 83.816406 " fillOpacity="1" fillRule="nonzero"/><path fill="#1d1d1b" d="M 621.21875 37.507812 C 621.21875 75.410156 563.894531 75.410156 563.894531 37.507812 C 563.894531 -0.394531 621.21875 -0.394531 621.21875 37.507812 Z M 567.398438 83.132812 L 567.398438 256.8125 L 617.742188 256.8125 L 617.742188 83.132812 Z M 567.398438 83.132812 " fillOpacity="1" fillRule="nonzero"/><path fill="#1d1d1b" d="M 756.148438 132.589844 C 743.199219 123.472656 730.992188 119.964844 715.25 119.964844 C 699.511719 119.964844 690.421875 125.9375 690.421875 134.34375 C 690.421875 143.820312 699.152344 149.078125 715.933594 149.433594 C 749.851562 150.472656 790.75 157.511719 791.105469 205.214844 C 791.460938 233.285156 770.492188 263.464844 715.605469 263.464844 C 690.09375 263.464844 663.867188 258.5625 634.496094 234 L 656.175781 198.207031 C 677.5 215.761719 698.113281 219.621094 716.289062 219.949219 C 730.964844 220.304688 742.515625 214.335938 742.160156 205.214844 C 742.160156 197.136719 736.21875 190.484375 712.785156 189.769531 C 680.621094 188.375 640.433594 175.039062 640.433594 134.34375 C 640.433594 93.648438 677.5 78.558594 714.894531 78.558594 C 741.476562 78.558594 762.800781 85.214844 780.976562 101.015625 Z M 756.148438 132.589844 " fillOpacity="1" fillRule="nonzero"/><path fill="#1d1d1b" d="M 876.761719 36.113281 L 876.761719 84.527344 L 920.449219 84.527344 L 920.449219 126.648438 L 876.40625 126.648438 L 876.40625 191.90625 C 876.40625 210.144531 886.53125 215.074219 895.976562 215.074219 C 901.917969 215.074219 911.363281 213.679688 916.945312 210.859375 L 928.472656 252.976562 C 915.878906 257.878906 905.75 259.988281 892.117188 260.699219 C 854.722656 262.453125 826.390625 245.964844 826.390625 191.933594 L 826.390625 126.675781 L 795.621094 126.675781 L 795.621094 84.554688 L 826.390625 84.554688 L 826.390625 41.753906 L 876.734375 36.140625 Z M 876.761719 36.113281 " fillOpacity="1" fillRule="nonzero"/><path fill="#1d1d1b" d="M 1075.335938 83.460938 L 1122.53125 83.460938 L 1122.53125 256.785156 L 1077.085938 256.785156 L 1074.296875 235.039062 C 1062.769531 253.277344 1037.941406 260.316406 1021.160156 260.644531 C 969.421875 261 932.03125 227.316406 932.03125 170.109375 C 932.03125 112.898438 971.53125 78.886719 1022.585938 79.570312 C 1044.265625 79.570312 1064.523438 88.007812 1073.609375 103.425781 L 1075.363281 83.433594 Z M 982.34375 170.136719 C 982.34375 198.917969 1002.628906 215.761719 1027.785156 215.761719 C 1056.089844 215.761719 1073.582031 193.660156 1073.582031 171.886719 C 1073.582031 146.96875 1057.84375 124.15625 1027.785156 124.15625 C 1002.628906 124.15625 982.34375 141.355469 982.34375 170.136719 Z M 982.34375 170.136719 " fillOpacity="1" fillRule="nonzero"/><g clipPath="url(#e93e22cbe6)"><path fill="#28509e" d="M 623.628906 38.601562 C 623.628906 39.644531 623.578125 40.683594 623.472656 41.71875 C 623.371094 42.757812 623.21875 43.785156 623.015625 44.804688 C 622.8125 45.828125 622.5625 46.835938 622.257812 47.832031 C 621.957031 48.828125 621.605469 49.808594 621.207031 50.769531 C 620.808594 51.734375 620.367188 52.671875 619.875 53.589844 C 619.382812 54.507812 618.847656 55.402344 618.269531 56.265625 C 617.691406 57.132812 617.074219 57.96875 616.414062 58.773438 C 615.753906 59.578125 615.054688 60.347656 614.320312 61.085938 C 613.582031 61.820312 612.8125 62.519531 612.007812 63.179688 C 611.203125 63.839844 610.367188 64.460938 609.503906 65.039062 C 608.636719 65.617188 607.746094 66.152344 606.828125 66.644531 C 605.910156 67.132812 604.96875 67.578125 604.007812 67.976562 C 603.046875 68.375 602.066406 68.726562 601.070312 69.027344 C 600.074219 69.332031 599.066406 69.582031 598.046875 69.785156 C 597.023438 69.988281 595.996094 70.144531 594.960938 70.246094 C 593.925781 70.347656 592.886719 70.398438 591.84375 70.398438 C 590.804688 70.398438 589.765625 70.347656 588.730469 70.246094 C 587.695312 70.144531 586.667969 69.988281 585.644531 69.785156 C 584.625 69.582031 583.617188 69.332031 582.621094 69.027344 C 581.625 68.726562 580.644531 68.375 579.683594 67.976562 C 578.722656 67.578125 577.78125 67.132812 576.863281 66.644531 C 575.945312 66.152344 575.054688 65.617188 574.1875 65.039062 C 573.324219 64.460938 572.488281 63.839844 571.683594 63.179688 C 570.878906 62.519531 570.109375 61.820312 569.371094 61.085938 C 568.636719 60.347656 567.9375 59.578125 567.277344 58.773438 C 566.617188 57.96875 566 57.132812 565.417969 56.265625 C 564.839844 55.402344 564.308594 54.507812 563.816406 53.589844 C 563.324219 52.671875 562.882812 51.734375 562.484375 50.769531 C 562.085938 49.808594 561.734375 48.828125 561.433594 47.832031 C 561.128906 46.835938 560.878906 45.828125 560.675781 44.804688 C 560.472656 43.785156 560.320312 42.757812 560.214844 41.71875 C 560.113281 40.683594 560.0625 39.644531 560.0625 38.601562 C 560.0625 37.5625 560.113281 36.523438 560.214844 35.488281 C 560.320312 34.449219 560.472656 33.421875 560.675781 32.402344 C 560.878906 31.378906 561.128906 30.371094 561.433594 29.375 C 561.734375 28.378906 562.085938 27.398438 562.484375 26.4375 C 562.882812 25.472656 563.324219 24.535156 563.816406 23.617188 C 564.308594 22.695312 564.839844 21.804688 565.417969 20.9375 C 566 20.074219 566.617188 19.238281 567.277344 18.433594 C 567.9375 17.628906 568.636719 16.859375 569.371094 16.121094 C 570.109375 15.386719 570.878906 14.6875 571.683594 14.027344 C 572.488281 13.367188 573.324219 12.746094 574.1875 12.167969 C 575.054688 11.589844 575.945312 11.054688 576.863281 10.5625 C 577.78125 10.074219 578.722656 9.628906 579.683594 9.230469 C 580.644531 8.832031 581.625 8.480469 582.621094 8.179688 C 583.617188 7.875 584.625 7.621094 585.644531 7.417969 C 586.667969 7.214844 587.695312 7.0625 588.730469 6.960938 C 589.765625 6.859375 590.804688 6.808594 591.84375 6.808594 C 592.886719 6.808594 593.925781 6.859375 594.960938 6.960938 C 595.996094 7.0625 597.023438 7.214844 598.046875 7.417969 C 599.066406 7.621094 600.074219 7.875 601.070312 8.179688 C 602.066406 8.480469 603.046875 8.832031 604.007812 9.230469 C 604.96875 9.628906 605.910156 10.074219 606.828125 10.5625 C 607.746094 11.054688 608.636719 11.589844 609.503906 12.167969 C 610.367188 12.746094 611.203125 13.367188 612.007812 14.027344 C 612.8125 14.6875 613.582031 15.386719 614.320312 16.121094 C 615.054688 16.859375 615.753906 17.628906 616.414062 18.433594 C 617.074219 19.238281 617.691406 20.074219 618.269531 20.9375 C 618.847656 21.804688 619.382812 22.695312 619.875 23.617188 C 620.367188 24.535156 620.808594 25.472656 621.207031 26.4375 C 621.605469 27.398438 621.957031 28.378906 622.257812 29.375 C 622.5625 30.371094 622.8125 31.378906 623.015625 32.402344 C 623.21875 33.421875 623.371094 34.449219 623.472656 35.488281 C 623.578125 36.523438 623.628906 37.5625 623.628906 38.601562 Z M 623.628906 38.601562 " fillOpacity="1" fillRule="nonzero"/></g></svg>