<svg width="32" height="32" viewBox="0 0 32 32" fill="none" xmlns="http://www.w3.org/2000/svg">
<g id="check-circle-1">
<path id="Shape" d="M15.643 0.300293C7.0748 0.300293 0.128906 7.24618 0.128906 15.8144C0.128906 24.3826 7.0748 31.3285 15.643 31.3285C24.2112 31.3285 31.1571 24.3826 31.1571 15.8144C31.1471 7.25032 24.207 0.310267 15.643 0.300293Z" fill="#5243C2" fill-opacity="0.103693"/>
<path id="Path" d="M24.5986 10.9017L15.7491 22.9109C15.5381 23.1909 15.2233 23.3744 14.8757 23.4201C14.528 23.4658 14.1766 23.3699 13.9003 23.154L7.58094 18.1016C7.0233 17.6553 6.933 16.8415 7.37926 16.2838C7.82552 15.7262 8.63935 15.6359 9.197 16.0821L14.4666 20.2981L22.5171 9.3723C22.7811 8.97616 23.2414 8.75715 23.7153 8.80221C24.1893 8.84727 24.6001 9.14912 24.7846 9.58791C24.9692 10.0267 24.8978 10.5314 24.5986 10.9017Z" fill="#5243C2"/>
</g>
</svg>
