<svg width="32" height="32" viewBox="0 0 32 32" fill="none" xmlns="http://www.w3.org/2000/svg">
<path opacity="0.1" d="M15.5219 0.244141C6.9537 0.244141 0.0078125 7.19003 0.0078125 15.7582C0.0078125 24.3264 6.9537 31.2723 15.5219 31.2723C24.0901 31.2723 31.036 24.3264 31.036 15.7582C31.026 7.19417 24.086 0.254115 15.5219 0.244141Z" fill="white"/>
<path d="M24.4775 10.8456L15.628 22.8548C15.417 23.1348 15.1023 23.3183 14.7546 23.364C14.4069 23.4097 14.0555 23.3138 13.7793 23.0978L7.45985 18.0454C6.9022 17.5991 6.81191 16.7853 7.25817 16.2277C7.70443 15.67 8.51825 15.5797 9.0759 16.026L14.3455 20.2419L22.396 9.31615C22.66 8.92001 23.1203 8.70099 23.5943 8.74606C24.0682 8.79112 24.479 9.09297 24.6636 9.53176C24.8482 9.97055 24.7767 10.4753 24.4775 10.8456Z" fill="white"/>
</svg>
