<svg width="32" height="32" viewBox="0 0 32 32" fill="none" xmlns="http://www.w3.org/2000/svg">
<path d="M15.6449 0.748047C7.07675 0.748047 0.130859 7.69394 0.130859 16.2621C0.130859 24.8303 7.07675 31.7762 15.6449 31.7762C24.2131 31.7762 31.159 24.8303 31.159 16.2621C31.1491 7.69807 24.209 0.758021 15.6449 0.748047Z" fill="#5243C2" fill-opacity="0.103693"/>
<path d="M24.6006 11.3495L15.7511 23.3587C15.54 23.6387 15.2253 23.8222 14.8776 23.8679C14.53 23.9136 14.1786 23.8177 13.9023 23.6017L7.5829 18.5493C7.02525 18.1031 6.93495 17.2892 7.38121 16.7316C7.82747 16.1739 8.6413 16.0836 9.19895 16.5299L14.4686 20.7458L22.5191 9.82006C22.7831 9.42392 23.2434 9.2049 23.7173 9.24996C24.1912 9.29502 24.602 9.59687 24.7866 10.0357C24.9712 10.4745 24.8997 10.9792 24.6006 11.3495Z" fill="#5243C2"/>
</svg>
