<svg width="32" height="32" viewBox="0 0 32 32" fill="none" xmlns="http://www.w3.org/2000/svg">
<path opacity="0.1" d="M15.5141 0.691406C6.94589 0.691406 0 7.6373 0 16.2055C0 24.7737 6.94589 31.7196 15.5141 31.7196C24.0823 31.7196 31.0282 24.7737 31.0282 16.2055C31.0182 7.64143 24.0781 0.70138 15.5141 0.691406Z" fill="white"/>
<path d="M24.4697 11.2928L15.6202 23.302C15.4092 23.5821 15.0944 23.7655 14.7468 23.8112C14.3991 23.8569 14.0477 23.761 13.7714 23.5451L7.45204 18.4927C6.89439 18.0464 6.8041 17.2326 7.25036 16.6749C7.69662 16.1173 8.51044 16.027 9.06809 16.4733L14.3377 20.6892L22.3882 9.76342C22.6522 9.36728 23.1125 9.14826 23.5864 9.19332C24.0603 9.23838 24.4711 9.54023 24.6557 9.97903C24.8403 10.4178 24.7689 10.9226 24.4697 11.2928Z" fill="white"/>
</svg>
