<svg width="18" height="18" viewBox="0 0 18 18" fill="none" xmlns="http://www.w3.org/2000/svg">
<g clip-path="url(#clip0_466_4082)">
<path d="M8.00781 5.43845C8.00781 6.57543 10.3528 7.21498 12.6268 7.21498C14.9007 7.21498 17.2458 6.57543 17.2458 5.43845C17.2458 3.09343 8.00781 3.09343 8.00781 5.43845Z" fill="white"/>
<path d="M16.7464 7.1443C15.4673 7.71279 14.0461 7.99704 12.6248 7.92598C11.2036 7.99704 9.78239 7.71279 8.50329 7.1443C8.36117 7.07324 8.14798 7.1443 8.00586 7.28643C8.00586 7.35749 7.9348 7.35749 7.9348 7.42855V7.49961C7.9348 8.63659 10.2798 9.27614 12.5538 9.27614C14.8277 9.27614 17.1728 8.63659 17.1728 7.49961V7.42855C17.1728 7.21536 17.0306 7.07324 16.8174 7.07324L16.7464 7.1443ZM3.74219 12.545C3.74219 13.6819 6.08721 14.3215 8.36117 14.3215C10.6351 14.3215 12.9801 13.6819 12.9801 12.545C12.9801 10.1999 3.74219 10.1999 3.74219 12.545Z" fill="white"/>
<path d="M12.4837 14.2507C11.2046 14.8192 9.78337 15.1034 8.36214 15.0324C6.94092 15.1034 5.51969 14.8192 4.24059 14.2507C4.09847 14.1796 3.88529 14.2507 3.74316 14.3928V14.606C3.74316 15.743 6.08818 16.3825 8.36214 16.3825C10.6361 16.3825 12.9811 15.743 12.9811 14.606V14.5349C12.9811 14.3218 12.839 14.1796 12.6258 14.1796C12.5548 14.2507 12.4837 14.2507 12.4837 14.2507ZM6.23031 4.37318C6.72774 4.37318 7.1541 4.37318 7.65153 4.30212C7.72259 4.30212 7.79365 4.23106 7.86471 4.23106C8.64639 3.59151 9.57018 3.23621 10.494 3.09408C10.6361 3.09408 10.7072 2.95196 10.7782 2.8809C10.8493 2.73878 10.8493 2.66772 10.8493 2.59666C10.8493 0.251636 1.61133 0.251636 1.61133 2.59666C1.61133 3.73363 3.95635 4.37318 6.23031 4.37318ZM6.23031 6.50502H7.08304C7.29622 6.50502 7.43835 6.29184 7.43835 6.14971V6.07865C7.29622 5.79441 7.29622 5.65229 7.29622 5.36804C7.29622 5.29698 7.22516 5.15486 7.1541 5.0838C7.08304 5.0838 7.01198 5.01274 6.94092 5.01274H6.23031C4.80908 5.0838 3.38786 4.79955 2.10876 4.23106C1.89557 4.16 1.75345 4.30212 1.61133 4.44425V4.72849C1.61133 5.86547 3.95635 6.50502 6.23031 6.50502ZM6.23031 8.63686H7.08304C7.29622 8.63686 7.43835 8.42367 7.43835 8.28155V8.21049C7.29622 7.92624 7.29622 7.78412 7.29622 7.49988C7.29622 7.42882 7.22516 7.28669 7.1541 7.21563H6.23031C4.80908 7.28669 3.38786 7.00245 2.10876 6.43396C1.96663 6.3629 1.75345 6.43396 1.61133 6.57608V6.78927C1.61133 7.99731 3.95635 8.63686 6.23031 8.63686ZM16.7474 11.4082C15.8946 11.8346 14.9708 12.0478 14.047 12.1189C13.8339 12.1899 13.6917 12.332 13.6917 12.5452C13.6917 12.7584 13.6917 12.9005 13.6207 13.0427C13.5496 13.2558 13.6917 13.398 13.8339 13.469H13.976C16.0368 13.2558 17.2448 12.6163 17.2448 11.7635V11.6925C17.2448 11.4793 17.1027 11.3372 16.8895 11.3372C16.8184 11.3372 16.7474 11.4082 16.7474 11.4082ZM8.36214 10.0581H8.57533C8.78851 10.0581 8.93063 9.98702 9.00169 9.77384C9.07275 9.56065 8.93063 9.34747 8.71745 9.34747H8.64639L8.50426 9.27641C8.36214 9.20535 8.14896 9.27641 8.00684 9.41853C8.00684 9.48959 7.93578 9.48959 7.93578 9.56065V9.63171C7.93578 9.91596 8.14896 10.0581 8.36214 10.0581ZM16.7474 9.27641C15.4683 9.8449 14.047 10.1291 12.6258 10.0581H12.4126C12.2705 10.0581 12.1284 10.2002 12.0573 10.3423C12.0573 10.4844 12.1284 10.6976 12.2705 10.7687C12.6258 10.9108 12.9101 11.124 13.1943 11.4082C13.2654 11.4793 13.3364 11.4793 13.4785 11.4793C15.2551 11.3372 17.2448 10.8398 17.2448 9.70278V9.63171C17.2448 9.41853 17.1027 9.27641 16.8895 9.27641H16.7474ZM4.5959 10.6266H4.73802C5.44863 10.3423 6.23031 10.2002 7.01198 10.1291C7.1541 10.0581 7.29622 9.91596 7.29622 9.70278C7.29622 9.48959 7.1541 9.34747 6.94092 9.34747H6.23031C4.80908 9.41853 3.38786 9.13428 2.10876 8.5658C1.96663 8.49473 1.75345 8.5658 1.61133 8.70792V8.9211C1.61133 9.77384 2.67725 10.3423 4.5959 10.6266Z" fill="white"/>
</g>
<defs>
<clipPath id="clip0_466_4082">
<rect width="17.0547" height="17.0547" fill="white" transform="translate(0.900391 0.109375)"/>
</clipPath>
</defs>
</svg>
