<svg width="20" height="18" viewBox="0 0 20 18" fill="none" xmlns="http://www.w3.org/2000/svg">
<path d="M10.1626 0.75C8.46434 0.75 6.80425 1.23385 5.39223 2.14038C3.9802 3.0469 2.87966 4.33537 2.22978 5.84286C1.57989 7.35035 1.40985 9.00915 1.74116 10.6095C2.07247 12.2098 2.89024 13.6798 4.09107 14.8336C5.2919 15.9874 6.82185 16.7731 8.48745 17.0915C10.153 17.4098 11.8795 17.2464 13.4484 16.622C15.0174 15.9976 16.3584 14.9402 17.3019 13.5835C18.2454 12.2267 18.749 10.6317 18.749 9C18.749 6.81196 17.8443 4.71354 16.2341 3.16637C14.6238 1.61919 12.4398 0.75 10.1626 0.75ZM13.0562 11.7802C12.9098 11.9209 12.7113 11.9998 12.5043 11.9998C12.2973 11.9998 12.0988 11.9209 11.9524 11.7802L9.6107 9.53025C9.4643 9.38963 9.38203 9.1989 9.38199 9V4.5C9.38199 4.30109 9.46423 4.11032 9.61062 3.96967C9.757 3.82902 9.95555 3.75 10.1626 3.75C10.3696 3.75 10.5681 3.82902 10.7145 3.96967C10.8609 4.11032 10.9432 4.30109 10.9432 4.5V8.6895L13.0562 10.7197C13.2025 10.8604 13.2847 11.0511 13.2847 11.25C13.2847 11.4489 13.2025 11.6396 13.0562 11.7802Z" fill="white"/>
</svg>
