<svg width="444" height="49" viewBox="0 0 444 49" fill="none" xmlns="http://www.w3.org/2000/svg">
<path d="M361.044 35.9704C360.518 35.993 359.986 36.0085 359.471 36.0423C359.136 36.0634 358.992 36.0014 358.769 35.969C358.694 35.9578 358.615 35.9352 358.545 35.938C358.024 35.9606 357.503 35.9859 356.982 36.0113C356.823 36.0663 356.722 36.1395 356.477 36.1663C356.238 36.1917 355.956 36.1917 355.691 36.2044C355.34 36.2199 354.989 36.2354 354.638 36.2495C354.463 36.2565 354.319 36.2833 354.261 36.334C354.25 36.3425 354.367 36.3636 354.431 36.3763C354.643 36.4186 354.851 36.4665 355.085 36.4989C355.308 36.5299 355.584 36.4792 355.824 36.5187C356.361 36.6074 356.366 36.606 356.775 36.5891C357.126 36.5736 357.477 36.5567 357.828 36.5454C357.897 36.5426 357.977 36.5638 358.051 36.575C358.274 36.606 358.418 36.6765 358.748 36.6497C358.997 36.6286 359.274 36.6244 359.534 36.6131C359.752 36.654 359.954 36.7005 360.188 36.7329C360.406 36.7639 360.47 36.7878 360.353 36.8287C360.247 36.8668 360.098 36.8823 359.901 36.8851C359.726 36.8865 359.55 36.8992 359.375 36.9062C359.284 36.9104 359.199 36.9133 359.114 36.9175C358.779 36.933 358.779 36.933 358.168 36.8428C357.929 36.8076 357.658 36.8569 357.429 36.8231C357.275 36.8005 357.142 36.7667 356.993 36.7427C356.929 36.7329 356.828 36.7315 356.749 36.7343C356.483 36.7441 356.217 36.7512 355.962 36.7695C355.781 36.7822 355.675 36.8217 355.696 36.8611C355.701 36.8766 355.829 36.8992 355.903 36.9006C356.073 36.9034 356.254 36.8837 356.419 36.8935C356.578 36.9034 356.743 36.9316 356.86 36.9626C357.099 37.0274 357.371 36.9696 357.599 36.9866C357.838 37.0049 358.035 37.0613 358.264 37.0951C358.322 37.1035 358.434 37.0894 358.524 37.0852C358.785 37.0753 359.045 37.0669 359.306 37.057C359.524 37.0979 359.758 37.1345 359.954 37.181C360.311 37.2656 360.693 37.298 361.156 37.2571C361.416 37.2346 361.671 37.2431 361.879 37.298C362.091 37.3544 362.336 37.3488 362.607 37.3375C362.857 37.3262 363.112 37.2952 363.367 37.3347C363.92 37.422 363.926 37.4263 364.58 37.3924C364.776 37.3826 364.925 37.3798 365.074 37.4122C365.212 37.4418 365.361 37.4671 365.505 37.4953C365.765 37.4855 366.031 37.4756 366.291 37.4643C366.626 37.4488 366.812 37.4685 366.892 37.5475C366.94 37.5954 366.961 37.6391 367.078 37.6715C367.216 37.711 367.365 37.7095 367.567 37.6983C367.759 37.6884 367.897 37.6729 367.977 37.6222C368.009 37.601 368.072 37.5813 368.131 37.5644C368.179 37.5517 368.253 37.532 368.296 37.5348C368.375 37.5404 368.482 37.5559 368.508 37.5742C368.769 37.7448 368.769 37.7462 369.035 37.7955C369.327 37.8505 369.63 37.8998 369.896 37.9618C370.135 38.0168 370.374 37.9928 370.635 37.9928C370.832 37.9928 370.959 38.0295 370.943 38.0661C370.933 38.0873 370.858 38.1182 370.794 38.1211C370.273 38.1492 369.747 38.1732 369.221 38.1929C369.157 38.1958 369.077 38.1704 369.003 38.1577C368.854 38.1323 368.721 38.0929 368.562 38.0844C368.402 38.076 368.216 38.0971 368.041 38.1041C367.865 38.1112 367.679 38.1295 367.52 38.1183C367.36 38.107 367.232 38.0661 367.084 38.0393C367.014 38.0266 366.919 38.0083 366.86 38.0126C366.472 38.0464 366.185 37.9999 365.909 37.9379C365.85 37.9252 365.749 37.9167 365.675 37.9195C365.058 37.9435 364.447 37.9717 363.83 37.9984C363.58 38.0097 363.378 37.9604 363.325 37.8772C363.298 37.8307 363.245 37.7842 363.245 37.7377C363.245 37.6532 362.953 37.6067 362.74 37.6165C362.389 37.6306 362.033 37.6419 361.688 37.663C361.406 37.6799 361.166 37.663 360.975 37.6123C360.752 37.5545 360.497 37.5658 360.241 37.5813C360.05 37.5926 359.997 37.6391 360.007 37.756C360.018 37.8505 359.928 37.8801 359.582 37.8956C359.146 37.9153 358.705 37.935 358.264 37.9505C358.195 37.9534 358.115 37.9294 358.046 37.9167C357.897 37.8913 357.764 37.8505 357.604 37.842C357.445 37.8322 357.259 37.8533 357.083 37.8617C356.908 37.8688 356.722 37.8885 356.562 37.8787C356.403 37.8688 356.27 37.8265 356.126 37.7997C356.057 37.7871 355.972 37.7687 355.903 37.7715C355.552 37.7828 355.202 37.7997 354.851 37.8152C354.457 37.8322 354.457 37.8322 353.899 37.7448C353.644 37.7053 353.389 37.7363 353.139 37.7476C352.873 37.7589 352.623 37.7645 352.416 37.7081C352.277 37.6715 352.123 37.6489 351.959 37.656C351.517 37.6729 351.081 37.694 350.64 37.711C350.566 37.7138 350.465 37.7067 350.406 37.694C350.124 37.6349 349.848 37.5883 349.455 37.6179C349.114 37.6433 348.748 37.6447 348.407 37.6687C348.221 37.6814 348.136 37.7265 348.173 37.7617C348.195 37.78 348.306 37.8012 348.381 37.8012C348.551 37.8026 348.737 37.7814 348.896 37.7899C349.226 37.8068 349.391 37.9252 349.821 37.8927C350.077 37.873 350.342 37.866 350.608 37.8603C350.677 37.8589 350.752 37.8857 350.826 37.8998C351.039 37.9379 351.225 37.9872 351.533 37.9618C351.788 37.9421 352.06 37.9365 352.32 37.9252C352.735 37.9069 352.735 37.9083 353.272 37.9942C353.527 38.0351 353.782 38.0027 354.032 37.9928C354.218 37.9858 354.393 37.9717 354.542 37.9914C354.771 38.021 354.936 38.0886 355.217 38.0844C355.483 38.0802 355.744 38.0605 356.01 38.0534C356.174 38.0492 356.329 38.0717 356.461 38.1098C356.6 38.1478 356.749 38.1648 356.929 38.1563C357.19 38.145 357.456 38.1309 357.721 38.1239C357.796 38.1225 357.881 38.1352 357.95 38.1464C358.099 38.1718 358.242 38.2014 358.386 38.2282C358.646 38.2197 358.912 38.2169 359.168 38.2C359.364 38.1873 359.502 38.1929 359.662 38.2211C359.864 38.2592 360.029 38.3268 360.358 38.2944C360.523 38.2789 360.715 38.2831 360.879 38.269C361.081 38.2507 361.22 38.2578 361.363 38.3C361.634 38.3804 361.975 38.3818 362.325 38.3508C362.708 38.317 362.995 38.3564 363.282 38.4184C363.585 38.4833 363.585 38.4819 363.819 38.6383C363.888 38.6834 364.085 38.7045 364.25 38.6961C364.526 38.682 364.766 38.689 364.968 38.7426C365.18 38.8004 365.435 38.7933 365.696 38.7778C366.042 38.7567 366.387 38.7384 366.669 38.8201C366.807 38.8596 366.956 38.8694 367.142 38.8596C367.668 38.8342 368.2 38.8187 368.716 38.7877C369.029 38.768 369.21 38.8131 369.423 38.8511C369.71 38.9032 370.024 38.9498 370.024 39.0611C370.024 39.0794 370.098 39.1006 370.162 39.1146C370.3 39.1442 370.449 39.1696 370.592 39.1978C370.805 39.2401 371.012 39.2753 371.305 39.2528C371.56 39.2344 371.831 39.2288 372.092 39.2161C372.352 39.2034 372.591 39.1964 372.825 39.2499C373.096 39.3105 373.383 39.3683 373.692 39.4134C373.91 39.4458 374.197 39.3909 374.431 39.4346C374.574 39.4613 374.712 39.4923 374.867 39.5149C374.93 39.5248 375.032 39.5177 375.117 39.5149C375.292 39.5093 375.473 39.505 375.643 39.4909C375.84 39.4754 375.988 39.4783 376.137 39.5107C376.276 39.5403 376.414 39.5811 376.573 39.5896C376.813 39.6023 377.078 39.5459 377.318 39.6107C377.44 39.6432 377.594 39.6742 377.754 39.684C377.913 39.6939 378.099 39.6727 378.269 39.6741C378.344 39.6741 378.434 39.6967 378.476 39.715C378.503 39.7249 378.466 39.7517 378.429 39.7658C378.381 39.7827 378.312 39.8052 378.243 39.808C377.716 39.8334 377.19 39.8546 376.664 39.8785C376.35 39.8926 376.35 39.8926 375.717 39.8038C375.568 39.7827 375.404 39.7869 375.218 39.7968C374.968 39.8094 374.713 39.8334 374.452 39.808C374.112 39.7122 373.692 39.7037 373.245 39.7404C373.059 39.7559 372.889 39.7559 372.751 39.7291C372.458 39.6756 372.15 39.6262 371.89 39.5628C371.688 39.5135 371.592 39.5093 371.507 39.5769C371.48 39.5981 371.454 39.6206 371.459 39.6403C371.491 39.7108 371.549 39.7798 371.581 39.8503C371.592 39.87 371.549 39.8926 371.523 39.9137C371.438 39.9729 371.326 39.9687 371.14 39.9194C370.954 39.87 370.731 39.8376 370.433 39.8602C370.178 39.8799 369.901 39.8771 369.646 39.8982C369.253 39.9293 368.976 39.8841 368.694 39.8235C368.636 39.8109 368.535 39.8038 368.461 39.8066C367.668 39.839 366.882 39.8757 366.089 39.9081C365.919 39.9151 365.765 39.894 365.632 39.856C365.494 39.8179 365.34 39.7982 365.17 39.8052C364.468 39.8348 363.766 39.8616 363.064 39.8982C362.777 39.9137 362.549 39.8954 362.352 39.8461C362.203 39.8094 362.065 39.7982 361.879 39.8024C361.677 39.8066 361.533 39.8207 361.432 39.8616C361.337 39.9011 361.406 39.925 361.618 39.956C361.847 39.9898 362.06 40.0335 362.278 40.073C362.453 40.0674 362.628 40.0561 362.799 40.0575C362.873 40.0575 362.942 40.0829 363.017 40.0969C363.229 40.1378 363.426 40.1787 363.729 40.1561C363.984 40.1364 364.255 40.1322 364.516 40.1195C364.877 40.104 364.877 40.104 365.462 40.1928C365.611 40.2153 365.77 40.2139 365.962 40.2012C366.127 40.1914 366.297 40.2111 366.414 40.2534C366.462 40.2703 366.446 40.2985 366.345 40.3915C366.345 40.4606 366.456 40.4296 366.493 40.3845C366.552 40.3196 366.44 40.2985 366.228 40.3337C366.079 40.3591 366.004 40.3957 366.042 40.4253C366.063 40.4408 366.164 40.4606 366.345 40.3915C366.812 40.307 367.169 40.2971 367.509 40.2745C367.711 40.2618 367.838 40.2675 367.998 40.3041C368.189 40.3478 368.381 40.3943 368.694 40.3718C369.035 40.3464 369.396 40.3436 369.742 40.3224C370.061 40.3027 370.226 40.3647 370.428 40.4014C370.672 40.4451 370.943 40.3957 371.166 40.4211C371.4 40.4465 371.565 40.5085 371.836 40.5197C372.23 40.4817 372.48 40.5522 372.777 40.5987C373.011 40.6339 373.288 40.6029 373.538 40.5874C373.819 40.5705 374.053 40.586 374.25 40.6367C374.473 40.6945 374.723 40.6818 374.978 40.6691C375.574 40.641 375.595 40.6367 375.941 40.7142C376.19 40.7706 376.43 40.7452 376.68 40.7382C376.898 40.7763 377.11 40.8171 377.339 40.8509C377.397 40.8594 377.509 40.8453 377.599 40.8411C377.86 40.8298 378.126 40.8185 378.386 40.8073C378.562 40.8002 378.748 40.7791 378.907 40.7875C379.067 40.7974 379.2 40.8383 379.343 40.865C379.487 40.8918 379.636 40.9186 379.774 40.9468C379.986 40.9891 380.188 41.0243 380.486 41.0032C380.741 40.9848 381.007 40.9792 381.273 40.9665C381.608 40.951 381.597 40.9552 382.219 41.0398C382.554 41.0863 382.9 41.0299 383.24 41.0243C383.41 41.0215 383.575 41.037 383.692 41.0779C383.74 41.0948 383.724 41.123 383.74 41.1469C382.863 41.185 381.98 41.2174 381.113 41.2639C380.778 41.2822 380.603 41.2315 380.422 41.1892C380.125 41.1215 379.731 41.2202 379.449 41.1328C379.279 41.0807 379.035 41.0511 378.742 41.0764C378.572 41.0905 378.391 41.0891 378.216 41.1018C377.769 41.1328 377.36 41.1342 377.004 41.037C376.882 41.0032 376.706 40.9848 376.579 40.9524C376.43 40.9172 376.286 40.8974 376.111 40.9045C375.319 40.9383 374.532 40.9721 373.745 41.0088C373.676 41.0116 373.607 41.0327 373.548 41.0482C373.399 41.0877 373.447 41.1187 373.686 41.1441C373.766 41.1525 373.83 41.1709 373.904 41.1849C374.048 41.2117 374.181 41.254 374.34 41.2639C374.5 41.2737 374.686 41.254 374.861 41.247C375.037 41.2399 375.223 41.2188 375.382 41.2272C375.542 41.2371 375.675 41.278 375.824 41.3033C375.893 41.316 375.978 41.3372 376.047 41.3358C376.398 41.3273 376.743 41.3118 377.094 41.2991C377.312 41.3372 377.498 41.3921 377.759 41.4048C377.924 41.4133 378.099 41.3978 378.269 41.4006C378.344 41.402 378.439 41.4231 378.476 41.4415C378.498 41.4527 378.429 41.4809 378.375 41.495C378.173 41.5486 377.897 41.5387 377.647 41.5556C377.376 41.5739 377.131 41.5683 376.924 41.5133C376.786 41.4767 376.632 41.457 376.462 41.464C376.02 41.4823 375.584 41.5035 375.143 41.519C375.069 41.5218 374.978 41.5091 374.909 41.4992C374.351 41.4133 374.351 41.4105 373.958 41.4288C373.378 41.4556 373.378 41.4555 372.99 41.3808C372.916 41.3668 372.836 41.34 372.772 41.3414C372.155 41.3639 371.544 41.3865 370.933 41.4189C370.731 41.4288 370.592 41.4288 370.444 41.3921C370.316 41.3611 370.167 41.3259 370.008 41.3174C369.843 41.309 369.662 41.3301 369.487 41.3372C369.311 41.3442 369.125 41.3625 368.971 41.3513C368.811 41.34 368.673 41.3005 368.535 41.2723C368.391 41.2427 368.237 41.2441 368.041 41.2554C367.434 41.2878 367.429 41.2836 366.828 41.1962C366.759 41.1864 366.669 41.1751 366.595 41.1779C366.153 41.1948 365.717 41.216 365.276 41.2329C365.106 41.2399 364.941 41.2216 364.824 41.1807C364.776 41.1638 364.792 41.1356 364.76 41.0807C364.723 41.068 364.766 41.0905 364.776 41.1117C364.856 41.1089 364.952 41.1117 365.01 41.1004C365.159 41.0736 365.233 41.0384 365.196 41.0088C365.175 40.9933 365.074 40.9735 365.01 40.9735C364.893 40.9735 364.792 41.0046 364.76 41.0807C364.425 41.1272 364.069 41.137 363.724 41.1596C363.522 41.1737 363.394 41.1666 363.235 41.13C363.043 41.0849 362.846 41.0412 362.533 41.0637C362.192 41.0891 361.831 41.0934 361.48 41.1131C361.076 41.1356 360.901 41.0088 360.56 41.0116C360.21 41.0144 359.859 41.0384 359.508 41.0553C359.199 41.0694 359.199 41.0694 358.561 40.9778C358.328 40.944 358.051 40.9933 357.823 40.958C357.668 40.9355 357.535 40.9017 357.387 40.8777C357.323 40.8679 357.222 40.8679 357.142 40.8707C356.701 40.8876 356.254 40.8989 355.829 40.9299C355.345 40.9665 354.978 40.9271 354.633 40.8439C354.197 40.8594 353.756 40.8679 353.325 40.8946C353.011 40.9144 352.83 40.8679 352.618 40.8298C352.543 40.8171 352.48 40.796 352.4 40.7903C352.32 40.7847 352.224 40.796 352.139 40.8002C351.788 40.8157 351.427 40.8228 351.087 40.8481C350.667 40.8805 350.507 40.765 350.183 40.7509C349.965 40.8199 349.848 40.9144 349.417 40.9214C349.066 40.927 348.716 40.9496 348.365 40.9651C348.189 40.9721 348.014 40.9806 347.838 40.9877C347.557 41.0003 347.424 41.0553 347.482 41.1399C347.514 41.1864 347.541 41.2329 347.567 41.2794C347.62 41.3625 347.487 41.433 347.264 41.4429C346.647 41.4696 346.036 41.4978 345.419 41.5218C345.255 41.5288 345.095 41.5049 344.962 41.4668C344.824 41.4288 344.67 41.4119 344.5 41.4189C343.883 41.4457 343.272 41.4739 342.655 41.4978C342.586 41.5007 342.495 41.4866 342.426 41.4753C342.278 41.4499 342.134 41.4203 341.99 41.3935C341.64 41.4062 341.294 41.4147 340.948 41.4316C340.39 41.4569 340.39 41.4584 339.981 41.3808C339.906 41.3668 339.832 41.34 339.763 41.3414C339.497 41.347 339.237 41.3611 338.971 41.3738C338.189 41.4105 338.189 41.4104 337.961 41.3682C337.753 41.3287 337.567 41.2808 337.253 41.3033C336.913 41.3287 336.552 41.3372 336.201 41.3513C335.94 41.3611 335.68 41.3724 335.419 41.3752C335.35 41.3766 335.276 41.3498 335.201 41.3358C334.989 41.2921 334.781 41.2568 334.489 41.2808C334.319 41.2949 334.138 41.2977 333.963 41.3048C333.505 41.3245 333.505 41.3245 332.756 41.2399C332.681 41.2315 332.591 41.2216 332.517 41.2258C331.9 41.2512 331.289 41.2794 330.672 41.3033C330.597 41.3062 330.507 41.2977 330.433 41.2906C329.593 41.2089 329.593 41.2089 328.7 41.2484C328.359 41.2625 328.349 41.2681 327.992 41.1934C327.833 41.161 327.7 41.1455 327.514 41.1554C326.812 41.1892 326.105 41.2117 325.409 41.2512C325.095 41.2681 324.914 41.2258 324.702 41.1878C324.627 41.1751 324.547 41.1469 324.484 41.1483C323.782 41.1751 323.08 41.2075 322.378 41.2343C322.315 41.2371 322.235 41.2089 322.16 41.1962C322.017 41.1709 321.879 41.1328 321.719 41.1244C321.554 41.1159 321.374 41.137 321.193 41.1441C320.751 41.1624 320.751 41.161 320.241 41.0779C320.172 41.0666 320.082 41.0511 320.013 41.0539C319.311 41.0821 318.604 41.106 317.907 41.1469C317.509 41.1695 317.237 41.1286 316.956 41.0694C316.897 41.0567 316.796 41.0511 316.722 41.0539C315.93 41.0863 315.143 41.1229 314.351 41.1554C314.186 41.1624 314.026 41.1384 313.893 41.1018C313.681 41.044 313.431 41.0511 313.165 41.0637C312.554 41.0933 312.548 41.0919 312.187 41.0243C312.112 41.0102 312.049 40.9919 311.969 40.9848C311.895 40.9778 311.799 40.982 311.719 40.9848C311.368 40.9989 311.017 41.0144 310.666 41.0299C310.316 41.0454 309.959 41.0539 309.614 41.0779C309.188 41.1075 308.986 41.0158 308.689 40.9735C308.253 40.9919 307.806 41.0032 307.376 41.0327C307.046 41.0553 306.892 40.9933 306.674 40.9609C306.599 40.9496 306.52 40.9256 306.451 40.9285C305.658 40.9595 304.866 40.9933 304.079 41.0313C303.888 41.0398 303.761 41.0285 303.601 40.9947C303.245 40.9186 303.229 40.9214 302.633 40.9496C302.373 40.9623 302.123 40.9736 301.9 40.9158C301.703 40.8636 301.464 40.8509 301.182 40.8678C300.837 40.889 300.48 40.9003 300.129 40.9144C299.779 40.9299 299.428 40.951 299.077 40.958C298.795 40.9651 298.625 40.8989 298.402 40.865C298.333 40.8552 298.237 40.8538 298.157 40.8566C297.806 40.8693 297.445 40.8791 297.104 40.9031C296.69 40.9327 296.461 40.8552 296.169 40.8101C296.105 40.8002 295.999 40.8059 295.919 40.8101C295.302 40.8354 294.691 40.8636 294.074 40.8904C293.856 40.8524 293.633 40.8157 293.415 40.7777C293.064 40.7918 292.713 40.8073 292.362 40.8213C292.096 40.8326 291.825 40.8369 291.575 40.858C291.251 40.8862 291.092 40.8199 290.874 40.7875C290.799 40.7763 290.719 40.7523 290.65 40.7551C290.209 40.7706 289.768 40.7875 289.332 40.8115C288.917 40.8354 288.752 40.7086 288.412 40.71C288.061 40.7114 287.7 40.7297 287.36 40.7551C286.966 40.7847 286.69 40.7396 286.408 40.679C286.349 40.6663 286.248 40.6593 286.174 40.6621C285.733 40.679 285.297 40.7001 284.856 40.7171C284.781 40.7199 284.691 40.7128 284.616 40.7044C283.776 40.6212 283.776 40.6198 283.41 40.6367C283.149 40.648 282.883 40.6621 282.617 40.6691C282.543 40.672 282.452 40.6593 282.383 40.648C281.83 40.562 281.83 40.5606 281.432 40.5775C281.081 40.593 280.73 40.6085 280.379 40.624C280.161 40.586 279.938 40.5494 279.72 40.5113C279.284 40.5296 278.837 40.5437 278.407 40.5691C278.205 40.5803 278.072 40.5761 277.918 40.5409C277.726 40.4986 277.535 40.4493 277.216 40.4732C276.876 40.4986 276.514 40.5014 276.169 40.5226C275.754 40.5479 275.584 40.4197 275.249 40.4211C274.898 40.4225 274.536 40.4408 274.196 40.4662C273.803 40.4958 273.526 40.4507 273.245 40.3901C273.186 40.3774 273.085 40.3704 273.011 40.3732C272.043 40.4141 271.081 40.4549 270.113 40.4986C269.518 40.5254 269.518 40.5268 268.385 40.4493C268.306 40.4436 268.221 40.438 268.141 40.4408C267.79 40.4535 267.428 40.4634 267.088 40.4873C266.674 40.5169 266.445 40.4408 266.153 40.3943C266.089 40.3845 265.988 40.3901 265.903 40.3929C265.637 40.4028 265.376 40.4155 265.111 40.4267C264.76 40.4422 264.409 40.4577 264.058 40.4732C263.84 40.4366 263.617 40.3985 263.399 40.3619C262.963 40.3802 262.516 40.3901 262.086 40.4197C261.756 40.4422 261.602 40.383 261.384 40.3492C261.309 40.3379 261.23 40.314 261.161 40.3154C260.368 40.3464 259.576 40.3788 258.789 40.4183C258.465 40.4352 258.316 40.3718 258.098 40.3393C258.024 40.3295 257.939 40.3112 257.87 40.314C257.343 40.3337 256.817 40.3577 256.291 40.3816C255.993 40.3957 255.993 40.3957 255.344 40.3083C255.27 40.2985 255.185 40.2886 255.111 40.2914C253.441 40.3619 251.777 40.4366 250.108 40.5071C249.938 40.5141 249.784 40.493 249.651 40.4549C249.512 40.4169 249.358 40.3971 249.188 40.4042C248.486 40.4338 247.779 40.4606 247.083 40.4972C246.796 40.5127 246.567 40.4944 246.37 40.445C246.222 40.4084 246.083 40.3943 245.897 40.4028C245.546 40.4197 245.196 40.4338 244.845 40.4493C244.494 40.4648 244.143 40.4803 243.792 40.4958C243.441 40.5113 243.085 40.5198 242.739 40.5437C242.314 40.5733 242.107 40.4859 241.814 40.4422C241.288 40.4634 240.762 40.4845 240.241 40.5071C239.539 40.5367 238.837 40.5691 238.135 40.5973C238.072 40.6001 237.992 40.5747 237.917 40.562C237.699 40.5268 237.54 40.4775 237.216 40.493C235.642 40.5677 234.058 40.6311 232.479 40.7044C232.149 40.7199 232.006 40.6593 231.782 40.6269C231.708 40.617 231.623 40.5973 231.554 40.6001C230.677 40.6353 229.799 40.6748 228.922 40.7128C228.566 40.7283 228.566 40.7283 227.971 40.6409C227.901 40.6311 227.811 40.6184 227.737 40.6212C226.594 40.6691 225.456 40.7199 224.313 40.7692C224.143 40.7762 223.989 40.7565 223.85 40.7185C223.717 40.6804 223.558 40.6593 223.393 40.6663C222.341 40.7114 221.283 40.7551 220.235 40.8044C219.953 40.8185 219.72 40.8058 219.518 40.7551C219.374 40.7185 219.23 40.703 219.05 40.7114C217.471 40.7805 215.892 40.8467 214.313 40.92C214.01 40.9341 213.797 40.9073 213.606 40.8608C213.452 40.8242 213.319 40.8171 213.127 40.8228C212.925 40.8298 212.803 40.8453 212.691 40.8876C212.548 40.9425 212.457 41.0116 212.117 41.0158C211.766 41.0201 211.41 41.037 211.065 41.0609C210.735 41.0849 210.581 41.0215 210.373 40.9834C210.219 40.9566 210.076 40.9524 209.879 40.9651C209.698 40.9764 209.587 41.0003 209.48 41.0454C209.246 41.1413 209.225 41.1413 208.938 41.0807C208.784 41.0482 208.646 41.0229 208.475 41.0285C207.774 41.0567 207.072 41.0877 206.37 41.1201C205.966 41.1384 205.961 41.1413 205.658 41.0708C205.509 41.0356 205.365 41.0186 205.19 41.0271C203.26 41.1117 201.33 41.1934 199.4 41.2822C199.103 41.2963 198.901 41.2667 198.688 41.2244C198.619 41.2103 198.55 41.1906 198.47 41.1849C198.39 41.1793 198.3 41.185 198.215 41.1878C196.811 41.2484 195.403 41.3062 194.004 41.3738C193.685 41.3893 193.515 41.3442 193.297 41.3076C193.223 41.2949 193.159 41.2752 193.079 41.2695C193 41.2653 192.904 41.2752 192.819 41.2794C191.415 41.34 190.006 41.3978 188.608 41.4654C188.273 41.4809 188.13 41.4217 187.912 41.3907C187.837 41.3794 187.758 41.3583 187.689 41.3611C187.247 41.3766 186.811 41.3978 186.37 41.4161C185.317 41.4626 184.265 41.5063 183.212 41.5542C182.808 41.5725 182.633 41.4471 182.292 41.4527C181.851 41.4598 181.415 41.488 180.974 41.5077C180.623 41.5232 180.272 41.5373 179.921 41.5542C179.576 41.5697 179.576 41.5697 178.714 41.488C178.64 41.4809 178.55 41.4711 178.475 41.4739C177.247 41.526 176.014 41.5782 174.791 41.6345C174.509 41.6472 174.275 41.6402 174.073 41.588C173.93 41.5514 173.781 41.5331 173.606 41.5415C171.761 41.6218 169.921 41.7022 168.076 41.7811C168.007 41.7839 167.917 41.7698 167.848 41.7586C167.699 41.7332 167.555 41.7036 167.412 41.6768C167.306 41.7092 167.167 41.7388 167.098 41.7755C167.003 41.8248 166.875 41.8389 166.673 41.8473C166.471 41.8558 166.343 41.853 166.184 41.8163C165.993 41.7712 165.796 41.736 165.482 41.7501C163.552 41.8389 161.622 41.9192 159.693 42.0066C159.374 42.0207 159.225 41.9587 159.002 41.9263C158.927 41.9164 158.842 41.9009 158.773 41.9037C157.981 41.9361 157.194 41.9714 156.402 42.0052C154.206 42.101 152.011 42.1926 149.82 42.2941C149.421 42.3124 149.15 42.2772 148.869 42.2166C148.81 42.2039 148.709 42.1969 148.635 42.1997C145.562 42.3322 142.489 42.466 139.421 42.5999C139.257 42.607 139.097 42.5844 138.964 42.5478C138.826 42.5097 138.672 42.4914 138.502 42.4985C137.098 42.5591 135.695 42.6197 134.291 42.6817C133.94 42.6972 133.935 42.6986 133.573 42.6309C133.499 42.6168 133.419 42.5901 133.361 42.5929C133.238 42.5999 133.121 42.6352 133.036 42.6831C132.951 42.7338 132.818 42.7479 132.622 42.7578C132.42 42.7676 132.287 42.7634 132.133 42.7296C131.936 42.6873 131.755 42.6464 131.436 42.6605C127.401 42.8409 123.366 43.0143 119.331 43.1932C119.007 43.2073 118.858 43.1482 118.634 43.1157C118.56 43.1059 118.486 43.0918 118.406 43.089C118.321 43.0861 118.23 43.0946 118.145 43.0988C111.564 43.3849 104.982 43.6724 98.4004 43.9585C98.007 43.9754 98.0123 43.9754 97.5817 44.1051C97.5285 44.1206 97.4594 44.1417 97.3849 44.1445C95.37 44.2347 93.3499 44.3221 91.3297 44.4095C90.4525 44.4476 89.5753 44.487 88.6981 44.5237C88.3844 44.5364 88.3844 44.5364 87.6348 44.6886C87.571 44.7012 87.4965 44.7182 87.4221 44.721C83.9133 44.8746 80.4045 45.0282 76.8904 45.179C76.6139 45.1903 76.3907 45.2157 76.2631 45.2833C76.1727 45.3312 76.0557 45.3594 75.8803 45.3679C73.4241 45.475 70.9681 45.5835 68.5066 45.6878C68.2142 45.7005 68.0387 45.7399 67.8951 45.7991C67.8473 45.8188 67.8047 45.8414 67.7356 45.8555C67.6718 45.8682 67.5761 45.8724 67.4964 45.8766C65.3911 45.9682 63.2859 46.0627 61.1753 46.15C60.8617 46.1627 60.734 46.2149 60.5798 46.2698C60.5267 46.2882 60.4894 46.3135 60.4203 46.3262C60.3512 46.3375 60.2502 46.3375 60.1651 46.3403C58.4107 46.4164 56.6564 46.4939 54.902 46.57C54.5617 46.563 54.4873 46.6447 54.3225 46.694C54.264 46.711 54.2215 46.7335 54.1524 46.7448C54.078 46.7561 53.9822 46.7546 53.8918 46.7575C52.4883 46.8181 51.0848 46.8829 49.676 46.9393C49.3517 46.9519 49.2878 47.0238 49.1124 47.0731C49.0539 47.0886 48.9955 47.1126 48.9264 47.1168C48.0492 47.1577 47.172 47.1958 46.2948 47.2324C46.0024 47.2451 46.0024 47.2437 45.4868 47.3832C45.4283 47.3987 45.3591 47.4156 45.2847 47.4199C43.9715 47.479 42.6531 47.5354 41.3346 47.5932C41.1645 47.6002 41.0476 47.6341 40.9625 47.682C40.8775 47.7299 40.7552 47.7609 40.5851 47.768C39.5325 47.8145 38.4797 47.8624 37.4271 47.9047C37.1347 47.9159 36.9433 47.9512 36.8157 48.0146C36.7201 48.0625 36.6031 48.0865 36.417 48.0949C35.3644 48.14 34.3118 48.1893 33.2538 48.2288C32.9455 48.2401 32.7859 48.288 32.6583 48.3472C32.5573 48.3951 32.4403 48.412 32.2436 48.4205C30.3138 48.5022 28.3787 48.5839 26.4542 48.6741C26.1299 48.6896 25.965 48.6403 25.7524 48.6051C25.4494 48.5558 25.1677 48.5022 25.1677 48.3923C25.1677 48.3754 25.0773 48.3556 25.0135 48.3415C24.5403 48.2358 24.5403 48.2359 24.4659 48.1231C24.4233 48.0541 24.3755 47.9836 24.3383 47.9131C24.2692 47.7976 24.099 47.768 23.6099 47.7891C23.4344 47.7961 23.259 47.806 23.0836 47.8116C22.8231 47.8215 22.6264 47.775 22.5785 47.6904C22.552 47.6439 22.5201 47.5974 22.4935 47.5509C22.7593 47.5396 22.754 47.5382 23.2218 47.3677C23.4185 47.2958 23.4186 47.2958 23.0411 47.224C22.8976 47.1972 22.7593 47.1676 22.6051 47.1422C22.536 47.1309 22.4457 47.1239 22.3713 47.1267C21.93 47.1436 21.4941 47.1633 21.0581 47.1831C20.3564 47.2141 20.3563 47.2141 19.6439 47.0703C19.5854 47.059 19.495 47.0379 19.5057 47.0266C19.5641 46.9745 19.7077 46.9519 19.8884 46.9463C20.1542 46.9378 20.4147 46.9238 20.6752 46.9125C20.8507 46.9054 21.0261 46.897 21.2016 46.8899C21.3664 46.8364 21.5366 46.7842 21.6907 46.7293C21.9353 46.6447 21.9352 46.6419 21.6003 46.5827C21.3876 46.5432 21.159 46.508 20.9411 46.4714C20.6806 46.4826 20.4148 46.4953 20.1542 46.5052C19.8246 46.5179 19.6917 46.4911 19.6066 46.3995C19.5322 46.3191 19.6226 46.2501 19.8778 46.2332C20.1383 46.2163 20.3829 46.205 20.5159 46.1331C20.6434 46.0641 20.8667 46.0373 21.1431 46.0316C21.3186 46.0274 21.494 46.0176 21.6695 46.0091C21.8981 45.9978 22.0204 45.926 21.9725 45.8456C21.9459 45.7935 21.8928 45.7498 21.6854 45.7385C20.7657 45.6892 20.755 45.6906 20.2978 45.5948C20.2553 45.5863 20.2234 45.5609 20.2394 45.5483C20.266 45.5271 20.3245 45.4961 20.3883 45.4919C20.9996 45.4609 21.611 45.4327 22.2224 45.4116C22.4244 45.4045 22.5733 45.3946 22.6424 45.3425C22.7381 45.2706 22.6956 45.2044 22.5095 45.155C22.451 45.1395 22.3552 45.1198 22.2914 45.1212C21.5897 45.1466 20.8933 45.179 20.1915 45.2044C20.1277 45.2072 20.0108 45.1832 19.9842 45.1649C19.9311 45.1311 20.0107 45.086 20.1968 45.0705C20.4414 45.0493 20.6912 45.0479 20.856 44.9775C21.0846 44.8774 21.3664 44.7858 21.6216 44.69C21.6641 44.6731 21.7333 44.6406 21.7174 44.6378C21.5844 44.6068 21.4302 44.5829 21.292 44.5533C21.0581 44.5039 21.0581 44.4349 21.1112 44.3686C21.1537 44.3151 21.3132 44.2939 21.5099 44.2939C21.595 44.2939 21.7013 44.2939 21.7704 44.2813C21.9512 44.2503 22.0097 44.2108 21.9193 44.1812C21.8662 44.1643 21.7705 44.1403 21.7067 44.1432C20.569 44.1897 19.4259 44.2348 18.2935 44.2925C17.9586 44.3094 17.8045 44.2559 17.6025 44.2178C17.4483 44.1882 17.3047 44.177 17.1133 44.1981C16.9326 44.2178 16.7572 44.2066 16.6455 44.1601C16.5552 44.122 16.7146 44.0896 17.1452 44.053C17.225 44.0459 17.3153 44.0417 17.3738 44.0276C17.9905 43.8754 17.9905 43.874 18.4158 43.8542C18.8305 43.8359 18.8306 43.8345 19.0485 43.7528C19.1495 43.7147 19.2611 43.6767 19.3568 43.6372C19.394 43.6217 19.4579 43.5935 19.4366 43.585C19.3197 43.5414 19.1601 43.5315 18.974 43.5414C18.5594 43.5653 18.0703 43.5456 17.8524 43.6795C17.7673 43.7302 17.6344 43.7443 17.443 43.7528C15.5185 43.8345 13.5939 43.9219 11.664 44.0008C11.3504 44.0135 11.2069 44.0656 11.0846 44.1234C10.9783 44.1713 10.8613 44.1854 10.6593 44.1939C10.4573 44.2023 10.2977 44.2066 10.1808 44.1601C10.1117 44.1319 10.1701 44.0924 10.3296 44.053C10.5582 43.9966 10.5157 43.9261 10.4413 43.8599C10.3881 43.8162 10.2233 43.7852 10.0479 43.788C9.78735 43.7936 9.53755 43.8091 9.31958 43.7528C9.19199 43.7204 9.03247 43.6978 8.88893 43.6696C8.61248 43.6118 8.33602 43.5526 7.94792 43.5907C7.6821 43.5766 7.49603 43.5259 7.28338 43.4864C6.92718 43.4216 6.89528 43.4117 7.15047 43.3426C7.43755 43.2651 7.21422 43.1637 7.37371 43.0875C7.54384 43.0058 7.77784 42.9339 7.98517 42.8578C8.03834 42.8381 8.0862 42.8198 8.13937 42.8001C8.01709 42.7719 7.90547 42.7366 7.76193 42.7169C7.57586 42.6915 7.48016 42.6605 7.49079 42.5732C7.45357 42.5605 7.46941 42.5929 7.51195 42.6013C7.55979 42.6098 7.67684 42.6028 7.73532 42.5929C7.88418 42.5661 7.95853 42.5309 7.92131 42.5013C7.90005 42.4858 7.79912 42.466 7.73532 42.466C7.61836 42.466 7.51737 42.4971 7.48547 42.5732C6.89004 42.6309 6.27324 42.6591 5.65654 42.6817C5.59275 42.6845 5.51305 42.6563 5.43862 42.6422C5.19407 42.5943 5.19404 42.5957 4.47633 42.5816C4.4019 42.5802 4.30094 42.5605 4.26373 42.5407C4.10955 42.4548 4.11491 42.3603 4.04048 42.2687C4.17871 42.2095 4.31682 42.1518 4.46036 42.094C4.74745 41.977 5.11967 41.8741 5.34296 41.7459C5.29511 41.6768 5.23131 41.6078 5.46523 41.5514C6.12977 41.4809 6.1245 41.4809 6.30525 41.4133C6.82094 41.2216 7.33128 41.0285 7.86823 40.8397C8.01177 40.7903 8.01179 40.7636 7.75661 40.7424C7.67686 40.7368 7.59169 40.7354 7.50662 40.7382C7.24081 40.7481 6.97499 40.7734 6.71449 40.7678C6.45399 40.7636 6.2626 40.7016 6.04995 40.6635C5.83198 40.624 5.61402 40.5832 5.39605 40.5423C5.14618 40.5465 4.89636 40.586 4.64649 40.5226C4.4551 40.4732 4.21588 40.438 3.99791 40.3971C4.16271 40.29 4.47111 40.2083 4.71035 40.1139C4.92832 40.0279 4.93351 40.0293 5.51831 39.9631C5.79476 39.9321 5.89046 39.7728 5.65654 39.7263C5.37478 39.6699 5.07712 39.6178 4.79004 39.5642C4.54017 39.5684 4.28504 39.6065 4.0458 39.5431C3.85973 39.4952 3.64703 39.4627 3.33869 39.4811C2.81768 39.5121 2.28606 39.5276 1.75974 39.5529C1.57899 39.5614 1.38223 39.5558 1.30248 39.5079C1.24932 39.474 1.4035 39.4275 1.57894 39.4177C1.84476 39.4036 2.08397 39.3867 2.21688 39.3162C2.34447 39.2457 2.57836 39.2246 2.85481 39.2147C2.92924 39.2119 3.01437 39.195 3.05158 39.1781C3.24297 39.0963 3.45564 39.0259 3.865 39.0287C4.03512 39.0005 4.12544 38.9653 4.07228 38.9314C4.04038 38.9131 3.9288 38.8892 3.865 38.892C3.42374 38.9061 2.9825 38.9202 2.55188 38.9455C2.34985 38.9568 2.1956 38.9596 2.068 38.9173C1.97763 38.8892 2.02547 38.8511 2.19559 38.8102C2.34445 38.775 2.38703 38.7341 2.37639 38.6862C2.34981 38.5749 2.19029 38.5425 1.67992 38.5495C1.31309 38.5551 1.22271 38.5368 1.14296 38.441C1.1217 38.4184 1.06863 38.3874 1.10584 38.3719C1.33445 38.2761 1.48331 38.1577 1.91394 38.1126C2.08406 38.0957 2.26475 38.0957 2.37107 38.0591C2.4774 38.0224 2.57314 37.9801 2.68478 37.9449C2.82301 37.9026 2.91861 37.8632 2.85481 37.8364C2.74849 37.7885 2.57842 37.7842 2.38172 37.8012C2.21159 37.8153 2.03084 37.8166 1.8554 37.8251C1.54174 37.8406 1.28661 37.804 1.2494 37.742C1.14838 37.5785 1.04203 37.4164 0.951648 37.2529C0.941015 37.2332 0.967524 37.2078 1.01006 37.1909C1.15891 37.1317 1.31847 37.0753 1.47264 37.0176C1.6534 36.9513 1.94053 36.964 2.18508 36.9513C2.53064 36.933 2.53052 36.9344 2.99304 36.7991C3.1738 36.7456 3.48748 36.7667 3.67355 36.7188C3.73203 36.7033 3.82241 36.6779 3.80646 36.6638C3.7852 36.6455 3.67893 36.6314 3.59918 36.6229C3.52475 36.6145 3.4344 36.6103 3.35465 36.6145C2.38707 36.6554 1.42484 36.6991 0.457263 36.7385C0.292457 36.7456 0.111695 36.7146 0.0532155 36.6709C-0.00526444 36.63 0.0106327 36.5807 0 36.5342C0.154174 36.4764 0.329546 36.4228 0.462455 36.3608C0.563466 36.3129 0.680447 36.2917 0.882468 36.2889C1.14829 36.2847 1.40881 36.2678 1.70653 36.2551C2.25943 36.0493 2.80166 35.8337 3.39709 35.628C3.63633 35.5448 3.57794 35.4602 3.62579 35.3715C3.67364 35.2897 4.02981 35.3024 4.26905 35.2784C4.46044 35.2587 4.52415 35.2136 4.44972 35.1826C4.40719 35.1643 4.31155 35.1431 4.23712 35.1431C4.06168 35.1431 3.88624 35.1558 3.7108 35.1629C3.53536 35.1699 3.33335 35.1657 3.18981 35.1897C3.05159 35.2122 2.96116 35.2601 2.87078 35.301C2.76977 35.3461 2.63695 35.3616 2.43493 35.3644C2.17443 35.3672 1.91394 35.3799 1.65344 35.3898C1.36636 35.3348 1.06858 35.2813 0.792131 35.2235C0.738968 35.2122 0.728278 35.1798 0.733594 35.1587C0.744227 35.1037 0.664503 35.0699 0.489063 35.0431C0.340205 35.0205 0.217919 34.9881 0.0796934 34.9599C0.18602 34.9219 0.303022 34.8852 0.388083 34.8444C0.574156 34.7584 0.808101 34.6964 1.21214 34.6992C1.37163 34.6443 1.49919 34.5766 1.70653 34.5385C1.90323 34.5019 2.23818 34.5385 2.38704 34.4554C2.46147 34.4145 2.57317 34.368 2.71671 34.3511C2.94532 34.3243 3.24303 34.3384 3.37594 34.2595C3.45568 34.2144 3.57259 34.1735 3.72677 34.1623C3.90221 34.1496 4.08292 34.1468 4.21051 34.12C4.27962 34.1059 4.35406 34.0833 4.35406 34.0636C4.35406 34.0509 4.24782 34.0312 4.17339 34.0227C4.10428 34.0129 4.01379 34.0058 3.93405 34.0086C3.66823 34.0171 3.40774 34.0326 3.14192 34.041C3.06749 34.0439 2.98245 34.034 2.90271 34.0255C2.66879 34.003 2.68471 33.9748 2.87078 33.9241C3.05685 33.8748 3.18983 33.8113 3.34401 33.7535C3.51413 33.7437 3.72675 33.7479 3.84371 33.7211C4.04042 33.6774 4.17861 33.614 4.3381 33.5591C4.51354 33.5506 4.69428 33.5478 4.85909 33.5323C4.9282 33.5266 4.96013 33.4956 5.01861 33.4773C5.12493 33.4421 5.21538 33.3914 5.35893 33.3744C5.59285 33.3491 5.87992 33.3589 6.01815 33.2814C6.09789 33.2363 6.22012 33.1884 6.36898 33.1856C6.78366 33.18 6.9591 33.1024 7.17176 33.0291C7.33125 32.9742 7.6715 33.0024 7.84694 32.9474C7.9639 32.9122 8.04902 32.8685 8.16598 32.8347C8.21382 32.8206 8.3148 32.8135 8.39454 32.8093C8.83048 32.7882 9.27173 32.7726 9.70767 32.7501C9.77678 32.7459 9.84063 32.7247 9.89379 32.7078C10.0054 32.6712 10.0745 32.6204 10.2127 32.5965C10.3509 32.5725 10.5476 32.5725 10.7177 32.5655C11.2653 32.5443 11.3079 32.55 11.5577 32.4302C11.7598 32.3329 12.2543 32.402 12.4191 32.2949C12.5148 32.2329 12.6901 32.1821 13.0038 32.1751C13.445 32.1652 13.881 32.1385 14.3222 32.1201C14.7156 32.1032 14.7103 32.1032 15.1356 31.9721C15.327 31.913 15.6089 31.9214 15.8587 31.9101C16.1245 31.8989 16.3691 31.882 16.4967 31.8115C16.6243 31.7424 16.8581 31.7199 17.1293 31.71C17.3791 31.7001 17.661 31.7072 17.8577 31.6508C18.3361 31.5155 18.3308 31.5141 18.6658 31.5C19.1921 31.4775 19.7184 31.4549 20.2447 31.431C20.5956 31.4155 20.9624 31.4126 21.292 31.3816C21.5313 31.3591 21.6376 31.2802 21.7917 31.2252C22.2277 31.2041 22.6636 31.1829 23.0995 31.1632C23.7109 31.135 24.3276 31.1096 24.9443 31.0829C25.2101 31.0293 25.2474 30.9109 25.694 30.9053C25.9598 30.9025 26.2203 30.8841 26.4861 30.8729C26.9274 30.8531 27.3633 30.8278 27.8046 30.8179C28.1395 30.8109 28.1979 30.7347 28.3733 30.6868C28.4318 30.6699 28.485 30.646 28.5541 30.6417C29.2452 30.6023 29.9576 30.5938 30.6328 30.536C30.7019 30.5304 30.7657 30.5008 30.7816 30.4797C30.7923 30.4684 30.7019 30.4473 30.6434 30.4374C30.5743 30.4261 30.4839 30.4148 30.4095 30.4177C28.2139 30.5121 26.0183 30.6079 23.8226 30.7023C23.5143 30.7164 23.5143 30.715 22.7647 30.8701C22.7009 30.8827 22.6264 30.8968 22.5466 30.9011C22.1957 30.918 21.8395 30.9278 21.494 30.949C21.2122 30.9659 20.9784 30.949 20.7764 30.8982C20.6328 30.8616 20.4839 30.8503 20.3031 30.8531C20.1011 30.8574 19.9683 30.8729 19.8513 30.9109C19.6971 30.9631 19.6174 31.0307 19.2931 31.0448C17.7992 31.1054 16.3052 31.1731 14.8166 31.2379C14.6093 31.2182 14.5083 31.1886 14.5614 31.1533C14.5933 31.1322 14.6572 31.104 14.721 31.1012C15.3323 31.0716 15.949 31.0462 16.5604 31.018C16.6455 31.0138 16.7624 31.0166 16.8102 31.0025C17.0442 30.9391 17.1293 30.8362 17.5706 30.8292C17.8258 30.8249 18.0862 30.8038 18.3308 30.7841C18.3999 30.7784 18.4637 30.7488 18.4797 30.7277C18.485 30.7164 18.3999 30.6953 18.3361 30.6854C18.1022 30.6446 17.8311 30.6939 17.5972 30.6657C17.5174 30.6558 17.4057 30.6417 17.3898 30.6248C17.3791 30.6093 17.4695 30.584 17.5333 30.5685C17.5918 30.5544 17.6715 30.5417 17.7512 30.5375C18.453 30.505 19.1549 30.4712 19.8566 30.4458C20.1437 30.436 20.3457 30.4007 20.4733 30.3359C20.569 30.288 20.6859 30.2626 20.8667 30.2556C22.0948 30.2034 23.3228 30.1457 24.5562 30.0977C24.8646 30.0865 25.0241 30.04 25.1517 29.9794C25.2527 29.9314 25.3697 29.9145 25.5664 29.9061C27.3261 29.8328 29.0751 29.751 30.8349 29.6806C31.1591 29.6679 31.2549 29.6073 31.4197 29.5552C31.4782 29.5368 31.5153 29.5143 31.5897 29.503C31.6642 29.4917 31.7598 29.4931 31.8502 29.4903C33.2537 29.4297 34.6574 29.3649 36.0662 29.3085C36.3958 29.2958 36.4595 29.2254 36.6296 29.176C36.6881 29.1605 36.7413 29.1352 36.8104 29.1309C37.8631 29.083 38.9157 29.0379 39.9683 28.9914C40.6701 28.9604 41.3718 28.9294 42.0736 28.8998C42.4191 28.8857 42.4191 28.8843 42.887 28.7504C42.9401 28.7349 43.0146 28.7166 43.0837 28.7124C45.104 28.6222 47.1188 28.5362 49.139 28.4474C49.3091 28.4404 49.4314 28.4079 49.5165 28.36C49.6015 28.3121 49.7239 28.2797 49.8887 28.2726C51.4677 28.2022 53.0466 28.1331 54.6309 28.0669C54.9179 28.0556 55.1199 28.0218 55.2475 27.9584C55.3432 27.9104 55.4602 27.8851 55.6409 27.878C57.2199 27.8104 58.7989 27.7385 60.3832 27.6737C60.6862 27.661 60.835 27.6131 60.9839 27.5567C61.037 27.537 61.0796 27.5046 61.1434 27.5017C61.9302 27.4623 62.7117 27.4214 63.5038 27.3946C63.8334 27.3834 63.9451 27.3242 64.078 27.2678C64.1843 27.2227 64.3067 27.2072 64.5087 27.2016C64.9499 27.1889 65.3859 27.1649 65.8165 27.141C65.8803 27.1367 65.96 27.1057 65.9654 27.086C65.976 27.0494 65.8537 27.024 65.6516 27.0113C63.5464 27.1029 61.4358 27.1945 59.3306 27.2861C58.985 27.3016 58.985 27.3016 58.5171 27.4355C58.464 27.451 58.3895 27.4693 58.315 27.4736C56.2948 27.5624 54.28 27.6497 52.2598 27.7385C52.0897 27.7456 51.9674 27.778 51.8823 27.8259C51.7973 27.8738 51.6749 27.9062 51.5101 27.9133C49.5803 27.9978 47.6505 28.0838 45.7153 28.1641C45.4282 28.1754 45.2263 28.2078 45.0987 28.2726C45.003 28.3206 44.886 28.3459 44.7053 28.353C42.8605 28.4319 41.0209 28.5151 39.1709 28.5912C38.9848 28.5982 38.8466 28.5573 38.8573 28.5193C38.8626 28.4995 38.9422 28.4671 39.006 28.4643C39.9683 28.4178 40.9253 28.3699 41.8929 28.3347C42.2172 28.3234 42.3128 28.2614 42.4776 28.2092C42.5308 28.1909 42.5733 28.167 42.6424 28.1571C42.7169 28.1458 42.8126 28.1472 42.9029 28.1444C45.1837 28.0443 47.4644 27.9429 49.7505 27.8485C50.0801 27.8344 50.1438 27.7653 50.3139 27.716C50.3724 27.6991 50.4256 27.6737 50.4947 27.6709C51.1965 27.6371 51.8982 27.6074 52.6 27.5779C53.828 27.5243 55.0561 27.4707 56.2895 27.4172C56.6457 27.4017 56.6457 27.4017 57.1029 27.2692C57.1561 27.2537 57.2306 27.234 57.2997 27.2312C60.548 27.0888 63.7963 26.9465 67.0446 26.8055C67.2147 26.7985 67.337 26.7661 67.422 26.7182C67.5071 26.6717 67.6293 26.6378 67.7942 26.6294C72.1855 26.4377 76.5715 26.246 80.9628 26.0572C81.2498 26.0445 81.4518 26.0149 81.5794 25.9487C81.6698 25.9007 81.7921 25.8754 81.9728 25.8669C86.8001 25.6569 91.6273 25.4469 96.4599 25.2355C99.7082 25.0946 102.957 24.9509 106.205 24.8127C106.503 24.8001 106.662 24.7564 106.811 24.6986C106.859 24.6788 106.907 24.6464 106.97 24.6436C107.667 24.6084 108.363 24.576 109.06 24.5436C109.278 24.5816 109.496 24.6183 109.714 24.6563C109.878 24.6028 110.038 24.5478 110.203 24.4942C111.255 24.4534 112.292 24.3899 113.355 24.3702C113.424 24.3688 113.499 24.3956 113.573 24.4097C114.068 24.4985 114.349 24.4914 114.663 24.373C114.775 24.3308 114.87 24.2927 115.041 24.2857C115.567 24.2603 116.099 24.2434 116.62 24.2138C116.901 24.1983 117.135 24.2124 117.337 24.2631C117.481 24.2997 117.63 24.3153 117.805 24.3068C118.773 24.2645 119.735 24.2236 120.703 24.1785C120.772 24.1757 120.835 24.1518 120.889 24.1348C121 24.0982 121.096 24.0588 121.202 24.0207C121.346 24.0447 121.505 24.063 121.622 24.094C121.771 24.1306 121.909 24.1306 122.111 24.1208C125.971 23.9502 129.836 23.7839 133.696 23.612C134.025 23.5979 134.169 23.6571 134.392 23.6881C134.467 23.6994 134.541 23.7135 134.621 23.7163C134.706 23.7191 134.796 23.7106 134.881 23.7064C137.779 23.5796 140.676 23.4541 143.573 23.3273C143.956 23.3104 143.956 23.3104 144.525 23.3978C144.594 23.409 144.685 23.4217 144.759 23.4175C146.077 23.3625 147.396 23.3034 148.709 23.247C148.879 23.2399 149.023 23.2625 149.177 23.2949C149.48 23.3583 149.501 23.3583 149.724 23.2653C149.831 23.2216 149.942 23.1948 150.118 23.1821C150.309 23.168 150.463 23.1723 150.612 23.1977C150.825 23.2329 150.979 23.2921 151.303 23.2766C152.707 23.2103 154.116 23.1554 155.514 23.0877C155.833 23.0722 156.003 23.1201 156.216 23.1554C156.29 23.1681 156.359 23.1878 156.439 23.192C156.519 23.1962 156.614 23.1864 156.7 23.1821C158.454 23.106 160.214 23.0314 161.963 22.9496C162.292 22.9341 162.436 22.9947 162.659 23.0257C162.734 23.037 162.819 23.0567 162.888 23.0539C163.94 23.0102 164.998 22.9637 166.051 22.9172C166.428 22.9003 166.428 22.9017 167.003 22.9876C167.072 22.9989 167.162 23.0102 167.237 23.0074C168.465 22.9552 169.698 22.9017 170.926 22.8481C171.304 22.8312 171.304 22.8312 172.393 22.9045C172.473 22.9101 172.558 22.9186 172.638 22.9158C174.041 22.8552 175.45 22.796 176.854 22.7312C177.136 22.7185 177.37 22.7297 177.572 22.7805C177.715 22.8171 177.864 22.8326 178.039 22.8242C179.618 22.7551 181.203 22.6889 182.776 22.6156C183.079 22.6015 183.276 22.6325 183.489 22.6734C183.558 22.6875 183.627 22.7072 183.707 22.7128C183.786 22.7185 183.877 22.7128 183.962 22.7086C185.541 22.6395 187.125 22.5747 188.699 22.5C189.018 22.4845 189.188 22.5324 189.4 22.5677C189.475 22.5804 189.555 22.6057 189.618 22.6043C190.235 22.5804 190.852 22.5592 191.463 22.524C191.793 22.5043 191.936 22.5691 192.16 22.6001C192.234 22.6099 192.319 22.6311 192.388 22.6283C193.707 22.5733 195.025 22.5155 196.338 22.4563C196.524 22.4479 196.663 22.4606 196.811 22.4972C197.008 22.5465 197.237 22.5663 197.524 22.5508C198.135 22.5183 198.752 22.4958 199.369 22.469C199.73 22.4535 199.73 22.4535 200.836 22.5268C200.916 22.5324 201.001 22.5409 201.08 22.5381C202.133 22.493 203.191 22.4493 204.238 22.4C204.52 22.3859 204.754 22.3986 204.956 22.4493C205.1 22.4859 205.243 22.5014 205.424 22.493C206.391 22.4507 207.354 22.4084 208.321 22.3661C208.672 22.3506 209.023 22.3239 209.374 22.3239C209.629 22.3253 209.815 22.3929 210.044 22.4267C210.108 22.4366 210.214 22.4253 210.299 22.4225C211.527 22.369 212.76 22.3196 213.983 22.259C214.302 22.2435 214.472 22.2914 214.685 22.3267C214.759 22.3394 214.839 22.3647 214.903 22.3633C215.344 22.3478 215.78 22.3267 216.221 22.3084C216.748 22.2858 217.279 22.2689 217.8 22.2379C218.226 22.2125 218.385 22.3351 218.725 22.3394C218.986 22.3436 219.252 22.3196 219.512 22.3084C220.038 22.2858 220.565 22.2604 221.091 22.2407C221.277 22.2337 221.421 22.2111 221.479 22.1604C221.49 22.1505 221.4 22.1294 221.341 22.1167C220.634 21.9729 220.634 21.9729 219.922 22.0039C219.48 22.0237 219.044 22.0434 218.603 22.0603C218.529 22.0631 218.444 22.0519 218.369 22.0434C218.157 22.0194 218.178 21.9913 218.359 21.9405C218.539 21.8898 218.678 21.8278 218.832 21.77C219.05 21.8066 219.262 21.8433 219.48 21.8799C219.656 21.8729 219.831 21.8644 220.007 21.8574C220.884 21.8207 221.761 21.7827 222.638 21.7489C222.702 21.746 222.782 21.7742 222.856 21.7883C223.069 21.8292 223.26 21.8644 223.569 21.8489C224.355 21.808 225.148 21.7784 225.934 21.7432C226.28 21.7277 226.28 21.7277 226.886 21.8151C226.955 21.825 227.045 21.8362 227.12 21.8334C227.912 21.801 228.699 21.7658 229.491 21.7319C229.661 21.7249 229.826 21.7432 229.948 21.7841C229.996 21.801 229.985 21.8292 230.187 22.0603C230.815 22.2478 231.245 22.228 231.681 22.2111C231.867 22.2041 232.032 22.197 232.154 22.1688C232.218 22.1533 232.298 22.1308 232.298 22.1125C232.298 22.0984 232.181 22.0758 232.107 22.073C231.58 22.0448 231.081 22.104 230.565 22.1167C230.326 22.1223 230.118 22.073 230.076 21.9927C230.065 21.9701 230.049 21.9462 230.033 21.9236C230.017 21.9011 230.007 21.8771 229.991 21.8546C229.783 21.8475 229.661 21.8729 229.571 21.9208C229.496 21.9603 229.39 22.0054 229.246 22.0265C229.103 22.049 228.906 22.0448 228.731 22.0519C228.561 22.0589 228.375 22.0772 228.215 22.0674C228.056 22.0561 227.928 22.0152 227.779 21.9898C227.71 21.9772 227.625 21.9588 227.556 21.9617C226.945 21.9856 226.338 22.0096 225.732 22.0406C225.413 22.0575 225.254 21.9983 225.052 21.9617C224.892 21.9335 224.733 21.9405 224.706 22.0053C224.637 22.1604 224.882 22.2252 225.424 22.1956C225.871 22.1702 226.275 22.166 226.626 22.2619C226.673 22.2745 226.785 22.2802 226.854 22.2774C227.29 22.2604 227.721 22.2393 228.157 22.2224C228.236 22.2196 228.321 22.2252 228.396 22.2308C229.48 22.3069 229.48 22.3084 229.847 22.2914C230.023 22.283 230.193 22.2759 230.177 22.0617C230.512 21.832 231.043 21.8165 231.559 21.7827C231.894 21.7615 232.037 21.8236 232.255 21.856C232.33 21.8672 232.41 21.8898 232.479 21.887C233.622 21.8405 234.76 21.7911 235.897 21.739C236.089 21.7305 236.227 21.739 236.376 21.7756C236.567 21.8221 236.78 21.8517 237.083 21.8348C237.689 21.801 238.305 21.7799 238.922 21.7517C239.236 21.7376 239.236 21.7376 239.869 21.8249C239.938 21.8348 240.028 21.8461 240.102 21.8433C240.719 21.8193 241.331 21.7897 241.942 21.7644C242.112 21.7573 242.266 21.777 242.399 21.8151C242.532 21.8531 242.692 21.8729 242.856 21.8658C243.473 21.8405 244.084 21.8123 244.696 21.7869C244.77 21.7841 244.861 21.794 244.93 21.8038C245.578 21.8912 245.578 21.8912 245.876 21.8771C246.312 21.856 246.759 21.8461 247.189 21.8179C247.609 21.7897 247.827 21.8715 248.114 21.9166C248.901 21.8841 249.693 21.8574 250.475 21.8179C250.794 21.801 250.964 21.8475 251.176 21.8841C251.251 21.8968 251.325 21.9236 251.394 21.9222C251.66 21.9166 251.921 21.9011 252.181 21.8898C252.442 21.8785 252.708 21.8672 252.968 21.856C253.266 21.8968 253.462 21.9927 253.888 21.9603C254.143 21.9405 254.414 21.9363 254.675 21.925C254.935 21.9137 255.201 21.9025 255.461 21.8912C255.637 21.8842 255.818 21.8799 255.988 21.8672C256.301 21.8461 256.456 21.9152 256.679 21.9462C256.753 21.956 256.838 21.9729 256.907 21.9701C257.434 21.9504 257.965 21.9335 258.481 21.9011C258.88 21.8757 259.151 21.918 259.433 21.9772C259.491 21.9899 259.592 21.9969 259.667 21.9941C260.283 21.9701 260.895 21.9405 261.506 21.9151C261.671 21.9081 261.83 21.9306 261.963 21.9673C262.102 22.0053 262.256 22.0237 262.426 22.0166C263.037 21.9913 263.654 21.9631 264.265 21.9377C264.34 21.9349 264.43 21.9462 264.499 21.9574C265.095 22.0448 265.095 22.0462 265.446 22.0293C265.531 22.0251 265.621 22.0223 265.706 22.018C266.142 21.9983 266.594 21.9913 267.019 21.9574C267.508 21.9194 267.864 21.9673 268.21 22.0476C268.646 22.0307 269.093 22.0209 269.518 21.9927C269.837 21.9715 270.007 22.0251 270.22 22.0603C270.294 22.073 270.374 22.0984 270.438 22.0955C271.054 22.0716 271.671 22.0505 272.277 22.0152C272.607 21.9955 272.75 22.0589 272.973 22.0913C273.048 22.1026 273.128 22.1223 273.197 22.1195C273.548 22.1082 273.899 22.0913 274.249 22.0758C274.659 22.0575 274.659 22.0589 275.201 22.1449C275.456 22.1857 275.711 22.1533 275.961 22.1435C276.227 22.1322 276.477 22.1237 276.69 22.1815C276.823 22.2182 276.982 22.2407 277.147 22.2351C277.498 22.2224 277.854 22.2097 278.199 22.1886C278.476 22.1717 278.715 22.1829 278.917 22.2351C279.061 22.2717 279.21 22.29 279.385 22.2816C280.172 22.2478 280.964 22.2125 281.751 22.1801C281.82 22.1773 281.916 22.19 281.979 22.2027C282.128 22.228 282.272 22.2562 282.415 22.2844C282.761 22.2717 283.117 22.2661 283.457 22.2464C283.819 22.2266 284.148 22.2196 284.43 22.2971C284.489 22.314 284.574 22.3379 284.643 22.3365C284.909 22.3309 285.169 22.3168 285.43 22.3055C285.69 22.2943 285.956 22.283 286.216 22.2717C286.519 22.3069 286.711 22.4084 287.136 22.376C287.391 22.3563 287.663 22.352 287.923 22.3408C288.184 22.3295 288.449 22.3168 288.71 22.3069C288.795 22.3041 288.891 22.2971 288.965 22.3027C289.045 22.3084 289.114 22.3281 289.183 22.3422C289.396 22.383 289.592 22.4239 289.895 22.4C290.151 22.3802 290.422 22.376 290.682 22.3633C291.038 22.3478 291.038 22.3478 291.629 22.4366C291.868 22.4733 292.139 22.4253 292.368 22.4563C292.522 22.4775 292.655 22.5127 292.803 22.5367C292.867 22.5465 292.968 22.5508 293.043 22.5479C293.394 22.5353 293.75 22.5226 294.095 22.5014C294.377 22.4845 294.611 22.5014 294.808 22.5522C294.951 22.5888 295.095 22.6043 295.276 22.5959C296.153 22.5564 297.03 22.5226 297.902 22.4789C298.2 22.4634 298.439 22.4873 298.604 22.5381C298.885 22.6255 299.284 22.5226 299.577 22.593C299.757 22.6367 299.938 22.6875 300.268 22.6663C300.874 22.6297 301.49 22.6099 302.102 22.5846C302.32 22.6226 302.538 22.6607 302.761 22.6987C303.112 22.6832 303.463 22.6677 303.814 22.6536C304.074 22.6424 304.34 22.6297 304.6 22.6198C304.686 22.617 304.776 22.6114 304.856 22.6184C304.935 22.6254 304.999 22.6438 305.074 22.6579C305.44 22.7269 305.44 22.7283 306.046 22.7002C306.307 22.6875 306.557 22.679 306.775 22.7354C306.977 22.7875 307.216 22.7974 307.493 22.7819C308.014 22.7537 308.54 22.7326 309.072 22.7128C309.236 22.7058 309.391 22.7297 309.529 22.7664C309.736 22.8242 309.991 22.8185 310.252 22.803C310.597 22.7833 310.938 22.7636 311.23 22.8425C311.288 22.8594 311.379 22.8834 311.443 22.8819C311.879 22.8707 312.32 22.8622 312.745 22.8354C313.17 22.8087 313.378 22.896 313.67 22.9383C314.106 22.92 314.547 22.9017 314.983 22.8834C315.068 22.8791 315.169 22.8665 315.244 22.8735C315.557 22.9031 315.738 23.0088 316.169 22.9764C316.419 22.9581 316.69 22.9524 316.95 22.9482C317.019 22.9468 317.11 22.9707 317.158 22.9891C317.184 22.9989 317.158 23.0257 317.126 23.0398C317.03 23.0793 316.913 23.1159 316.828 23.1568C316.817 23.1624 316.918 23.1878 316.977 23.199C317.12 23.2244 317.285 23.2202 317.477 23.2089C317.641 23.1991 317.812 23.2188 317.929 23.2611C317.976 23.278 317.96 23.3062 317.859 23.3992C317.859 23.4682 317.971 23.4372 318.008 23.3921C318.067 23.3273 317.955 23.3062 317.742 23.3414C317.594 23.3668 317.519 23.4034 317.556 23.433C317.578 23.4485 317.679 23.4682 317.859 23.3992C318.327 23.3146 318.678 23.2991 319.029 23.2836C319.119 23.2794 319.226 23.2653 319.29 23.2737C319.518 23.3076 319.731 23.3484 319.954 23.3865C320.209 23.378 320.449 23.3569 320.698 23.4119C321.049 23.4894 321.065 23.4823 321.405 23.4668C321.581 23.4584 321.756 23.4513 321.932 23.4443C322.107 23.4372 322.245 23.4584 322.4 23.4908C322.713 23.557 322.74 23.557 322.947 23.4668C323.069 23.4119 323.154 23.3935 323.309 23.4189C323.819 23.5049 323.824 23.5105 324.26 23.4851C324.622 23.464 324.962 23.4584 325.228 23.5387C325.409 23.5951 325.467 23.5824 325.611 23.5232C325.993 23.3668 326.169 23.3696 326.887 23.4823C327.221 23.5359 327.567 23.4781 327.907 23.4711C328.194 23.4654 328.396 23.4992 328.418 23.588C328.434 23.643 328.482 23.6825 328.673 23.7008C328.747 23.7078 328.838 23.7177 328.912 23.7149C329.353 23.698 329.789 23.6782 330.231 23.6585C330.454 23.6486 330.576 23.5824 330.534 23.495C330.486 23.402 330.571 23.3682 330.89 23.3414C331.081 23.3259 331.235 23.3287 331.39 23.3541C331.56 23.3823 331.512 23.4076 331.363 23.4584C331.007 23.5824 331.049 23.6585 331.507 23.7445C331.666 23.7741 331.794 23.8008 331.831 23.8445C331.852 23.8671 331.831 23.8967 331.879 23.9136C332.139 24.008 332.501 24.0686 332.905 24.1137C333.293 24.0757 333.559 24.1391 333.856 24.1898C334.09 24.2293 334.367 24.1955 334.617 24.1814C334.898 24.1659 335.132 24.1771 335.334 24.2293C335.478 24.2659 335.627 24.2828 335.802 24.2758C336.153 24.2603 336.509 24.2504 336.855 24.2279C337.152 24.2081 337.376 24.2363 337.562 24.2842C337.796 24.3448 338.056 24.304 338.301 24.3124C338.63 24.3223 338.795 24.4477 339.226 24.4139C339.481 24.3942 339.747 24.3871 340.013 24.3815C340.082 24.3801 340.167 24.404 340.225 24.4209C340.507 24.4985 340.837 24.4942 341.198 24.4717C341.448 24.4562 341.693 24.4421 341.937 24.4956C342.341 24.5858 342.788 24.6648 343.213 24.7479C343.272 24.8127 343.229 24.8888 343.532 24.9269C343.692 24.9466 343.84 24.9762 343.963 25.0086C344.112 25.0467 344.25 25.0566 344.441 25.0467C344.787 25.027 345.148 25.0227 345.489 24.9974C345.802 24.9748 345.999 25.0213 346.19 25.065C346.344 25.1003 346.488 25.1172 346.674 25.0918C346.866 25.0678 347.004 25.0833 347.158 25.1214C347.376 25.1735 347.392 25.1679 348.115 25.1834C348.189 25.1848 348.28 25.2059 348.322 25.2243C348.343 25.2341 348.296 25.2623 348.258 25.2764C348.211 25.2933 348.136 25.3131 348.067 25.3173C347.28 25.3539 346.488 25.3863 345.701 25.423C345.621 25.4272 345.536 25.4371 345.478 25.4512C345.414 25.4667 345.334 25.4878 345.334 25.5075C345.334 25.5216 345.441 25.5385 345.515 25.5484C345.749 25.5808 346.026 25.5315 346.254 25.5681C346.408 25.5921 346.536 25.6259 346.69 25.6485C346.754 25.6583 346.855 25.6569 346.935 25.6541C347.2 25.6442 347.461 25.6302 347.727 25.6217C347.801 25.6203 347.886 25.6344 347.955 25.6457C348.466 25.7302 348.466 25.7302 348.907 25.7119C349.082 25.7049 349.268 25.6837 349.433 25.6922C349.593 25.7006 349.731 25.7387 349.875 25.7626C350.172 25.8134 350.454 25.8627 350.475 25.9726C350.486 26.0149 350.661 26.0515 350.837 26.0544C351.007 26.0572 351.188 26.0417 351.363 26.0332C351.778 26.0163 351.778 26.0163 352.315 26.1023C352.464 26.1262 352.623 26.1291 352.814 26.115C352.889 26.1093 352.979 26.115 353.059 26.122C353.32 26.1432 353.32 26.1699 353.149 26.2207C352.91 26.2954 352.931 26.3024 353.601 26.3658C353.856 26.3898 354.053 26.4349 354.266 26.4744C354.611 26.5378 354.606 26.5378 354.378 26.6209C354.324 26.6392 354.276 26.659 354.223 26.6787C354.069 26.7337 353.947 26.7929 353.628 26.7985C353.277 26.8041 352.926 26.8267 352.575 26.8422C352.235 26.8577 352.145 26.8915 352.176 26.9873C352.214 27.1029 352.283 27.1156 352.894 27.1142C353.07 27.1142 353.224 27.1254 353.357 27.1635C353.293 27.2086 353.176 27.2438 353.006 27.2523C352.57 27.2734 352.129 27.2918 351.693 27.3101C351.342 27.3256 350.991 27.3411 350.64 27.3566C350.422 27.3664 350.284 27.4397 350.342 27.5215C350.374 27.568 350.401 27.6145 350.427 27.661C350.486 27.754 350.598 27.778 350.954 27.7738C351.044 27.7723 351.129 27.7611 351.214 27.7639C351.56 27.7737 351.725 27.8907 352.139 27.8668C352.485 27.847 352.846 27.8428 353.187 27.8174C353.5 27.7949 353.676 27.8456 353.894 27.8837C353.968 27.8964 354.048 27.9231 354.112 27.9217C354.553 27.9062 354.994 27.8907 355.425 27.864C355.627 27.8527 355.749 27.8611 355.909 27.895C356.291 27.9767 356.302 27.9725 356.871 27.9471C357.286 27.9274 357.291 27.9302 357.823 28.0162C357.971 28.0401 358.131 28.0401 358.322 28.0288C358.572 28.0147 358.833 27.9922 359.093 28.0133C359.173 28.019 359.274 28.0359 359.3 28.0542C359.316 28.0669 359.242 28.0979 359.178 28.1078C358.71 28.181 358.163 28.1684 357.652 28.198C357.493 28.2064 357.333 28.1796 357.2 28.1416C357.062 28.1035 356.913 28.088 356.733 28.0951C356.382 28.1106 356.026 28.1204 355.68 28.143C355.382 28.1627 355.175 28.1303 354.968 28.0866C354.898 28.0725 354.819 28.0457 354.75 28.0472C353.963 28.0753 353.171 28.1035 352.389 28.143C352.076 28.1599 351.895 28.1148 351.682 28.0768C351.608 28.0641 351.533 28.0373 351.464 28.0387C351.198 28.0443 350.938 28.0598 350.672 28.0711C349.704 28.1134 348.742 28.1557 347.775 28.1951C347.711 28.198 347.631 28.1684 347.557 28.1557C347.413 28.1303 347.264 28.1063 347.115 28.0824C346.849 28.0937 346.589 28.1078 346.323 28.1162C346.132 28.1218 345.962 28.1416 345.935 28.1951C345.919 28.2304 346.095 28.2628 346.281 28.26C346.461 28.2571 346.642 28.2402 346.791 28.2586C347.53 28.3488 347.53 28.3502 347.993 28.3318C348.397 28.3149 348.354 28.3008 348.71 28.3783C348.864 28.4122 349.003 28.4319 349.178 28.4235C349.614 28.4037 350.055 28.384 350.497 28.3671C350.566 28.3643 350.656 28.3784 350.725 28.3896C351.246 28.4742 351.246 28.477 351.677 28.4559C352.24 28.4305 352.262 28.4235 352.639 28.5094C352.9 28.5686 353.139 28.5277 353.389 28.5249C353.676 28.5799 353.989 28.6292 354.25 28.6912C354.558 28.7645 354.883 28.7518 355.233 28.7307C355.494 28.7152 355.749 28.7095 355.962 28.7673C356.164 28.8209 356.408 28.8265 356.685 28.8124C356.935 28.7997 357.19 28.773 357.45 28.804C357.52 28.8124 357.626 28.8336 357.62 28.8463C357.615 28.866 357.546 28.8942 357.477 28.9026C356.988 28.9604 356.451 28.959 355.935 28.9858C355.866 28.99 355.776 28.9745 355.707 28.9632C355.558 28.9379 355.414 28.9083 355.271 28.8815C355.01 28.8899 354.744 28.8928 354.489 28.9097C354.292 28.9223 354.143 28.921 354 28.8871C353.867 28.8561 353.724 28.8181 353.564 28.8082C353.405 28.7983 353.219 28.8195 353.043 28.8279C352.868 28.8364 352.666 28.8322 352.527 28.8547C352.389 28.8772 352.304 28.9266 352.214 28.966C352.113 29.0097 351.974 29.0238 351.772 29.0281C351.586 29.0323 351.438 29.0266 351.299 28.9872C351.241 28.9703 351.161 28.9576 351.081 28.9463C351.007 28.9364 350.922 28.9209 350.853 28.9238C350.061 28.9562 349.274 28.9914 348.482 29.0252C348.088 29.0422 348.094 29.0421 347.275 28.959C347.2 28.9519 347.11 28.9421 347.036 28.9449C346.594 28.9618 346.158 28.9815 345.717 29.0013C345.271 29.021 345.276 29.0182 344.516 28.9294C344.377 28.9125 344.175 28.935 344.011 28.9322C343.665 28.9252 343.495 28.8068 343.091 28.8293C342.745 28.8491 342.384 28.8533 342.038 28.8787C341.724 28.9012 341.544 28.8519 341.331 28.8138C341.257 28.8012 341.177 28.773 341.113 28.7758C340.321 28.8068 339.534 28.842 338.482 28.8463C338.221 28.8463 338.338 28.8759 338.508 28.8857C338.753 28.9012 338.833 28.8716 338.7 28.8153C338.604 28.7758 338.466 28.756 338.354 28.7659C338.296 28.7715 338.221 28.7983 338.482 28.8463C338.758 28.8998 338.742 28.9294 338.79 28.9463C338.907 28.9872 339.072 29.0041 339.242 28.9985C339.508 28.9886 339.768 28.9745 340.034 28.966C340.108 28.9632 340.199 28.9731 340.268 28.9844C340.853 29.0717 340.858 29.0774 341.48 29.0436C341.677 29.0337 341.82 29.0337 341.974 29.0605C342.187 29.0971 342.341 29.1591 342.666 29.1394C343.096 29.1126 343.537 29.0971 343.979 29.0816C344.048 29.0788 344.122 29.1042 344.202 29.1154C344.42 29.1493 344.579 29.2127 344.904 29.1859C345.154 29.1648 345.425 29.1591 345.691 29.1549C345.76 29.1535 345.866 29.176 345.898 29.1944C345.962 29.2268 345.882 29.2648 345.701 29.2916C345.627 29.3029 345.526 29.3001 345.441 29.3043C345.09 29.3198 344.739 29.3367 344.388 29.3494C344.202 29.3564 344.027 29.3776 344.005 29.4297C343.989 29.465 344.181 29.496 344.361 29.4931C344.627 29.4889 344.893 29.4776 345.148 29.4593C345.6 29.4283 345.994 29.4368 346.36 29.5255C346.621 29.5876 346.605 29.565 346.881 29.7482C346.951 29.7947 347.158 29.799 347.339 29.7961C347.775 29.7891 347.977 29.8102 347.939 29.8539C347.892 29.9075 347.737 29.9244 347.541 29.9314C347.19 29.9427 346.839 29.961 346.488 29.9765C346.403 29.9808 346.307 29.9892 346.228 29.9864C346.148 29.9836 346.073 29.9667 346.004 29.954C345.855 29.9272 345.728 29.8863 345.568 29.8765C345.409 29.8666 345.223 29.8877 345.047 29.8962C344.872 29.9032 344.686 29.9244 344.526 29.9145C344.367 29.9047 344.234 29.8624 344.09 29.837C344.021 29.8243 343.936 29.8046 343.867 29.806C343.516 29.8173 343.165 29.8356 342.814 29.8497C342.384 29.868 342.384 29.868 341.863 29.7806C341.714 29.7553 341.56 29.7567 341.363 29.768C340.938 29.7905 340.932 29.7863 340.156 29.7045C340.082 29.6961 339.991 29.6862 339.917 29.6904C339.125 29.7229 338.338 29.7581 337.551 29.7919C336.876 29.8215 336.876 29.8215 336.504 29.9625C336.227 30.0667 336.222 30.0667 336.493 30.1147C336.711 30.1541 336.908 30.2119 337.147 30.233C337.37 30.2528 337.647 30.1893 337.892 30.2542C338.014 30.2866 338.173 30.3218 338.327 30.3275C338.572 30.3345 338.832 30.2936 339.066 30.3556C339.183 30.3866 339.359 30.4191 339.508 30.4205C339.768 30.4233 340.034 30.4007 340.295 30.3909C340.374 30.3881 340.465 30.3881 340.539 30.3951C340.619 30.4036 340.688 30.4205 340.757 30.4346C340.97 30.4825 341.198 30.505 341.475 30.4811C341.927 30.4416 342.331 30.4613 342.682 30.5515C342.729 30.5642 342.846 30.5656 342.921 30.56C343.112 30.5459 343.277 30.5445 343.42 30.5713C343.479 30.5825 343.564 30.6023 343.553 30.615C343.537 30.6361 343.474 30.6643 343.405 30.6713C342.905 30.7192 342.368 30.7249 341.852 30.7503C341.783 30.7531 341.698 30.7347 341.629 30.7221C341.48 30.6967 341.352 30.6544 341.193 30.6446C341.033 30.6347 340.847 30.653 340.672 30.6601C340.497 30.6671 340.31 30.6883 340.151 30.6798C339.991 30.6699 339.843 30.6347 339.715 30.6037C339.566 30.5685 339.423 30.5642 339.226 30.5783C338.971 30.5966 338.705 30.5995 338.444 30.6093C338.301 30.5826 338.157 30.5529 338.008 30.5276C337.939 30.5149 337.854 30.4994 337.78 30.5008C337.429 30.5121 337.078 30.529 336.727 30.5445C336.376 30.56 336.376 30.56 335.781 30.4726C335.712 30.4628 335.621 30.4515 335.547 30.4543C335.106 30.4712 334.67 30.4923 334.228 30.5093C334.058 30.5163 333.904 30.4966 333.766 30.4585C333.633 30.4205 333.474 30.3993 333.309 30.4064C332.607 30.436 331.905 30.4642 331.203 30.4994C330.922 30.5135 330.682 30.5008 330.491 30.4501C330.268 30.3923 330.018 30.4064 329.757 30.4177C329.167 30.4458 329.162 30.4444 328.785 30.3726C328.71 30.3585 328.636 30.3317 328.567 30.3331C327.955 30.3542 327.339 30.374 326.732 30.4078C326.414 30.4261 326.243 30.3768 326.031 30.3401C325.956 30.3275 325.877 30.3007 325.813 30.3035C325.372 30.319 324.93 30.3331 324.5 30.3613C324.069 30.3895 323.904 30.2584 323.58 30.2598C323.139 30.2612 322.703 30.2936 322.267 30.3134C321.916 30.3289 321.565 30.3444 321.214 30.3599C320.863 30.3754 320.512 30.3881 320.161 30.4064C319.975 30.4162 319.837 30.4036 319.683 30.3683C319.486 30.3218 319.252 30.2852 319.04 30.2429C318.715 30.1823 318.715 30.1823 318.322 30.1992C318.237 30.2034 318.147 30.2062 318.061 30.2105C317.418 30.2415 317.418 30.2387 316.599 30.1499C316.562 30.1457 316.467 30.1612 316.429 30.1724C316.318 30.2091 316.217 30.2485 316.116 30.2866C315.972 30.264 315.797 30.2514 315.701 30.2189C315.43 30.1273 315.005 30.2528 314.728 30.1626C314.627 30.1287 314.452 30.0991 314.292 30.0907C314.127 30.0822 313.941 30.102 313.771 30.1104C313.33 30.1316 313.33 30.1302 312.952 30.2556C312.761 30.3176 312.485 30.3063 312.235 30.3204C311.974 30.3359 311.724 30.3444 311.506 30.2866C311.31 30.2344 311.071 30.2218 310.789 30.2387C310.443 30.2598 310.087 30.2725 309.736 30.2852C309.662 30.288 309.571 30.281 309.497 30.2725C308.683 30.1893 308.683 30.1879 308.29 30.2063C308.115 30.2147 307.934 30.2175 307.764 30.2302C307.477 30.2528 307.259 30.2232 307.051 30.1781C306.982 30.164 306.902 30.1372 306.833 30.1386C306.482 30.1457 306.137 30.1583 305.791 30.171C305.525 30.1809 305.26 30.1865 305.004 30.2063C304.579 30.2387 304.372 30.1471 304.079 30.1048C303.644 30.1231 303.202 30.1358 302.766 30.1612C302.564 30.1724 302.431 30.1682 302.277 30.1344C302.081 30.0921 301.9 30.0442 301.581 30.0653C301.155 30.0935 300.709 30.1034 300.273 30.1203C299.981 30.0766 299.768 29.9878 299.348 30.0202C299.093 30.04 298.822 30.0442 298.561 30.0555C298.21 30.071 297.859 30.0851 297.509 30.102C297.131 30.1189 297.136 30.1147 296.557 30.0315C296.222 29.9822 295.876 30.0371 295.536 30.0456C295.27 30.0526 295.137 30.1175 295.201 30.2006C295.265 30.2838 295.121 30.3486 294.877 30.3599C294.265 30.3867 293.649 30.4148 293.037 30.4388C292.963 30.4416 292.873 30.4317 292.803 30.4219C292.15 30.3331 292.15 30.3345 291.857 30.3472C291.421 30.3683 290.975 30.3796 290.544 30.4064C290.246 30.4247 290.028 30.3951 289.837 30.3472C289.688 30.3106 289.55 30.3021 289.358 30.3106C287.253 30.405 285.148 30.4924 283.048 30.5896C282.734 30.6037 282.554 30.5628 282.341 30.5248C282.267 30.5121 282.197 30.4853 282.123 30.4853C281.947 30.4853 281.772 30.498 281.597 30.5065C280.81 30.5403 280.023 30.5811 279.231 30.6065C278.896 30.6178 278.805 30.6826 278.662 30.7362C278.55 30.777 278.423 30.7939 278.226 30.7996C278.035 30.8052 277.896 30.7982 277.748 30.7615C277.556 30.7136 277.338 30.684 277.041 30.7037C276.695 30.7263 276.344 30.7362 275.988 30.7517C275.807 30.7587 275.669 30.7841 275.61 30.8348C275.6 30.8433 275.711 30.8644 275.775 30.8771C275.988 30.9194 276.19 30.9687 276.429 30.9983C276.674 31.0279 276.939 30.9941 277.195 30.9856C277.285 30.9828 277.37 30.9743 277.455 30.9758C277.535 30.9772 277.631 30.9842 277.689 30.9969C277.966 31.0603 278.258 31.104 278.641 31.066C278.97 31.0843 279.141 31.2012 279.56 31.1702C279.816 31.1519 280.081 31.1435 280.347 31.1364C280.416 31.135 280.491 31.1604 280.565 31.1731C280.778 31.2083 280.948 31.2647 281.267 31.2407C281.607 31.2153 281.969 31.2111 282.314 31.1914C282.506 31.1801 282.644 31.19 282.793 31.2266C282.984 31.2731 283.202 31.3083 283.5 31.2858C283.755 31.2661 284.026 31.2618 284.287 31.2492C284.627 31.2337 284.627 31.2351 285.233 31.3224C285.302 31.3323 285.392 31.3436 285.467 31.3408C285.908 31.3239 286.344 31.3027 286.785 31.2858C286.955 31.2788 287.12 31.2971 287.237 31.3379C287.285 31.3549 287.269 31.3831 287.285 31.407C286.408 31.4451 285.531 31.4775 284.659 31.524C284.329 31.5423 284.18 31.4845 283.962 31.4521C283.888 31.4408 283.808 31.4169 283.739 31.4197C283.122 31.4437 282.511 31.469 281.9 31.5C281.708 31.5099 281.565 31.5042 281.421 31.4634C281.054 31.3549 280.608 31.4141 280.193 31.4296C279.874 31.4408 279.773 31.4845 279.81 31.5775C279.858 31.6875 280.05 31.7213 280.539 31.7016C280.714 31.6945 280.889 31.6846 281.065 31.679C281.235 31.6734 281.389 31.6917 281.528 31.7297C281.66 31.7678 281.82 31.7875 281.985 31.7819C282.336 31.7692 282.692 31.7565 283.032 31.7354C283.314 31.7185 283.548 31.7326 283.744 31.7847C283.962 31.8425 284.218 31.8298 284.473 31.8171C285.068 31.7889 285.073 31.7903 285.446 31.8608C285.52 31.8749 285.595 31.9017 285.664 31.9003C286.275 31.8791 286.892 31.8608 287.492 31.827C287.806 31.8101 287.987 31.8552 288.194 31.8918C288.269 31.9045 288.343 31.9327 288.412 31.9299C288.853 31.9144 289.295 31.8989 289.725 31.8721C289.927 31.8594 290.05 31.8679 290.214 31.9017C290.608 31.9848 290.618 31.982 291.177 31.9552C291.347 31.9468 291.533 31.9313 291.692 31.9426C291.852 31.9538 291.979 31.9947 292.128 32.0201C292.197 32.0313 292.282 32.0468 292.357 32.044C292.708 32.0327 293.059 32.0158 293.409 32.0003C293.739 31.9848 293.739 31.9862 294.356 32.0736C294.606 32.1103 294.866 32.0793 295.116 32.068C295.387 32.0553 295.632 32.0553 295.839 32.1103C296.046 32.1652 296.296 32.1624 296.562 32.1511C296.812 32.1399 297.067 32.1089 297.322 32.1469C297.907 32.2343 297.907 32.2357 298.269 32.2188C298.795 32.1948 299.316 32.1723 299.848 32.1511C299.917 32.1483 300.007 32.1652 300.076 32.1765C300.225 32.2019 300.353 32.2441 300.512 32.254C300.672 32.2653 300.858 32.2484 301.028 32.2399C301.575 32.2131 301.613 32.2033 301.98 32.2963C302.288 32.3724 302.671 32.2625 302.958 32.3499C303.123 32.3992 303.346 32.4386 303.654 32.4147C303.909 32.3949 304.175 32.3893 304.441 32.378C304.861 32.3597 304.861 32.3611 305.393 32.4457C305.462 32.457 305.552 32.471 305.621 32.4682C305.972 32.457 306.328 32.4471 306.669 32.4217C307.067 32.3921 307.322 32.4457 307.62 32.4978C307.854 32.5387 308.131 32.5049 308.38 32.4908C308.652 32.4767 308.896 32.4809 309.098 32.5359C309.311 32.5922 309.561 32.5852 309.826 32.5739C310.076 32.5641 310.331 32.5316 310.587 32.5711C311.134 32.6585 311.134 32.6585 311.533 32.6416C311.884 32.6261 312.235 32.6092 312.586 32.5979C312.655 32.5951 312.74 32.6134 312.809 32.6261C312.958 32.6514 313.085 32.6937 313.245 32.7036C313.404 32.7135 313.59 32.6951 313.766 32.6881C313.941 32.681 314.127 32.6599 314.287 32.6684C314.446 32.6768 314.595 32.7121 314.723 32.7431C314.872 32.7797 315.01 32.7839 315.212 32.7698C315.467 32.7515 315.733 32.7473 315.993 32.7374C316.137 32.7642 316.286 32.791 316.424 32.8206C316.568 32.8516 316.722 32.8488 316.918 32.8389C317.572 32.8051 317.578 32.8093 318.125 32.8967C318.375 32.9361 318.636 32.9037 318.886 32.8939C319.151 32.8826 319.401 32.8769 319.608 32.9333C319.811 32.9869 320.06 32.9939 320.326 32.977C320.496 32.9657 320.677 32.9587 320.853 32.9545C320.932 32.9531 321.028 32.9587 321.086 32.97C321.368 33.0292 321.645 33.0827 322.033 33.0447C322.373 33.0559 322.543 33.1715 322.953 33.1489C323.298 33.1292 323.66 33.125 324 33.0996C324.313 33.0771 324.537 33.1165 324.696 33.1659C324.983 33.2532 325.387 33.1349 325.675 33.2208C325.839 33.2702 326.052 33.3096 326.371 33.2885C326.722 33.2659 326.833 33.2955 326.934 33.3843C326.993 33.435 326.982 33.4759 326.876 33.5154C326.77 33.5562 326.653 33.5492 326.483 33.5027C326.286 33.4505 326.052 33.4407 325.77 33.4519C325.494 33.4632 325.324 33.3899 325.095 33.3618C324.866 33.3322 324.595 33.3815 324.356 33.3434C323.793 33.2546 323.793 33.2546 323.41 33.2716C323.149 33.2828 322.878 33.2885 322.623 33.3082C322.32 33.3322 322.123 33.2885 321.916 33.249C321.841 33.2349 321.767 33.2081 321.703 33.2095C321.092 33.2307 320.475 33.2504 319.869 33.2857C319.55 33.304 319.38 33.2532 319.167 33.218C319.093 33.2053 319.013 33.18 318.949 33.1828C318.423 33.2025 317.902 33.2279 317.376 33.2518C317.275 33.2899 317.163 33.3265 317.067 33.3674C316.966 33.4097 316.828 33.428 316.626 33.4266C316.291 33.4266 315.961 33.4858 315.627 33.4111C315.281 33.335 315.254 33.3392 314.92 33.3575C314.494 33.3815 314.042 33.3759 313.644 33.4308C313.574 33.4407 313.5 33.4674 313.5 33.4872C313.495 33.4999 313.606 33.5182 313.676 33.5295C313.909 33.5633 314.18 33.514 314.414 33.5492C314.569 33.5717 314.696 33.6056 314.85 33.6295C314.914 33.6394 315.01 33.638 315.095 33.6366C315.185 33.6352 315.27 33.6253 315.355 33.6267C315.435 33.6281 315.52 33.6366 315.584 33.6493C315.877 33.7028 316.185 33.7521 316.445 33.8156C316.7 33.8776 316.94 33.8353 317.195 33.8325C318.216 33.9311 318.216 33.9325 318.902 33.9015C319.072 33.8945 319.247 33.886 319.423 33.8874C319.497 33.8874 319.566 33.9128 319.64 33.9269C319.853 33.9692 320.055 34.0072 320.353 33.9847C320.608 33.9649 320.879 33.9607 321.14 33.948C321.491 33.9325 321.491 33.9325 322.086 34.0213C322.235 34.0439 322.394 34.0411 322.586 34.0298C322.751 34.0199 322.921 34.0411 323.038 34.0819C323.085 34.0988 323.069 34.127 323.085 34.151C322.559 34.1735 322.027 34.189 321.517 34.2229C321.188 34.244 321.039 34.1834 320.821 34.151C320.746 34.1397 320.667 34.1158 320.597 34.1186C320.076 34.1397 319.555 34.1637 319.034 34.1918C318.971 34.1947 318.891 34.2271 318.886 34.2468C318.875 34.2835 319.008 34.3187 319.199 34.3173C319.454 34.3159 319.704 34.2919 319.933 34.3497C320.124 34.4004 320.363 34.423 320.645 34.4004C320.815 34.3878 320.996 34.3877 321.166 34.3765C321.618 34.3426 322.027 34.3497 322.368 34.4455C322.628 34.4709 322.883 34.4469 323.133 34.4343C323.319 34.4244 323.5 34.4145 323.633 34.4413C323.915 34.4977 324.191 34.554 324.579 34.516C324.999 34.5555 325.318 34.6386 325.669 34.7063C325.834 34.7387 325.962 34.757 326.153 34.7359C326.233 34.7274 326.328 34.7274 326.413 34.7232C326.589 34.7161 326.775 34.695 326.934 34.7034C327.094 34.7133 327.227 34.7542 327.37 34.7795C327.44 34.7922 327.519 34.8134 327.588 34.812C327.854 34.8049 328.115 34.7908 328.375 34.7795C328.636 34.7697 328.896 34.7598 329.157 34.7499C329.375 34.7866 329.598 34.8232 329.816 34.8599C330.167 34.8444 330.518 34.8289 330.863 34.8148C331.251 34.7979 331.251 34.7993 331.81 34.8867C332.059 34.9261 332.325 34.9007 332.565 34.8824C332.963 34.8528 333.229 34.9064 333.511 34.9628C333.569 34.974 333.676 34.9811 333.745 34.9754C334.021 34.9557 334.26 34.9712 334.462 35.0234C334.606 35.06 334.75 35.0769 334.925 35.0699C335.536 35.0431 336.148 35.0149 336.759 34.9909C336.833 34.9881 336.919 35.0008 336.988 35.0121C337.53 35.0981 337.535 35.1023 337.934 35.0797C338.29 35.06 338.62 35.0515 338.902 35.1291C338.96 35.146 339.05 35.1699 339.114 35.1685C339.55 35.1544 339.991 35.1389 340.422 35.115C340.619 35.1037 340.757 35.1079 340.911 35.1403C341.108 35.1812 341.283 35.2305 341.608 35.2122C342.506 35.1601 342.511 35.1685 343.575 35.2658C343.649 35.2728 343.75 35.2615 343.835 35.2559C344.016 35.2418 344.149 35.2615 344.308 35.2939C344.664 35.3672 344.675 35.363 345.015 35.3475C345.276 35.3348 345.547 35.332 345.802 35.3109C346.196 35.2799 346.456 35.3348 346.749 35.387C346.982 35.4278 347.254 35.394 347.503 35.3813C347.775 35.3672 348.019 35.3715 348.221 35.425C348.359 35.4616 348.508 35.4814 348.684 35.4743C349.295 35.449 349.906 35.4208 350.518 35.3954C350.592 35.3926 350.683 35.4039 350.752 35.4137C351.358 35.5011 351.358 35.5054 351.959 35.4729C352.15 35.4631 352.309 35.4603 352.453 35.4898C352.591 35.518 352.74 35.5448 352.884 35.5716C353.144 35.5617 353.41 35.5589 353.665 35.542C353.862 35.5293 354 35.535 354.154 35.5645C354.356 35.6026 354.526 35.6688 354.845 35.6364C355.01 35.6209 355.201 35.6251 355.366 35.611C355.563 35.5927 355.696 35.604 355.85 35.6406C356.042 35.6843 356.238 35.7294 356.547 35.7069C356.887 35.6815 357.248 35.6773 357.594 35.6576C357.785 35.6463 357.918 35.6576 358.072 35.6942C358.264 35.7407 358.482 35.7703 358.779 35.752C359.386 35.7167 359.391 35.7238 359.981 35.8126C360.13 35.8351 360.289 35.8323 360.481 35.821C360.646 35.8112 360.816 35.8323 360.932 35.8732C361.044 35.9183 361.034 35.9465 361.044 35.9704ZM313.67 23.2597C313.495 23.2667 313.319 23.2752 313.064 23.1525C313.048 23.1314 313.059 23.106 313.022 23.0877C312.937 23.0497 312.804 23.0229 312.644 23.0187C312.357 23.013 312.011 23.0609 312.017 23.0976C312.022 23.1286 312.112 23.1554 312.288 23.1807C312.362 23.1906 312.421 23.2075 312.49 23.2188C312.692 23.2512 312.851 23.3146 313.144 23.2822C313.091 23.1948 313.117 23.2385 313.144 23.2822C313.117 23.3358 313.197 23.3738 313.388 23.3893C313.442 23.3935 313.521 23.3907 313.564 23.3823C313.729 23.3513 313.755 23.309 313.633 23.1977C313.612 23.216 313.628 23.2484 313.676 23.2568C313.723 23.2653 313.84 23.2583 313.899 23.2484C314.048 23.2216 314.122 23.1864 314.085 23.1568C314.064 23.1413 313.963 23.1215 313.899 23.1215C313.787 23.1215 313.686 23.1525 313.67 23.2597ZM356.658 39.6037C356.27 39.6305 355.824 39.6206 355.435 39.6756C355.366 39.6854 355.297 39.7108 355.292 39.7305C355.287 39.7432 355.393 39.7615 355.457 39.7714C355.6 39.794 355.76 39.7869 355.946 39.7798C356.228 39.77 356.392 39.8348 356.61 39.8672C356.679 39.8771 356.77 39.8841 356.844 39.8813C357.275 39.8644 357.7 39.8461 358.131 39.8264C358.205 39.8221 358.285 39.8123 358.349 39.7996C358.561 39.7587 358.54 39.7319 358.333 39.7009C358.104 39.6671 357.924 39.6107 357.69 39.5839C357.355 39.5459 357.014 39.5966 356.658 39.6037ZM326.467 40.6325C326.206 40.6438 325.951 40.6551 325.69 40.6663C325.605 40.6706 325.515 40.672 325.435 40.6776C325.27 40.6875 325.148 40.7171 325.068 40.7636C325.191 40.8002 325.34 40.8213 325.504 40.8171C325.765 40.8087 326.02 40.7903 326.281 40.7861C326.562 40.7805 326.727 40.8439 326.945 40.8763C327.014 40.8862 327.099 40.8876 327.179 40.889C327.572 40.8946 327.812 40.8214 327.737 40.7185C327.684 40.6381 327.482 40.5902 327.238 40.6001C326.982 40.61 326.722 40.6212 326.467 40.6325ZM358.476 37.5207C358.54 37.4967 358.609 37.4798 358.641 37.4587C358.737 37.3868 358.7 37.3332 358.524 37.2769C358.312 37.2078 358.051 37.2543 357.812 37.2614C357.753 37.2628 357.69 37.2924 357.658 37.3107C357.636 37.3234 357.636 37.3502 357.668 37.3572C357.929 37.4136 358.205 37.4657 358.476 37.5207ZM312.357 33.3575C312.102 33.3688 311.841 33.3773 311.586 33.3928C311.522 33.397 311.464 33.4238 311.427 33.4421C311.358 33.4759 311.432 33.5224 311.65 33.5266C311.9 33.5323 312.16 33.5083 312.421 33.497C312.75 33.483 312.947 33.4308 312.825 33.3857C312.708 33.342 312.548 33.3336 312.357 33.3575ZM32.5094 30.3458C32.6796 30.3387 32.855 30.3331 33.0251 30.3232C33.1846 30.3134 33.307 30.2824 33.3867 30.2359C33.2538 30.1992 33.1049 30.1795 32.9401 30.1837C32.6796 30.1922 32.4244 30.2034 32.1693 30.2175C32.0098 30.226 31.8556 30.257 31.8184 30.3049C31.7812 30.3416 32.1373 30.3627 32.5094 30.3458ZM289.874 30.1287C289.943 30.1414 290.012 30.1668 290.081 30.1668C290.252 30.1668 290.427 30.1583 290.587 30.1442C290.656 30.1386 290.709 30.1132 290.741 30.0935C290.762 30.0808 290.757 30.0583 290.725 30.047C290.571 29.9794 289.954 30.0033 289.853 30.0808C289.842 30.0949 289.869 30.1132 289.874 30.1287ZM273.101 22.4112C273.117 22.4338 273.122 22.4563 273.144 22.4789C273.186 22.5212 273.303 22.5522 273.473 22.5733C273.606 22.5381 273.675 22.4986 273.67 22.4563C273.665 22.4338 273.649 22.4112 273.627 22.3887C273.585 22.3464 273.468 22.3154 273.298 22.2943C273.165 22.3281 273.101 22.3675 273.101 22.4112ZM370.762 40.8777C370.715 40.896 370.667 40.9144 370.614 40.9313C370.757 40.9722 370.89 40.9848 370.991 40.9623C371.055 40.9482 371.092 40.927 371.14 40.9087C370.996 40.8679 370.869 40.8566 370.762 40.8777ZM367.456 41.0694C367.525 41.0821 367.589 41.099 367.663 41.1074C367.785 41.1215 367.897 41.0976 367.982 41.0468C367.913 41.0342 367.849 41.0172 367.775 41.0088C367.652 40.9947 367.541 41.0187 367.456 41.0694ZM369.55 40.8115C369.513 40.8453 369.588 40.8735 369.784 40.8975C369.832 40.8791 369.896 40.8622 369.928 40.8425C369.981 40.8101 369.891 40.7805 369.699 40.7579C369.646 40.7748 369.598 40.7932 369.55 40.8115ZM358.328 39.2922C358.29 39.326 358.365 39.3542 358.561 39.3782C358.609 39.3599 358.673 39.343 358.705 39.3232C358.758 39.2908 358.668 39.2612 358.476 39.2387C358.423 39.2556 358.375 39.2739 358.328 39.2922ZM343.038 29.3198C342.99 29.3381 342.942 29.3564 342.889 29.3733C343.032 29.4142 343.165 29.4269 343.266 29.4043C343.33 29.3902 343.367 29.3691 343.415 29.3508C343.272 29.3099 343.144 29.2986 343.038 29.3198ZM328.391 24.0291C328.519 24.039 328.625 24.0193 328.715 23.9671C328.646 23.9545 328.582 23.9375 328.508 23.9291C328.386 23.915 328.274 23.939 328.189 23.9897C328.258 24.0038 328.327 24.0165 328.391 24.0291ZM320.613 23.698C320.566 23.7163 320.518 23.7346 320.464 23.7515C320.608 23.7924 320.741 23.8051 320.842 23.7825C320.906 23.7684 320.943 23.7473 320.991 23.729C320.847 23.6881 320.72 23.6782 320.613 23.698ZM267.87 22.4098C267.822 22.4281 267.774 22.4465 267.721 22.4634C267.865 22.5043 267.997 22.5169 268.098 22.4944C268.162 22.4803 268.199 22.4591 268.247 22.4408C268.104 22.4 267.976 22.3901 267.87 22.4098ZM5.24717 33.8762C5.17806 33.8635 5.10901 33.8508 5.04521 33.8367C4.89104 33.8748 4.84321 33.91 4.92827 33.9368C4.98143 33.9537 5.06112 33.9635 5.13023 33.9762C5.28972 33.9382 5.32692 33.9043 5.24717 33.8762Z" fill="#BECEFF"/>
<path d="M94.7105 7.56674C94.0991 7.59352 93.4931 7.62734 92.8817 7.64425C92.5574 7.6527 92.4405 7.71331 92.3076 7.76968C92.2013 7.81478 92.079 7.82887 91.8823 7.83733C90.2236 7.90638 88.5701 7.97967 86.9167 8.05155C86.7094 8.03322 86.6084 8.00363 86.6562 7.9684C86.6828 7.94726 86.7466 7.91766 86.8104 7.91485C87.9428 7.8627 89.0698 7.80914 90.2075 7.76827C90.5318 7.75699 90.6223 7.69498 90.7871 7.64425C90.8402 7.62734 90.8828 7.60197 90.9519 7.5921C91.021 7.58083 91.122 7.58224 91.2124 7.57942C93.0412 7.49909 94.8701 7.42018 96.6989 7.33984C96.9062 7.35817 97.0073 7.38776 96.9594 7.42299C96.9328 7.44413 96.869 7.47373 96.8052 7.47654C96.1035 7.50614 95.4069 7.53574 94.7105 7.56674Z" fill="#BECEFF"/>
<path d="M428.557 15.0742C428.281 15.0911 427.93 15.1151 427.643 15.0333C427.505 14.9939 427.356 14.9812 427.175 14.9896C426.915 15.0037 426.649 15.015 426.383 15.0235C426.314 15.0249 426.224 15.0094 426.154 14.9967C426.006 14.9713 425.878 14.929 425.718 14.9178C425.559 14.9065 425.368 14.9375 425.203 14.9304C424.985 14.9206 424.894 14.8825 424.953 14.8473C424.985 14.8276 425.049 14.7994 425.118 14.7951C426.101 14.743 426.107 14.743 426.383 14.7937C426.596 14.8332 426.792 14.8769 427.095 14.8529C427.351 14.8332 427.622 14.829 427.882 14.8163C428.244 14.7994 428.244 14.8008 428.829 14.8896C428.977 14.9121 429.137 14.9107 429.328 14.898C429.493 14.8882 429.653 14.9107 429.786 14.9488C429.7 14.9967 429.578 15.0277 429.413 15.0361C429.147 15.0502 428.887 15.0601 428.557 15.0742Z" fill="#BECEFF"/>
<path d="M419.887 14.6367C420.557 14.6071 421.232 14.5818 421.902 14.548C422.178 14.5339 422.396 14.5494 422.587 14.5973C422.795 14.6494 423.029 14.6452 423.284 14.6353C423.443 14.6297 423.598 14.6522 423.704 14.6917C423.746 14.7072 423.736 14.7354 423.752 14.758C423.167 14.7833 422.577 14.8101 421.987 14.8326C421.918 14.8355 421.833 14.8214 421.769 14.8101C421.625 14.7861 421.503 14.7439 421.349 14.7354C421.019 14.7157 420.69 14.7537 420.355 14.7608C420.195 14.7636 420.041 14.7425 419.935 14.7044C419.892 14.6861 419.903 14.6593 419.887 14.6367Z" fill="#BECEFF"/>
<path d="M176.41 2.52128C177.107 2.49028 177.803 2.46069 178.499 2.42969C178.707 2.44942 178.803 2.4776 178.76 2.51283C178.733 2.53397 178.67 2.56357 178.606 2.56639C177.213 2.62981 175.82 2.6904 174.433 2.751C174.225 2.73127 174.129 2.70309 174.172 2.66786C174.199 2.64672 174.262 2.61712 174.326 2.6143C175.017 2.58189 175.714 2.55229 176.41 2.52128Z" fill="#BECEFF"/>
<path d="M69.2847 10.3514C68.971 10.3542 68.6415 10.4064 68.2906 10.3669C68.2215 10.3599 68.1258 10.3373 68.1311 10.3246C68.1417 10.3035 68.2055 10.2767 68.2746 10.2682C68.5777 10.233 68.9552 10.2288 69.1093 10.1301C69.1838 10.0794 69.322 10.0625 69.5081 10.0526C69.7048 10.0413 69.8429 10.0456 69.9971 10.0752C70.1991 10.1132 70.3693 10.1837 70.6883 10.147C70.7042 10.1696 70.7413 10.195 70.7254 10.2161C70.7094 10.2372 70.6404 10.257 70.5766 10.2725C70.5182 10.2866 70.4383 10.2992 70.3639 10.3035C70.013 10.3204 69.6621 10.3345 69.2847 10.3514Z" fill="#BECEFF"/>
<path d="M346.646 10.0711C346.906 10.0599 347.177 10.0542 347.433 10.0345C347.635 10.019 347.762 10.0288 347.922 10.0627C348.193 10.1219 348.209 10.1162 348.873 10.1247C348.948 10.1261 349.038 10.1472 349.081 10.1655C349.107 10.1754 349.07 10.2022 349.038 10.2163C348.99 10.2346 348.921 10.2586 348.857 10.2586C348.437 10.2628 348.012 10.346 347.603 10.2501C347.395 10.2022 347.167 10.1796 346.885 10.2008C346.715 10.2135 346.534 10.2191 346.359 10.2247C346.189 10.2304 346.013 10.2149 345.907 10.1726C345.753 10.1106 345.843 10.0866 346.119 10.0909C346.295 10.0937 346.47 10.0782 346.646 10.0711Z" fill="#BECEFF"/>
<path d="M442.543 19.7828C442.878 19.7687 443.213 19.7518 443.553 19.7406C443.622 19.7378 443.707 19.7533 443.771 19.7631C444.026 19.8054 443.989 19.8773 444 19.9407C444.005 20.0069 443.415 20.0605 443.165 20.0154C442.889 19.9646 442.639 19.9069 442.256 19.9379C442.107 19.9492 441.932 19.9238 441.836 19.8829C441.692 19.8237 441.772 19.7998 442.043 19.804C442.203 19.8068 442.373 19.7913 442.543 19.7828Z" fill="#BECEFF"/>
<path d="M272.982 0.601437C273.327 0.585934 273.673 0.561987 274.019 0.560578C274.221 0.559169 274.322 0.605668 274.274 0.639492C274.247 0.660632 274.183 0.690228 274.12 0.693047C273.428 0.726871 272.737 0.755063 272.046 0.786068C271.844 0.766337 271.743 0.736746 271.791 0.702922C271.818 0.681782 271.881 0.653595 271.945 0.649367C272.291 0.629636 272.636 0.61694 272.982 0.601437Z" fill="#BECEFF"/>
<path d="M435.821 15.1948C436.156 15.1807 436.496 15.1596 436.831 15.1525C437.007 15.1497 437.145 15.1821 437.166 15.2187C437.177 15.2357 437.092 15.2653 437.023 15.2723C436.544 15.3202 436.029 15.3259 435.529 15.3498C435.369 15.3569 435.199 15.3343 435.103 15.2949C434.96 15.2343 435.04 15.2117 435.311 15.2159C435.481 15.2174 435.651 15.2018 435.821 15.1948Z" fill="#BECEFF"/>
<path d="M354.935 10.2591C355.105 10.252 355.28 10.2337 355.445 10.2393C355.621 10.2464 355.732 10.2873 355.786 10.3281C355.844 10.3746 355.839 10.4183 355.786 10.4578C355.701 10.5254 355.615 10.5226 355.419 10.4775C355.116 10.4071 355.094 10.4155 354.494 10.4183C354.425 10.4183 354.34 10.3972 354.286 10.3789C354.207 10.3507 354.249 10.307 354.435 10.2816C354.573 10.2633 354.765 10.2661 354.935 10.2591Z" fill="#BECEFF"/>
<path d="M423.773 14.7325C424.023 14.7212 424.273 14.7029 424.523 14.7029C424.698 14.7015 424.837 14.7339 424.852 14.7692C424.858 14.7861 424.778 14.8143 424.714 14.8227C424.411 14.8608 424.071 14.8636 423.741 14.8763C423.587 14.8819 423.417 14.8594 423.321 14.8199C423.178 14.7607 423.263 14.7339 423.523 14.7424C423.603 14.7452 423.688 14.7367 423.773 14.7325Z" fill="#BECEFF"/>
<path d="M383.557 13.0048C383.185 13.0217 382.834 13.0006 382.861 12.9639C382.898 12.916 383.052 12.885 383.212 12.8765C383.467 12.8624 383.722 12.8512 383.982 12.8427C384.147 12.8371 384.296 12.8582 384.429 12.8948C384.349 12.9399 384.227 12.9724 384.068 12.9822C383.903 12.9921 383.727 12.9977 383.557 13.0048Z" fill="#BECEFF"/>
<path d="M381.697 12.8246C381.947 12.8133 382.197 12.795 382.447 12.795C382.622 12.7936 382.76 12.826 382.776 12.8612C382.782 12.8781 382.702 12.9063 382.638 12.9148C382.335 12.9528 381.995 12.9556 381.665 12.9683C381.511 12.9739 381.341 12.9514 381.245 12.9119C381.102 12.8527 381.187 12.826 381.447 12.8344C381.527 12.8373 381.612 12.8288 381.697 12.8246Z" fill="#BECEFF"/>
<path d="M351.402 10.2479C351.652 10.2366 351.902 10.2183 352.152 10.2168C352.327 10.2154 352.465 10.2479 352.481 10.2831C352.487 10.3 352.407 10.3268 352.343 10.3366C352.04 10.3747 351.7 10.3775 351.37 10.3902C351.216 10.3958 351.046 10.3733 350.95 10.3338C350.807 10.2746 350.892 10.2479 351.152 10.2563C351.232 10.2591 351.317 10.2507 351.402 10.2479Z" fill="#BECEFF"/>
<path d="M349.869 10.1648C350.135 10.1535 350.22 10.1465 350.305 10.1465C350.465 10.1465 350.63 10.1634 350.725 10.2043C350.869 10.2635 350.784 10.2804 350.523 10.2832C350.188 10.286 349.859 10.3156 349.524 10.3213C349.348 10.3241 349.21 10.2902 349.199 10.255C349.194 10.2381 349.274 10.2085 349.338 10.2029C349.561 10.1817 349.806 10.169 349.869 10.1648Z" fill="#BECEFF"/>
<path d="M380.264 1.87497C380.094 1.88201 379.914 1.90175 379.754 1.8947C379.541 1.88483 379.456 1.84679 379.51 1.81155C379.541 1.79182 379.6 1.76364 379.664 1.75941C380.004 1.73968 380.35 1.72698 380.69 1.71289C380.892 1.73403 380.982 1.76362 380.929 1.79886C380.897 1.81859 380.839 1.84537 380.775 1.851C380.61 1.8651 380.435 1.86792 380.264 1.87497Z" fill="#BECEFF"/>
<path d="M173.09 2.68562C173.255 2.68421 173.404 2.70253 173.531 2.73777C173.451 2.78287 173.334 2.81246 173.175 2.82515C173.095 2.83078 173.005 2.835 172.92 2.83641C172.755 2.83923 172.606 2.8195 172.479 2.78427C172.558 2.73917 172.68 2.70957 172.835 2.69689C172.914 2.69125 173.005 2.68985 173.09 2.68562Z" fill="#BECEFF"/>
<path d="M433.352 15.1915C433.346 15.1506 433.671 15.1041 433.963 15.1055C434.117 15.1069 434.277 15.1266 434.367 15.1647C434.505 15.2225 434.425 15.245 434.165 15.2408C434.005 15.238 433.835 15.2619 433.676 15.2577C433.495 15.2563 433.389 15.2253 433.352 15.1915Z" fill="#BECEFF"/>
<path d="M355.953 10.4319C355.947 10.4164 355.921 10.3981 355.937 10.384C356.038 10.3065 356.649 10.2825 356.809 10.3502C356.835 10.3629 356.846 10.384 356.825 10.3967C356.793 10.4164 356.734 10.4418 356.67 10.4474C356.506 10.4615 356.335 10.4686 356.165 10.47C356.091 10.47 356.022 10.446 355.953 10.4319Z" fill="#BECEFF"/>
<path d="M72.0766 10.1283C71.4493 10.1579 71.4387 10.1551 71.5503 10.0846C71.6513 10.0212 71.8374 9.98313 72.1086 9.98313C72.1883 9.98313 72.2733 9.98031 72.3424 9.98595C72.4169 9.99299 72.5233 10.0071 72.5392 10.024C72.5711 10.0564 72.4807 10.0916 72.3212 10.1156C72.2521 10.1269 72.1617 10.1241 72.0766 10.1283Z" fill="#BECEFF"/>
<path d="M181.392 2.48883C181.206 2.51279 181.047 2.50434 180.93 2.45924C180.813 2.41414 180.999 2.36058 181.323 2.3479C181.408 2.34508 181.499 2.33381 181.578 2.33945C181.658 2.34368 181.738 2.36057 181.786 2.37749C181.871 2.40567 181.818 2.44373 181.647 2.47615C181.578 2.48883 181.477 2.48601 181.392 2.48883Z" fill="#BECEFF"/>
<path d="M433.363 15.0848C433.411 15.0665 433.458 15.0482 433.512 15.0312C433.708 15.0552 433.793 15.0834 433.74 15.1158C433.708 15.1355 433.644 15.1525 433.597 15.1708C433.4 15.1468 433.32 15.1172 433.363 15.0848Z" fill="#BECEFF"/>
<path d="M79.9121 26.169C79.9121 26.1521 79.9865 26.1253 80.045 26.1197C80.1567 26.1098 80.2948 26.1296 80.3905 26.169C80.5234 26.2254 80.4438 26.255 80.1992 26.2395C80.0291 26.2282 79.9121 26.2 79.9121 26.169Z" fill="#BECEFF"/>
<path d="M357.938 9.11769C358.007 9.13037 358.076 9.14306 358.14 9.15715C358.049 9.2093 357.938 9.23184 357.821 9.21775C357.746 9.20929 357.682 9.19237 357.613 9.17969C357.704 9.12755 357.81 9.10782 357.938 9.11769Z" fill="#BECEFF"/>
<path d="M356.075 9.05341C356.182 9.03227 356.309 9.04355 356.458 9.08442C356.41 9.10275 356.368 9.12389 356.309 9.13798C356.208 9.16053 356.075 9.14924 355.932 9.10696C355.974 9.09005 356.022 9.07173 356.075 9.05341Z" fill="#BECEFF"/>
<path d="M354.572 9.11599C354.641 9.12867 354.711 9.14136 354.774 9.15545C354.684 9.2076 354.578 9.23014 354.455 9.21604C354.381 9.20759 354.317 9.19067 354.248 9.17799C354.338 9.12584 354.445 9.10471 354.572 9.11599Z" fill="#BECEFF"/>
<path d="M354.61 9.03947C354.69 9.06765 354.647 9.10147 354.493 9.13952C354.424 9.12684 354.344 9.11699 354.291 9.10007C354.206 9.0733 354.248 9.03805 354.408 9C354.472 9.01409 354.541 9.02678 354.61 9.03947Z" fill="#BECEFF"/>
</svg>
