<?xml version="1.0" standalone="no"?>
<!DOCTYPE svg PUBLIC "-//W3C//DTD SVG 20010904//EN"
 "http://www.w3.org/TR/2001/REC-SVG-20010904/DTD/svg10.dtd">
<svg version="1.0" xmlns="http://www.w3.org/2000/svg"
 width="408.000000pt" height="612.000000pt" viewBox="0 0 408.000000 612.000000"
 preserveAspectRatio="xMidYMid meet">

<g transform="translate(0.000000,612.000000) scale(0.100000,-0.100000)"
fill="#000000" stroke="none">
<path d="M1543 3534 c-4 -12 18 -41 79 -100 l85 -84 249 0 c272 -1 284 -3 284
-57 0 -50 -10 -53 -191 -53 -171 0 -199 -3 -199 -24 0 -6 37 -48 83 -94 l82
-82 116 0 c104 0 120 3 167 26 60 30 103 80 126 147 20 60 20 86 0 158 -20 73
-64 125 -128 155 -51 24 -54 24 -399 24 -312 0 -348 -2 -354 -16z"/>
<path d="M1042 2698 l3 -113 57 1 c68 1 102 20 125 70 15 31 16 39 3 76 -19
52 -64 78 -138 78 l-53 0 3 -112z m132 40 c9 -12 16 -33 16 -45 0 -30 -37 -63
-72 -63 -28 0 -28 0 -28 65 l0 65 34 0 c25 0 39 -7 50 -22z"/>
<path d="M1324 2776 c-28 -28 -34 -41 -34 -78 0 -50 18 -82 60 -103 59 -30
118 -13 157 44 27 40 29 61 7 107 -20 42 -59 64 -115 64 -33 0 -47 -6 -75 -34z
m131 -31 c39 -38 27 -93 -24 -115 -26 -10 -35 -10 -56 4 -50 33 -55 91 -12
121 31 22 65 18 92 -10z"/>
<path d="M1623 2790 c-45 -27 -63 -87 -40 -135 31 -65 106 -92 167 -60 42 22
60 53 60 106 0 41 -4 51 -35 78 -43 37 -102 42 -152 11z m115 -36 c16 -11 22
-25 22 -53 0 -59 -50 -92 -99 -66 -48 24 -55 72 -16 110 28 29 61 32 93 9z"/>
<path d="M1880 2695 c0 -108 1 -115 20 -115 17 0 20 7 20 40 0 36 3 40 25 40
19 0 29 -10 45 -40 13 -26 27 -40 40 -40 25 0 25 16 1 57 -19 31 -19 31 0 49
27 24 24 70 -6 99 -20 21 -34 25 -85 25 l-60 0 0 -115z m120 40 c0 -22 -4 -25
-40 -25 -36 0 -40 3 -40 25 0 23 4 25 40 25 36 0 40 -2 40 -25z"/>
<path d="M2130 2695 l0 -115 45 0 c95 0 145 42 145 120 0 71 -52 110 -146 110
l-44 0 0 -115z m124 52 c23 -17 24 -72 1 -97 -10 -11 -31 -20 -47 -20 -28 0
-28 0 -28 65 0 65 0 65 28 65 16 0 36 -6 46 -13z"/>
<path d="M2402 2704 c-23 -59 -39 -111 -36 -115 11 -18 34 -8 49 21 13 26 21
30 56 30 33 0 41 -4 49 -25 11 -28 36 -43 50 -29 5 5 -9 54 -33 116 -38 99
-44 108 -68 108 -24 0 -30 -9 -67 -106z m82 14 c9 -35 8 -38 -18 -38 -23 0
-24 2 -13 30 14 36 23 38 31 8z"/>
<path d="M2641 2784 c-12 -15 -21 -31 -21 -36 0 -24 24 -48 65 -63 30 -12 45
-24 45 -36 0 -24 -31 -32 -64 -18 -33 16 -57 -1 -37 -25 33 -40 136 -26 147
20 12 45 -3 72 -46 85 -73 22 -80 66 -9 55 24 -4 40 -2 45 5 11 18 -25 39 -67
39 -29 0 -42 -6 -58 -26z"/>
<path d="M2850 2700 c0 -102 1 -110 19 -110 16 0 20 8 23 43 l3 42 48 3 47 3
0 -45 c0 -43 2 -46 25 -46 l26 0 -3 108 c-3 102 -4 107 -25 110 -21 3 -23 -1
-23 -42 l0 -46 -50 0 -50 0 0 45 c0 38 -3 45 -20 45 -19 0 -20 -7 -20 -110z"/>
</g>
</svg>
