<svg width="273" height="67" viewBox="0 0 273 67" fill="none" xmlns="http://www.w3.org/2000/svg">
<path fill-rule="evenodd" clip-rule="evenodd" d="M243.274 49.9679L253.094 36.2691L244.023 23.3026H252.778L257.505 31.3089L262.565 23.3026H271.104L261.95 35.9528L271.537 49.9679H263.265L257.539 41.0795L252.162 49.9679H243.257H243.274ZM217.291 37.0847C217.291 45.9731 222.101 50.7669 230.391 50.7669C238.164 50.7669 243.39 46.073 243.39 37.1846V36.4355C243.39 27.4472 238.064 22.4704 230.407 22.4704C222.9 22.4704 217.291 27.2641 217.291 36.3357V37.0847ZM236.316 36.9682C236.316 41.4124 234.119 44.2087 230.324 44.2087C226.496 44.2087 224.365 41.3791 224.365 36.9848V36.3856C224.365 31.6418 226.629 29.0618 230.357 29.0618C234.119 29.0618 236.316 31.8082 236.316 36.3856V36.9682ZM195.253 45.4904C196.718 48.9359 199.231 50.6337 203.642 50.6337C209.701 50.6337 213.296 45.7068 213.296 36.7518V36.1692C213.296 27.4972 208.453 22.4704 203.842 22.4371C199.597 22.4371 196.585 24.0017 194.604 28.3627V14.9635H188.046V49.9346H193.805L195.27 45.4904H195.253ZM206.239 36.835C206.239 41.9117 204.208 44.242 200.18 44.242C196.485 44.242 194.92 41.3125 194.92 36.9182V36.4522C194.92 31.8582 196.718 29.2782 200.463 29.2782C203.975 29.2782 206.239 31.3255 206.239 36.2691V36.835ZM158.068 23.3526V59.8883H164.66V45.6069C166.108 48.7362 168.804 50.6836 173.082 50.6836C178.808 50.6836 183.235 46.1562 183.235 37.3011L183.319 35.6366C183.319 27.1476 178.874 22.487 173.082 22.487C168.671 22.487 166.857 23.9684 165.492 27.9965L163.911 23.4192L158.068 23.3526ZM176.344 36.9515C176.344 41.3957 174.547 44.292 170.402 44.292C166.241 44.292 164.693 41.2126 164.693 36.8017V36.2191C164.693 31.4753 166.391 29.1617 170.435 29.1617C174.547 29.1617 176.344 31.7749 176.344 36.3523V36.9515ZM127.491 37.0847C127.491 45.9731 132.302 50.7669 140.608 50.7669C148.364 50.7669 153.591 46.073 153.591 37.1846V36.4355C153.591 27.4472 148.264 22.4704 140.608 22.4704C133.117 22.4704 127.491 27.2641 127.491 36.3357V37.0847ZM146.517 36.9682C146.517 41.4124 144.319 44.2087 140.524 44.2087C136.696 44.2087 134.566 41.3791 134.566 36.9848V36.3856C134.566 31.6418 136.829 29.0618 140.558 29.0618C144.319 29.0618 146.517 31.8082 146.517 36.3856V36.9682ZM108.2 49.9346L115.191 50.0178V40.6467C115.191 33.273 117.571 30.7097 123.347 30.7097H125.561L125.494 22.8865H124.445C119.452 22.8865 116.422 25.1169 115.357 29.4113L114.042 23.286L108.217 23.3193V49.9346H108.2ZM76.5078 16.7112V49.9346H89.6906C96.3986 49.9346 103.839 45.0909 103.839 34.3716V32.0912C103.839 21.4051 96.8646 16.7112 89.5075 16.7112H76.5078ZM84.7804 23.5357C86.0287 23.5357 89.8904 23.4524 89.8904 23.4524C93.5523 23.4524 96.1322 26.898 96.1322 32.2909V34.1219C96.1322 39.8311 93.519 42.744 90.1234 42.744C90.1234 42.744 86.1785 42.8272 84.9135 42.8272C84.5806 42.8272 83.2823 43.3266 83.2823 43.3266L83.9481 41.8618V24.5677L83.1159 23.0696C83.1159 23.0696 84.4974 23.5357 84.7804 23.5357Z" fill="#757575"/>
<path fill-rule="evenodd" clip-rule="evenodd" d="M19.8153 26.8651L4.88477 17.3608L19.9152 7.78992L34.929 17.3608L49.9427 7.78992L64.9732 17.3608L50.0426 26.8651L64.9732 36.386L49.9427 45.9402L34.929 36.3694L19.9152 45.9402L4.88477 36.3694L19.8153 26.8484V26.8651ZM34.929 17.3774L49.8429 26.8651L34.929 36.3694L20.0151 26.8817L34.929 17.3608V17.3774ZM35.0288 58.7236L20.0151 49.1361L35.0288 39.5652L50.0593 49.1361L35.0288 58.7069V58.7236Z" fill="#757575"/>
</svg>
