<svg width="193" height="58" viewBox="0 0 193 58" fill="none" xmlns="http://www.w3.org/2000/svg">
<path d="M97.5781 2.7666H115.712H124.34V11.2509V39.1304H115.712V11.2509H97.5781V2.7666Z" fill="#757575"/>
<path d="M155.433 39.1304H137.294H128.666V30.646V2.7666H137.294V30.646H155.433V39.1304Z" fill="#757575"/>
<path d="M49.6779 39.7063H59.081L39.4885 2.7666L19.9014 39.7063H29.3045L39.4885 20.5032L49.6779 39.7063Z" fill="#757575"/>
<path d="M100.495 48.2118L89.9807 33.7335C91.961 31.9 93.5309 29.6806 94.59 27.2169L85.9787 23.6333C85.049 25.8203 83.3691 27.6175 81.2311 28.7122C79.0932 29.807 76.6327 30.13 74.2776 29.625C71.9226 29.12 69.8221 27.8191 68.3417 25.9485C66.8612 24.0779 66.0945 21.7562 66.175 19.3871C66.2555 17.0181 67.178 14.7518 68.7821 12.9826C70.3862 11.2133 72.5703 10.0531 74.9544 9.70387C77.3385 9.35461 79.7716 9.83837 81.8305 11.071C83.8893 12.3036 85.4435 14.2071 86.2227 16.4502L95.0781 13.4958C93.8478 9.91709 91.5777 6.77153 88.5485 4.4483C85.5193 2.12507 81.864 0.72611 78.0347 0.424485C74.2055 0.122861 70.3703 0.931808 67.0037 2.75125C63.6371 4.57069 60.8867 7.32079 59.0929 10.6613C57.2991 14.0019 56.5405 17.7863 56.9109 21.5464C57.2814 25.3065 58.7647 28.8773 61.1773 31.8171C63.5898 34.7568 66.8259 36.9366 70.4851 38.0866C74.1443 39.2366 78.066 39.3065 81.7652 38.2876L88.9829 48.2171L100.495 48.2118Z" fill="#757575"/>
<path d="M183.094 2.7666H173.691L163.507 21.975L153.323 2.7666H143.92L159.25 31.6752V39.1304H167.764V31.6752L183.094 2.7666Z" fill="#757575"/>
<path d="M182.122 37.7918C183.876 37.7918 185.588 38.2442 187.259 39.1488C188.93 40.0443 190.232 41.3321 191.164 43.0122C192.097 44.6831 192.563 46.4278 192.563 48.2464C192.563 50.0465 192.101 51.7774 191.178 53.4391C190.264 55.1007 188.976 56.3931 187.315 57.3162C185.662 58.2302 183.931 58.6871 182.122 58.6871C180.313 58.6871 178.577 58.2302 176.916 57.3162C175.263 56.3931 173.975 55.1007 173.052 53.4391C172.129 51.7774 171.668 50.0465 171.668 48.2464C171.668 46.4278 172.134 44.6831 173.066 43.0122C174.008 41.3321 175.314 40.0443 176.985 39.1488C178.656 38.2442 180.368 37.7918 182.122 37.7918ZM182.122 39.5227C180.654 39.5227 179.223 39.9012 177.829 40.6582C176.445 41.4059 175.36 42.4814 174.575 43.8845C173.791 45.2785 173.398 46.7324 173.398 48.2464C173.398 49.7511 173.782 51.1958 174.548 52.5805C175.323 53.956 176.403 55.0315 177.788 55.8069C179.173 56.5731 180.617 56.9562 182.122 56.9562C183.627 56.9562 185.072 56.5731 186.456 55.8069C187.841 55.0315 188.916 53.956 189.683 52.5805C190.449 51.1958 190.832 49.7511 190.832 48.2464C190.832 46.7324 190.44 45.2785 189.655 43.8845C188.879 42.4814 187.795 41.4059 186.401 40.6582C185.007 39.9012 183.581 39.5227 182.122 39.5227ZM177.539 54.0206V42.7768H181.402C182.722 42.7768 183.678 42.8829 184.268 43.0953C184.859 43.2984 185.33 43.6584 185.681 44.1753C186.032 44.6923 186.207 45.2416 186.207 45.8231C186.207 46.6447 185.912 47.3602 185.321 47.9694C184.739 48.5787 183.964 48.9203 182.994 48.9941C183.391 49.1603 183.71 49.3588 183.95 49.5896C184.402 50.0327 184.956 50.7758 185.612 51.8189L186.982 54.0206H184.767L183.77 52.2482C182.985 50.8543 182.353 49.9819 181.873 49.6311C181.541 49.3726 181.056 49.2434 180.419 49.2434H179.353V54.0206H177.539ZM179.353 47.6925H181.554C182.607 47.6925 183.322 47.5356 183.701 47.2217C184.088 46.9078 184.282 46.4924 184.282 45.9755C184.282 45.6431 184.19 45.3477 184.005 45.0892C183.821 44.8215 183.562 44.6231 183.23 44.4938C182.907 44.3646 182.302 44.3 181.416 44.3H179.353V47.6925Z" fill="#757575"/>
<path d="M29.2396 11.2509L34.1906 2.7666H8.62765H0V11.2509V39.1304H8.62765V25.3506H22.8516L26.7614 17.2236H8.62765V11.2509H29.2396Z" fill="#757575"/>
<rect x="75.042" y="14.2274" width="5.66789" height="1.34171" fill="#757575"/>
<rect x="72.5498" y="16.4634" width="8.16177" height="1.34171" fill="#757575"/>
<rect x="72.5498" y="23.1722" width="8.16177" height="1.34171" fill="#757575"/>
<rect x="72.5498" y="20.9359" width="8.16177" height="1.34171" fill="#757575"/>
<rect x="72.5498" y="18.7" width="8.16177" height="1.34171" fill="#757575"/>
</svg>
