<svg xmlns="http://www.w3.org/2000/svg" xmlns:xlink="http://www.w3.org/1999/xlink" width="500" zoomAndPan="magnify" viewBox="0 0 375 374.999991" height="500" preserveAspectRatio="xMidYMid meet" version="1.0"><defs><g/><clipPath id="d8337146c2"><path d="M 90.488281 111.882812 L 280.535156 111.882812 L 280.535156 301.925781 L 90.488281 301.925781 Z M 90.488281 111.882812 " clipRule="nonzero"/></clipPath><clipPath id="9266826c40"><path d="M 185.511719 111.882812 C 133.03125 111.882812 90.488281 154.425781 90.488281 206.902344 C 90.488281 259.382812 133.03125 301.925781 185.511719 301.925781 C 237.992188 301.925781 280.535156 259.382812 280.535156 206.902344 C 280.535156 154.425781 237.992188 111.882812 185.511719 111.882812 Z M 185.511719 111.882812 " clipRule="nonzero"/></clipPath><clipPath id="cf34e240d2"><path d="M 109.992188 157.0625 L 260.742188 157.0625 L 260.742188 256.8125 L 109.992188 256.8125 Z M 109.992188 157.0625 " clipRule="nonzero"/></clipPath><clipPath id="e1c98a4376"><path d="M 2.339844 183.269531 L 127.675781 183.269531 L 127.675781 230.535156 L 2.339844 230.535156 Z M 2.339844 183.269531 " clipRule="nonzero"/></clipPath><clipPath id="1eb46ee6b9"><path d="M 255.613281 183.269531 L 371.273438 183.269531 L 371.273438 230.535156 L 255.613281 230.535156 Z M 255.613281 183.269531 " clipRule="nonzero"/></clipPath></defs><g clipPath="url(#d8337146c2)"><g clipPath="url(#9266826c40)"><path fill="#231f20" d="M 90.488281 111.882812 L 280.535156 111.882812 L 280.535156 301.925781 L 90.488281 301.925781 Z M 90.488281 111.882812 " fillOpacity="1" fillRule="nonzero"/></g></g><g clipPath="url(#cf34e240d2)"><path fill="#ffffff" d="M 139.410156 238.527344 C 139.339844 238.414062 139.292969 238.261719 139.203125 238.230469 C 139.027344 238.167969 138.824219 238.160156 138.632812 238.148438 C 138.609375 238.144531 138.558594 238.207031 138.546875 238.25 C 138.542969 238.292969 138.554688 238.363281 138.582031 238.378906 C 138.820312 238.542969 139.066406 238.703125 139.410156 238.527344 Z M 185.582031 238.679688 C 186.210938 238.78125 186.210938 238.78125 186.457031 238.226562 C 185.816406 238.15625 185.75 238.183594 185.582031 238.679688 Z M 177.777344 222.242188 C 178.207031 222.203125 178.332031 222.140625 178.347656 221.953125 C 178.367188 221.78125 178.355469 221.601562 178.300781 221.445312 C 178.265625 221.351562 178.132812 221.292969 178.023438 221.207031 C 177.835938 221.542969 177.777344 221.847656 177.777344 222.242188 Z M 159.011719 229.609375 C 158.929688 229.945312 158.976562 230.246094 159.035156 230.578125 C 159.292969 230.582031 159.535156 230.660156 159.714844 230.417969 C 159.441406 229.933594 159.441406 229.933594 159.011719 229.609375 Z M 151.746094 237.878906 C 151.910156 237.933594 152.09375 237.996094 152.28125 238.039062 C 152.417969 238.066406 152.539062 237.996094 152.5625 237.859375 C 152.582031 237.753906 152.574219 237.589844 152.511719 237.53125 C 152.347656 237.390625 152.140625 237.296875 151.96875 237.1875 C 151.734375 237.382812 151.699219 237.589844 151.746094 237.878906 Z M 170.007812 235.59375 C 170.699219 236.003906 170.699219 236.003906 171.101562 235.386719 C 170.882812 235.167969 170.882812 235.167969 170.546875 235.027344 C 170.386719 235.195312 170.222656 235.367188 170.007812 235.59375 Z M 189.347656 220.816406 C 189.28125 221.152344 189.335938 221.433594 189.523438 221.730469 C 189.695312 221.6875 189.855469 221.648438 190.035156 221.605469 C 190.042969 221.28125 190.011719 220.992188 189.859375 220.691406 C 189.671875 220.738281 189.511719 220.773438 189.347656 220.816406 Z M 198.824219 188.558594 C 198.6875 188.664062 198.558594 188.71875 198.53125 188.800781 C 198.382812 189.226562 198.265625 189.65625 198.140625 190.085938 C 198.117188 190.167969 198.144531 190.261719 198.152344 190.410156 C 198.328125 190.304688 198.519531 190.257812 198.566406 190.144531 C 198.757812 189.667969 198.917969 189.179688 198.824219 188.558594 Z M 190.046875 210.460938 C 190.035156 210.992188 189.9375 211.5 190.03125 212.0625 C 190.300781 211.976562 190.496094 211.886719 190.554688 211.632812 C 190.644531 211.214844 190.691406 210.796875 190.585938 210.367188 C 190.476562 210.359375 190.402344 210.335938 190.335938 210.347656 C 190.242188 210.367188 190.160156 210.417969 190.046875 210.460938 Z M 167.734375 242.753906 C 167.144531 243.035156 167.144531 243.035156 166.910156 243.355469 C 167.710938 243.914062 167.898438 243.90625 168.566406 243.222656 C 168.277344 243.058594 168 242.898438 167.734375 242.753906 Z M 185.074219 205.078125 C 185.101562 205.644531 184.996094 206.109375 185.101562 206.59375 C 185.1875 206.59375 185.269531 206.613281 185.328125 206.589844 C 185.46875 206.542969 185.59375 206.472656 185.726562 206.40625 C 185.824219 206 185.863281 205.609375 185.773438 205.175781 C 185.570312 205.152344 185.386719 205.121094 185.074219 205.078125 Z M 164.746094 244.050781 C 164.5 243.171875 164.175781 242.933594 163.277344 242.910156 C 163.230469 243.253906 163.195312 243.589844 163.285156 243.972656 C 163.757812 244.0625 164.222656 244.097656 164.746094 244.050781 Z M 181.46875 202.078125 C 181.601562 201.707031 181.738281 201.359375 181.851562 201.007812 C 181.949219 200.695312 181.890625 200.578125 181.585938 200.398438 C 181.484375 200.339844 181.359375 200.316406 181.179688 200.253906 C 181.035156 200.867188 180.757812 201.394531 180.675781 202.015625 C 180.800781 202.039062 180.894531 202.066406 180.988281 202.078125 C 181.136719 202.085938 181.285156 202.078125 181.46875 202.078125 Z M 176.097656 206.964844 C 176.257812 206.394531 176.320312 205.882812 176.257812 205.34375 C 175.921875 205.269531 175.648438 205.378906 175.390625 205.476562 C 175.171875 206.152344 175.15625 206.417969 175.308594 206.964844 C 175.550781 206.964844 175.792969 206.964844 176.097656 206.964844 Z M 145.285156 230.941406 C 144.808594 230.824219 144.394531 230.949219 143.976562 231.023438 C 143.371094 231.136719 143.25 231.1875 142.855469 231.464844 C 143.375 231.890625 145.027344 232.769531 145.621094 232.933594 C 145.507812 232.261719 145.398438 231.601562 145.285156 230.941406 Z M 197.515625 190.363281 C 197.839844 189.914062 197.953125 189.402344 198.074219 188.894531 C 198.210938 188.3125 198.230469 188.171875 198.988281 188.199219 C 199.082031 188.199219 199.175781 188.21875 199.277344 188.234375 C 199.472656 187.476562 199.507812 186.761719 199.289062 186.042969 C 199.238281 185.859375 199.175781 185.652344 198.890625 185.613281 C 198.800781 185.738281 198.664062 185.859375 198.601562 186.011719 C 198.464844 186.308594 198.335938 186.613281 198.257812 186.925781 C 198.039062 187.828125 197.839844 188.738281 197.640625 189.636719 C 197.585938 189.878906 197.558594 190.121094 197.515625 190.363281 Z M 169.601562 188.09375 C 168.996094 187.597656 168.371094 187.296875 167.65625 187.210938 C 167.363281 187.175781 167.070312 187.082031 166.757812 187.269531 C 166.832031 187.621094 167.042969 187.863281 167.269531 188.09375 C 167.957031 188.824219 168.785156 189.371094 169.71875 189.886719 C 169.78125 189.242188 169.589844 188.6875 169.601562 188.09375 Z M 165.554688 189.984375 C 165.695312 190.222656 165.785156 190.398438 165.90625 190.550781 C 166.335938 191.125 166.890625 191.570312 167.492188 191.941406 C 168.3125 192.445312 169.148438 192.910156 169.984375 193.378906 C 170.03125 193.417969 170.117188 193.390625 170.214844 193.402344 C 170.234375 192.957031 170.210938 192.539062 170.054688 192.160156 C 169.886719 192.066406 169.757812 191.988281 169.625 191.917969 C 168.566406 191.339844 167.5 190.753906 166.433594 190.1875 C 166.203125 190.0625 165.964844 189.875 165.554688 189.984375 Z M 170.480469 195.703125 C 170.121094 195.46875 169.832031 195.261719 169.53125 195.089844 C 168.789062 194.660156 168.046875 194.234375 167.285156 193.835938 C 166.667969 193.5 166.035156 193.1875 165.394531 192.898438 C 165.125 192.773438 164.816406 192.71875 164.523438 192.65625 C 164.417969 192.632812 164.273438 192.601562 164.199219 192.804688 C 164.394531 193.175781 164.742188 193.429688 165.082031 193.675781 C 166.703125 194.871094 168.414062 195.945312 170.140625 196.980469 C 170.226562 197.035156 170.355469 197.035156 170.480469 197.0625 C 170.480469 196.585938 170.480469 196.164062 170.480469 195.703125 Z M 213.265625 244.421875 C 212.816406 243.761719 212.238281 243.449219 211.542969 243.3125 C 210.222656 243.054688 208.898438 242.972656 207.550781 243.046875 C 207.457031 243.054688 207.363281 243.101562 207.242188 243.140625 C 207.117188 243.644531 206.992188 244.144531 206.867188 244.652344 C 207.707031 244.734375 212.410156 244.566406 213.265625 244.421875 Z M 192.511719 244.867188 C 192.519531 244.816406 192.523438 244.761719 192.53125 244.703125 C 192.074219 244.492188 191.628906 244.265625 191.167969 244.074219 C 189.890625 243.53125 188.558594 243.320312 187.171875 243.425781 C 185.445312 243.554688 183.796875 244.027344 182.164062 244.554688 C 182.121094 244.566406 182.089844 244.613281 182.0625 244.652344 C 182.074219 244.675781 182.078125 244.714844 182.089844 244.714844 C 185.316406 244.945312 188.550781 244.816406 191.773438 244.898438 C 192.015625 244.902344 192.265625 244.878906 192.511719 244.867188 Z M 230.265625 240.460938 C 230.015625 240.96875 229.820312 241.460938 229.53125 241.898438 C 229.246094 242.328125 228.875 242.699219 228.492188 243.152344 C 230.355469 242.882812 232.148438 242.585938 233.867188 242 C 234.226562 241.875 234.570312 241.710938 234.90625 241.542969 C 235.023438 241.480469 235.113281 241.363281 235.210938 241.265625 C 235.046875 240.96875 234.828125 240.820312 234.546875 240.742188 C 233.621094 240.476562 232.671875 240.335938 231.710938 240.289062 C 231.5625 240.285156 231.375 240.253906 231.269531 240.332031 C 230.945312 240.546875 230.601562 240.507812 230.265625 240.460938 Z M 185.296875 238.050781 C 185.1875 238.050781 185.101562 238.019531 185.039062 238.042969 C 183.339844 238.589844 181.636719 239.128906 179.941406 239.695312 C 179.46875 239.859375 179.007812 240.082031 178.574219 240.320312 C 177.785156 240.75 177.765625 240.8125 177.949219 241.691406 C 177.949219 241.714844 177.976562 241.726562 178.042969 241.785156 C 178.121094 241.769531 178.242188 241.761719 178.355469 241.726562 C 179.121094 241.480469 179.886719 241.238281 180.648438 240.972656 C 182.285156 240.402344 183.890625 239.71875 185.585938 239.324219 C 185.628906 239.3125 185.652344 239.257812 185.699219 239.199219 C 185.492188 239.132812 185.292969 239.074219 185.121094 239.023438 C 184.957031 238.644531 185.269531 238.414062 185.296875 238.050781 Z M 169.832031 244.316406 C 169.792969 244.015625 169.769531 243.789062 169.71875 243.570312 C 169.671875 243.378906 169.609375 243.183594 169.527344 243 C 169.359375 242.609375 169.078125 242.335938 168.664062 242.203125 C 168.328125 242.09375 168.003906 241.964844 167.664062 241.867188 C 166.726562 241.609375 165.972656 241.097656 165.375 240.332031 C 165.175781 240.070312 164.953125 239.835938 164.734375 239.585938 C 164.332031 239.128906 163.808594 238.898438 163.214844 238.820312 C 162.453125 238.726562 161.757812 239.132812 161.398438 239.90625 C 161.847656 240.4375 162.292969 240.972656 162.703125 241.460938 C 163.121094 241.527344 163.46875 241.578125 163.808594 241.652344 C 164.851562 241.851562 165.589844 242.421875 165.964844 243.449219 C 166.054688 243.703125 166.125 243.984375 166.410156 244.191406 C 166.667969 244.191406 166.960938 244.191406 167.261719 244.191406 C 167.246094 244.019531 167.109375 243.984375 167.007812 243.917969 C 166.832031 243.8125 166.648438 243.726562 166.492188 243.613281 C 166.300781 243.484375 166.273438 243.234375 166.445312 243.089844 C 166.648438 242.910156 166.914062 242.789062 167.117188 242.605469 C 167.503906 242.234375 167.871094 242.164062 168.277344 242.585938 C 168.375 242.695312 168.535156 242.742188 168.664062 242.816406 C 168.855469 242.933594 169.113281 243 169.136719 243.265625 C 169.160156 243.589844 168.847656 243.636719 168.648438 243.765625 C 168.449219 243.902344 168.183594 243.9375 168.035156 244.242188 C 168.542969 244.277344 168.988281 244.316406 169.445312 244.34375 C 169.539062 244.351562 169.636719 244.328125 169.832031 244.316406 Z M 186.601562 237.613281 C 187.128906 237.871094 187.15625 237.945312 186.917969 238.363281 C 186.800781 238.574219 186.617188 238.757812 186.601562 239.074219 C 187.101562 239 187.566406 238.910156 188.039062 238.851562 C 189.371094 238.6875 190.703125 238.632812 192.035156 238.921875 C 192.804688 239.09375 193.519531 239.394531 194.238281 239.71875 C 194.410156 239.792969 194.574219 239.949219 194.847656 239.824219 C 195.082031 239.132812 195.53125 238.53125 196.066406 237.957031 C 195.960938 237.878906 195.890625 237.8125 195.804688 237.773438 C 194.097656 236.90625 192.304688 236.511719 190.382812 236.757812 C 189.429688 236.882812 188.5 237.113281 187.566406 237.335938 C 187.261719 237.414062 186.953125 237.511719 186.601562 237.613281 Z M 151.613281 243.070312 C 150.625 242.0625 149.976562 241.609375 148.898438 241.171875 C 148.457031 240.996094 148.003906 240.847656 147.542969 240.714844 C 146.933594 240.53125 146.339844 240.324219 145.808594 239.976562 C 145.339844 239.664062 144.824219 239.464844 144.277344 239.335938 C 143.71875 239.199219 143.15625 239.050781 142.589844 238.902344 C 141.011719 238.492188 139.554688 237.820312 138.265625 236.804688 C 138.089844 236.664062 137.894531 236.546875 137.699219 236.433594 C 137.238281 236.167969 136.734375 236.128906 136.230469 236.226562 C 135.992188 236.277344 135.726562 236.347656 135.695312 236.660156 C 135.726562 236.707031 135.742188 236.765625 135.785156 236.789062 C 136.308594 237.054688 136.75 237.414062 137.121094 237.871094 C 137.339844 238.148438 137.640625 238.339844 137.984375 238.425781 C 138.152344 238.179688 138.082031 237.835938 138.402344 237.667969 C 138.644531 237.707031 138.917969 237.726562 139.183594 237.796875 C 139.644531 237.917969 139.863281 238.261719 139.75 238.714844 C 139.710938 238.878906 139.542969 239.015625 139.410156 239.191406 C 139.585938 239.261719 139.738281 239.351562 139.910156 239.394531 C 140.539062 239.550781 141.175781 239.730469 141.820312 239.839844 C 142.796875 240 143.742188 240.253906 144.601562 240.761719 C 144.882812 240.925781 145.191406 241.054688 145.496094 241.171875 C 146.175781 241.4375 146.871094 241.675781 147.546875 241.9375 C 148.066406 242.140625 148.613281 242.304688 149.082031 242.59375 C 149.835938 243.066406 150.648438 243.023438 151.613281 243.070312 Z M 160.277344 239.082031 C 160.46875 238.875 160.609375 238.699219 160.769531 238.539062 C 161.570312 237.71875 162.535156 237.402344 163.660156 237.613281 C 164.398438 237.75 165.046875 238.078125 165.566406 238.632812 C 165.855469 238.945312 166.144531 239.261719 166.410156 239.597656 C 166.816406 240.105469 167.320312 240.449219 167.953125 240.632812 C 168.363281 240.75 168.765625 240.902344 169.167969 241.042969 C 169.902344 241.304688 170.398438 241.816406 170.691406 242.523438 C 170.804688 242.800781 170.886719 243.09375 170.964844 243.390625 C 171.046875 243.703125 171.105469 244.019531 171.183594 244.378906 C 171.535156 244.402344 171.890625 244.4375 172.238281 244.449219 C 172.601562 244.457031 172.980469 244.585938 173.351562 244.402344 C 173.398438 244.167969 173.429688 243.941406 173.476562 243.726562 C 173.585938 243.195312 173.527344 242.675781 173.402344 242.152344 C 173.292969 241.679688 173.03125 241.328125 172.601562 241.113281 C 172.308594 240.972656 172 240.84375 171.695312 240.742188 C 171.164062 240.570312 170.632812 240.417969 170.097656 240.285156 C 168.648438 239.910156 167.386719 239.214844 166.308594 238.171875 C 166 237.878906 165.675781 237.59375 165.351562 237.320312 C 164.0625 236.234375 162.027344 236.0625 160.378906 237.285156 C 159.972656 237.582031 159.714844 237.972656 159.695312 238.492188 C 159.691406 238.5625 159.714844 238.632812 159.71875 238.722656 C 159.890625 238.828125 160.054688 238.941406 160.277344 239.082031 Z M 130.074219 238.964844 C 130.496094 239.441406 131.027344 239.625 131.539062 239.824219 C 132.789062 240.300781 134.09375 240.613281 135.402344 240.894531 C 138.089844 241.472656 140.804688 241.867188 143.527344 242.238281 C 143.945312 242.300781 144.367188 242.335938 144.96875 242.398438 C 144.5 242.144531 144.195312 241.988281 143.886719 241.816406 C 143.316406 241.484375 142.703125 241.265625 142.042969 241.167969 C 141.570312 241.097656 141.09375 241.019531 140.636719 240.894531 C 138.785156 240.414062 137.035156 239.746094 135.75 238.21875 C 135.558594 238.003906 135.261719 237.867188 135.007812 237.707031 C 134.789062 237.566406 134.539062 237.523438 134.28125 237.554688 C 133.378906 237.667969 132.472656 237.761719 131.605469 238.042969 C 131.050781 238.226562 130.539062 238.480469 130.074219 238.964844 Z M 225.382812 243.175781 C 226.195312 243.046875 226.824219 242.839844 227.332031 242.335938 C 227.492188 242.175781 227.6875 242.050781 227.863281 241.910156 C 228.453125 241.425781 228.835938 240.808594 228.953125 240.058594 C 229.128906 238.96875 228.765625 238.519531 228.109375 238.136719 C 227.761719 237.9375 227.390625 237.765625 227.019531 237.625 C 226.007812 237.230469 225.164062 236.617188 224.46875 235.785156 C 224.238281 235.515625 224.003906 235.25 223.785156 234.972656 C 223.105469 234.125 222.214844 233.769531 221.136719 233.746094 C 219.417969 233.710938 217.796875 234.152344 216.199219 234.730469 C 216.117188 234.761719 216.046875 234.84375 215.933594 234.925781 C 216.445312 235.101562 216.917969 235.132812 217.394531 235.148438 C 218.609375 235.191406 219.816406 235.230469 221.015625 235.445312 C 223.046875 235.808594 224.550781 236.851562 225.3125 238.832031 C 225.363281 238.976562 225.429688 239.117188 225.480469 239.257812 C 225.894531 240.277344 225.945312 241.308594 225.597656 242.363281 C 225.523438 242.59375 225.46875 242.835938 225.382812 243.175781 Z M 219.003906 244.085938 C 218.910156 243.671875 218.738281 243.34375 218.597656 242.996094 C 218.308594 242.304688 217.855469 241.738281 217.242188 241.304688 C 216.347656 240.671875 215.378906 240.1875 214.300781 239.964844 C 212.191406 239.527344 210.082031 239.617188 207.964844 239.910156 C 207.875 239.921875 207.792969 239.988281 207.699219 240.023438 C 207.699219 240.59375 207.699219 241.144531 207.699219 241.734375 C 207.953125 241.75 208.175781 241.769531 208.394531 241.769531 C 209.332031 241.769531 210.269531 241.804688 211.1875 241.96875 C 211.660156 242.050781 212.144531 242.132812 212.582031 242.3125 C 213.539062 242.707031 214.296875 243.347656 214.742188 244.390625 C 215.953125 244.398438 217.207031 244.226562 218.46875 244.183594 C 218.632812 244.179688 218.804688 244.121094 219.003906 244.085938 Z M 223.691406 243.726562 C 223.855469 243.378906 224.007812 243.066406 224.144531 242.746094 C 224.597656 241.652344 224.746094 240.554688 224.195312 239.445312 C 224.148438 239.359375 224.113281 239.261719 224.078125 239.167969 C 223.601562 237.949219 222.699219 237.207031 221.460938 236.847656 C 221.148438 236.753906 220.824219 236.683594 220.5 236.648438 C 219.800781 236.570312 219.09375 236.527344 218.390625 236.46875 C 217.613281 236.40625 216.824219 236.386719 216.050781 236.269531 C 214.921875 236.097656 213.863281 235.679688 212.875 235.097656 C 212.332031 234.777344 211.785156 234.460938 211.21875 234.183594 C 210.023438 233.605469 208.753906 233.445312 207.457031 233.742188 C 205.742188 234.136719 204.179688 234.894531 202.738281 235.898438 C 202.691406 235.933594 202.671875 236.023438 202.625 236.109375 C 202.921875 236.175781 203.210938 236.1875 203.4375 236.304688 C 203.976562 236.582031 204.453125 236.46875 204.929688 236.179688 C 205.125 236.0625 205.34375 235.980469 205.542969 235.886719 C 206.507812 235.4375 207.503906 235.085938 208.5625 234.914062 C 209.828125 234.703125 211.023438 234.832031 212.078125 235.644531 C 212.320312 235.828125 212.585938 235.980469 212.851562 236.128906 C 213.582031 236.546875 214.367188 236.804688 215.21875 236.835938 C 215.851562 236.859375 216.480469 236.898438 217.105469 236.953125 C 217.613281 236.996094 218.121094 237.023438 218.609375 237.125 C 219.929688 237.382812 221.097656 237.960938 222.039062 238.941406 C 223.128906 240.070312 223.566406 241.402344 223.195312 242.964844 C 223.136719 243.207031 223.09375 243.449219 223.035156 243.707031 C 223.136719 243.738281 223.199219 243.777344 223.269531 243.773438 C 223.417969 243.765625 223.570312 243.738281 223.691406 243.726562 Z M 182.179688 200.242188 C 182.234375 199.882812 182.292969 199.5625 182.328125 199.238281 C 182.46875 197.964844 182.617188 196.6875 182.734375 195.40625 C 182.875 193.800781 183.011719 192.191406 182.945312 190.574219 C 182.921875 190.097656 182.871094 189.621094 182.78125 189.15625 C 182.734375 188.882812 182.617188 188.625 182.492188 188.375 C 182.355469 188.089844 182.089844 187.910156 181.773438 187.898438 C 181.082031 187.875 180.421875 187.976562 179.882812 188.472656 C 179.898438 188.675781 179.898438 188.855469 179.921875 189.023438 C 180.183594 190.546875 180.277344 192.078125 180.300781 193.617188 C 180.335938 195.855469 180.347656 198.101562 180.363281 200.347656 C 180.363281 200.558594 180.382812 200.769531 180.398438 201.167969 C 180.53125 200.929688 180.589844 200.855469 180.617188 200.769531 C 180.675781 200.605469 180.710938 200.429688 180.769531 200.265625 C 180.941406 199.816406 181.082031 199.75 181.507812 199.929688 C 181.714844 200.011719 181.914062 200.117188 182.179688 200.242188 Z M 180.40625 202.457031 C 180.382812 202.644531 180.359375 202.746094 180.363281 202.847656 C 180.429688 205.039062 180.476562 207.238281 180.589844 209.429688 C 180.707031 211.726562 180.859375 214.019531 180.785156 216.320312 C 180.753906 217.226562 180.675781 218.132812 180.570312 219.035156 C 180.363281 220.773438 179.90625 222.453125 179.398438 224.121094 C 179.039062 225.308594 178.679688 226.492188 178.484375 227.710938 C 178.460938 227.859375 178.382812 228 178.539062 228.171875 C 179.402344 228.273438 180.234375 228.011719 181.105469 227.8125 C 181.125 227.628906 181.148438 227.480469 181.15625 227.335938 C 181.183594 226.375 181.238281 225.414062 181.238281 224.453125 C 181.253906 221.453125 181.203125 218.441406 181.273438 215.433594 C 181.335938 212.433594 181.519531 209.433594 181.660156 206.429688 C 181.714844 205.296875 181.808594 204.160156 181.878906 203.027344 C 181.890625 202.828125 181.886719 202.632812 181.886719 202.457031 C 181.394531 202.457031 180.929688 202.457031 180.40625 202.457031 Z M 194.480469 241.285156 C 192.558594 240.117188 190.566406 239.769531 188.4375 240.070312 C 186.605469 240.332031 184.828125 240.773438 183.097656 241.421875 C 181.347656 242.070312 179.605469 242.734375 177.789062 243.195312 C 177.746094 243.207031 177.710938 243.253906 177.660156 243.289062 C 177.523438 243.605469 177.375 243.925781 177.253906 244.253906 C 177.207031 244.363281 177.21875 244.484375 177.199219 244.644531 C 177.625 244.65625 178.007812 244.664062 178.378906 244.6875 C 178.671875 244.703125 178.910156 244.601562 179.164062 244.46875 C 179.644531 244.195312 180.128906 243.90625 180.648438 243.726562 C 182.316406 243.140625 184 242.628906 185.746094 242.3125 C 187.972656 241.910156 190.113281 242.144531 192.164062 243.136719 C 192.824219 243.453125 193.488281 243.761719 194.148438 244.066406 C 194.25 244.109375 194.367188 244.109375 194.480469 244.132812 C 194.480469 243.148438 194.480469 242.214844 194.480469 241.285156 Z M 221.53125 243.917969 C 221.773438 243.542969 221.839844 243.140625 221.945312 242.757812 C 222.28125 241.554688 221.902344 240.566406 221.042969 239.730469 C 220.222656 238.925781 219.222656 238.460938 218.089844 238.320312 C 217.390625 238.226562 216.683594 238.226562 215.976562 238.15625 C 215.28125 238.089844 214.566406 238.03125 213.875 237.890625 C 212.898438 237.691406 212.050781 237.175781 211.242188 236.605469 C 210.613281 236.15625 209.921875 236.023438 209.160156 236.105469 C 208.019531 236.234375 206.953125 236.613281 205.921875 237.105469 C 205.835938 237.148438 205.765625 237.222656 205.648438 237.320312 C 206.320312 237.671875 206.851562 238.113281 207.28125 238.6875 C 207.6875 238.652344 208.066406 238.640625 208.4375 238.585938 C 209.921875 238.378906 211.40625 238.363281 212.898438 238.480469 C 214.671875 238.617188 216.3125 239.132812 217.789062 240.140625 C 218.710938 240.773438 219.40625 241.585938 219.8125 242.628906 C 219.988281 243.089844 220.160156 243.554688 220.347656 244.050781 C 220.742188 244.003906 221.144531 243.960938 221.53125 243.917969 Z M 158.386719 238.039062 C 158.464844 237.871094 158.527344 237.742188 158.585938 237.609375 C 158.742188 237.230469 158.933594 236.875 159.242188 236.601562 C 160.433594 235.539062 161.824219 235.039062 163.414062 235.195312 C 164.550781 235.308594 165.554688 235.769531 166.402344 236.546875 C 166.75 236.871094 167.109375 237.195312 167.464844 237.511719 C 168.210938 238.179688 169.054688 238.667969 170.019531 238.933594 C 170.558594 239.085938 171.09375 239.214844 171.625 239.394531 C 172.171875 239.582031 172.71875 239.777344 173.238281 240.03125 C 173.976562 240.402344 174.429688 241.015625 174.625 241.828125 C 174.765625 242.421875 174.820312 243.023438 174.753906 243.632812 C 174.730469 243.902344 174.699219 244.171875 174.671875 244.472656 C 175.03125 244.597656 175.371094 244.585938 175.757812 244.496094 C 176.003906 243.914062 176.273438 243.347656 176.480469 242.753906 C 176.59375 242.429688 176.628906 242.0625 176.628906 241.714844 C 176.621094 241.019531 176.375 240.382812 176.039062 239.777344 C 175.769531 239.292969 175.371094 238.957031 174.835938 238.804688 C 174.429688 238.679688 174.011719 238.574219 173.59375 238.484375 C 170.804688 237.878906 168.171875 236.910156 165.8125 235.257812 C 165.429688 234.984375 164.988281 234.761719 164.539062 234.613281 C 162.84375 234.054688 161.15625 234.136719 159.519531 234.855469 C 158.8125 235.160156 158.199219 235.597656 157.722656 236.210938 C 157.421875 236.59375 157.203125 237.011719 157.191406 237.535156 C 157.550781 237.773438 157.949219 237.882812 158.386719 238.039062 Z M 153.667969 243.296875 C 154.242188 243.347656 154.84375 243.4375 155.453125 243.453125 C 156.042969 243.472656 156.625 243.625 157.238281 243.523438 C 157.179688 242.882812 156.882812 242.441406 156.40625 242.105469 C 156.242188 241.988281 156.078125 241.867188 155.898438 241.769531 C 154.992188 241.214844 154.050781 240.742188 153.023438 240.441406 C 151.726562 240.070312 150.519531 239.5 149.382812 238.785156 C 149.105469 238.609375 148.828125 238.4375 148.53125 238.285156 C 148.132812 238.078125 147.730469 237.859375 147.308594 237.707031 C 146.382812 237.371094 145.449219 237.054688 144.511719 236.769531 C 143.535156 236.476562 142.609375 236.09375 141.753906 235.550781 C 141.257812 235.238281 140.777344 234.921875 140.277344 234.632812 C 139.96875 234.453125 139.652344 234.289062 139.320312 234.171875 C 138.300781 233.792969 137.335938 233.917969 136.472656 234.609375 C 136.402344 234.667969 136.296875 234.71875 136.386719 234.890625 C 136.554688 234.902344 136.75 234.921875 136.945312 234.933594 C 137.59375 234.972656 138.171875 235.195312 138.703125 235.5625 C 138.890625 235.699219 139.074219 235.832031 139.253906 235.96875 C 140.234375 236.695312 141.320312 237.230469 142.496094 237.558594 C 143.105469 237.726562 143.710938 237.878906 144.324219 238.039062 C 145.015625 238.214844 145.691406 238.402344 146.292969 238.796875 C 146.828125 239.144531 147.414062 239.363281 148.027344 239.535156 C 149.480469 239.929688 150.8125 240.566406 151.925781 241.601562 C 152.203125 241.863281 152.5 242.105469 152.769531 242.363281 C 153.058594 242.648438 153.324219 242.941406 153.667969 243.296875 Z M 173.355469 186.738281 C 173.386719 187.070312 173.398438 187.398438 173.453125 187.714844 C 173.644531 188.785156 173.828125 189.855469 174.058594 190.917969 C 174.496094 192.949219 174.710938 194.988281 174.5 197.082031 C 174.359375 198.460938 174.40625 199.859375 174.507812 201.242188 C 174.582031 202.320312 174.675781 203.40625 174.773438 204.484375 C 174.796875 204.730469 174.773438 204.992188 174.960938 205.246094 C 175.421875 204.890625 175.996094 204.980469 176.558594 204.867188 C 176.558594 204.542969 176.570312 204.242188 176.558594 203.941406 C 176.46875 201.347656 176.363281 198.75 176.292969 196.152344 C 176.246094 194.558594 176.15625 192.972656 175.957031 191.394531 C 175.816406 190.238281 175.597656 189.101562 175.214844 188 C 175.082031 187.617188 174.90625 187.25 174.722656 186.898438 C 174.617188 186.683594 174.417969 186.550781 174.1875 186.507812 C 173.910156 186.457031 173.632812 186.425781 173.355469 186.738281 Z M 204.277344 233.5 C 204.074219 233.398438 203.953125 233.324219 203.816406 233.269531 C 201.988281 232.542969 200.492188 231.390625 199.242188 229.878906 C 197.875 228.25 196.9375 226.390625 196.296875 224.375 C 195.28125 221.179688 194.976562 217.898438 195.15625 214.570312 C 195.246094 213.035156 195.394531 211.5 195.554688 209.964844 C 195.699219 208.488281 195.902344 207.007812 196.082031 205.535156 C 196.308594 203.753906 196.527344 201.972656 196.753906 200.195312 C 196.957031 198.644531 197.125 197.082031 197.503906 195.5625 C 197.851562 194.171875 198.242188 192.785156 198.617188 191.394531 C 198.683594 191.160156 198.769531 190.921875 198.769531 190.640625 C 198.246094 190.6875 197.90625 191.152344 197.386719 191.015625 C 197.332031 191.210938 197.273438 191.382812 197.246094 191.554688 C 196.785156 193.804688 196.40625 196.066406 196.117188 198.347656 C 195.90625 200.050781 195.707031 201.753906 195.476562 203.460938 C 195.074219 206.410156 194.628906 209.351562 194.402344 212.328125 C 194.15625 215.640625 194.203125 218.941406 194.773438 222.21875 C 195.039062 223.769531 195.476562 225.265625 196.273438 226.644531 C 197.1875 228.230469 198.300781 229.664062 199.636719 230.914062 C 200.484375 231.703125 201.351562 232.472656 202.214844 233.257812 C 202.507812 233.527344 202.800781 233.800781 203.125 234.105469 C 203.492188 233.964844 203.855469 233.769531 204.277344 233.5 Z M 167.859375 235.0625 C 168.441406 233.789062 169.25 232.78125 170.007812 231.75 C 170.398438 231.21875 170.789062 230.695312 171.1875 230.167969 C 173.28125 227.464844 174.808594 224.46875 175.75 221.175781 C 176.679688 217.953125 177.148438 214.667969 176.976562 211.304688 C 176.90625 209.972656 176.816406 208.632812 176.734375 207.300781 C 176.722656 207.167969 176.789062 207.007812 176.605469 206.882812 C 176.492188 207.3125 176.1875 207.417969 175.796875 207.402344 C 175.578125 207.382812 175.355469 207.417969 175.113281 207.429688 C 175.113281 207.726562 175.109375 207.972656 175.113281 208.222656 C 175.125 208.726562 175.171875 209.234375 175.148438 209.734375 C 175.101562 210.644531 175.011719 211.546875 174.9375 212.453125 C 174.882812 213.078125 174.800781 213.707031 174.765625 214.339844 C 174.699219 215.421875 174.671875 216.507812 174.605469 217.59375 C 174.488281 219.429688 174.257812 221.257812 173.835938 223.054688 C 173.191406 225.800781 172.019531 228.289062 170.273438 230.511719 C 169.695312 231.242188 169.011719 231.8125 168.164062 232.195312 C 167.824219 232.351562 167.476562 232.503906 167.140625 232.675781 C 166.707031 232.886719 166.289062 233.117188 165.871094 233.351562 C 165.777344 233.40625 165.628906 233.445312 165.648438 233.648438 C 166.34375 234.09375 167.0625 234.554688 167.859375 235.0625 Z M 202.03125 234.796875 C 200.964844 233.828125 199.960938 232.910156 198.949219 231.992188 C 197.574219 230.742188 196.425781 229.308594 195.453125 227.734375 C 194.808594 226.699219 194.328125 225.589844 193.992188 224.417969 C 193.574219 222.957031 193.324219 221.464844 193.191406 219.957031 C 193.023438 218.09375 192.914062 216.226562 193 214.355469 C 193.140625 211.296875 193.527344 208.269531 193.949219 205.246094 C 194.1875 203.519531 194.398438 201.785156 194.628906 200.0625 C 194.839844 198.460938 195.039062 196.859375 195.289062 195.261719 C 195.707031 192.589844 196.25 189.949219 196.855469 187.316406 C 196.957031 186.878906 196.835938 186.589844 196.496094 186.367188 C 195.816406 186.519531 195.636719 186.644531 195.339844 187.152344 C 195.097656 187.570312 194.953125 188.027344 194.90625 188.507812 C 194.796875 189.613281 194.703125 190.722656 194.632812 191.832031 C 194.46875 194.449219 194.332031 197.070312 194.167969 199.691406 C 194.054688 201.429688 193.824219 203.160156 193.472656 204.867188 C 193.035156 206.964844 192.558594 209.058594 192.117188 211.164062 C 191.796875 212.695312 191.570312 214.238281 191.433594 215.800781 C 191.28125 217.621094 191.339844 219.4375 191.59375 221.242188 C 191.828125 222.984375 192.3125 224.648438 193.191406 226.183594 C 193.925781 227.480469 194.773438 228.703125 195.765625 229.828125 C 196.160156 230.28125 196.574219 230.722656 196.972656 231.183594 C 198.246094 232.628906 199.191406 234.246094 199.527344 236.175781 C 199.554688 236.339844 199.625 236.492188 199.679688 236.648438 C 200.054688 236.636719 200.273438 236.441406 200.492188 236.214844 C 200.855469 235.839844 201.257812 235.492188 201.648438 235.132812 C 201.757812 235.03125 201.871094 234.9375 202.03125 234.796875 Z M 196.019531 244.863281 C 196.308594 244.875 196.507812 244.898438 196.703125 244.890625 C 199.300781 244.867188 201.894531 244.832031 204.492188 244.804688 C 204.648438 244.804688 204.800781 244.792969 204.949219 244.792969 C 205.195312 244.785156 205.382812 244.675781 205.507812 244.46875 C 205.585938 244.332031 205.667969 244.203125 205.71875 244.0625 C 206.125 242.871094 206.46875 241.664062 206.4375 240.378906 C 206.425781 239.839844 206.246094 239.394531 205.886719 239.015625 C 205.300781 238.402344 204.628906 237.90625 203.816406 237.671875 C 202.761719 237.371094 201.695312 237.242188 200.609375 237.566406 C 200.226562 237.679688 199.824219 237.753906 199.441406 237.859375 C 198.960938 237.996094 198.464844 238.125 198 238.304688 C 196.914062 238.722656 196.191406 239.480469 195.929688 240.632812 C 195.792969 241.21875 195.652344 241.808594 195.699219 242.421875 C 195.746094 243 195.78125 243.578125 195.847656 244.15625 C 195.867188 244.375 195.949219 244.585938 196.019531 244.863281 Z M 217.3125 233.003906 C 217.453125 232.519531 217.667969 232.109375 217.648438 231.644531 C 217.613281 230.257812 217.183594 229.015625 216.292969 227.953125 C 215.839844 227.410156 215.257812 227.058594 214.554688 226.957031 C 213.984375 226.878906 213.394531 226.820312 212.828125 226.863281 C 211.390625 226.96875 209.964844 227.121094 208.519531 226.953125 C 207.925781 226.886719 207.441406 227.128906 207.023438 227.527344 C 206.539062 227.984375 206.144531 228.511719 205.878906 229.113281 C 205.5 229.992188 205.171875 230.894531 204.828125 231.785156 C 204.777344 231.921875 204.78125 232.074219 204.753906 232.238281 C 205.019531 232.351562 205.25 232.445312 205.476562 232.542969 C 205.910156 232.726562 206.320312 232.746094 206.792969 232.605469 C 207.949219 232.257812 209.125 232.28125 210.304688 232.53125 C 210.976562 232.6875 211.609375 232.933594 212.203125 233.265625 C 212.78125 233.574219 213.347656 233.898438 213.898438 234.210938 C 215.042969 233.804688 216.152344 233.410156 217.3125 233.003906 Z M 153.316406 235.691406 C 153.425781 235.367188 153.511719 235.027344 153.648438 234.707031 C 154.054688 233.789062 154.636719 233.003906 155.476562 232.4375 C 156.019531 232.066406 156.570312 231.714844 157.132812 231.378906 C 157.492188 231.164062 157.710938 230.898438 157.699219 230.476562 C 157.699219 230.375 157.714844 230.269531 157.710938 230.167969 C 157.65625 229.386719 157.492188 228.625 157.167969 227.90625 C 157 227.550781 156.789062 227.234375 156.476562 227.015625 C 154.984375 225.960938 153.359375 225.496094 151.550781 226.042969 C 150.800781 226.269531 150.066406 226.519531 149.339844 226.816406 C 148.855469 227.011719 148.375 227.257812 147.949219 227.558594 C 147.046875 228.1875 146.546875 229.054688 146.535156 230.179688 C 146.523438 231 146.648438 231.808594 146.921875 232.554688 C 147.464844 233.988281 147.320312 233.746094 148.613281 234.277344 C 148.664062 234.296875 148.703125 234.320312 148.757812 234.332031 C 150.269531 234.785156 151.785156 235.238281 153.316406 235.691406 Z M 177.398438 239.574219 C 178.378906 238.886719 179.421875 238.507812 180.472656 238.15625 C 181.496094 237.808594 182.535156 237.5 183.566406 237.171875 C 184.078125 237.007812 184.15625 236.894531 184.144531 236.359375 C 184.144531 236.257812 184.132812 236.15625 184.125 236.058594 C 184.054688 235.351562 183.976562 234.65625 183.914062 233.949219 C 183.902344 233.824219 183.878906 233.6875 183.914062 233.574219 C 184.105469 232.945312 183.925781 232.386719 183.628906 231.835938 C 183.511719 231.621094 183.441406 231.371094 183.328125 231.148438 C 183.21875 230.917969 183.085938 230.707031 182.945312 230.5 C 182.761719 230.226562 182.546875 229.980469 182.367188 229.703125 C 182.179688 229.402344 181.910156 229.261719 181.574219 229.195312 C 181.160156 229.125 180.765625 229.191406 180.371094 229.269531 C 179.652344 229.410156 178.9375 229.539062 178.195312 229.472656 C 177.601562 229.414062 177.117188 229.65625 176.710938 230.070312 C 176.050781 230.730469 175.414062 231.414062 174.605469 231.910156 C 174.230469 232.132812 174.011719 232.515625 173.835938 232.910156 C 173.492188 233.664062 173.410156 234.453125 173.46875 235.273438 C 173.511719 235.832031 173.605469 236.363281 173.910156 236.859375 C 174.113281 237.171875 174.324219 237.414062 174.707031 237.488281 C 174.925781 237.535156 175.136719 237.625 175.355469 237.691406 C 176.066406 237.882812 176.605469 238.328125 177.003906 238.941406 C 177.125 239.128906 177.242188 239.316406 177.398438 239.574219 Z M 190.554688 212.359375 C 190.335938 212.429688 190.21875 212.476562 190.101562 212.5 C 189.757812 212.570312 189.605469 212.464844 189.601562 212.132812 C 189.59375 211.582031 189.605469 211.019531 189.625 210.464844 C 189.628906 210.324219 189.675781 210.183594 189.710938 210.011719 C 190.191406 209.976562 190.632812 209.941406 191.066406 209.90625 C 191.226562 209.207031 191.386719 208.546875 191.527344 207.878906 C 191.859375 206.292969 192.210938 204.71875 192.488281 203.128906 C 192.882812 200.890625 193.011719 198.613281 193.125 196.34375 C 193.21875 194.375 193.324219 192.410156 193.453125 190.441406 C 193.503906 189.636719 193.621094 188.835938 193.695312 188.027344 C 193.714844 187.910156 193.703125 187.789062 193.703125 187.675781 C 193.285156 187.535156 193.152344 187.523438 192.960938 187.597656 C 192.730469 187.6875 192.605469 187.875 192.511719 188.089844 C 192.441406 188.246094 192.382812 188.417969 192.328125 188.582031 C 192.0625 189.410156 191.894531 190.246094 191.871094 191.113281 C 191.816406 192.957031 191.808594 194.800781 191.722656 196.640625 C 191.65625 197.976562 191.535156 199.308594 191.363281 200.636719 C 191.039062 203.222656 190.460938 205.757812 189.824219 208.28125 C 189.183594 210.828125 188.570312 213.378906 188.332031 216.007812 C 188.167969 217.820312 188.101562 219.636719 188.375 221.453125 C 188.894531 224.988281 190.359375 228.046875 192.976562 230.523438 C 193.273438 230.804688 193.578125 231.070312 193.863281 231.359375 C 194.351562 231.859375 194.871094 232.355469 195.3125 232.898438 C 196.125 233.886719 196.726562 234.980469 196.933594 236.277344 C 197.078125 237.1875 197.238281 237.273438 198.15625 237.042969 C 198.222656 237.03125 198.277344 236.964844 198.359375 236.90625 C 198.265625 236.097656 198.050781 235.332031 197.726562 234.585938 C 197.285156 233.574219 196.636719 232.710938 195.917969 231.890625 C 195.386719 231.285156 194.828125 230.695312 194.320312 230.070312 C 192.453125 227.765625 190.980469 225.261719 190.476562 222.277344 C 190.460938 222.164062 190.382812 222.066406 190.324219 221.949219 C 189.925781 222.089844 189.566406 222.207031 189.132812 222 C 189.003906 221.535156 188.816406 221.046875 188.910156 220.492188 C 189.351562 220.386719 189.757812 220.285156 190.207031 220.179688 C 190.058594 218.871094 190.023438 217.585938 190.128906 216.300781 C 190.242188 215.023438 190.402344 213.75 190.554688 212.359375 Z M 163.980469 233.152344 C 164.355469 232.875 164.652344 232.644531 164.957031 232.433594 C 165.675781 231.949219 166.4375 231.558594 167.238281 231.242188 C 168.210938 230.851562 168.949219 230.210938 169.5625 229.375 C 171.050781 227.347656 172.078125 225.113281 172.632812 222.671875 C 173.074219 220.722656 173.285156 218.734375 173.398438 216.742188 C 173.480469 215.28125 173.585938 213.820312 173.691406 212.359375 C 173.734375 211.757812 173.804688 211.148438 173.847656 210.550781 C 173.953125 208.90625 173.789062 207.265625 173.621094 205.632812 C 173.480469 204.203125 173.367188 202.769531 173.25 201.332031 C 173.117188 199.617188 173.15625 197.894531 173.285156 196.1875 C 173.386719 194.8125 173.261719 193.457031 173.003906 192.113281 C 172.757812 190.851562 172.496094 189.589844 172.261719 188.324219 C 172.167969 187.804688 172.125 187.273438 172.042969 186.75 C 172.007812 186.554688 171.941406 186.359375 171.859375 186.179688 C 171.773438 185.984375 171.523438 185.9375 171.339844 186.0625 C 171.105469 186.226562 170.945312 186.460938 170.929688 186.75 C 170.898438 187.257812 170.847656 187.765625 170.894531 188.265625 C 171.015625 189.46875 171.199219 190.664062 171.339844 191.871094 C 171.476562 193.019531 171.636719 194.175781 171.707031 195.332031 C 171.800781 197.070312 171.808594 198.820312 171.882812 200.558594 C 171.925781 201.542969 172 202.523438 172.121094 203.5 C 172.34375 205.410156 172.539062 207.320312 172.609375 209.234375 C 172.671875 211.15625 172.632812 213.078125 172.507812 214.992188 C 172.335938 217.644531 172.042969 220.273438 171.554688 222.886719 C 171.242188 224.535156 170.714844 226.109375 169.792969 227.527344 C 169.335938 228.238281 168.8125 228.882812 168.148438 229.398438 C 166.539062 230.640625 164.757812 231.488281 162.707031 231.671875 C 162.027344 231.738281 161.34375 231.75 160.667969 231.761719 C 160.054688 231.777344 159.453125 231.789062 158.871094 231.984375 C 157.808594 232.351562 156.832031 232.875 155.980469 233.613281 C 155.320312 234.1875 154.84375 234.894531 154.621094 235.75 C 154.554688 235.976562 154.507812 236.191406 154.648438 236.453125 C 155.027344 236.671875 155.417969 236.9375 155.894531 237.042969 C 155.953125 236.9375 156 236.871094 156.019531 236.804688 C 156.3125 235.75 156.988281 234.992188 157.84375 234.367188 C 158.699219 233.753906 159.652344 233.371094 160.679688 233.164062 C 161.789062 232.941406 162.890625 232.957031 163.980469 233.152344 Z M 176.582031 187.980469 C 176.59375 188.070312 176.59375 188.171875 176.621094 188.265625 C 177.171875 190.222656 177.386719 192.230469 177.472656 194.253906 C 177.601562 197.304688 177.671875 200.359375 177.796875 203.410156 C 177.882812 205.535156 178.007812 207.648438 178.148438 209.769531 C 178.335938 212.476562 178.289062 215.164062 177.820312 217.84375 C 176.96875 222.683594 175.183594 227.105469 172.15625 230.996094 C 171.5 231.832031 170.871094 232.6875 170.25 233.546875 C 169.925781 233.996094 169.621094 234.464844 169.335938 234.9375 C 169.238281 235.101562 169.191406 235.308594 169.15625 235.503906 C 169.121094 235.6875 169.25 235.773438 169.414062 235.804688 C 169.566406 235.578125 169.679688 235.316406 169.878906 235.15625 C 170.117188 234.96875 170.019531 234.632812 170.246094 234.453125 C 170.714844 234.5 171.058594 234.761719 171.375 235.042969 C 171.617188 235.261719 171.628906 235.457031 171.429688 235.703125 C 171.257812 235.914062 171.070312 236.109375 170.859375 236.351562 C 171.265625 236.601562 171.6875 236.675781 172.089844 236.804688 C 172.191406 236.835938 172.3125 236.8125 172.445312 236.8125 C 172.371094 236.457031 172.300781 236.164062 172.261719 235.867188 C 172.109375 234.855469 172.160156 233.847656 172.492188 232.875 C 172.796875 231.960938 173.308594 231.207031 174.140625 230.675781 C 174.519531 230.433594 174.855469 230.117188 175.179688 229.804688 C 175.613281 229.375 176.078125 228.996094 176.617188 228.703125 C 176.769531 228.621094 176.910156 228.523438 177.070312 228.429688 C 177.164062 227.914062 177.242188 227.417969 177.347656 226.921875 C 177.441406 226.457031 177.554688 225.992188 177.675781 225.523438 C 177.808594 225.035156 177.960938 224.558594 178.09375 224.070312 C 178.21875 223.59375 178.425781 223.136719 178.484375 222.589844 C 178.277344 222.632812 178.136719 222.671875 177.996094 222.691406 C 177.4375 222.765625 177.277344 222.621094 177.359375 222.082031 C 177.398438 221.835938 177.449219 221.582031 177.507812 221.339844 C 177.625 220.855469 178.109375 220.703125 178.503906 221.023438 C 178.601562 221.109375 178.691406 221.222656 178.808594 221.347656 C 178.863281 221.210938 178.910156 221.121094 178.933594 221.023438 C 179.179688 219.96875 179.363281 218.894531 179.441406 217.808594 C 179.605469 215.464844 179.550781 213.113281 179.398438 210.765625 C 179.203125 207.867188 179.085938 204.96875 179.105469 202.0625 C 179.128906 199.15625 179.097656 196.25 179.03125 193.351562 C 178.996094 191.953125 178.878906 190.574219 178.683594 189.203125 C 178.597656 188.625 178.480469 188.058594 178.226562 187.523438 C 178.078125 187.214844 177.871094 187.128906 177.546875 187.257812 C 177.386719 187.320312 177.242188 187.421875 177.101562 187.527344 C 176.921875 187.664062 176.765625 187.824219 176.582031 187.980469 Z M 195.535156 236.25 C 195.613281 235.808594 195.453125 235.542969 195.328125 235.28125 C 194.945312 234.414062 194.386719 233.664062 193.726562 233 C 193.195312 232.460938 192.640625 231.945312 192.085938 231.425781 C 190.914062 230.328125 189.949219 229.078125 189.164062 227.683594 C 187.65625 225 186.949219 222.117188 186.917969 219.054688 C 186.894531 216.597656 187.191406 214.167969 187.71875 211.769531 C 188.152344 209.824219 188.628906 207.890625 189.09375 205.953125 C 190.046875 201.933594 190.578125 197.867188 190.539062 193.722656 C 190.53125 193.144531 190.539062 192.5625 190.550781 191.984375 C 190.585938 190.742188 190.703125 189.515625 191.085938 188.324219 C 191.125 188.1875 191.132812 188.039062 191.15625 187.886719 C 190.828125 187.851562 190.625 188.023438 190.425781 188.160156 C 189.441406 188.8125 188.90625 189.75 188.699219 190.898438 C 188.5 192.023438 188.488281 193.15625 188.628906 194.289062 C 188.796875 195.667969 188.941406 197.046875 188.894531 198.445312 C 188.824219 200.753906 188.410156 203.003906 187.730469 205.210938 C 187.078125 207.332031 186.398438 209.445312 185.746094 211.570312 C 185.152344 213.488281 184.921875 215.464844 185.027344 217.472656 C 185.140625 219.550781 185.4375 221.589844 185.929688 223.609375 C 186.519531 226.066406 187.230469 228.484375 188.15625 230.835938 C 188.652344 232.109375 189.132812 233.375 189.46875 234.703125 C 189.542969 234.992188 189.636719 235.28125 189.84375 235.539062 C 191.785156 235.28125 193.671875 235.457031 195.535156 236.25 Z M 184.226562 190.441406 C 184.226562 190.851562 184.230469 191.304688 184.21875 191.761719 C 184.144531 194.566406 183.835938 197.351562 183.488281 200.136719 C 183.210938 202.339844 182.992188 204.542969 182.910156 206.765625 C 182.859375 208.203125 182.757812 209.640625 182.691406 211.078125 C 182.621094 212.640625 182.527344 214.210938 182.515625 215.769531 C 182.480469 219.082031 182.5 222.390625 182.480469 225.695312 C 182.480469 226.378906 182.433594 227.058594 182.402344 227.742188 C 182.402344 227.839844 182.402344 227.9375 182.402344 228.023438 C 182.644531 228.210938 182.886719 228.359375 183.070312 228.5625 C 183.257812 228.761719 183.398438 229.007812 183.558594 229.234375 C 183.636719 229.332031 183.707031 229.4375 183.789062 229.53125 C 184.136719 229.910156 184.378906 230.347656 184.566406 230.816406 C 184.703125 231.148438 184.84375 231.472656 184.996094 231.789062 C 185.214844 232.230469 185.273438 232.699219 185.238281 233.1875 C 185.210938 233.589844 185.214844 233.996094 185.238281 234.394531 C 185.269531 234.972656 185.332031 235.550781 185.386719 236.132812 C 185.398438 236.25 185.433594 236.371094 185.46875 236.515625 C 185.617188 236.503906 185.746094 236.511719 185.859375 236.480469 C 186.617188 236.292969 187.371094 236.097656 188.132812 235.890625 C 188.238281 235.863281 188.339844 235.796875 188.460938 235.734375 C 188.34375 235.332031 188.234375 234.972656 188.136719 234.609375 C 187.875 233.613281 187.53125 232.632812 187.128906 231.679688 C 186.984375 231.332031 186.847656 230.976562 186.71875 230.617188 C 185.863281 228.265625 185.164062 225.871094 184.589844 223.4375 C 184.132812 221.488281 183.878906 219.511719 183.746094 217.523438 C 183.613281 215.386719 183.90625 213.289062 184.527344 211.246094 C 184.914062 209.9375 185.332031 208.640625 185.738281 207.335938 C 185.78125 207.207031 185.886719 207.058594 185.699219 206.925781 C 185.585938 206.949219 185.46875 206.976562 185.34375 207 C 184.875 207.101562 184.65625 206.953125 184.644531 206.5 C 184.632812 205.945312 184.644531 205.390625 184.644531 204.863281 C 184.972656 204.601562 185.304688 204.691406 185.628906 204.71875 C 185.976562 204.75 186.160156 205.015625 186.351562 205.292969 C 187.105469 203.265625 187.597656 200.328125 187.648438 198.265625 C 187.671875 197.152344 187.574219 196.042969 187.429688 194.941406 C 187.242188 193.480469 187.195312 192.023438 187.480469 190.570312 C 187.507812 190.429688 187.503906 190.273438 187.507812 190.121094 C 187.289062 189.890625 187.078125 189.679688 186.878906 189.449219 C 186.566406 189.089844 186.195312 189.054688 185.78125 189.238281 C 185.4375 189.398438 185.113281 189.585938 184.863281 189.878906 C 184.703125 190.070312 184.492188 190.210938 184.226562 190.441406 Z M 167.304688 185.8125 C 167.027344 185.664062 166.898438 185.59375 166.769531 185.53125 C 164.742188 184.5 162.578125 183.921875 160.34375 183.589844 C 158.839844 183.375 157.351562 183.113281 155.941406 182.523438 C 154.542969 181.941406 153.160156 181.320312 151.785156 180.691406 C 147.695312 178.816406 143.71875 176.738281 139.945312 174.273438 C 134.257812 170.558594 128.46875 167 122.636719 163.515625 C 121.402344 162.78125 120.148438 162.078125 118.886719 161.378906 C 117.382812 160.539062 115.820312 159.839844 114.195312 159.273438 C 113.671875 159.089844 113.140625 158.917969 112.597656 158.808594 C 112.238281 158.730469 111.851562 158.753906 111.472656 158.761719 C 111.335938 158.761719 111.25 158.878906 111.253906 159.019531 C 111.265625 159.144531 111.289062 159.265625 111.324219 159.390625 C 111.503906 160.027344 111.796875 160.613281 112.199219 161.140625 C 113.027344 162.230469 113.988281 163.199219 115.050781 164.066406 C 117.273438 165.878906 119.71875 167.34375 122.289062 168.589844 C 123.925781 169.386719 125.582031 170.128906 127.246094 170.871094 C 131.550781 172.792969 135.914062 174.609375 140.1875 176.617188 C 143.261719 178.070312 146.363281 179.488281 149.417969 181.003906 C 152.167969 182.359375 154.460938 184.238281 156.300781 186.691406 C 156.964844 187.582031 157.65625 188.453125 158.351562 189.320312 C 159.8125 191.140625 161.476562 192.761719 163.375 194.125 C 163.460938 194.1875 163.53125 194.316406 163.714844 194.230469 C 163.574219 194.070312 163.425781 193.929688 163.320312 193.765625 C 163.15625 193.515625 162.984375 193.257812 162.882812 192.980469 C 162.648438 192.34375 162.917969 191.742188 163.542969 191.496094 C 163.796875 191.398438 164.085938 191.386719 164.355469 191.347656 C 164.492188 191.324219 164.632812 191.316406 164.824219 191.300781 C 164.679688 191.046875 164.546875 190.859375 164.476562 190.652344 C 164.382812 190.390625 164.296875 190.121094 164.292969 189.851562 C 164.273438 189.113281 164.6875 188.683594 165.429688 188.601562 C 165.589844 188.582031 165.765625 188.648438 165.917969 188.511719 C 165.796875 188.257812 165.664062 188.035156 165.578125 187.804688 C 165.246094 186.914062 165.636719 186.179688 166.554688 185.941406 C 166.75 185.890625 166.949219 185.871094 167.304688 185.8125 Z M 198.386719 198.007812 C 198.535156 198.054688 198.628906 198.09375 198.722656 198.109375 C 199.332031 198.179688 199.933594 198.277344 200.535156 198.285156 C 201.242188 198.289062 201.949219 198.238281 202.648438 198.15625 C 204.230469 197.960938 205.785156 197.625 207.253906 196.976562 C 208.058594 196.621094 208.859375 196.246094 209.644531 195.84375 C 210.050781 195.644531 210.445312 195.402344 210.792969 195.113281 C 212.257812 193.910156 213.476562 192.507812 214.175781 190.722656 C 214.5 189.898438 214.789062 189.0625 215.019531 188.210938 C 215.148438 187.742188 215.375 187.378906 215.746094 187.097656 C 216.46875 186.554688 217.171875 185.960938 217.945312 185.488281 C 220.484375 183.9375 223.089844 182.488281 225.753906 181.15625 C 229.953125 179.058594 234.285156 177.242188 238.613281 175.429688 C 241.847656 174.066406 245.183594 172.980469 248.53125 171.925781 C 250.578125 171.285156 252.605469 170.589844 254.566406 169.710938 C 256.230469 168.96875 257.671875 167.929688 258.980469 166.6875 C 259.128906 166.550781 259.28125 166.410156 259.386719 166.238281 C 259.476562 166.097656 259.542969 165.910156 259.53125 165.75 C 259.496094 165.160156 259.085938 164.695312 258.511719 164.59375 C 258.214844 164.542969 257.910156 164.535156 257.609375 164.558594 C 256.339844 164.644531 255.117188 164.925781 253.917969 165.355469 C 251.898438 166.085938 249.964844 167.019531 248.089844 168.066406 C 246.375 169.035156 244.695312 170.054688 243.003906 171.0625 C 240.050781 172.816406 237.09375 174.5625 234.027344 176.113281 C 227.757812 179.269531 221.386719 182.195312 214.992188 185.082031 C 214.707031 185.210938 214.4375 185.289062 214.117188 185.183594 C 213.734375 185.058594 213.328125 185 212.945312 184.882812 C 211.8125 184.515625 210.664062 184.234375 209.480469 184.109375 C 207.789062 183.925781 206.101562 183.886719 204.421875 184.199219 C 203.191406 184.429688 202.054688 184.886719 201.011719 185.578125 C 200.734375 185.761719 200.59375 185.964844 200.644531 186.332031 C 200.738281 187.039062 200.667969 187.742188 200.574219 188.449219 C 200.414062 189.550781 200.136719 190.621094 199.847656 191.695312 C 199.4375 193.234375 199.023438 194.765625 198.636719 196.304688 C 198.5 196.839844 198.363281 197.382812 198.386719 198.007812 Z M 236.449219 241.851562 C 235.867188 242.585938 235.089844 242.933594 234.261719 243.195312 C 233.589844 243.40625 232.914062 243.605469 232.222656 243.765625 C 229.605469 244.363281 226.953125 244.699219 224.289062 244.957031 C 221.796875 245.199219 219.3125 245.410156 216.8125 245.550781 C 213.40625 245.746094 210 245.90625 206.59375 246 C 201.410156 246.140625 196.230469 246.242188 191.054688 246.171875 C 186.457031 246.101562 181.863281 246 177.265625 245.898438 C 175.242188 245.851562 173.222656 245.777344 171.207031 245.683594 C 168.652344 245.5625 166.109375 245.429688 163.5625 245.285156 C 161.769531 245.179688 159.976562 245.070312 158.191406 244.933594 C 156.078125 244.773438 153.964844 244.585938 151.851562 244.398438 C 150.117188 244.238281 148.378906 244.085938 146.652344 243.878906 C 144.496094 243.625 142.34375 243.332031 140.191406 243.023438 C 138.042969 242.722656 135.90625 242.328125 133.796875 241.820312 C 132.042969 241.402344 130.351562 240.835938 128.816406 239.859375 C 128.789062 239.835938 128.722656 239.859375 128.570312 239.859375 C 128.558594 239.875 128.503906 239.964844 128.445312 240.046875 C 128.269531 240.324219 128.070312 240.582031 127.90625 240.867188 C 127.203125 242.0625 127.28125 243.140625 128.132812 244.242188 C 128.550781 244.785156 129.070312 245.234375 129.621094 245.648438 C 130.367188 246.207031 131.175781 246.671875 132.011719 247.097656 C 133.722656 247.96875 135.511719 248.652344 137.339844 249.246094 C 142.714844 250.980469 148.238281 252.042969 153.8125 252.871094 C 155.488281 253.125 157.167969 253.339844 158.847656 253.539062 C 160.496094 253.738281 162.152344 253.914062 163.816406 254.074219 C 165.324219 254.214844 166.832031 254.335938 168.347656 254.441406 C 170.539062 254.582031 172.730469 254.742188 174.925781 254.828125 C 177.523438 254.933594 180.128906 254.988281 182.726562 255.035156 C 187.578125 255.125 192.429688 255.035156 197.273438 254.800781 C 200.433594 254.652344 203.582031 254.457031 206.722656 254.109375 C 208.902344 253.875 211.089844 253.632812 213.269531 253.355469 C 216.523438 252.949219 219.757812 252.382812 222.960938 251.660156 C 225.597656 251.070312 228.203125 250.363281 230.734375 249.394531 C 232.054688 248.886719 233.34375 248.316406 234.550781 247.574219 C 235.289062 247.121094 235.984375 246.617188 236.566406 245.984375 C 237.804688 244.613281 237.8125 243.324219 236.585938 241.9375 C 236.566406 241.921875 236.539062 241.914062 236.449219 241.851562 Z M 152.347656 236.769531 C 152.304688 236.746094 152.269531 236.730469 152.226562 236.710938 C 152.226562 236.710938 152.210938 236.742188 152.199219 236.757812 C 152.25 236.753906 152.304688 236.746094 152.363281 236.746094 C 152.375 236.8125 152.359375 236.910156 152.398438 236.941406 C 152.535156 237.054688 152.695312 237.136719 152.835938 237.242188 C 152.980469 237.359375 153.054688 237.519531 153.011719 237.714844 C 152.980469 237.859375 152.945312 238.007812 152.886719 238.148438 C 152.8125 238.351562 152.652344 238.496094 152.429688 238.460938 C 152.105469 238.402344 151.792969 238.320312 151.484375 238.207031 C 151.390625 238.171875 151.277344 238.007812 151.289062 237.917969 C 151.332031 237.546875 151.34375 237.160156 151.644531 236.871094 C 151.722656 236.792969 151.769531 236.6875 151.851562 236.558594 C 151.355469 236.417969 150.925781 236.28125 150.488281 236.167969 C 148.96875 235.78125 147.5 235.242188 146.09375 234.546875 C 145.410156 234.21875 144.714844 233.925781 144.03125 233.589844 C 143.398438 233.277344 142.773438 232.945312 142.167969 232.585938 C 140.695312 231.714844 139.203125 231.707031 137.6875 232.449219 C 137.613281 232.492188 137.488281 232.519531 137.503906 232.703125 C 137.617188 232.703125 137.734375 232.722656 137.847656 232.714844 C 138.949219 232.628906 139.945312 232.953125 140.875 233.511719 C 141.285156 233.757812 141.695312 234.007812 142.097656 234.273438 C 143.027344 234.894531 144.042969 235.316406 145.121094 235.628906 C 146.671875 236.082031 148.21875 236.558594 149.59375 237.441406 C 150.925781 238.296875 152.335938 238.941406 153.84375 239.398438 C 155.011719 239.753906 156.070312 240.34375 157.078125 241.03125 C 157.699219 241.457031 158.15625 242.011719 158.375 242.746094 C 158.46875 243.058594 158.605469 243.355469 158.730469 243.683594 C 159.277344 243.785156 159.8125 243.777344 160.335938 243.800781 C 160.855469 243.824219 161.375 243.953125 161.898438 243.878906 C 162.105469 243.195312 161.929688 242.648438 161.582031 242.117188 C 160.75 240.882812 159.601562 240.042969 158.285156 239.40625 C 157.761719 239.15625 157.214844 238.957031 156.671875 238.75 C 155.609375 238.34375 154.566406 237.902344 153.589844 237.3125 C 153.207031 237.082031 152.765625 236.949219 152.347656 236.769531 Z M 170.527344 198.804688 C 169.644531 198.753906 168.882812 198.402344 168.125 198.09375 C 167.074219 197.671875 166.03125 197.207031 165.027344 196.675781 C 162.707031 195.445312 160.722656 193.769531 158.910156 191.878906 C 157.832031 190.746094 156.867188 189.515625 155.917969 188.265625 C 155.363281 187.546875 154.796875 186.832031 154.203125 186.144531 C 152.96875 184.710938 151.507812 183.554688 149.839844 182.664062 C 148.863281 182.148438 147.871094 181.640625 146.875 181.15625 C 141.160156 178.421875 135.40625 175.777344 129.585938 173.277344 C 127.101562 172.210938 124.652344 171.078125 122.191406 169.953125 C 120.21875 169.046875 118.34375 167.941406 116.535156 166.742188 C 115.160156 165.828125 113.867188 164.820312 112.714844 163.640625 C 112.175781 163.082031 111.671875 162.472656 111.179688 161.871094 C 110.675781 161.253906 110.339844 160.546875 110.128906 159.785156 C 110.058594 159.519531 110 159.238281 109.992188 158.96875 C 109.976562 158.1875 110.398438 157.675781 111.160156 157.523438 C 111.789062 157.386719 112.421875 157.453125 113.039062 157.605469 C 113.554688 157.730469 114.058594 157.894531 114.554688 158.066406 C 116.421875 158.714844 118.222656 159.515625 119.925781 160.511719 C 122.652344 162.101562 125.371094 163.707031 128.074219 165.328125 C 132.320312 167.871094 136.492188 170.535156 140.652344 173.222656 C 143.835938 175.28125 147.140625 177.121094 150.578125 178.730469 C 151.839844 179.3125 153.09375 179.902344 154.351562 180.503906 C 156.367188 181.464844 158.488281 182.078125 160.710938 182.382812 C 163.691406 182.785156 166.496094 183.75 169.066406 185.351562 C 169.277344 185.484375 169.503906 185.605469 169.71875 185.730469 C 169.757812 185.75 169.816406 185.742188 169.863281 185.753906 C 171.125 184.433594 171.730469 184.351562 172.945312 185.359375 C 173.539062 185.21875 174.160156 185.140625 174.777344 185.371094 C 175.390625 185.589844 175.738281 186.085938 176.054688 186.644531 C 176.199219 186.554688 176.304688 186.484375 176.410156 186.433594 C 176.628906 186.308594 176.847656 186.171875 177.074219 186.078125 C 178.054688 185.699219 178.707031 185.917969 179.28125 186.804688 C 179.332031 186.886719 179.386719 186.96875 179.464844 187.09375 C 179.605469 187.050781 179.746094 187.015625 179.882812 186.96875 C 180.429688 186.769531 180.984375 186.625 181.578125 186.621094 C 182.5625 186.613281 183.265625 187.0625 183.695312 187.933594 C 183.832031 188.207031 183.9375 188.484375 184.066406 188.789062 C 184.265625 188.660156 184.425781 188.535156 184.609375 188.449219 C 184.96875 188.269531 185.328125 188.089844 185.699219 187.945312 C 186.351562 187.703125 186.941406 187.875 187.472656 188.289062 C 187.667969 188.441406 187.84375 188.613281 188.066406 188.800781 C 188.214844 188.613281 188.332031 188.453125 188.457031 188.292969 C 188.859375 187.769531 189.347656 187.332031 189.914062 186.984375 C 190.441406 186.65625 191.015625 186.496094 191.644531 186.585938 C 191.808594 186.609375 192.011719 186.625 192.160156 186.554688 C 192.832031 186.226562 193.515625 186.226562 194.246094 186.457031 C 195.027344 185.300781 196.070312 184.816406 197.46875 185.277344 C 197.609375 185.128906 197.738281 184.980469 197.863281 184.835938 C 198.417969 184.222656 199.214844 184.132812 199.773438 184.558594 C 199.832031 184.605469 199.902344 184.632812 200.007812 184.691406 C 200.183594 184.585938 200.378906 184.476562 200.570312 184.355469 C 201.941406 183.503906 203.4375 183.011719 205.042969 182.824219 C 207.792969 182.5 210.480469 182.796875 213.121094 183.609375 C 213.527344 183.738281 213.953125 183.925781 214.359375 183.902344 C 214.738281 183.886719 215.101562 183.621094 215.46875 183.457031 C 218.574219 182.042969 221.679688 180.644531 224.769531 179.199219 C 227.328125 177.996094 229.859375 176.753906 232.402344 175.511719 C 236.148438 173.679688 239.726562 171.542969 243.304688 169.410156 C 244.761719 168.542969 246.210938 167.667969 247.6875 166.851562 C 249.609375 165.785156 251.589844 164.835938 253.664062 164.105469 C 254.792969 163.707031 255.945312 163.441406 257.132812 163.324219 C 257.554688 163.289062 257.992188 163.261719 258.414062 163.300781 C 259.429688 163.375 260.171875 163.871094 260.574219 164.832031 C 260.636719 164.996094 260.691406 165.167969 260.742188 165.332031 C 260.980469 166.003906 260.910156 166.558594 260.355469 167.105469 C 258.894531 168.5625 257.300781 169.824219 255.429688 170.703125 C 253.316406 171.691406 251.121094 172.433594 248.902344 173.136719 C 245.460938 174.21875 242.03125 175.347656 238.707031 176.753906 C 234.6875 178.457031 230.664062 180.15625 226.738281 182.070312 C 226.257812 182.304688 225.777344 182.523438 225.316406 182.785156 C 223.28125 183.910156 221.253906 185.039062 219.226562 186.171875 C 218.320312 186.679688 217.5 187.308594 216.6875 187.953125 C 216.433594 188.152344 216.292969 188.382812 216.199219 188.6875 C 215.945312 189.507812 215.6875 190.328125 215.375 191.125 C 214.585938 193.15625 213.214844 194.761719 211.546875 196.121094 C 211.164062 196.441406 210.722656 196.703125 210.277344 196.933594 C 209.46875 197.351562 208.648438 197.742188 207.824219 198.113281 C 206.378906 198.761719 204.851562 199.109375 203.304688 199.339844 C 202.484375 199.464844 201.648438 199.515625 200.816406 199.535156 C 200.214844 199.546875 199.609375 199.457031 199.007812 199.410156 C 198.800781 199.390625 198.601562 199.367188 198.398438 199.355469 C 198.328125 199.355469 198.265625 199.390625 198.152344 199.425781 C 198.09375 199.839844 198.015625 200.257812 197.964844 200.683594 C 197.585938 203.765625 197.222656 206.847656 196.832031 209.929688 C 196.488281 212.617188 196.296875 215.3125 196.429688 218.015625 C 196.566406 220.632812 197.078125 223.171875 198.097656 225.597656 C 198.671875 226.964844 199.449219 228.195312 200.410156 229.316406 C 201.191406 230.222656 202.101562 230.972656 203.148438 231.558594 C 203.234375 231.609375 203.332031 231.636719 203.46875 231.695312 C 203.550781 231.523438 203.621094 231.371094 203.679688 231.21875 C 204.003906 230.398438 204.304688 229.570312 204.652344 228.753906 C 204.976562 228.007812 205.429688 227.339844 206.003906 226.757812 C 206.726562 226.007812 207.578125 225.621094 208.648438 225.707031 C 209.832031 225.800781 211.019531 225.765625 212.203125 225.632812 C 213.050781 225.535156 213.910156 225.535156 214.765625 225.707031 C 215.886719 225.925781 216.792969 226.484375 217.464844 227.394531 C 218.472656 228.761719 218.980469 230.289062 218.878906 232.003906 C 218.875 232.171875 218.863281 232.351562 218.855469 232.496094 C 218.992188 232.6875 219.152344 232.597656 219.292969 232.585938 C 220.117188 232.527344 220.941406 232.421875 221.785156 232.527344 C 222.882812 232.667969 223.820312 233.105469 224.550781 233.941406 C 224.796875 234.222656 225.050781 234.511719 225.285156 234.808594 C 225.917969 235.59375 226.695312 236.167969 227.652344 236.523438 C 228.027344 236.660156 228.394531 236.835938 228.742188 237.042969 C 229.4375 237.449219 229.972656 238.003906 230.171875 238.816406 C 230.195312 238.910156 230.25 239 230.296875 239.097656 C 230.4375 239.097656 230.5625 239.105469 230.6875 239.09375 C 232.453125 238.921875 234.15625 239.199219 235.796875 239.863281 C 236.914062 240.324219 237.742188 241.121094 238.300781 242.1875 C 238.9375 243.402344 238.914062 244.609375 238.253906 245.804688 C 237.90625 246.429688 237.429688 246.953125 236.890625 247.425781 C 236.242188 247.992188 235.535156 248.476562 234.789062 248.898438 C 233.089844 249.867188 231.28125 250.578125 229.4375 251.191406 C 226.753906 252.09375 224.007812 252.753906 221.230469 253.324219 C 218.609375 253.855469 215.96875 254.292969 213.316406 254.640625 C 211.367188 254.898438 209.410156 255.117188 207.453125 255.304688 C 205.3125 255.519531 203.171875 255.707031 201.035156 255.847656 C 198.890625 255.996094 196.742188 256.101562 194.605469 256.179688 C 190.636719 256.3125 186.671875 256.398438 182.703125 256.324219 C 179.144531 256.253906 175.578125 256.171875 172.023438 255.941406 C 170.1875 255.820312 168.339844 255.726562 166.507812 255.578125 C 164.621094 255.425781 162.738281 255.234375 160.851562 255.035156 C 158.96875 254.828125 157.089844 254.621094 155.210938 254.359375 C 152.988281 254.039062 150.773438 253.6875 148.554688 253.285156 C 145.480469 252.738281 142.421875 252.054688 139.410156 251.191406 C 136.980469 250.503906 134.589844 249.703125 132.296875 248.632812 C 131.265625 248.15625 130.261719 247.621094 129.320312 246.984375 C 128.671875 246.542969 128.058594 246.054688 127.519531 245.476562 C 127.089844 245.011719 126.71875 244.503906 126.464844 243.914062 C 126.058594 242.964844 126.046875 242 126.453125 241.042969 C 127.039062 239.6875 127.90625 238.589844 129.195312 237.808594 C 130.574219 236.976562 132.042969 236.523438 133.621094 236.363281 C 133.816406 236.347656 134.015625 236.324219 134.265625 236.300781 C 134.3125 236.140625 134.371094 235.976562 134.40625 235.816406 C 134.464844 235.566406 134.46875 235.308594 134.570312 235.085938 C 134.746094 234.691406 134.886719 234.3125 134.863281 233.859375 C 134.851562 233.628906 134.996094 233.375 135.117188 233.164062 C 135.417969 232.628906 135.824219 232.179688 136.328125 231.820312 C 137.585938 230.917969 138.984375 230.5 140.539062 230.707031 C 140.765625 230.734375 140.988281 230.753906 141.222656 230.78125 C 141.855469 230.214844 142.667969 230.085938 143.429688 229.851562 C 143.789062 229.746094 144.175781 229.726562 144.546875 229.667969 C 144.773438 229.632812 144.996094 229.597656 145.238281 229.554688 C 145.285156 229.425781 145.332031 229.316406 145.363281 229.195312 C 145.667969 227.984375 146.386719 227.070312 147.40625 226.378906 C 147.929688 226.027344 148.503906 225.753906 149.105469 225.550781 C 150.128906 225.207031 151.15625 224.851562 152.222656 224.628906 C 153.246094 224.410156 154.238281 224.539062 155.191406 224.902344 C 156.054688 225.230469 156.8125 225.71875 157.445312 226.402344 C 157.660156 226.640625 157.914062 226.855469 158.179688 227.046875 C 159.082031 227.671875 159.855469 228.429688 160.519531 229.296875 C 160.773438 229.632812 160.949219 230.035156 161.179688 230.441406 C 162 230.539062 162.847656 230.441406 163.683594 230.242188 C 165.105469 229.898438 166.367188 229.21875 167.5 228.300781 C 167.953125 227.929688 168.3125 227.476562 168.636719 226.992188 C 169.425781 225.820312 169.902344 224.523438 170.203125 223.15625 C 170.570312 221.53125 170.769531 219.875 170.964844 218.21875 C 171.1875 216.3125 171.289062 214.390625 171.363281 212.476562 C 171.394531 211.746094 171.414062 211.007812 171.375 210.277344 C 171.3125 208.816406 171.222656 207.355469 171.113281 205.894531 C 171.050781 205.085938 170.933594 204.285156 170.828125 203.488281 C 170.65625 202.203125 170.640625 200.917969 170.585938 199.628906 C 170.574219 199.355469 170.550781 199.085938 170.527344 198.804688 " fillOpacity="1" fillRule="nonzero"/></g><path fill="#ffffff" d="M 185.78125 192.550781 C 185.644531 192.578125 185.550781 192.585938 185.464844 192.621094 C 185.375 192.65625 185.296875 192.71875 185.234375 192.757812 C 185.074219 194.023438 185.066406 194.753906 185.226562 195.242188 C 185.75 194.859375 186.230469 194.484375 186.011719 193.722656 C 185.953125 193.511719 185.976562 193.273438 185.941406 193.050781 C 185.910156 192.886719 185.839844 192.730469 185.78125 192.550781 Z M 184.875 192.289062 C 185.167969 192.238281 185.410156 192.195312 185.65625 192.15625 C 185.992188 192.101562 186.175781 192.207031 186.242188 192.5625 C 186.324219 192.980469 186.339844 193.410156 186.421875 193.828125 C 186.53125 194.382812 186.351562 194.808594 185.941406 195.167969 C 185.710938 195.359375 185.503906 195.585938 185.273438 195.78125 C 185.140625 195.890625 184.96875 195.949219 184.789062 195.839844 C 184.695312 195.242188 184.742188 192.921875 184.875 192.289062 " fillOpacity="1" fillRule="nonzero"/><path fill="#ffffff" d="M 184.460938 225.984375 C 184.394531 225.296875 184.148438 224.746094 183.914062 224.199219 C 183.902344 224.175781 183.882812 224.144531 183.867188 224.140625 C 183.769531 224.109375 183.675781 224.058594 183.589844 224.0625 C 183.535156 224.070312 183.453125 224.15625 183.445312 224.21875 C 183.40625 224.640625 183.371094 225.070312 183.359375 225.5 C 183.351562 225.667969 183.410156 225.832031 183.441406 226.015625 C 183.628906 226.027344 183.78125 226.042969 183.929688 226.042969 C 184.078125 226.039062 184.226562 226.015625 184.460938 225.984375 Z M 183.867188 226.460938 C 183.710938 226.445312 183.589844 226.4375 183.464844 226.414062 C 183.128906 226.351562 182.964844 226.191406 182.96875 225.847656 C 182.976562 225.273438 183.023438 224.695312 183.0625 224.117188 C 183.082031 223.867188 183.21875 223.691406 183.472656 223.632812 C 183.769531 223.5625 184.070312 223.652344 184.195312 223.898438 C 184.519531 224.527344 184.753906 225.195312 184.886719 225.890625 C 184.925781 226.125 184.816406 226.292969 184.585938 226.34375 C 184.34375 226.398438 184.089844 226.425781 183.867188 226.460938 " fillOpacity="1" fillRule="nonzero"/><path fill="#ffffff" d="M 192.328125 233.710938 C 192.3125 233.605469 192.316406 233.574219 192.304688 233.558594 C 192.082031 233.222656 191.863281 232.886719 191.640625 232.550781 C 191.257812 231.972656 191.089844 231.957031 190.632812 232.480469 C 190.550781 232.566406 190.492188 232.6875 190.425781 232.792969 C 190.574219 233.203125 190.714844 233.605469 190.980469 233.953125 C 191.457031 234 191.886719 233.882812 192.328125 233.710938 Z M 191.1875 234.425781 C 190.898438 234.40625 190.671875 234.308594 190.550781 234.054688 C 190.390625 233.734375 190.242188 233.417969 190.101562 233.09375 C 189.996094 232.84375 190.023438 232.605469 190.195312 232.386719 C 190.429688 232.078125 190.691406 231.808594 191.074219 231.695312 C 191.285156 231.636719 191.472656 231.683594 191.621094 231.84375 C 191.65625 231.882812 191.691406 231.921875 191.722656 231.960938 C 192.046875 232.4375 192.375 232.917969 192.699219 233.398438 C 192.753906 233.480469 192.792969 233.574219 192.816406 233.675781 C 192.859375 233.839844 192.804688 233.996094 192.648438 234.042969 C 192.164062 234.183594 191.675781 234.300781 191.1875 234.425781 " fillOpacity="1" fillRule="nonzero"/><path fill="#ffffff" d="M 177.429688 233.976562 C 177.558594 233.464844 177.734375 232.976562 177.617188 232.421875 C 177.300781 232.316406 177 232.207031 176.640625 232.085938 C 176.414062 232.582031 176.09375 233 176.109375 233.570312 C 176.523438 233.8125 176.945312 233.917969 177.429688 233.976562 Z M 177.648438 234.460938 C 177.050781 234.359375 176.546875 234.207031 176.0625 234.007812 C 175.808594 233.90625 175.625 233.699219 175.683594 233.417969 C 175.757812 233.105469 175.867188 232.792969 175.996094 232.496094 C 176.140625 232.179688 176.238281 231.824219 176.585938 231.609375 C 176.945312 231.742188 177.316406 231.878906 177.6875 232.027344 C 177.976562 232.144531 178.132812 232.363281 178.082031 232.679688 C 178.007812 233.175781 177.917969 233.671875 177.820312 234.164062 C 177.800781 234.253906 177.722656 234.332031 177.648438 234.460938 " fillOpacity="1" fillRule="nonzero"/><path fill="#ffffff" d="M 180.640625 237.160156 C 180.976562 237.242188 181.203125 237.257812 181.3125 236.996094 C 181.394531 236.792969 181.46875 236.582031 181.390625 236.3125 C 181.183594 236.335938 181 236.351562 180.777344 236.375 C 180.734375 236.648438 180.6875 236.882812 180.640625 237.160156 Z M 180.523438 235.929688 C 181 235.929688 181.394531 235.832031 181.839844 235.953125 C 181.855469 236.097656 181.898438 236.246094 181.878906 236.382812 C 181.863281 236.550781 181.785156 236.722656 181.75 236.894531 C 181.609375 237.679688 181.378906 237.578125 180.820312 237.59375 C 180.648438 237.59375 180.484375 237.554688 180.289062 237.53125 C 180.160156 236.953125 180.363281 236.46875 180.523438 235.929688 " fillOpacity="1" fillRule="nonzero"/><path fill="#ffffff" d="M 149.917969 228.390625 C 149.25 228.332031 149.1875 228.359375 149.023438 228.785156 C 148.960938 228.949219 148.925781 229.121094 148.878906 229.292969 C 149.539062 229.390625 149.570312 229.378906 149.757812 228.878906 C 149.8125 228.738281 149.851562 228.597656 149.917969 228.390625 Z M 149.027344 229.773438 C 148.925781 229.769531 148.820312 229.769531 148.726562 229.75 C 148.539062 229.722656 148.390625 229.550781 148.445312 229.378906 C 148.554688 228.996094 148.691406 228.621094 148.832031 228.25 C 148.867188 228.164062 148.96875 228.070312 149.050781 228.058594 C 149.371094 228 149.695312 227.949219 150.011719 227.941406 C 150.242188 227.941406 150.394531 228.140625 150.332031 228.355469 C 150.222656 228.714844 150.101562 229.066406 149.957031 229.414062 C 149.894531 229.585938 149.734375 229.679688 149.546875 229.703125 C 149.375 229.734375 149.199219 229.75 149.027344 229.773438 " fillOpacity="1" fillRule="nonzero"/><path fill="#ffffff" d="M 154.609375 228.714844 C 154.757812 228.371094 154.808594 228.070312 154.699219 227.753906 C 154.585938 227.71875 154.492188 227.683594 154.390625 227.671875 C 154.300781 227.660156 154.207031 227.671875 154.074219 227.671875 C 153.976562 227.964844 153.894531 228.242188 153.8125 228.511719 C 154.0625 228.707031 154.296875 228.742188 154.609375 228.714844 Z M 155.140625 227.558594 C 155.238281 228.011719 155.097656 228.425781 155.015625 228.835938 C 154.980469 228.996094 154.832031 229.101562 154.675781 229.097656 C 154.375 229.085938 154.074219 229.066406 153.777344 229.003906 C 153.511719 228.9375 153.390625 228.691406 153.441406 228.40625 C 153.488281 228.183594 153.558594 227.964844 153.636719 227.753906 C 153.765625 227.375 154.054688 227.210938 154.457031 227.269531 C 154.578125 227.289062 154.703125 227.328125 154.816406 227.382812 C 154.925781 227.429688 155.035156 227.5 155.140625 227.558594 " fillOpacity="1" fillRule="nonzero"/><path fill="#ffffff" d="M 209.054688 227.917969 C 208.542969 228.125 208.070312 228.308594 207.699219 228.703125 C 207.757812 228.882812 207.816406 229.042969 207.886719 229.238281 C 208.332031 229.085938 208.671875 228.84375 209.015625 228.597656 C 209.246094 228.4375 209.234375 228.226562 209.054688 227.917969 Z M 207.179688 228.484375 C 207.707031 228.09375 208.238281 227.824219 208.785156 227.582031 C 209.160156 227.410156 209.398438 227.550781 209.527344 227.949219 C 209.6875 228.429688 209.640625 228.636719 209.238281 228.921875 C 208.890625 229.167969 208.523438 229.386719 208.148438 229.585938 C 207.765625 229.792969 207.617188 229.722656 207.46875 229.328125 C 207.382812 229.066406 207.292969 228.808594 207.179688 228.484375 " fillOpacity="1" fillRule="nonzero"/><path fill="#ffffff" d="M 214.488281 229.75 C 214.914062 229.839844 215.257812 229.921875 215.597656 229.976562 C 215.703125 229.992188 215.820312 229.957031 215.945312 229.941406 C 215.945312 229.652344 215.945312 229.410156 215.945312 229.15625 C 215.542969 228.933594 215.15625 228.808594 214.683594 228.832031 C 214.625 229.015625 214.558594 229.171875 214.523438 229.339844 C 214.496094 229.457031 214.5 229.582031 214.488281 229.75 Z M 216.382812 229.582031 C 216.375 229.605469 216.375 229.628906 216.375 229.652344 C 216.316406 230.441406 216.214844 230.515625 215.449219 230.351562 C 215.109375 230.28125 214.765625 230.226562 214.425781 230.144531 C 214.140625 230.082031 214.03125 229.933594 214.066406 229.667969 C 214.101562 229.421875 214.148438 229.171875 214.21875 228.933594 C 214.324219 228.5625 214.554688 228.394531 214.9375 228.441406 C 215.207031 228.476562 215.480469 228.535156 215.738281 228.625 C 216.28125 228.8125 216.40625 229.019531 216.382812 229.582031 " fillOpacity="1" fillRule="nonzero"/><path fill="#ffffff" d="M 198.605469 241.734375 C 198.386719 241.992188 198.253906 242.269531 198.269531 242.605469 C 199.113281 242.769531 199.382812 242.582031 199.476562 241.78125 C 199.195312 241.667969 198.90625 241.679688 198.605469 241.734375 Z M 197.820312 242.921875 C 197.738281 242.40625 197.96875 241.992188 198.21875 241.585938 C 198.277344 241.492188 198.410156 241.390625 198.519531 241.386719 C 198.941406 241.367188 199.367188 241.375 199.785156 241.402344 C 199.9375 241.414062 200.054688 241.667969 199.984375 241.832031 C 199.847656 242.152344 199.695312 242.46875 199.53125 242.777344 C 199.484375 242.859375 199.382812 242.953125 199.300781 242.964844 C 198.8125 243.035156 198.324219 243.152344 197.820312 242.921875 " fillOpacity="1" fillRule="nonzero"/><path fill="#ffffff" d="M 203.214844 243.648438 C 203.484375 243.566406 203.746094 243.449219 203.933594 243.230469 C 203.964844 242.988281 204.023438 242.769531 203.832031 242.535156 C 203.628906 242.683594 203.449219 242.8125 203.273438 242.941406 C 203.027344 243.128906 203.019531 243.347656 203.214844 243.648438 Z M 202.550781 243 C 202.878906 242.746094 203.148438 242.523438 203.433594 242.316406 C 203.574219 242.214844 203.726562 242.121094 203.882812 242.050781 C 204.085938 241.953125 204.300781 242.074219 204.316406 242.3125 C 204.339844 242.609375 204.335938 242.910156 204.335938 243.210938 C 204.339844 243.402344 204.253906 243.554688 204.085938 243.648438 C 203.785156 243.832031 203.484375 244.007812 203.144531 244.207031 C 203.03125 244.101562 202.890625 244.027344 202.835938 243.90625 C 202.726562 243.632812 202.65625 243.335938 202.550781 243 " fillOpacity="1" fillRule="nonzero"/><path fill="#ffffff" d="M 204.503906 239.875 C 204.535156 239.640625 204.558594 239.433594 204.589844 239.191406 C 204.351562 239.105469 204.152344 239.023438 203.941406 238.933594 C 203.726562 239.144531 203.582031 239.359375 203.515625 239.636719 C 203.820312 239.839844 204.132812 239.882812 204.503906 239.875 Z M 203.820312 238.457031 C 203.953125 238.503906 204.070312 238.53125 204.175781 238.589844 C 204.433594 238.734375 204.847656 238.699219 204.9375 239.011719 C 205.011719 239.3125 204.9375 239.652344 204.90625 239.972656 C 204.890625 240.164062 204.734375 240.277344 204.539062 240.289062 C 204.074219 240.324219 203.652344 240.171875 203.238281 239.976562 C 203.085938 239.898438 203.019531 239.695312 203.101562 239.511719 C 203.28125 239.128906 203.46875 238.746094 203.820312 238.457031 " fillOpacity="1" fillRule="nonzero"/><path fill="#ffffff" d="M 159.820312 242.839844 C 160.109375 242.839844 160.277344 242.871094 160.4375 242.835938 C 160.609375 242.800781 160.78125 242.539062 160.757812 242.382812 C 160.722656 242.214844 160.585938 242.152344 160.433594 242.121094 C 160.320312 242.105469 160.203125 242.109375 160.050781 242.097656 C 159.976562 242.339844 159.914062 242.539062 159.820312 242.839844 Z M 159.730469 241.703125 C 160.167969 241.578125 160.519531 241.714844 160.867188 241.867188 C 161.070312 241.957031 161.15625 242.140625 161.152344 242.359375 C 161.144531 242.851562 160.816406 243.21875 160.324219 243.269531 C 160.207031 243.28125 160.078125 243.277344 159.953125 243.257812 C 159.472656 243.1875 159.359375 243.011719 159.476562 242.535156 C 159.484375 242.511719 159.496094 242.488281 159.5 242.464844 C 159.570312 242.222656 159.640625 241.988281 159.730469 241.703125 " fillOpacity="1" fillRule="nonzero"/><path fill="#ffffff" d="M 188.332031 241.355469 C 188.621094 241.375 188.847656 241.410156 189.0625 241.398438 C 189.234375 241.390625 189.304688 241.25 189.324219 241.085938 C 189.347656 240.929688 189.253906 240.847656 189.121094 240.820312 C 188.957031 240.785156 188.78125 240.777344 188.574219 240.75 C 188.5 240.941406 188.425781 241.113281 188.332031 241.355469 Z M 187.808594 241.457031 C 187.945312 241.160156 188.066406 240.894531 188.199219 240.625 C 188.285156 240.449219 188.4375 240.347656 188.621094 240.367188 C 188.917969 240.394531 189.21875 240.441406 189.507812 240.519531 C 189.722656 240.578125 189.804688 240.773438 189.777344 240.992188 C 189.683594 241.675781 189.496094 241.839844 188.785156 241.804688 C 188.46875 241.792969 188.136719 241.785156 187.808594 241.457031 " fillOpacity="1" fillRule="nonzero"/><path fill="#ffffff" d="M 216.480469 242.105469 C 216.074219 241.878906 215.785156 241.652344 215.378906 241.628906 C 215.203125 241.964844 215.054688 242.273438 215.054688 242.660156 C 215.398438 242.792969 215.726562 242.875 216.128906 242.828125 C 216.226562 242.625 216.335938 242.40625 216.480469 242.105469 Z M 214.9375 241.074219 C 215.617188 241.144531 216.140625 241.425781 216.636719 241.769531 C 216.839844 241.914062 216.894531 242.132812 216.78125 242.375 C 216.742188 242.46875 216.707031 242.5625 216.664062 242.660156 C 216.398438 243.230469 216.300781 243.296875 215.679688 243.207031 C 215.410156 243.164062 215.132812 243.113281 214.871094 243.023438 C 214.65625 242.953125 214.585938 242.777344 214.621094 242.539062 C 214.625 242.492188 214.632812 242.441406 214.648438 242.394531 C 214.796875 241.976562 214.980469 241.5625 214.9375 241.074219 " fillOpacity="1" fillRule="nonzero"/><path fill="#ffffff" d="M 227.796875 239.753906 C 227.421875 239.617188 227.144531 239.511719 226.84375 239.398438 C 226.730469 239.574219 226.628906 239.71875 226.546875 239.863281 C 226.5 239.949219 226.488281 240.046875 226.449219 240.164062 C 226.777344 240.359375 227.089844 240.488281 227.492188 240.429688 C 227.578125 240.230469 227.667969 240.03125 227.796875 239.753906 Z M 226.738281 238.886719 C 227.238281 239.203125 227.84375 239.1875 228.226562 239.675781 C 228.175781 240.011719 228.003906 240.296875 227.851562 240.578125 C 227.722656 240.832031 227.492188 240.929688 227.214844 240.859375 C 226.925781 240.789062 226.628906 240.707031 226.355469 240.582031 C 226.035156 240.449219 225.953125 240.222656 226.09375 239.910156 C 226.246094 239.570312 226.394531 239.222656 226.738281 238.886719 " fillOpacity="1" fillRule="nonzero"/><g clipPath="url(#e1c98a4376)"><path fill="#231f20" d="M 2.339844 183.269531 L 127.703125 183.269531 L 127.703125 230.535156 L 2.339844 230.535156 Z M 2.339844 183.269531 " fillOpacity="1" fillRule="nonzero"/></g><g fill="#000000" fillOpacity="1"><g transform="translate(87.114067, 164.894521)"><g><path d="M 1.242188 -2.347656 L 5.644531 -10.65625 C 7.445312 -14.058594 6.132812 -18.324219 2.613281 -20.191406 C 0.96875 -21.0625 -1.066406 -21.125 -2.734375 -20.242188 C -2.945312 -22.046875 -4.292969 -23.472656 -5.847656 -24.371094 C -9.5 -26.417969 -13.398438 -25.515625 -15.375 -21.785156 L -19.773438 -13.480469 Z M -13.335938 -15.484375 L -11.363281 -19.210938 C -10.726562 -20.414062 -9.398438 -20.652344 -8.222656 -20.027344 C -7.078125 -19.421875 -6.5 -18.175781 -7.136719 -16.972656 L -9.109375 -13.246094 Z M -4.914062 -11.019531 L -2.9375 -14.75 C -2.300781 -15.953125 -0.910156 -16.378906 0.265625 -15.757812 C 1.4375 -15.136719 1.894531 -13.730469 1.257812 -12.527344 L -0.714844 -8.796875 Z M -4.914062 -11.019531 "/></g></g></g><g fill="#000000" fillOpacity="1"><g transform="translate(95.689563, 147.538595)"><g><path d="M 9.371094 -10.519531 C 19.953125 -22.972656 1.296875 -38.824219 -9.285156 -26.367188 C -19.867188 -13.914062 -1.210938 1.9375 9.371094 -10.519531 Z M 5.625 -13.699219 C -0.527344 -6.460938 -11.714844 -15.96875 -5.5625 -23.207031 C 0.585938 -30.445312 11.777344 -20.941406 5.625 -13.699219 Z M 5.625 -13.699219 "/></g></g></g><g fill="#000000" fillOpacity="1"><g transform="translate(113.232853, 127.303257)"><g><path d="M 11.523438 -8.769531 L 15.804688 -12.03125 L 5.484375 -16.488281 C 9.808594 -22.324219 1.925781 -31.3125 -4.816406 -26.179688 L -12.269531 -20.507812 L 2.113281 -1.609375 L 5.894531 -4.484375 L 0.402344 -11.703125 L 2.226562 -13.089844 Z M -2.394531 -15.375 L -5.613281 -19.605469 L -2.28125 -22.140625 C 0.28125 -24.089844 3.5 -19.863281 0.9375 -17.910156 Z M -2.394531 -15.375 "/></g></g></g><g fill="#000000" fillOpacity="1"><g transform="translate(128.493522, 115.582362)"><g><path d="M 7.566406 -24.3125 L 5.855469 -28.921875 C 4.296875 -28.835938 2.738281 -28.378906 1.257812 -27.625 C -13.070312 -20.332031 -2.160156 1.175781 12.195312 -6.132812 C 13.675781 -6.886719 15.359375 -8.191406 16.390625 -9.386719 L 13.601562 -13.480469 C 13.011719 -12.660156 11.832031 -11.390625 9.996094 -10.453125 C 1.621094 -6.191406 -4.949219 -19.097656 3.429688 -23.363281 C 5.261719 -24.296875 6.554688 -24.320312 7.566406 -24.3125 Z M 7.566406 -24.3125 "/></g></g></g><g fill="#000000" fillOpacity="1"><g transform="translate(145.410915, 107.025075)"><g><path d="M 14.246094 -4.519531 L 12.8125 -9.046875 L 5.625 -6.765625 L 4.1875 -11.292969 L 10.140625 -13.183594 L 8.703125 -17.710938 L 2.753906 -15.824219 L 1.316406 -20.351562 L 8.125 -22.507812 L 6.6875 -27.035156 L -4.648438 -23.441406 L 2.53125 -0.804688 Z M 14.246094 -4.519531 "/></g></g></g><g fill="#000000" fillOpacity="1"><g transform="translate(160.460881, 102.19321)"><g><path d="M -1.152344 -23.871094 L 2.625 -0.421875 L 14.757812 -2.375 L 14.003906 -7.066406 L 6.558594 -5.867188 L 3.539062 -24.625 Z M -1.152344 -23.871094 "/></g></g></g><g fill="#000000" fillOpacity="1"><g transform="translate(175.70537, 99.670312)"><g><path d="M 2.332031 -23.785156 L 2.65625 -0.0351562 L 14.945312 -0.207031 L 14.878906 -4.957031 L 7.339844 -4.851562 L 7.078125 -23.847656 Z M 2.332031 -23.785156 "/></g></g></g><g fill="#000000" fillOpacity="1"><g transform="translate(191.145905, 99.375465)"><g><path d="M 14.8125 1.992188 L 15.445312 -2.714844 L 7.972656 -3.71875 L 8.609375 -8.425781 L 14.796875 -7.59375 L 15.429688 -12.300781 L 9.242188 -13.132812 L 9.875 -17.84375 L 16.953125 -16.890625 L 17.585938 -21.597656 L 5.800781 -23.183594 L 2.632812 0.355469 Z M 14.8125 1.992188 "/></g></g></g><g fill="#000000" fillOpacity="1"><g transform="translate(206.961359, 101.672939)"><g/></g></g><g fill="#000000" fillOpacity="1"><g transform="translate(215.412759, 103.416292)"><g><path d="M 6.875 2.757812 L 10.25 -5.65625 L 14.503906 -3.949219 C 23.042969 -0.523438 28.53125 -14.105469 19.960938 -17.546875 L 11.296875 -21.019531 L 2.464844 0.988281 Z M 11.96875 -9.941406 L 13.949219 -14.875 L 17.832031 -13.316406 C 20.792969 -12.128906 18.8125 -7.195312 15.855469 -8.382812 Z M 11.96875 -9.941406 "/></g></g></g><g fill="#000000" fillOpacity="1"><g transform="translate(233.008679, 110.27794)"><g><path d="M 0.449219 0.285156 L 4.984375 3.175781 L 7.144531 1.519531 L 13.785156 5.75 L 13.222656 8.425781 L 17.730469 11.300781 L 22.527344 -14.828125 L 22.109375 -15.097656 Z M 10.992188 -1.304688 L 16.191406 -5.320312 L 14.691406 1.050781 Z M 10.992188 -1.304688 "/></g></g></g><g fill="#000000" fillOpacity="1"><g transform="translate(250.323611, 121.40771)"><g><path d="M 2.183594 -0.0703125 C 3.433594 3.332031 5.5 5.453125 6.546875 6.277344 C 9.984375 9.113281 14.035156 8.726562 16.707031 5.816406 C 19.265625 3.023438 18.355469 -0.699219 16.558594 -4.195312 C 15.867188 -5.457031 15.414062 -6.683594 16.214844 -7.753906 C 17.039062 -8.800781 18.433594 -9.1875 19.75 -8.117188 C 20.3125 -7.648438 21.433594 -6.660156 22.652344 -4.105469 L 26.191406 -7.078125 C 24.65625 -9.925781 23.457031 -11.027344 22.507812 -11.808594 C 19.457031 -14.332031 15.359375 -13.945312 12.667969 -11.007812 C 9.972656 -8.070312 11.140625 -4.429688 12.960938 -0.910156 C 13.625 0.328125 13.980469 1.464844 13.132812 2.535156 C 12.355469 3.582031 10.800781 3.507812 9.707031 2.636719 C 8.832031 1.96875 6.695312 -0.078125 5.992188 -3.339844 Z M 2.183594 -0.0703125 "/></g></g></g><g fill="#000000" fillOpacity="1"><g transform="translate(262.604475, 132.537702)"><g><path d="M 7.027344 8.882812 L 21.929688 -2.90625 L 25.597656 1.730469 L 29.296875 -1.195312 L 19.011719 -14.195312 L 15.3125 -11.265625 L 18.980469 -6.628906 L 4.082031 5.15625 Z M 7.027344 8.882812 "/></g></g></g><g fill="#000000" fillOpacity="1"><g transform="translate(273.401991, 145.76961)"><g><path d="M 0.25 0.46875 L 2.792969 5.210938 L 5.484375 4.824219 L 9.203125 11.761719 L 7.402344 13.820312 L 9.929688 18.535156 L 26.902344 -1.902344 L 26.667969 -2.339844 Z M 10.226562 4.246094 L 16.722656 3.289062 L 12.296875 8.109375 Z M 10.226562 4.246094 "/></g></g></g><g clipPath="url(#1eb46ee6b9)"><path fill="#231f20" d="M 255.613281 183.269531 L 371.191406 183.269531 L 371.191406 230.535156 L 255.613281 230.535156 Z M 255.613281 183.269531 " fillOpacity="1" fillRule="nonzero"/></g><g fill="#ffffff" fillOpacity="1"><g transform="translate(19.429693, 212.965934)"><g><path d="M 11.414062 0 L 11.414062 -3.628906 L 5.65625 -3.628906 L 5.65625 -7.253906 L 10.425781 -7.253906 L 10.425781 -10.882812 L 5.65625 -10.882812 L 5.65625 -14.511719 L 11.109375 -14.511719 L 11.109375 -18.136719 L 2.03125 -18.136719 L 2.03125 0 Z M 11.414062 0 "/></g></g></g><g fill="#ffffff" fillOpacity="1"><g transform="translate(32.214795, 212.965934)"><g><path d="M 1.191406 -1.167969 C 3.652344 0.101562 5.910156 0.226562 6.925781 0.152344 C 10.324219 -0.0234375 12.40625 -2.332031 12.40625 -5.351562 C 12.40625 -8.246094 9.96875 -9.867188 7.152344 -10.90625 C 6.113281 -11.261719 5.226562 -11.71875 5.125 -12.734375 C 5.046875 -13.75 5.632812 -14.6875 6.925781 -14.765625 C 7.484375 -14.789062 8.625 -14.8125 10.628906 -14.003906 L 11.085938 -17.503906 C 8.75 -18.316406 7.507812 -18.316406 6.570312 -18.265625 C 3.550781 -18.113281 1.445312 -15.777344 1.445312 -12.734375 C 1.445312 -9.691406 3.984375 -8.246094 6.824219 -7.203125 C 7.839844 -6.847656 8.625 -6.390625 8.699219 -5.351562 C 8.800781 -4.363281 7.890625 -3.601562 6.824219 -3.527344 C 5.988281 -3.449219 3.730469 -3.5 1.648438 -4.972656 Z M 1.191406 -1.167969 "/></g></g></g><g fill="#ffffff" fillOpacity="1"><g transform="translate(45.634073, 212.965934)"><g><path d="M 8.648438 0 L 8.648438 -14.511719 L 13.164062 -14.511719 L 13.164062 -18.113281 L 0.507812 -18.113281 L 0.507812 -14.511719 L 5.023438 -14.511719 L 5.023438 0 Z M 8.648438 0 "/></g></g></g><g fill="#ffffff" fillOpacity="1"><g transform="translate(59.50996, 212.965934)"><g><path d="M 7.433594 -18.136719 L 2.03125 -18.136719 L 2.03125 0 L 7.433594 0 C 19.507812 0 19.507812 -18.136719 7.433594 -18.136719 Z M 7.433594 -14.511719 C 14.484375 -14.511719 14.484375 -3.628906 7.433594 -3.628906 L 5.65625 -3.628906 L 5.65625 -14.511719 Z M 7.433594 -14.511719 "/></g></g></g><g fill="#ffffff" fillOpacity="1"><g transform="translate(298.233199, 212.965934)"><g><path d="M 6.925781 -10.753906 L 0.152344 0 L 12.125 0 L 12.125 -3.679688 L 6.746094 -3.679688 L 10.324219 -9.207031 C 13.367188 -13.445312 11.59375 -18.113281 6.265625 -18.390625 C 4.488281 -18.46875 2.28125 -17.757812 0.886719 -16.742188 L 1.777344 -13.242188 C 2.359375 -13.75 4.363281 -14.789062 5.960938 -14.6875 C 7.027344 -14.636719 7.839844 -13.875 7.839844 -12.859375 C 7.839844 -12.859375 7.890625 -12.125 6.925781 -10.753906 Z M 6.925781 -10.753906 "/></g></g></g><g fill="#ffffff" fillOpacity="1"><g transform="translate(311.449544, 212.965934)"><g><path d="M 7.535156 0.253906 C 12.050781 0.253906 13.773438 -3.933594 13.773438 -9.082031 C 13.773438 -14.230469 12.050781 -18.390625 7.535156 -18.390625 C 3.070312 -18.390625 1.320312 -14.230469 1.320312 -9.082031 C 1.320312 -3.933594 3.070312 0.253906 7.535156 0.253906 Z M 7.535156 -3.171875 C 5.53125 -3.171875 4.84375 -5.808594 4.84375 -9.082031 C 4.84375 -12.328125 5.53125 -14.992188 7.535156 -14.992188 C 9.589844 -14.992188 10.273438 -12.328125 10.273438 -9.082031 C 10.273438 -5.808594 9.589844 -3.171875 7.535156 -3.171875 Z M 7.535156 -3.171875 "/></g></g></g><g fill="#ffffff" fillOpacity="1"><g transform="translate(326.593792, 212.965934)"><g><path d="M 6.925781 -10.753906 L 0.152344 0 L 12.125 0 L 12.125 -3.679688 L 6.746094 -3.679688 L 10.324219 -9.207031 C 13.367188 -13.445312 11.59375 -18.113281 6.265625 -18.390625 C 4.488281 -18.46875 2.28125 -17.757812 0.886719 -16.742188 L 1.777344 -13.242188 C 2.359375 -13.75 4.363281 -14.789062 5.960938 -14.6875 C 7.027344 -14.636719 7.839844 -13.875 7.839844 -12.859375 C 7.839844 -12.859375 7.890625 -12.125 6.925781 -10.753906 Z M 6.925781 -10.753906 "/></g></g></g><g fill="#ffffff" fillOpacity="1"><g transform="translate(339.810136, 212.965934)"><g><path d="M 7.535156 0.253906 C 12.050781 0.253906 13.773438 -3.933594 13.773438 -9.082031 C 13.773438 -14.230469 12.050781 -18.390625 7.535156 -18.390625 C 3.070312 -18.390625 1.320312 -14.230469 1.320312 -9.082031 C 1.320312 -3.933594 3.070312 0.253906 7.535156 0.253906 Z M 7.535156 -3.171875 C 5.53125 -3.171875 4.84375 -5.808594 4.84375 -9.082031 C 4.84375 -12.328125 5.53125 -14.992188 7.535156 -14.992188 C 9.589844 -14.992188 10.273438 -12.328125 10.273438 -9.082031 C 10.273438 -5.808594 9.589844 -3.171875 7.535156 -3.171875 Z M 7.535156 -3.171875 "/></g></g></g></svg>