<svg xmlns="http://www.w3.org/2000/svg" xmlns:xlink="http://www.w3.org/1999/xlink" width="1080" zoomAndPan="magnify" viewBox="0 0 810 809.999993" height="1080" preserveAspectRatio="xMidYMid meet" version="1.0"><defs><clipPath id="389fe86fa3"><path d="M 8.167969 9 L 801.667969 9 L 801.667969 801.667969 L 8.167969 801.667969 Z M 8.167969 9 " clipRule="nonzero"/></clipPath></defs><g clipPath="url(#389fe86fa3)"><path fill="#000000" d="M 651.84375 342.546875 L 721.761719 342.546875 C 712.6875 300.917969 695.609375 261.6875 671.058594 226.996094 C 646.503906 192.035156 615.550781 162.414062 579.523438 139.730469 L 585.660156 128.257812 C 623.824219 152.273438 656.648438 183.496094 682.265625 220.324219 C 707.882812 257.152344 725.765625 298.78125 735.105469 342.546875 L 789.011719 342.546875 C 774.066406 252.613281 727.632812 170.6875 657.714844 111.710938 C 587.527344 52.734375 498.929688 20.175781 407.128906 20.175781 C 315.328125 20.175781 226.730469 52.46875 156.542969 111.175781 C 86.625 170.152344 39.925781 251.816406 24.714844 341.746094 L 79.421875 341.746094 C 89.027344 296.648438 107.707031 253.949219 134.660156 216.589844 C 161.613281 178.960938 196.039062 147.472656 235.800781 123.988281 L 242.207031 135.460938 C 204.3125 157.878906 171.753906 187.765625 145.871094 223.261719 C 120.25 258.753906 102.105469 299.050781 92.496094 342.015625 L 161.613281 342.015625 C 172.289062 301.449219 192.835938 264.089844 221.660156 233.402344 C 250.480469 202.710938 286.507812 179.761719 326.804688 166.417969 C 366.832031 153.074219 409.53125 150.140625 451.160156 157.613281 C 492.792969 165.082031 531.753906 182.695312 564.84375 208.847656 C 607.542969 243.007812 637.964844 289.976562 651.574219 342.546875 Z M 191.238281 360.429688 L 253.414062 360.429688 L 253.414062 381.242188 L 233.402344 381.242188 L 233.402344 472.242188 L 211.519531 472.242188 L 211.519531 381.242188 L 191.238281 381.242188 Z M 437.550781 380.175781 L 422.339844 394.320312 C 418.070312 389.25 412.734375 385.246094 406.863281 382.578125 C 400.992188 379.910156 394.320312 378.308594 387.914062 378.308594 C 382.84375 378.308594 377.773438 379.109375 373.238281 380.976562 C 368.699219 382.84375 364.429688 385.78125 360.695312 389.25 C 356.957031 392.71875 354.289062 396.988281 352.15625 401.523438 C 350.019531 406.0625 349.21875 411.132812 349.488281 416.203125 C 349.488281 423.140625 351.085938 430.078125 354.289062 435.949219 C 357.492188 441.820312 362.296875 446.359375 368.167969 449.558594 C 374.304688 453.03125 381.242188 454.632812 388.183594 454.632812 C 394.054688 454.632812 399.921875 453.5625 405.261719 451.160156 C 411.664062 447.960938 417.535156 443.691406 422.339844 438.621094 L 436.75 453.832031 C 430.078125 460.769531 422.074219 466.640625 413 470.644531 C 404.996094 473.84375 396.453125 475.445312 387.648438 475.445312 C 379.640625 475.714844 371.902344 474.378906 364.699219 471.445312 C 357.492188 468.507812 350.820312 464.238281 345.21875 458.632812 C 339.613281 453.03125 335.34375 446.359375 332.40625 439.152344 C 329.472656 431.949219 328.136719 423.941406 328.40625 416.203125 C 328.40625 405.527344 330.804688 395.121094 336.144531 385.78125 C 341.746094 376.972656 349.753906 370.035156 359.09375 365.230469 C 368.433594 359.894531 378.839844 356.957031 389.515625 356.691406 C 398.855469 356.691406 407.929688 358.828125 416.46875 362.5625 C 425.007812 366.300781 432.480469 372.171875 438.617188 379.109375 L 437.550781 379.640625 Z M 455.699219 360.429688 L 477.3125 360.429688 L 477.3125 432.75 C 477.3125 437.285156 477.582031 441.820312 478.914062 446.089844 C 479.984375 448.761719 481.851562 450.894531 484.519531 452.230469 C 487.1875 453.832031 490.390625 454.632812 493.59375 454.632812 C 497.0625 454.632812 500.53125 453.832031 503.46875 451.960938 C 506.136719 450.359375 508.003906 448.226562 509.070312 445.558594 C 510.40625 440.753906 510.9375 435.417969 510.671875 430.347656 L 510.671875 360.695312 L 532.019531 360.695312 L 532.019531 427.410156 C 532.289062 435.417969 531.753906 443.15625 530.152344 450.894531 C 528.820312 455.699219 526.148438 459.96875 522.949219 463.4375 C 519.480469 467.441406 515.207031 470.375 510.40625 472.511719 C 505.335938 474.644531 499.730469 475.714844 494.125 475.445312 C 486.65625 475.445312 479.183594 473.578125 472.777344 469.84375 C 467.171875 466.640625 462.636719 461.835938 459.703125 455.964844 C 456.5 446.890625 455.164062 437.019531 455.699219 427.410156 Z M 556.839844 360.429688 L 579.789062 360.429688 C 588.863281 359.894531 597.667969 360.960938 606.210938 363.898438 C 611.546875 366.03125 616.082031 370.035156 619.285156 374.839844 C 622.488281 380.441406 624.089844 386.582031 624.089844 392.984375 C 624.621094 399.925781 622.753906 406.863281 618.484375 412.464844 C 614.214844 417.804688 608.34375 421.539062 601.671875 423.140625 C 594.199219 424.476562 586.460938 425.277344 578.988281 424.742188 L 578.988281 472.242188 L 557.375 472.242188 Z M 578.1875 404.460938 L 585.128906 404.460938 C 588.863281 404.460938 592.867188 404.460938 596.335938 403.125 C 598.46875 402.324219 600.070312 400.992188 601.40625 399.390625 C 602.738281 397.523438 603.273438 395.386719 603.273438 392.984375 C 603.273438 391.117188 603.007812 389.25 601.941406 387.382812 C 601.140625 385.78125 599.539062 384.179688 597.9375 383.378906 C 593.667969 381.511719 588.863281 380.710938 584.328125 380.976562 L 578.1875 380.976562 Z M 269.160156 421.539062 L 308.121094 421.539062 L 308.121094 440.753906 L 269.160156 440.753906 Z M 801.554688 409.796875 L 642.769531 409.796875 L 642.769531 397.789062 L 801.554688 397.789062 Z M 162.949219 398.855469 L 8.167969 398.855469 L 8.167969 409.265625 L 163.484375 409.265625 Z M 585.929688 86.09375 L 593.132812 89.292969 L 558.441406 168.019531 L 537.890625 158.945312 L 553.105469 123.988281 L 528.550781 134.128906 L 526.949219 133.328125 L 517.878906 108.507812 L 502.667969 143.46875 L 481.050781 134.394531 L 515.742188 55.667969 L 523.214844 59.140625 L 538.425781 106.640625 Z M 400.722656 76.21875 L 391.382812 99.167969 L 411.132812 99.167969 Z M 418.605469 117.046875 L 384.710938 117.046875 L 379.910156 127.988281 L 359.09375 129.589844 L 359.09375 125.855469 L 395.121094 41.527344 L 404.726562 41.527344 L 445.558594 124.253906 L 445.558594 127.457031 L 423.941406 127.457031 Z M 272.097656 124.789062 L 277.96875 138.128906 L 294.246094 130.925781 C 302.25 127.1875 296.113281 114.113281 288.109375 117.582031 Z M 259.019531 95.433594 L 264.625 107.976562 L 277.167969 102.371094 C 278.5 101.570312 279.566406 99.96875 280.101562 98.367188 C 280.636719 96.765625 280.367188 94.898438 279.835938 93.5625 C 279.035156 91.964844 277.96875 90.894531 276.367188 90.09375 C 274.765625 89.292969 273.164062 89.292969 271.296875 89.828125 L 258.753906 95.433594 Z M 300.382812 100.769531 C 304.121094 100.769531 307.589844 102.105469 310.523438 104.238281 C 313.460938 106.375 315.863281 109.308594 316.929688 112.511719 C 318.53125 115.714844 319.597656 119.183594 319.863281 122.652344 C 319.863281 126.121094 319.597656 129.859375 318.261719 133.058594 C 316.929688 136.53125 315.0625 139.464844 312.390625 142.132812 C 309.722656 144.800781 306.789062 146.671875 303.320312 148.003906 L 266.492188 164.285156 L 231.53125 86.09375 L 265.15625 70.882812 C 268.359375 69.28125 271.828125 68.480469 275.296875 68.480469 C 278.769531 68.480469 282.238281 69.011719 285.4375 70.082031 C 288.640625 71.414062 291.84375 73.015625 294.246094 75.417969 C 296.914062 77.820312 298.78125 80.753906 300.382812 83.957031 C 301.71875 86.625 302.25 89.5625 302.25 92.496094 C 302.25 95.433594 301.449219 98.367188 300.382812 100.769531 Z M 731.902344 575.253906 L 718.558594 595 L 688.136719 574.71875 L 672.925781 597.9375 L 703.347656 618.484375 L 690.003906 638.234375 L 613.679688 587.527344 C 617.953125 581.125 622.488281 574.453125 627.023438 567.78125 L 654.511719 586.195312 L 669.722656 562.976562 L 642.234375 544.5625 C 646.773438 538.160156 651.042969 531.488281 655.578125 524.816406 L 731.636719 575.519531 Z M 567.78125 668.121094 L 571.515625 694.007812 L 589.398438 683.332031 L 567.78125 668.386719 Z M 606.210938 696.140625 L 575.785156 714.824219 L 577.121094 727.367188 L 557.375 739.109375 L 555.503906 736.171875 L 544.296875 639.035156 L 553.105469 633.964844 L 634.765625 688.402344 L 636.632812 691.339844 L 617.152344 703.082031 L 606.742188 696.140625 Z M 411.664062 769.796875 L 401.792969 678.796875 L 425.542969 676.128906 L 429.277344 710.285156 L 430.878906 710.285156 C 454.097656 707.882812 451.160156 690.539062 449.292969 673.460938 L 473.3125 671.058594 C 475.179688 689.472656 477.582031 706.550781 460.769531 719.894531 L 489.855469 756.988281 L 489.855469 760.722656 L 463.972656 763.660156 L 440.21875 730.835938 C 437.285156 730.835938 434.347656 731.902344 431.414062 732.4375 L 435.417969 766.59375 Z M 309.457031 697.476562 L 292.109375 716.957031 L 312.125 723.363281 L 309.457031 697.210938 Z M 313.191406 744.976562 L 279.035156 733.769531 L 270.226562 743.109375 L 248.078125 736.4375 L 249.144531 733.238281 L 316.128906 660.648438 L 325.46875 663.851562 L 336.945312 760.992188 L 335.875 764.191406 L 314.261719 756.988281 L 312.925781 745.246094 Z M 192.035156 608.34375 L 205.378906 592.332031 L 257.683594 635.296875 L 244.34375 651.308594 L 226.996094 637.164062 L 181.894531 692.140625 L 164.015625 676.929688 L 208.847656 623.023438 Z M 163.484375 528.019531 C 168.820312 536.824219 170.421875 547.234375 168.285156 557.105469 C 166.152344 566.980469 160.28125 576.054688 152.007812 581.925781 L 141.601562 561.375 C 144.535156 558.441406 146.136719 554.4375 146.671875 550.433594 C 147.203125 546.433594 146.402344 542.164062 144.269531 538.691406 C 142.667969 535.757812 140.800781 533.355469 138.128906 531.21875 C 135.730469 529.085938 132.792969 527.75 129.589844 526.949219 C 126.386719 526.148438 123.1875 525.882812 119.984375 526.683594 C 116.78125 527.21875 113.847656 528.550781 111.175781 530.152344 C 108.242188 531.488281 105.839844 533.355469 103.707031 535.492188 C 101.570312 537.625 99.96875 540.292969 98.902344 543.230469 C 97.835938 546.164062 97.300781 549.101562 97.566406 552.304688 C 97.566406 555.503906 98.367188 558.441406 99.703125 561.109375 C 101.570312 565.378906 104.773438 568.847656 108.777344 570.984375 C 112.777344 573.117188 117.582031 573.652344 122.117188 572.585938 L 132.527344 592.867188 C 122.652344 596.601562 111.710938 596.335938 102.105469 592.332031 C 92.496094 588.328125 84.757812 580.589844 80.753906 570.984375 C 77.820312 565.644531 75.953125 559.773438 75.152344 553.636719 C 74.351562 547.5 75.152344 541.363281 76.753906 535.492188 C 78.621094 529.621094 81.554688 524.28125 85.292969 519.480469 C 89.292969 514.675781 94.097656 510.9375 99.433594 508.003906 C 104.773438 505.066406 110.910156 503.199219 117.046875 502.398438 C 123.1875 501.867188 129.589844 502.398438 135.460938 504.265625 C 141.332031 506.136719 146.9375 509.339844 151.472656 513.339844 C 156.277344 517.34375 160.011719 522.414062 162.683594 528.019531 L 162.683594 527.21875 Z M 795.683594 354.824219 L 647.039062 354.824219 C 645.707031 354.824219 644.371094 354.289062 643.304688 353.488281 C 642.234375 352.6875 641.433594 351.355469 641.167969 350.019531 C 628.894531 297.980469 599.269531 251.546875 557.375 218.191406 C 514.675781 184.296875 461.570312 165.617188 406.863281 165.617188 C 352.15625 165.617188 299.050781 184.03125 256.351562 218.191406 C 214.453125 251.546875 184.832031 297.980469 172.554688 350.019531 C 172.289062 351.355469 171.488281 352.421875 170.421875 353.222656 C 169.355469 354.023438 168.019531 354.558594 166.683594 354.558594 L 17.773438 354.558594 L 13.238281 352.421875 L 11.636719 347.617188 C 25.78125 253.414062 73.28125 167.484375 145.871094 105.304688 C 218.457031 43.394531 311.058594 9.234375 406.59375 9.234375 C 502.398438 9.234375 594.734375 43.394531 667.320312 105.574219 C 739.90625 167.753906 787.410156 253.683594 801.554688 347.886719 L 800.21875 352.6875 L 795.949219 354.824219 Z M 24.714844 467.171875 C 39.65625 557.105469 86.09375 639.035156 156.011719 698.277344 C 225.929688 757.253906 314.792969 789.8125 406.59375 789.8125 C 498.398438 789.8125 587.261719 757.253906 657.179688 698.277344 C 727.097656 639.300781 773.800781 557.375 788.476562 467.171875 L 651.308594 467.171875 C 637.433594 521.078125 605.675781 569.117188 561.375 603.273438 C 517.078125 637.433594 462.636719 655.847656 406.328125 655.847656 C 350.019531 655.847656 295.847656 637.433594 251.28125 603.273438 C 206.980469 569.117188 175.226562 521.347656 161.347656 467.171875 Z M 406.0625 801.820312 C 310.257812 801.820312 217.65625 767.394531 145.335938 704.949219 C 73.015625 642.769531 25.515625 556.304688 11.636719 462.101562 L 12.972656 457.300781 L 17.507812 455.429688 L 166.417969 455.429688 C 167.753906 455.429688 169.085938 455.964844 170.152344 456.765625 C 171.222656 457.566406 172.023438 458.902344 172.289062 460.234375 C 184.832031 512.273438 214.1875 558.441406 256.085938 592.066406 C 298.78125 625.957031 351.886719 644.636719 406.59375 644.636719 C 461.300781 644.636719 514.410156 626.222656 557.105469 592.066406 C 599.003906 558.707031 628.625 512.273438 640.902344 460.5 C 641.167969 459.167969 641.96875 458.101562 643.035156 457.03125 C 644.105469 456.230469 645.4375 455.699219 646.773438 455.699219 L 795.683594 455.699219 L 800.21875 457.566406 L 801.285156 463.4375 C 787.144531 557.640625 739.640625 643.570312 667.054688 705.75 C 594.46875 767.929688 501.867188 802.085938 406.328125 802.085938 L 406.0625 802.085938 Z M 406.0625 801.820312 " fillOpacity="1" fillRule="nonzero"/></g></svg>