<svg xmlns="http://www.w3.org/2000/svg" xmlns:xlink="http://www.w3.org/1999/xlink" width="500" zoomAndPan="magnify" viewBox="0 0 375 374.999991" height="500" preserveAspectRatio="xMidYMid meet" version="1.0"><defs><g/><clipPath id="816804bcbe"><path d="M 76 170 L 281 170 L 281 251.175781 L 76 251.175781 Z M 76 170 " clipRule="nonzero"/></clipPath><clipPath id="36063bba1e"><path d="M 115 11.175781 L 241 11.175781 L 241 175 L 115 175 Z M 115 11.175781 " clipRule="nonzero"/></clipPath></defs><g fill="#000000" fillOpacity="1"><g transform="translate(8.585069, 317.608565)"><g><path d="M 15.746094 0 C 14.597656 -1 14 -3.75 14 -6.25 L 14 -20.046875 L 27.097656 -20.046875 L 27.097656 -6.199219 C 27.097656 -3.699219 26.496094 -1 25.347656 0 L 40.09375 0 C 38.945312 -1 38.34375 -3.75 38.34375 -6.25 L 38.34375 -41.996094 C 38.34375 -44.496094 38.945312 -47.242188 40.09375 -48.242188 L 25.347656 -48.242188 C 26.496094 -47.242188 27.097656 -44.542969 27.097656 -42.042969 L 27.097656 -29.046875 L 14 -29.046875 L 14 -41.996094 C 14 -44.496094 14.597656 -47.242188 15.746094 -48.242188 L 1 -48.242188 C 2.148438 -47.242188 2.75 -44.542969 2.75 -42.042969 L 2.75 -6.199219 C 2.75 -3.699219 2.148438 -1 1 0 Z M 15.746094 0 "/></g></g></g><g fill="#000000" fillOpacity="1"><g transform="translate(53.573904, 317.608565)"><g><path d="M 1.75 -24.097656 C 1.75 -10.398438 8.550781 0.75 24.347656 0.75 C 40.144531 0.75 46.945312 -10.398438 46.945312 -24.097656 C 46.945312 -37.84375 40.144531 -48.992188 24.347656 -48.992188 C 8.550781 -48.992188 1.75 -37.84375 1.75 -24.097656 Z M 13 -24.148438 C 13 -32.546875 16.398438 -39.34375 24.296875 -39.34375 C 32.296875 -39.34375 35.695312 -32.546875 35.695312 -24.148438 C 35.695312 -15.796875 32.296875 -8.949219 24.296875 -8.949219 C 16.398438 -8.949219 13 -15.796875 13 -24.148438 Z M 13 -24.148438 "/></g></g></g><g fill="#000000" fillOpacity="1"><g transform="translate(106.160587, 317.608565)"><g><path d="M 1 -48.242188 L 1 -35.945312 C 3.449219 -38.246094 7.25 -38.746094 9.699219 -38.746094 L 13.296875 -38.746094 L 13.296875 -6.25 C 13.296875 -3.75 12.699219 -1 11.546875 0 L 26.296875 0 C 25.148438 -1 24.546875 -3.699219 24.546875 -6.199219 L 24.546875 -38.746094 L 28.296875 -38.746094 C 30.746094 -38.746094 34.546875 -38.246094 36.996094 -35.945312 L 36.996094 -48.242188 Z M 1 -48.242188 "/></g></g></g><g fill="#000000" fillOpacity="1"><g transform="translate(148.050313, 317.608565)"><g/></g></g><g fill="#000000" fillOpacity="1"><g transform="translate(166.946589, 317.608565)"><g><path d="M 1 -8.199219 C 2.300781 -3.898438 10.347656 0.75 18.746094 0.75 C 29.945312 0.75 38.496094 -4.949219 38.496094 -14.75 C 38.496094 -31.695312 14.75 -26.347656 14.75 -34.296875 C 14.75 -37.546875 18.699219 -38.84375 21.898438 -38.84375 C 26.398438 -38.84375 30.394531 -36.546875 33.246094 -33.945312 C 34.945312 -37.296875 37.144531 -40.144531 38.84375 -42.746094 C 35.84375 -45.292969 31.195312 -48.992188 21.648438 -48.992188 C 11.796875 -48.992188 1.949219 -43.445312 1.949219 -33.996094 C 1.949219 -16.847656 26.195312 -21.148438 26.195312 -13.796875 C 26.195312 -10.398438 22.746094 -9.050781 19.046875 -9.050781 C 13.949219 -9.050781 9.300781 -12.5 6.699219 -16.648438 C 5.25 -13.699219 3.148438 -10.796875 1 -8.199219 Z M 1 -8.199219 "/></g></g></g><g fill="#000000" fillOpacity="1"><g transform="translate(210.685802, 317.608565)"><g><path d="M 1 0 L 15.746094 0 C 14.597656 -1 14 -3.699219 14 -6.199219 L 14 -24.945312 L 19.296875 -12.796875 C 19.898438 -12.449219 20.898438 -12.148438 21.847656 -12.148438 C 32.046875 -12.148438 39.046875 -20.699219 39.046875 -30.546875 C 39.046875 -40.84375 31.597656 -48.242188 18.847656 -48.242188 L 1 -48.242188 C 2.148438 -47.242188 2.75 -44.496094 2.75 -41.996094 L 2.75 -6.25 C 2.75 -3.75 2.148438 -1 1 0 Z M 19.699219 -38.746094 C 25.195312 -38.746094 27.796875 -34.746094 27.796875 -30.546875 C 27.796875 -25.847656 25.597656 -21.699219 20.746094 -21.699219 C 17.199219 -21.699219 15.449219 -23.597656 14 -26.847656 L 14 -38.746094 Z M 19.699219 -38.746094 "/></g></g></g><g fill="#000000" fillOpacity="1"><g transform="translate(254.624957, 317.608565)"><g><path d="M 1 0 L 15.746094 0 C 14.597656 -1 14 -3.699219 14 -6.199219 L 14 -42.042969 C 14 -44.542969 14.597656 -47.242188 15.746094 -48.242188 L 1 -48.242188 C 2.148438 -47.242188 2.75 -44.496094 2.75 -41.996094 L 2.75 -6.25 C 2.75 -3.75 2.148438 -1 1 0 Z M 1 0 "/></g></g></g><g fill="#000000" fillOpacity="1"><g transform="translate(275.27074, 317.608565)"><g><path d="M 25.648438 0.75 C 32.746094 0.75 39.046875 -1.25 42.894531 -5.5 C 41.195312 -9.597656 39.644531 -14.898438 39.644531 -14.898438 C 39.644531 -14.898438 36.144531 -8.847656 27.496094 -8.847656 C 19.796875 -8.847656 13 -13.898438 13 -24.097656 C 13 -34.394531 19.796875 -39.445312 27.496094 -39.445312 C 36.144531 -39.445312 39.644531 -33.394531 39.644531 -33.394531 C 39.644531 -33.394531 41.195312 -38.695312 42.894531 -42.792969 C 39.046875 -47.042969 32.746094 -48.992188 25.648438 -48.992188 C 11.097656 -48.992188 1.75 -37.84375 1.75 -24.148438 C 1.75 -10.449219 11.097656 0.75 25.648438 0.75 Z M 25.648438 0.75 "/></g></g></g><g fill="#000000" fillOpacity="1"><g transform="translate(322.05906, 317.608565)"><g><path d="M 0.5 -48.242188 C 2.199219 -47.144531 3.300781 -44.945312 4.648438 -42.292969 C 9.898438 -31.996094 12 -26.847656 16.546875 -17.296875 L 16.546875 -6.25 C 16.546875 -3.75 15.949219 -1 14.796875 0 L 29.546875 0 C 28.394531 -1 27.796875 -3.699219 27.796875 -6.199219 L 27.796875 -17.199219 C 32.347656 -26.746094 34.445312 -31.894531 39.695312 -42.195312 C 41.042969 -44.84375 42.144531 -47.042969 43.84375 -48.144531 L 25.695312 -48.144531 C 26.898438 -46.644531 27.097656 -45.496094 27.097656 -44.144531 C 27.097656 -40.246094 23.847656 -32.046875 22.195312 -27.847656 C 20.496094 -32.144531 17.246094 -40.34375 17.246094 -44.246094 C 17.246094 -45.59375 17.449219 -46.742188 18.648438 -48.242188 Z M 0.5 -48.242188 "/></g></g></g><g fill="#000000" fillOpacity="1"><g transform="translate(112.624509, 350.648228)"><g><path d="M 1.84375 -16.109375 L 9.828125 -16.109375 L 9.828125 -13.109375 L 4.828125 -13.109375 L 4.828125 -10.234375 L 9.828125 -10.234375 L 9.828125 -7.21875 L 4.828125 -7.21875 L 4.828125 0 L 1.84375 0 Z M 1.84375 -16.109375 "/></g></g></g><g fill="#000000" fillOpacity="1"><g transform="translate(127.335276, 350.648228)"><g><path d="M 12.34375 0 L 11.109375 -3.328125 L 4.421875 -3.328125 L 3.1875 0 L 0 0 L 6.21875 -16.109375 L 9.3125 -16.109375 L 15.53125 0 Z M 5.5625 -6.328125 L 9.984375 -6.328125 L 7.765625 -12.25 Z M 5.5625 -6.328125 "/></g></g></g><g fill="#000000" fillOpacity="1"><g transform="translate(146.866563, 350.648228)"><g><path d="M 5.859375 0.40625 C 4.691406 0.40625 3.6875 0.117188 2.84375 -0.453125 C 2 -1.035156 1.273438 -1.914062 0.671875 -3.09375 L 3.25 -4.640625 C 3.625 -3.941406 4.023438 -3.414062 4.453125 -3.0625 C 4.890625 -2.707031 5.378906 -2.53125 5.921875 -2.53125 C 6.265625 -2.53125 6.578125 -2.597656 6.859375 -2.734375 C 7.148438 -2.867188 7.375 -3.050781 7.53125 -3.28125 C 7.695312 -3.519531 7.78125 -3.769531 7.78125 -4.03125 C 7.78125 -4.320312 7.722656 -4.578125 7.609375 -4.796875 C 7.503906 -5.023438 7.347656 -5.242188 7.140625 -5.453125 C 6.929688 -5.671875 6.613281 -5.957031 6.1875 -6.3125 C 4.96875 -7.34375 4.050781 -8.148438 3.4375 -8.734375 C 2.820312 -9.316406 2.332031 -9.910156 1.96875 -10.515625 C 1.613281 -11.117188 1.4375 -11.765625 1.4375 -12.453125 C 1.4375 -13.203125 1.632812 -13.882812 2.03125 -14.5 C 2.425781 -15.125 2.960938 -15.613281 3.640625 -15.96875 C 4.328125 -16.332031 5.066406 -16.515625 5.859375 -16.515625 C 6.796875 -16.515625 7.628906 -16.289062 8.359375 -15.84375 C 9.085938 -15.40625 9.804688 -14.769531 10.515625 -13.9375 L 8.296875 -12.046875 C 7.847656 -12.554688 7.425781 -12.9375 7.03125 -13.1875 C 6.632812 -13.445312 6.226562 -13.578125 5.8125 -13.578125 C 5.40625 -13.578125 5.070312 -13.472656 4.8125 -13.265625 C 4.5625 -13.054688 4.4375 -12.785156 4.4375 -12.453125 C 4.4375 -12.210938 4.515625 -11.976562 4.671875 -11.75 C 4.828125 -11.53125 5.070312 -11.269531 5.40625 -10.96875 C 5.75 -10.664062 6.300781 -10.210938 7.0625 -9.609375 C 7.976562 -8.867188 8.675781 -8.257812 9.15625 -7.78125 C 9.644531 -7.300781 10.039062 -6.765625 10.34375 -6.171875 C 10.644531 -5.585938 10.796875 -4.921875 10.796875 -4.171875 C 10.796875 -3.285156 10.582031 -2.492188 10.15625 -1.796875 C 9.738281 -1.109375 9.15625 -0.566406 8.40625 -0.171875 C 7.664062 0.210938 6.816406 0.40625 5.859375 0.40625 Z M 5.859375 0.40625 "/></g></g></g><g fill="#000000" fillOpacity="1"><g transform="translate(162.541431, 350.648228)"><g><path d="M 3.125 -13.109375 L 0.25 -13.109375 L 0.25 -16.109375 L 9.15625 -16.109375 L 9.15625 -13.109375 L 6.1875 -13.109375 L 6.1875 0 L 3.125 0 Z M 3.125 -13.109375 "/></g></g></g><g fill="#000000" fillOpacity="1"><g transform="translate(175.974208, 350.648228)"><g/></g></g><g fill="#000000" fillOpacity="1"><g transform="translate(186.268029, 350.648228)"><g><path d="M 1.84375 -16.109375 L 9.828125 -16.109375 L 9.828125 -13.109375 L 4.828125 -13.109375 L 4.828125 -10.234375 L 9.828125 -10.234375 L 9.828125 -7.21875 L 4.828125 -7.21875 L 4.828125 0 L 1.84375 0 Z M 1.84375 -16.109375 "/></g></g></g><g fill="#000000" fillOpacity="1"><g transform="translate(200.978797, 350.648228)"><g><path d="M 9.484375 0.375 C 7.921875 0.375 6.492188 0 5.203125 -0.75 C 3.921875 -1.507812 2.90625 -2.535156 2.15625 -3.828125 C 1.414062 -5.117188 1.046875 -6.535156 1.046875 -8.078125 C 1.046875 -9.628906 1.425781 -11.050781 2.1875 -12.34375 C 2.945312 -13.644531 3.96875 -14.664062 5.25 -15.40625 C 6.539062 -16.144531 7.941406 -16.515625 9.453125 -16.515625 C 10.929688 -16.515625 12.304688 -16.144531 13.578125 -15.40625 C 14.859375 -14.664062 15.882812 -13.644531 16.65625 -12.34375 C 17.425781 -11.050781 17.8125 -9.609375 17.8125 -8.015625 C 17.8125 -6.453125 17.441406 -5.03125 16.703125 -3.75 C 15.960938 -2.476562 14.957031 -1.472656 13.6875 -0.734375 C 12.414062 0.00390625 11.015625 0.375 9.484375 0.375 Z M 9.46875 -2.5625 C 10.425781 -2.5625 11.304688 -2.800781 12.109375 -3.28125 C 12.910156 -3.769531 13.546875 -4.429688 14.015625 -5.265625 C 14.484375 -6.109375 14.71875 -7.03125 14.71875 -8.03125 C 14.71875 -9.019531 14.488281 -9.9375 14.03125 -10.78125 C 13.570312 -11.625 12.9375 -12.300781 12.125 -12.8125 C 11.320312 -13.320312 10.421875 -13.578125 9.421875 -13.578125 C 8.460938 -13.578125 7.578125 -13.335938 6.765625 -12.859375 C 5.960938 -12.390625 5.328125 -11.734375 4.859375 -10.890625 C 4.390625 -10.046875 4.15625 -9.085938 4.15625 -8.015625 C 4.15625 -6.953125 4.394531 -6.003906 4.875 -5.171875 C 5.363281 -4.335938 6.007812 -3.691406 6.8125 -3.234375 C 7.625 -2.785156 8.507812 -2.5625 9.46875 -2.5625 Z M 9.46875 -2.5625 "/></g></g></g><g fill="#000000" fillOpacity="1"><g transform="translate(223.8284, 350.648228)"><g><path d="M 9.484375 0.375 C 7.921875 0.375 6.492188 0 5.203125 -0.75 C 3.921875 -1.507812 2.90625 -2.535156 2.15625 -3.828125 C 1.414062 -5.117188 1.046875 -6.535156 1.046875 -8.078125 C 1.046875 -9.628906 1.425781 -11.050781 2.1875 -12.34375 C 2.945312 -13.644531 3.96875 -14.664062 5.25 -15.40625 C 6.539062 -16.144531 7.941406 -16.515625 9.453125 -16.515625 C 10.929688 -16.515625 12.304688 -16.144531 13.578125 -15.40625 C 14.859375 -14.664062 15.882812 -13.644531 16.65625 -12.34375 C 17.425781 -11.050781 17.8125 -9.609375 17.8125 -8.015625 C 17.8125 -6.453125 17.441406 -5.03125 16.703125 -3.75 C 15.960938 -2.476562 14.957031 -1.472656 13.6875 -0.734375 C 12.414062 0.00390625 11.015625 0.375 9.484375 0.375 Z M 9.46875 -2.5625 C 10.425781 -2.5625 11.304688 -2.800781 12.109375 -3.28125 C 12.910156 -3.769531 13.546875 -4.429688 14.015625 -5.265625 C 14.484375 -6.109375 14.71875 -7.03125 14.71875 -8.03125 C 14.71875 -9.019531 14.488281 -9.9375 14.03125 -10.78125 C 13.570312 -11.625 12.9375 -12.300781 12.125 -12.8125 C 11.320312 -13.320312 10.421875 -13.578125 9.421875 -13.578125 C 8.460938 -13.578125 7.578125 -13.335938 6.765625 -12.859375 C 5.960938 -12.390625 5.328125 -11.734375 4.859375 -10.890625 C 4.390625 -10.046875 4.15625 -9.085938 4.15625 -8.015625 C 4.15625 -6.953125 4.394531 -6.003906 4.875 -5.171875 C 5.363281 -4.335938 6.007812 -3.691406 6.8125 -3.234375 C 7.625 -2.785156 8.507812 -2.5625 9.46875 -2.5625 Z M 9.46875 -2.5625 "/></g></g></g><g fill="#000000" fillOpacity="1"><g transform="translate(246.678003, 350.648228)"><g><path d="M 5.71875 -16.109375 C 8.65625 -16.109375 10.875 -15.4375 12.375 -14.09375 C 13.875 -12.75 14.625 -10.742188 14.625 -8.078125 C 14.625 -5.253906 13.875 -3.203125 12.375 -1.921875 C 10.875 -0.640625 8.671875 0 5.765625 0 L 1.84375 0 L 1.84375 -16.109375 Z M 6.3125 -3 C 8 -3 9.289062 -3.414062 10.1875 -4.25 C 11.082031 -5.09375 11.53125 -6.390625 11.53125 -8.140625 C 11.53125 -9.203125 11.304688 -10.101562 10.859375 -10.84375 C 10.410156 -11.582031 9.765625 -12.144531 8.921875 -12.53125 C 8.085938 -12.914062 7.097656 -13.109375 5.953125 -13.109375 L 4.90625 -13.109375 L 4.90625 -3 Z M 6.3125 -3 "/></g></g></g><g clipPath="url(#816804bcbe)"><path fill="#000000" d="M 257.988281 196.578125 C 265.25 208.457031 261.59375 223.992188 249.714844 231.25 C 227.9375 244.753906 203.160156 251.402344 178.335938 251.402344 C 153.511719 251.402344 128.941406 244.753906 106.960938 231.25 C 95.285156 223.789062 91.425781 208.457031 98.890625 196.578125 C 106.148438 184.902344 121.480469 181.246094 133.359375 188.503906 C 134.578125 189.113281 135.796875 189.925781 137.167969 190.738281 C 134.121094 195.5625 132.34375 201.246094 131.53125 206.882812 C 133.96875 202.058594 137.371094 197.390625 141.988281 193.175781 C 146 195.003906 150.0625 196.628906 154.476562 197.796875 C 151.835938 202.414062 150.0625 207.695312 149.453125 213.125 C 151.886719 208.101562 155.289062 203.429688 159.910156 199.21875 C 164.324219 200.027344 168.996094 200.839844 173.617188 201.042969 C 175.648438 206.070312 176.863281 211.148438 177.066406 215.96875 C 178.691406 211.148438 179.097656 206.070312 178.488281 201.042969 C 184.125 201.042969 189.757812 200.636719 195.242188 199.421875 C 199.660156 203.632812 203.109375 208.304688 205.34375 213.125 C 204.9375 207.695312 203.3125 202.617188 200.726562 198.203125 C 205.140625 196.984375 209.40625 195.359375 213.621094 193.582031 C 217.832031 197.796875 221.082031 202.261719 223.316406 206.882812 C 222.707031 201.449219 221.082031 195.96875 218.289062 191.347656 C 220.117188 190.332031 221.742188 189.316406 223.316406 188.300781 C 235.195312 181.042969 250.730469 184.648438 257.988281 196.578125 Z M 88.632812 190.738281 C 86.199219 187.691406 85.183594 185.105469 85.03125 185.308594 C 68.683594 196.78125 77.566406 208.914062 92.289062 206.070312 C 92.695312 202.210938 93.914062 198.609375 95.894531 195.15625 C 98.941406 190.332031 102.949219 186.882812 107.773438 185.054688 C 110.007812 164.492188 79.546875 165.101562 88.632812 190.6875 Z M 271.492188 185.308594 C 271.289062 185.105469 270.273438 187.742188 267.886719 190.738281 C 276.976562 165.101562 246.515625 164.542969 248.75 185.105469 C 253.371094 186.929688 257.632812 190.332031 260.425781 195.207031 C 262.660156 198.660156 263.878906 202.261719 264.03125 206.121094 C 278.957031 208.964844 287.636719 196.832031 271.492188 185.359375 Z M 271.492188 185.308594 " fillOpacity="1" fillRule="nonzero"/></g><g clipPath="url(#36063bba1e)"><path fill="#000000" d="M 210.625 57.023438 C 207.375 50.980469 208.59375 43.722656 208.59375 43.722656 C 213.164062 49.660156 218.492188 53.113281 212.859375 63.417969 C 212.960938 62.707031 212.757812 61.03125 210.574219 57.074219 Z M 212.910156 63.367188 C 212.808594 63.519531 212.757812 63.671875 212.65625 63.875 C 212.65625 63.875 212.859375 63.773438 212.910156 63.367188 Z M 134.628906 79.003906 C 137.269531 70.730469 136.660156 67.734375 129.601562 60.828125 C 129.601562 60.828125 129.804688 67.074219 128.382812 73.316406 C 126.960938 79.359375 133.816406 86.210938 133.816406 86.210938 C 133.816406 86.210938 133.207031 83.167969 134.628906 78.953125 Z M 240.878906 93.320312 C 240.878906 93.320312 228.59375 87.277344 219.101562 102 C 216.054688 106.621094 209.40625 113.675781 204.378906 109.464844 C 199.761719 105.453125 206.816406 96.769531 209.203125 89.714844 C 212.046875 81.441406 213.011719 70.375 204.988281 59.660156 C 204.988281 59.660156 205.394531 80.832031 191.890625 83.066406 C 188.644531 83.675781 186.460938 82.457031 185.242188 80.222656 C 172.753906 57.429688 211.4375 45.34375 186.460938 11.230469 C 186.867188 38.238281 172.753906 36.054688 156.609375 50.777344 C 139.449219 66.921875 140.871094 88.699219 147.117188 99.359375 C 150.570312 105.199219 155.1875 111.847656 151.125 115.910156 C 146.304688 120.53125 140.464844 117.535156 138.839844 112.863281 C 135.796875 104.792969 139.042969 97.125 115.4375 93.117188 C 115.4375 93.117188 129.957031 100.984375 123.917969 132.867188 C 120.464844 150.835938 134.578125 172.820312 155.542969 174.390625 C 148.285156 168.757812 140.414062 152.207031 148.488281 139.71875 C 148.488281 139.71875 149.910156 157.894531 166 155.457031 C 166 155.457031 159.148438 140.328125 169.046875 132.460938 C 183.160156 120.988281 181.738281 111.492188 173.464844 95.757812 C 173.464844 95.757812 195.039062 114.285156 189.605469 132.664062 C 188.1875 137.28125 182.753906 148.601562 192.449219 149.820312 C 203.3125 151.242188 203.109375 138.144531 198.289062 131.445312 C 198.289062 131.445312 221.285156 151.394531 197.882812 174.390625 C 253.726562 158.453125 207.984375 120.9375 240.832031 93.320312 Z M 240.878906 93.320312 " fillOpacity="1" fillRule="nonzero"/></g><path stroke-linecap="butt" transform="matrix(0.75, 0, 0, 0.75, 11.659279, 332.025535)" fill="none" stroke-linejoin="miter" d="M 0.00116922 15.002413 L 111.818885 15.002413 " stroke="#000000" stroke-width="30" stroke-opacity="1" stroke-miterlimit="4"/><path stroke-linecap="butt" transform="matrix(0.75, 0, 0, 0.75, 279.47653, 332.025535)" fill="none" stroke-linejoin="miter" d="M 0.0000431364 15.002413 L 111.817759 15.002413 " stroke="#000000" stroke-width="30" stroke-opacity="1" stroke-miterlimit="4"/></svg>