<svg xmlns="http://www.w3.org/2000/svg" xmlns:xlink="http://www.w3.org/1999/xlink" width="500" zoomAndPan="magnify" viewBox="0 0 375 374.999991" height="500" preserveAspectRatio="xMidYMid meet" version="1.0"><defs><g/><clipPath id="5dc00bd00f"><path d="M 75.253906 69.238281 L 298.003906 69.238281 L 298.003906 228.988281 L 75.253906 228.988281 Z M 75.253906 69.238281 " clipRule="nonzero"/></clipPath><clipPath id="31aa04cb93"><path d="M 75.253906 293.335938 L 298.003906 293.335938 L 298.003906 357.085938 L 75.253906 357.085938 Z M 75.253906 293.335938 " clipRule="nonzero"/></clipPath></defs><g fill="#000000" fillOpacity="1"><g transform="translate(6.494004, 294.560994)"><g><path d="M 1.6875 0 C 1.039062 0 0.523438 -0.234375 0.140625 -0.703125 C -0.242188 -1.179688 -0.378906 -1.75 -0.265625 -2.40625 L 12.015625 -59.921875 C 12.140625 -60.566406 12.484375 -61.128906 13.046875 -61.609375 C 13.609375 -62.085938 14.21875 -62.328125 14.875 -62.328125 L 42.640625 -62.328125 C 49.878906 -62.328125 55.515625 -61.078125 59.546875 -58.578125 C 63.585938 -56.085938 65.609375 -52.4375 65.609375 -47.625 C 65.609375 -46.5625 65.460938 -45.226562 65.171875 -43.625 C 64.640625 -41.070312 63.40625 -38.800781 61.46875 -36.8125 C 59.539062 -34.820312 57.597656 -33.382812 55.640625 -32.5 C 57.421875 -31.664062 58.859375 -30.34375 59.953125 -28.53125 C 61.054688 -26.71875 61.609375 -24.6875 61.609375 -22.4375 C 61.609375 -21.539062 61.519531 -20.59375 61.34375 -19.59375 C 59.914062 -12.882812 56.988281 -7.941406 52.5625 -4.765625 C 48.144531 -1.585938 41.929688 0 33.921875 0 Z M 37.21875 -38.90625 C 38.40625 -38.90625 39.398438 -39.304688 40.203125 -40.109375 C 41.003906 -40.910156 41.519531 -41.84375 41.75 -42.90625 C 41.8125 -43.144531 41.84375 -43.503906 41.84375 -43.984375 C 41.84375 -44.816406 41.617188 -45.53125 41.171875 -46.125 C 40.734375 -46.71875 40.007812 -47.015625 39 -47.015625 L 31.515625 -47.015625 L 29.734375 -38.90625 Z M 33.03125 -15.3125 C 34.394531 -15.3125 35.519531 -15.753906 36.40625 -16.640625 C 37.300781 -17.535156 37.835938 -18.546875 38.015625 -19.671875 C 38.128906 -20.148438 38.1875 -20.535156 38.1875 -20.828125 C 38.1875 -21.722656 37.90625 -22.476562 37.34375 -23.09375 C 36.78125 -23.71875 35.96875 -24.03125 34.90625 -24.03125 L 26.625 -24.03125 L 24.75 -15.3125 Z M 33.03125 -15.3125 "/></g></g></g><g fill="#000000" fillOpacity="1"><g transform="translate(66.854287, 294.560994)"><g><path d="M 29.109375 0.890625 C 24.359375 0.890625 20.007812 0.191406 16.0625 -1.203125 C 12.125 -2.597656 8.96875 -4.734375 6.59375 -7.609375 C 4.21875 -10.492188 3.03125 -14.039062 3.03125 -18.25 C 3.03125 -20.03125 3.238281 -21.78125 3.65625 -23.5 L 11.390625 -59.921875 C 11.515625 -60.566406 11.859375 -61.128906 12.421875 -61.609375 C 12.984375 -62.085938 13.59375 -62.328125 14.25 -62.328125 L 31.6875 -62.328125 C 32.34375 -62.328125 32.863281 -62.085938 33.25 -61.609375 C 33.632812 -61.128906 33.769531 -60.566406 33.65625 -59.921875 L 25.90625 -23.859375 C 25.726562 -23.085938 25.640625 -22.375 25.640625 -21.71875 C 25.640625 -18.570312 27.453125 -17 31.078125 -17 C 33.265625 -17 35.023438 -17.578125 36.359375 -18.734375 C 37.703125 -19.898438 38.609375 -21.609375 39.078125 -23.859375 L 46.828125 -59.921875 C 46.953125 -60.566406 47.296875 -61.128906 47.859375 -61.609375 C 48.421875 -62.085938 49.023438 -62.328125 49.671875 -62.328125 L 67.125 -62.328125 C 67.78125 -62.328125 68.300781 -62.085938 68.6875 -61.609375 C 69.070312 -61.128906 69.207031 -60.566406 69.09375 -59.921875 L 61.34375 -23.5 C 59.5 -15.070312 55.992188 -8.898438 50.828125 -4.984375 C 45.671875 -1.066406 38.429688 0.890625 29.109375 0.890625 Z M 29.109375 0.890625 "/></g></g></g><g fill="#000000" fillOpacity="1"><g transform="translate(128.282907, 294.560994)"><g><path d="M 2.9375 0 C 2.28125 0 1.773438 -0.234375 1.421875 -0.703125 C 1.066406 -1.179688 0.945312 -1.75 1.0625 -2.40625 L 13.265625 -59.921875 C 13.378906 -60.566406 13.734375 -61.128906 14.328125 -61.609375 C 14.921875 -62.085938 15.546875 -62.328125 16.203125 -62.328125 L 42.5625 -62.328125 C 49.976562 -62.328125 55.6875 -60.851562 59.6875 -57.90625 C 63.695312 -54.96875 65.703125 -50.859375 65.703125 -45.578125 C 65.703125 -44.035156 65.523438 -42.40625 65.171875 -40.6875 C 64.335938 -36.832031 62.75 -33.4375 60.40625 -30.5 C 58.0625 -27.5625 55.226562 -25.140625 51.90625 -23.234375 L 58.5 -2.9375 C 58.613281 -2.519531 58.640625 -2.191406 58.578125 -1.953125 C 58.460938 -1.421875 58.164062 -0.960938 57.6875 -0.578125 C 57.21875 -0.191406 56.710938 0 56.171875 0 L 37.921875 0 C 36.859375 0 36.070312 -0.25 35.5625 -0.75 C 35.0625 -1.257812 34.753906 -1.8125 34.640625 -2.40625 L 30.625 -19.40625 L 26.96875 -19.40625 L 23.328125 -2.40625 C 23.203125 -1.75 22.84375 -1.179688 22.25 -0.703125 C 21.664062 -0.234375 21.046875 0 20.390625 0 Z M 37.03125 -36.328125 C 38.582031 -36.328125 39.832031 -36.921875 40.78125 -38.109375 C 41.726562 -39.296875 42.203125 -40.660156 42.203125 -42.203125 C 42.203125 -43.265625 41.945312 -44.125 41.4375 -44.78125 C 40.9375 -45.4375 40.125 -45.765625 39 -45.765625 L 32.5 -45.765625 L 30.53125 -36.328125 Z M 37.03125 -36.328125 "/></g></g></g><g fill="#000000" fillOpacity="1"><g transform="translate(187.663896, 294.560994)"><g><path d="M 28.75 0.890625 C 20.6875 0.890625 14.457031 -0.695312 10.0625 -3.875 C 5.664062 -7.050781 3.46875 -11.8125 3.46875 -18.15625 C 3.46875 -19.820312 3.644531 -21.632812 4 -23.59375 C 4.769531 -28.28125 5.898438 -33.625 7.390625 -39.625 C 9.285156 -47.332031 13.332031 -53.191406 19.53125 -57.203125 C 25.738281 -61.210938 33.351562 -63.21875 42.375 -63.21875 C 47.957031 -63.21875 52.75 -62.457031 56.75 -60.9375 C 60.757812 -59.425781 63.816406 -57.378906 65.921875 -54.796875 C 68.035156 -52.210938 69.09375 -49.320312 69.09375 -46.125 C 69.09375 -45.164062 69.003906 -44.242188 68.828125 -43.359375 C 68.703125 -42.828125 68.398438 -42.367188 67.921875 -41.984375 C 67.453125 -41.597656 66.953125 -41.40625 66.421875 -41.40625 L 46.734375 -41.40625 C 45.609375 -41.40625 44.8125 -41.726562 44.34375 -42.375 C 44.28125 -42.4375 44.097656 -42.789062 43.796875 -43.4375 C 43.503906 -44.09375 42.910156 -44.65625 42.015625 -45.125 C 41.128906 -45.601562 40.035156 -45.84375 38.734375 -45.84375 C 34.273438 -45.84375 31.515625 -43.617188 30.453125 -39.171875 C 29.265625 -34.546875 28.195312 -29.5 27.25 -24.03125 C 27.0625 -23.257812 26.96875 -22.488281 26.96875 -21.71875 C 26.96875 -18.21875 28.929688 -16.46875 32.859375 -16.46875 C 35.222656 -16.46875 37.175781 -16.972656 38.71875 -17.984375 C 40.269531 -18.992188 41.28125 -20.597656 41.75 -22.796875 L 41.75 -22.875 L 37.578125 -22.875 C 36.921875 -22.875 36.398438 -23.113281 36.015625 -23.59375 C 35.628906 -24.070312 35.523438 -24.632812 35.703125 -25.28125 L 37.75 -35.171875 C 37.863281 -35.816406 38.21875 -36.378906 38.8125 -36.859375 C 39.40625 -37.335938 40.03125 -37.578125 40.6875 -37.578125 L 65.171875 -37.578125 C 65.828125 -37.578125 66.332031 -37.335938 66.6875 -36.859375 C 67.039062 -36.378906 67.160156 -35.816406 67.046875 -35.171875 L 64.640625 -23.59375 C 62.921875 -15.757812 58.820312 -9.71875 52.34375 -5.46875 C 45.875 -1.226562 38.007812 0.890625 28.75 0.890625 Z M 28.75 0.890625 "/></g></g></g><g fill="#000000" fillOpacity="1"><g transform="translate(249.804725, 294.560994)"><g><path d="M 1.6875 0 C 1.039062 0 0.523438 -0.234375 0.140625 -0.703125 C -0.242188 -1.179688 -0.378906 -1.75 -0.265625 -2.40625 L 12.015625 -59.921875 C 12.140625 -60.566406 12.484375 -61.128906 13.046875 -61.609375 C 13.609375 -62.085938 14.21875 -62.328125 14.875 -62.328125 L 60.546875 -62.328125 C 61.191406 -62.328125 61.707031 -62.085938 62.09375 -61.609375 C 62.476562 -61.128906 62.613281 -60.566406 62.5 -59.921875 L 59.828125 -47.359375 C 59.648438 -46.710938 59.28125 -46.148438 58.71875 -45.671875 C 58.15625 -45.191406 57.546875 -44.953125 56.890625 -44.953125 L 30.1875 -44.953125 L 28.9375 -39.359375 L 53.6875 -39.359375 C 54.34375 -39.359375 54.863281 -39.117188 55.25 -38.640625 C 55.632812 -38.160156 55.765625 -37.597656 55.640625 -36.953125 L 53.15625 -25.375 C 53.03125 -24.71875 52.671875 -24.148438 52.078125 -23.671875 C 51.484375 -23.203125 50.863281 -22.96875 50.21875 -22.96875 L 25.46875 -22.96875 L 24.3125 -17.359375 L 51.734375 -17.359375 C 52.378906 -17.359375 52.878906 -17.117188 53.234375 -16.640625 C 53.597656 -16.171875 53.71875 -15.609375 53.59375 -14.953125 L 50.921875 -2.40625 C 50.804688 -1.75 50.46875 -1.179688 49.90625 -0.703125 C 49.34375 -0.234375 48.734375 0 48.078125 0 Z M 1.6875 0 "/></g></g></g><g fill="#000000" fillOpacity="1"><g transform="translate(304.200162, 294.560994)"><g><path d="M 2.9375 0 C 2.28125 0 1.773438 -0.234375 1.421875 -0.703125 C 1.066406 -1.179688 0.945312 -1.75 1.0625 -2.40625 L 13.265625 -59.921875 C 13.378906 -60.566406 13.734375 -61.128906 14.328125 -61.609375 C 14.921875 -62.085938 15.546875 -62.328125 16.203125 -62.328125 L 42.5625 -62.328125 C 49.976562 -62.328125 55.6875 -60.851562 59.6875 -57.90625 C 63.695312 -54.96875 65.703125 -50.859375 65.703125 -45.578125 C 65.703125 -44.035156 65.523438 -42.40625 65.171875 -40.6875 C 64.335938 -36.832031 62.75 -33.4375 60.40625 -30.5 C 58.0625 -27.5625 55.226562 -25.140625 51.90625 -23.234375 L 58.5 -2.9375 C 58.613281 -2.519531 58.640625 -2.191406 58.578125 -1.953125 C 58.460938 -1.421875 58.164062 -0.960938 57.6875 -0.578125 C 57.21875 -0.191406 56.710938 0 56.171875 0 L 37.921875 0 C 36.859375 0 36.070312 -0.25 35.5625 -0.75 C 35.0625 -1.257812 34.753906 -1.8125 34.640625 -2.40625 L 30.625 -19.40625 L 26.96875 -19.40625 L 23.328125 -2.40625 C 23.203125 -1.75 22.84375 -1.179688 22.25 -0.703125 C 21.664062 -0.234375 21.046875 0 20.390625 0 Z M 37.03125 -36.328125 C 38.582031 -36.328125 39.832031 -36.921875 40.78125 -38.109375 C 41.726562 -39.296875 42.203125 -40.660156 42.203125 -42.203125 C 42.203125 -43.265625 41.945312 -44.125 41.4375 -44.78125 C 40.9375 -45.4375 40.125 -45.765625 39 -45.765625 L 32.5 -45.765625 L 30.53125 -36.328125 Z M 37.03125 -36.328125 "/></g></g></g><g clipPath="url(#5dc00bd00f)"><path fill="#000000" d="M 131.019531 117.980469 L 131.019531 69.304688 L 162.222656 100.507812 C 165.144531 103.425781 170.050781 102.625 171.902344 98.933594 L 186.699219 69.304688 L 201.511719 98.933594 C 203.351562 102.625 208.269531 103.414062 211.1875 100.507812 L 242.390625 69.304688 L 242.390625 117.980469 C 242.390625 121.851562 239.257812 124.984375 235.386719 124.984375 L 138.023438 124.984375 C 134.152344 124.992188 131.019531 121.851562 131.019531 117.980469 Z M 75.332031 213.84375 C 75.332031 172.460938 108.886719 138.90625 150.269531 138.90625 L 223.132812 138.90625 C 264.515625 138.90625 298.070312 172.460938 298.070312 213.84375 C 298.070312 218.589844 294.222656 222.429688 289.484375 222.429688 L 83.917969 222.429688 C 79.179688 222.441406 75.332031 218.589844 75.332031 213.84375 Z M 212.195312 206.550781 C 212.195312 205.074219 208.527344 203.878906 204.011719 203.878906 C 199.488281 203.878906 195.832031 205.074219 195.832031 206.550781 C 195.832031 208.027344 199.5 209.222656 204.011719 209.222656 C 208.535156 209.222656 212.195312 208.027344 212.195312 206.550781 Z M 242.390625 188.695312 C 242.390625 190.167969 246.058594 191.367188 250.570312 191.367188 C 255.09375 191.367188 258.753906 190.167969 258.753906 188.695312 C 258.753906 187.21875 255.09375 186.019531 250.570312 186.019531 C 246.046875 186.019531 242.390625 187.21875 242.390625 188.695312 Z M 218.566406 164.570312 C 218.566406 166.046875 222.234375 167.242188 226.746094 167.242188 C 231.269531 167.242188 234.925781 166.046875 234.925781 164.570312 C 234.925781 163.09375 231.261719 161.894531 226.746094 161.894531 C 222.234375 161.886719 218.566406 163.082031 218.566406 164.570312 Z M 204.011719 180.671875 C 199.488281 180.671875 195.832031 181.871094 195.832031 183.347656 C 195.832031 184.824219 199.5 186.019531 204.011719 186.019531 C 208.535156 186.019531 212.195312 184.824219 212.195312 183.347656 C 212.195312 181.871094 208.535156 180.671875 204.011719 180.671875 Z M 182.210938 159.210938 C 182.210938 160.6875 185.867188 161.886719 190.390625 161.886719 C 194.914062 161.886719 198.570312 160.6875 198.570312 159.210938 C 198.570312 157.738281 194.902344 156.539062 190.390625 156.539062 C 185.878906 156.539062 182.210938 157.738281 182.210938 159.210938 Z M 163.742188 178 C 159.21875 178 155.5625 179.199219 155.5625 180.671875 C 155.5625 182.148438 159.230469 183.347656 163.742188 183.347656 C 168.265625 183.347656 171.921875 182.148438 171.921875 180.671875 C 171.921875 179.199219 168.265625 178 163.742188 178 Z M 143.082031 164.570312 C 143.082031 166.046875 146.75 167.242188 151.261719 167.242188 C 155.785156 167.242188 159.445312 166.046875 159.445312 164.570312 C 159.445312 163.09375 155.777344 161.894531 151.261719 161.894531 C 146.75 161.886719 143.082031 163.082031 143.082031 164.570312 Z M 139.203125 203.878906 C 139.203125 205.351562 142.871094 206.550781 147.382812 206.550781 C 151.90625 206.550781 155.5625 205.351562 155.5625 203.878906 C 155.5625 202.402344 151.90625 201.203125 147.382812 201.203125 C 142.859375 201.203125 139.203125 202.402344 139.203125 203.878906 Z M 109.003906 186.050781 C 109.003906 187.527344 112.671875 188.726562 117.183594 188.726562 C 121.707031 188.726562 125.363281 187.527344 125.363281 186.050781 C 125.363281 184.578125 121.695312 183.378906 117.183594 183.378906 C 112.671875 183.378906 109.003906 184.578125 109.003906 186.050781 Z M 284.148438 237.902344 L 89.253906 237.902344 C 81.566406 237.902344 75.332031 244.136719 75.332031 251.828125 C 75.332031 259.515625 81.566406 265.75 89.253906 265.75 L 284.160156 265.75 C 291.847656 265.75 298.082031 259.515625 298.082031 251.828125 C 298.082031 244.136719 291.847656 237.902344 284.148438 237.902344 Z M 289.484375 281.222656 C 273.007812 281.222656 257.203125 287.765625 245.546875 299.421875 L 228.203125 316.765625 L 210.867188 299.421875 C 199.210938 287.765625 183.40625 281.222656 166.929688 281.222656 L 83.917969 281.222656 C 79.234375 281.222656 75.339844 284.984375 75.332031 289.671875 C 75.253906 315.75 96.363281 336.914062 122.421875 336.914062 L 250.976562 336.914062 C 277.039062 336.914062 298.144531 315.75 298.070312 289.671875 C 298.0625 284.984375 294.167969 281.222656 289.484375 281.222656 Z M 289.484375 281.222656 " fillOpacity="1" fillRule="nonzero"/></g><g clipPath="url(#31aa04cb93)"><path fill="#000000" d="M 131.019531 138.261719 L 131.019531 89.585938 L 162.222656 120.789062 C 165.144531 123.707031 170.050781 122.90625 171.902344 119.214844 L 186.699219 89.585938 L 201.511719 119.214844 C 203.351562 122.90625 208.269531 123.695312 211.1875 120.789062 L 242.390625 89.585938 L 242.390625 138.261719 C 242.390625 142.132812 239.257812 145.265625 235.386719 145.265625 L 138.023438 145.265625 C 134.152344 145.277344 131.019531 142.132812 131.019531 138.261719 Z M 75.332031 234.125 C 75.332031 192.742188 108.886719 159.1875 150.269531 159.1875 L 223.132812 159.1875 C 264.515625 159.1875 298.070312 192.742188 298.070312 234.125 C 298.070312 238.875 294.222656 242.710938 289.484375 242.710938 L 83.917969 242.710938 C 79.179688 242.722656 75.332031 238.875 75.332031 234.125 Z M 212.195312 226.832031 C 212.195312 225.359375 208.527344 224.160156 204.011719 224.160156 C 199.488281 224.160156 195.832031 225.359375 195.832031 226.832031 C 195.832031 228.308594 199.5 229.507812 204.011719 229.507812 C 208.535156 229.507812 212.195312 228.308594 212.195312 226.832031 Z M 242.390625 208.976562 C 242.390625 210.449219 246.058594 211.648438 250.570312 211.648438 C 255.09375 211.648438 258.753906 210.449219 258.753906 208.976562 C 258.753906 207.5 255.09375 206.300781 250.570312 206.300781 C 246.046875 206.300781 242.390625 207.5 242.390625 208.976562 Z M 218.566406 184.851562 C 218.566406 186.328125 222.234375 187.523438 226.746094 187.523438 C 231.269531 187.523438 234.925781 186.328125 234.925781 184.851562 C 234.925781 183.375 231.261719 182.179688 226.746094 182.179688 C 222.234375 182.167969 218.566406 183.363281 218.566406 184.851562 Z M 204.011719 200.957031 C 199.488281 200.957031 195.832031 202.152344 195.832031 203.628906 C 195.832031 205.105469 199.5 206.300781 204.011719 206.300781 C 208.535156 206.300781 212.195312 205.105469 212.195312 203.628906 C 212.195312 202.152344 208.535156 200.957031 204.011719 200.957031 Z M 182.210938 179.492188 C 182.210938 180.96875 185.867188 182.167969 190.390625 182.167969 C 194.914062 182.167969 198.570312 180.96875 198.570312 179.492188 C 198.570312 178.019531 194.902344 176.820312 190.390625 176.820312 C 185.878906 176.820312 182.210938 178.019531 182.210938 179.492188 Z M 163.742188 198.28125 C 159.21875 198.28125 155.5625 199.480469 155.5625 200.957031 C 155.5625 202.429688 159.230469 203.628906 163.742188 203.628906 C 168.265625 203.628906 171.921875 202.429688 171.921875 200.957031 C 171.921875 199.480469 168.265625 198.28125 163.742188 198.28125 Z M 143.082031 184.851562 C 143.082031 186.328125 146.75 187.523438 151.261719 187.523438 C 155.785156 187.523438 159.445312 186.328125 159.445312 184.851562 C 159.445312 183.375 155.777344 182.179688 151.261719 182.179688 C 146.75 182.167969 143.082031 183.363281 143.082031 184.851562 Z M 139.203125 224.160156 C 139.203125 225.636719 142.871094 226.832031 147.382812 226.832031 C 151.90625 226.832031 155.5625 225.636719 155.5625 224.160156 C 155.5625 222.683594 151.90625 221.488281 147.382812 221.488281 C 142.859375 221.488281 139.203125 222.683594 139.203125 224.160156 Z M 109.003906 206.335938 C 109.003906 207.808594 112.671875 209.007812 117.183594 209.007812 C 121.707031 209.007812 125.363281 207.808594 125.363281 206.335938 C 125.363281 204.859375 121.695312 203.660156 117.183594 203.660156 C 112.671875 203.660156 109.003906 204.859375 109.003906 206.335938 Z M 284.148438 258.1875 L 89.253906 258.1875 C 81.566406 258.1875 75.332031 264.421875 75.332031 272.109375 C 75.332031 279.796875 81.566406 286.03125 89.253906 286.03125 L 284.160156 286.03125 C 291.847656 286.03125 298.082031 279.796875 298.082031 272.109375 C 298.082031 264.421875 291.847656 258.1875 284.148438 258.1875 Z M 289.484375 301.503906 C 273.007812 301.503906 257.203125 308.046875 245.546875 319.703125 L 228.203125 337.046875 L 210.867188 319.703125 C 199.210938 308.046875 183.40625 301.503906 166.929688 301.503906 L 83.917969 301.503906 C 79.234375 301.503906 75.339844 305.269531 75.332031 309.953125 C 75.253906 336.03125 96.363281 357.195312 122.421875 357.195312 L 250.976562 357.195312 C 277.039062 357.195312 298.144531 336.03125 298.070312 309.953125 C 298.0625 305.269531 294.167969 301.503906 289.484375 301.503906 Z M 289.484375 301.503906 " fillOpacity="1" fillRule="nonzero"/></g><g fill="#000000" fillOpacity="1"><g transform="translate(51.334915, 147.236801)"><g><path d="M 0.53125 -2.140625 C 0.488281 -1.992188 0.414062 -1.894531 0.3125 -1.84375 C 0.207031 -1.789062 0.09375 -1.78125 -0.03125 -1.8125 L -12.734375 -4.921875 C -12.878906 -4.960938 -12.984375 -5.03125 -13.046875 -5.125 C -13.117188 -5.21875 -13.132812 -5.335938 -13.09375 -5.484375 L -11.9375 -10.234375 C -11.570312 -11.703125 -10.941406 -12.78125 -10.046875 -13.46875 C -9.148438 -14.15625 -8.03125 -14.335938 -6.6875 -14.015625 C -5.6875 -13.765625 -4.929688 -13.3125 -4.421875 -12.65625 C -3.910156 -12 -3.640625 -11.210938 -3.609375 -10.296875 L 2.296875 -12.03125 C 2.390625 -12.039062 2.46875 -12.035156 2.53125 -12.015625 C 2.632812 -11.992188 2.710938 -11.929688 2.765625 -11.828125 C 2.828125 -11.734375 2.847656 -11.632812 2.828125 -11.53125 L 2.59375 -10.59375 C 2.539062 -10.375 2.441406 -10.222656 2.296875 -10.140625 C 2.160156 -10.066406 2.019531 -10.003906 1.875 -9.953125 L -3.765625 -8.359375 L -4.609375 -4.9375 L 0.421875 -3.703125 C 0.546875 -3.671875 0.644531 -3.601562 0.71875 -3.5 C 0.789062 -3.40625 0.804688 -3.285156 0.765625 -3.140625 Z M -6.25 -5.34375 L -5.453125 -8.5625 C -5.210938 -9.53125 -5.238281 -10.304688 -5.53125 -10.890625 C -5.820312 -11.472656 -6.375 -11.863281 -7.1875 -12.0625 C -7.976562 -12.25 -8.632812 -12.15625 -9.15625 -11.78125 C -9.6875 -11.414062 -10.070312 -10.738281 -10.3125 -9.75 L -11.109375 -6.53125 Z M -6.25 -5.34375 "/></g></g></g><g fill="#000000" fillOpacity="1"><g transform="translate(55.561993, 130.889771)"><g><path d="M 2.609375 -6.28125 C 2.191406 -5.207031 1.65625 -4.359375 1 -3.734375 C 0.34375 -3.109375 -0.445312 -2.738281 -1.375 -2.625 C -2.3125 -2.507812 -3.363281 -2.644531 -4.53125 -3.03125 C -5.082031 -3.226562 -5.609375 -3.421875 -6.109375 -3.609375 C -6.617188 -3.804688 -7.148438 -4.015625 -7.703125 -4.234375 C -8.835938 -4.722656 -9.707031 -5.328125 -10.3125 -6.046875 C -10.914062 -6.773438 -11.257812 -7.59375 -11.34375 -8.5 C -11.4375 -9.414062 -11.285156 -10.390625 -10.890625 -11.421875 C -10.515625 -12.429688 -9.988281 -13.25 -9.3125 -13.875 C -8.632812 -14.5 -7.828125 -14.878906 -6.890625 -15.015625 C -5.960938 -15.160156 -4.914062 -15.03125 -3.75 -14.625 C -3.175781 -14.445312 -2.632812 -14.257812 -2.125 -14.0625 C -1.625 -13.875 -1.109375 -13.660156 -0.578125 -13.421875 C 0.554688 -12.953125 1.429688 -12.359375 2.046875 -11.640625 C 2.660156 -10.929688 3.003906 -10.125 3.078125 -9.21875 C 3.160156 -8.320312 3.003906 -7.34375 2.609375 -6.28125 Z M 1.015625 -6.890625 C 1.367188 -7.828125 1.375 -8.707031 1.03125 -9.53125 C 0.6875 -10.363281 -0.113281 -11.050781 -1.375 -11.59375 C -1.9375 -11.84375 -2.4375 -12.050781 -2.875 -12.21875 C -3.320312 -12.382812 -3.828125 -12.554688 -4.390625 -12.734375 C -5.253906 -13.023438 -6.007812 -13.128906 -6.65625 -13.046875 C -7.3125 -12.960938 -7.859375 -12.722656 -8.296875 -12.328125 C -8.734375 -11.929688 -9.066406 -11.425781 -9.296875 -10.8125 C -9.535156 -10.1875 -9.625 -9.582031 -9.5625 -9 C -9.5 -8.414062 -9.25 -7.867188 -8.8125 -7.359375 C -8.382812 -6.859375 -7.75 -6.429688 -6.90625 -6.078125 C -6.363281 -5.859375 -5.867188 -5.664062 -5.421875 -5.5 C -4.984375 -5.332031 -4.472656 -5.144531 -3.890625 -4.9375 C -2.597656 -4.5 -1.546875 -4.472656 -0.734375 -4.859375 C 0.0664062 -5.253906 0.648438 -5.929688 1.015625 -6.890625 Z M 1.015625 -6.890625 "/></g></g></g><g fill="#000000" fillOpacity="1"><g transform="translate(61.94571, 114.781499)"><g><path d="M 2.78125 -5.265625 C 2.71875 -5.140625 2.625 -5.0625 2.5 -5.03125 C 2.382812 -5 2.265625 -5.015625 2.140625 -5.078125 L -2.03125 -7.28125 L -11.515625 -6.8125 C -11.566406 -6.820312 -11.609375 -6.832031 -11.640625 -6.84375 C -11.679688 -6.851562 -11.722656 -6.867188 -11.765625 -6.890625 C -11.867188 -6.941406 -11.9375 -7.019531 -11.96875 -7.125 C -12 -7.238281 -11.988281 -7.34375 -11.9375 -7.4375 L -11.453125 -8.359375 C -11.398438 -8.460938 -11.328125 -8.539062 -11.234375 -8.59375 C -11.140625 -8.65625 -11.03125 -8.675781 -10.90625 -8.65625 L -3.359375 -9.078125 L -7.265625 -15.578125 C -7.335938 -15.679688 -7.375 -15.785156 -7.375 -15.890625 C -7.382812 -16.003906 -7.363281 -16.109375 -7.3125 -16.203125 L -6.828125 -17.125 C -6.773438 -17.21875 -6.691406 -17.28125 -6.578125 -17.3125 C -6.472656 -17.351562 -6.367188 -17.347656 -6.265625 -17.296875 C -6.222656 -17.273438 -6.191406 -17.25 -6.171875 -17.21875 C -6.148438 -17.1875 -6.125 -17.144531 -6.09375 -17.09375 L -1.09375 -9.046875 L 3.078125 -6.84375 C 3.203125 -6.78125 3.28125 -6.6875 3.3125 -6.5625 C 3.351562 -6.445312 3.335938 -6.320312 3.265625 -6.1875 Z M 2.78125 -5.265625 "/></g></g></g><g fill="#000000" fillOpacity="1"><g transform="translate(69.940823, 100.087987)"><g><path d="M 0.453125 -0.65625 C 0.390625 -0.570312 0.304688 -0.519531 0.203125 -0.5 C 0.0976562 -0.476562 0 -0.5 -0.09375 -0.5625 C -0.144531 -0.59375 -0.207031 -0.640625 -0.28125 -0.703125 L -8.078125 -12.171875 C -8.160156 -12.296875 -8.207031 -12.414062 -8.21875 -12.53125 C -8.226562 -12.65625 -8.179688 -12.796875 -8.078125 -12.953125 L -7.296875 -14.0625 C -7.191406 -14.21875 -7.082031 -14.3125 -6.96875 -14.34375 C -6.851562 -14.382812 -6.722656 -14.382812 -6.578125 -14.34375 L 6.890625 -11.015625 C 6.984375 -10.992188 7.054688 -10.96875 7.109375 -10.9375 C 7.203125 -10.875 7.253906 -10.785156 7.265625 -10.671875 C 7.285156 -10.566406 7.265625 -10.46875 7.203125 -10.375 L 6.625 -9.53125 C 6.53125 -9.394531 6.429688 -9.320312 6.328125 -9.3125 C 6.222656 -9.300781 6.132812 -9.304688 6.0625 -9.328125 L 3.078125 -10.03125 L -0.671875 -4.625 L 1.046875 -2.109375 C 1.097656 -2.066406 1.128906 -1.984375 1.140625 -1.859375 C 1.160156 -1.742188 1.128906 -1.625 1.046875 -1.5 Z M -1.734375 -6.09375 L 1.34375 -10.53125 L -6.046875 -12.375 Z M -1.734375 -6.09375 "/></g></g></g><g fill="#000000" fillOpacity="1"><g transform="translate(79.994124, 86.117386)"><g><path d="M 1.453125 -1.65625 C 1.359375 -1.539062 1.25 -1.484375 1.125 -1.484375 C 1.007812 -1.484375 0.90625 -1.53125 0.8125 -1.625 L -9.015625 -10.296875 C -9.109375 -10.378906 -9.160156 -10.476562 -9.171875 -10.59375 C -9.191406 -10.707031 -9.15625 -10.820312 -9.0625 -10.9375 L -8.359375 -11.734375 C -8.265625 -11.828125 -8.15625 -11.878906 -8.03125 -11.890625 C -7.90625 -11.898438 -7.796875 -11.863281 -7.703125 -11.78125 L 1.15625 -3.953125 L 5.5625 -8.953125 C 5.65625 -9.054688 5.765625 -9.109375 5.890625 -9.109375 C 6.015625 -9.117188 6.128906 -9.078125 6.234375 -8.984375 L 6.84375 -8.453125 C 6.9375 -8.359375 6.988281 -8.25 7 -8.125 C 7.007812 -8.007812 6.96875 -7.898438 6.875 -7.796875 Z M 1.453125 -1.65625 "/></g></g></g><g fill="#000000" fillOpacity="1"><g transform="translate(90.14715, 74.929548)"><g><path d="M 1.625 -1.484375 C 1.519531 -1.390625 1.410156 -1.347656 1.296875 -1.359375 C 1.179688 -1.367188 1.078125 -1.421875 0.984375 -1.515625 L -7.84375 -11.203125 C -7.925781 -11.296875 -7.96875 -11.40625 -7.96875 -11.53125 C -7.976562 -11.65625 -7.929688 -11.765625 -7.828125 -11.859375 L -7.046875 -12.578125 C -6.941406 -12.671875 -6.820312 -12.710938 -6.6875 -12.703125 C -6.5625 -12.691406 -6.457031 -12.640625 -6.375 -12.546875 L 1.59375 -3.8125 L 6.515625 -8.296875 C 6.617188 -8.390625 6.726562 -8.429688 6.84375 -8.421875 C 6.96875 -8.410156 7.078125 -8.351562 7.171875 -8.25 L 7.71875 -7.65625 C 7.8125 -7.5625 7.851562 -7.453125 7.84375 -7.328125 C 7.84375 -7.203125 7.789062 -7.09375 7.6875 -7 Z M 1.625 -1.484375 "/></g></g></g><g fill="#000000" fillOpacity="1"><g transform="translate(101.406989, 64.893978)"><g><path d="M 4.828125 -3.484375 C 4.722656 -3.398438 4.609375 -3.367188 4.484375 -3.390625 C 4.367188 -3.421875 4.269531 -3.488281 4.1875 -3.59375 L 1.4375 -7.421875 L -7.296875 -11.234375 C -7.328125 -11.265625 -7.359375 -11.285156 -7.390625 -11.296875 C -7.421875 -11.316406 -7.453125 -11.347656 -7.484375 -11.390625 C -7.546875 -11.484375 -7.566406 -11.585938 -7.546875 -11.703125 C -7.523438 -11.816406 -7.472656 -11.898438 -7.390625 -11.953125 L -6.546875 -12.578125 C -6.453125 -12.640625 -6.347656 -12.675781 -6.234375 -12.6875 C -6.128906 -12.695312 -6.023438 -12.671875 -5.921875 -12.609375 L 1.03125 -9.625 L 0.421875 -17.1875 C 0.398438 -17.300781 0.410156 -17.40625 0.453125 -17.5 C 0.492188 -17.601562 0.5625 -17.691406 0.65625 -17.765625 L 1.5 -18.359375 C 1.582031 -18.429688 1.679688 -18.457031 1.796875 -18.4375 C 1.910156 -18.425781 2 -18.375 2.0625 -18.28125 C 2.09375 -18.238281 2.113281 -18.195312 2.125 -18.15625 C 2.132812 -18.125 2.140625 -18.082031 2.140625 -18.03125 L 3.046875 -8.578125 L 5.796875 -4.75 C 5.878906 -4.644531 5.910156 -4.53125 5.890625 -4.40625 C 5.867188 -4.28125 5.796875 -4.175781 5.671875 -4.09375 Z M 4.828125 -3.484375 "/></g></g></g><g fill="#000000" fillOpacity="1"><g transform="translate(115.298673, 55.334429)"><g/></g></g><g fill="#000000" fillOpacity="1"><g transform="translate(122.875919, 50.837653)"><g><path d="M 2 -0.9375 C 1.863281 -0.875 1.738281 -0.863281 1.625 -0.90625 C 1.519531 -0.945312 1.4375 -1.03125 1.375 -1.15625 L -4.15625 -13 C -4.21875 -13.132812 -4.226562 -13.257812 -4.1875 -13.375 C -4.15625 -13.5 -4.070312 -13.59375 -3.9375 -13.65625 L 0.171875 -15.578125 C 1.429688 -16.160156 2.523438 -16.441406 3.453125 -16.421875 C 4.390625 -16.398438 5.207031 -16.101562 5.90625 -15.53125 C 6.601562 -14.96875 7.207031 -14.15625 7.71875 -13.09375 C 7.96875 -12.5625 8.191406 -12.085938 8.390625 -11.671875 C 8.585938 -11.253906 8.804688 -10.78125 9.046875 -10.25 C 9.535156 -9.113281 9.78125 -8.097656 9.78125 -7.203125 C 9.78125 -6.316406 9.488281 -5.519531 8.90625 -4.8125 C 8.332031 -4.101562 7.4375 -3.46875 6.21875 -2.90625 Z M 2.640625 -3.109375 L 5.390625 -4.40625 C 6.234375 -4.800781 6.847656 -5.226562 7.234375 -5.6875 C 7.617188 -6.144531 7.804688 -6.679688 7.796875 -7.296875 C 7.785156 -7.910156 7.59375 -8.640625 7.21875 -9.484375 C 7.0625 -9.859375 6.914062 -10.179688 6.78125 -10.453125 C 6.65625 -10.722656 6.53125 -10.992188 6.40625 -11.265625 C 6.28125 -11.535156 6.128906 -11.84375 5.953125 -12.1875 C 5.367188 -13.34375 4.675781 -14.078125 3.875 -14.390625 C 3.082031 -14.710938 2.0625 -14.578125 0.8125 -13.984375 L -1.859375 -12.734375 Z M 2.640625 -3.109375 "/></g></g></g><g fill="#000000" fillOpacity="1"><g transform="translate(138.911598, 43.646607)"><g><path d="M 2.09375 -0.6875 C 1.957031 -0.644531 1.835938 -0.648438 1.734375 -0.703125 C 1.628906 -0.765625 1.554688 -0.863281 1.515625 -1 L -2.5625 -13.421875 C -2.613281 -13.554688 -2.613281 -13.675781 -2.5625 -13.78125 C -2.507812 -13.894531 -2.414062 -13.972656 -2.28125 -14.015625 L 5.59375 -16.59375 C 5.726562 -16.632812 5.847656 -16.625 5.953125 -16.5625 C 6.054688 -16.507812 6.132812 -16.414062 6.1875 -16.28125 L 6.421875 -15.5625 C 6.460938 -15.414062 6.457031 -15.289062 6.40625 -15.1875 C 6.351562 -15.09375 6.257812 -15.023438 6.125 -14.984375 L -0.359375 -12.859375 L 1.015625 -8.6875 L 7.078125 -10.671875 C 7.210938 -10.722656 7.332031 -10.71875 7.4375 -10.65625 C 7.539062 -10.59375 7.613281 -10.488281 7.65625 -10.34375 L 7.890625 -9.65625 C 7.929688 -9.519531 7.925781 -9.398438 7.875 -9.296875 C 7.820312 -9.191406 7.726562 -9.113281 7.59375 -9.0625 L 1.53125 -7.078125 L 2.953125 -2.765625 L 9.578125 -4.9375 C 9.710938 -4.988281 9.832031 -4.988281 9.9375 -4.9375 C 10.050781 -4.882812 10.128906 -4.789062 10.171875 -4.65625 L 10.421875 -3.921875 C 10.460938 -3.785156 10.453125 -3.660156 10.390625 -3.546875 C 10.335938 -3.441406 10.242188 -3.363281 10.109375 -3.3125 Z M 2.09375 -0.6875 "/></g></g></g><g fill="#000000" fillOpacity="1"><g transform="translate(154.14355, 38.90203)"><g><path d="M 2.15625 -0.453125 C 2.007812 -0.421875 1.890625 -0.441406 1.796875 -0.515625 C 1.710938 -0.585938 1.65625 -0.6875 1.625 -0.8125 L -1.046875 -13.65625 C -1.078125 -13.769531 -1.0625 -13.878906 -1 -13.984375 C -0.945312 -14.085938 -0.847656 -14.15625 -0.703125 -14.1875 L 0.34375 -14.40625 C 0.46875 -14.425781 0.582031 -14.398438 0.6875 -14.328125 C 0.789062 -14.265625 0.859375 -14.175781 0.890625 -14.0625 L 3.296875 -2.484375 L 9.8125 -3.84375 C 9.957031 -3.863281 10.078125 -3.835938 10.171875 -3.765625 C 10.273438 -3.703125 10.335938 -3.597656 10.359375 -3.453125 L 10.53125 -2.671875 C 10.5625 -2.546875 10.546875 -2.425781 10.484375 -2.3125 C 10.421875 -2.207031 10.316406 -2.144531 10.171875 -2.125 Z M 2.15625 -0.453125 "/></g></g></g><g fill="#000000" fillOpacity="1"><g transform="translate(169.085353, 36.098058)"><g><path d="M 2.1875 -0.25 C 2.039062 -0.238281 1.921875 -0.269531 1.828125 -0.34375 C 1.742188 -0.425781 1.691406 -0.535156 1.671875 -0.671875 L 0.15625 -13.6875 C 0.132812 -13.8125 0.15625 -13.921875 0.21875 -14.015625 C 0.289062 -14.117188 0.398438 -14.175781 0.546875 -14.1875 L 1.609375 -14.3125 C 1.742188 -14.332031 1.859375 -14.300781 1.953125 -14.21875 C 2.046875 -14.144531 2.101562 -14.046875 2.125 -13.921875 L 3.640625 -0.90625 C 3.660156 -0.769531 3.632812 -0.648438 3.5625 -0.546875 C 3.488281 -0.453125 3.382812 -0.394531 3.25 -0.375 Z M 2.1875 -0.25 "/></g></g></g><g fill="#000000" fillOpacity="1"><g transform="translate(178.389824, 35.002155)"><g><path d="M 6.796875 0.0625 C 5.566406 0.0820312 4.539062 -0.117188 3.71875 -0.546875 C 2.90625 -0.984375 2.28125 -1.609375 1.84375 -2.421875 C 1.414062 -3.234375 1.171875 -4.179688 1.109375 -5.265625 C 1.085938 -5.804688 1.066406 -6.390625 1.046875 -7.015625 C 1.035156 -7.648438 1.03125 -8.253906 1.03125 -8.828125 C 1.050781 -9.910156 1.257812 -10.863281 1.65625 -11.6875 C 2.050781 -12.507812 2.648438 -13.15625 3.453125 -13.625 C 4.253906 -14.101562 5.269531 -14.351562 6.5 -14.375 C 7.414062 -14.394531 8.222656 -14.285156 8.921875 -14.046875 C 9.628906 -13.804688 10.210938 -13.476562 10.671875 -13.0625 C 11.140625 -12.644531 11.5 -12.175781 11.75 -11.65625 C 12.007812 -11.132812 12.160156 -10.59375 12.203125 -10.03125 C 12.210938 -9.90625 12.175781 -9.800781 12.09375 -9.71875 C 12.007812 -9.644531 11.90625 -9.601562 11.78125 -9.59375 L 10.6875 -9.578125 C 10.5625 -9.578125 10.453125 -9.609375 10.359375 -9.671875 C 10.273438 -9.734375 10.21875 -9.847656 10.1875 -10.015625 C 9.925781 -11.054688 9.476562 -11.765625 8.84375 -12.140625 C 8.21875 -12.515625 7.445312 -12.691406 6.53125 -12.671875 C 5.445312 -12.648438 4.59375 -12.328125 3.96875 -11.703125 C 3.351562 -11.078125 3.046875 -10.097656 3.046875 -8.765625 C 3.023438 -7.671875 3.050781 -6.546875 3.125 -5.390625 C 3.175781 -4.054688 3.523438 -3.09375 4.171875 -2.5 C 4.816406 -1.90625 5.679688 -1.617188 6.765625 -1.640625 C 7.679688 -1.660156 8.445312 -1.875 9.0625 -2.28125 C 9.675781 -2.6875 10.085938 -3.410156 10.296875 -4.453125 C 10.328125 -4.617188 10.382812 -4.738281 10.46875 -4.8125 C 10.5625 -4.882812 10.671875 -4.921875 10.796875 -4.921875 L 11.890625 -4.9375 C 12.015625 -4.945312 12.117188 -4.914062 12.203125 -4.84375 C 12.285156 -4.769531 12.320312 -4.675781 12.3125 -4.5625 C 12.300781 -4 12.175781 -3.445312 11.9375 -2.90625 C 11.707031 -2.363281 11.367188 -1.875 10.921875 -1.4375 C 10.472656 -1 9.898438 -0.644531 9.203125 -0.375 C 8.515625 -0.101562 7.710938 0.0390625 6.796875 0.0625 Z M 6.796875 0.0625 "/></g></g></g><g fill="#000000" fillOpacity="1"><g transform="translate(195.618544, 35.006518)"><g><path d="M 2.203125 0.15625 C 2.054688 0.144531 1.945312 0.09375 1.875 0 C 1.800781 -0.09375 1.769531 -0.207031 1.78125 -0.34375 L 2.75 -13.421875 C 2.757812 -13.546875 2.804688 -13.648438 2.890625 -13.734375 C 2.984375 -13.816406 3.101562 -13.851562 3.25 -13.84375 L 4.296875 -13.765625 C 4.441406 -13.742188 4.550781 -13.6875 4.625 -13.59375 C 4.695312 -13.5 4.726562 -13.390625 4.71875 -13.265625 L 3.75 -0.1875 C 3.738281 -0.0507812 3.6875 0.0546875 3.59375 0.140625 C 3.507812 0.222656 3.394531 0.253906 3.25 0.234375 Z M 2.203125 0.15625 "/></g></g></g><g fill="#000000" fillOpacity="1"><g transform="translate(204.958776, 35.692818)"><g><path d="M 6.671875 1.359375 C 5.535156 1.160156 4.597656 0.796875 3.859375 0.265625 C 3.128906 -0.265625 2.613281 -0.972656 2.3125 -1.859375 C 2.007812 -2.742188 1.941406 -3.800781 2.109375 -5.03125 C 2.191406 -5.601562 2.28125 -6.15625 2.375 -6.6875 C 2.46875 -7.226562 2.566406 -7.789062 2.671875 -8.375 C 2.941406 -9.570312 3.375 -10.535156 3.96875 -11.265625 C 4.5625 -12.003906 5.296875 -12.503906 6.171875 -12.765625 C 7.054688 -13.023438 8.039062 -13.0625 9.125 -12.875 C 10.1875 -12.695312 11.085938 -12.335938 11.828125 -11.796875 C 12.566406 -11.253906 13.097656 -10.535156 13.421875 -9.640625 C 13.742188 -8.753906 13.816406 -7.703125 13.640625 -6.484375 C 13.578125 -5.890625 13.5 -5.320312 13.40625 -4.78125 C 13.3125 -4.25 13.203125 -3.703125 13.078125 -3.140625 C 12.816406 -1.929688 12.398438 -0.957031 11.828125 -0.21875 C 11.253906 0.519531 10.53125 1.015625 9.65625 1.265625 C 8.78125 1.515625 7.785156 1.546875 6.671875 1.359375 Z M 6.953125 -0.328125 C 7.941406 -0.160156 8.804688 -0.320312 9.546875 -0.8125 C 10.296875 -1.3125 10.816406 -2.234375 11.109375 -3.578125 C 11.242188 -4.160156 11.347656 -4.6875 11.421875 -5.15625 C 11.503906 -5.625 11.582031 -6.15625 11.65625 -6.75 C 11.78125 -7.65625 11.734375 -8.414062 11.515625 -9.03125 C 11.304688 -9.65625 10.96875 -10.140625 10.5 -10.484375 C 10.039062 -10.835938 9.484375 -11.070312 8.828125 -11.1875 C 8.171875 -11.300781 7.5625 -11.269531 7 -11.09375 C 6.4375 -10.925781 5.953125 -10.582031 5.546875 -10.0625 C 5.140625 -9.550781 4.84375 -8.847656 4.65625 -7.953125 C 4.53125 -7.367188 4.425781 -6.84375 4.34375 -6.375 C 4.269531 -5.90625 4.191406 -5.375 4.109375 -4.78125 C 3.921875 -3.414062 4.09375 -2.375 4.625 -1.65625 C 5.164062 -0.945312 5.941406 -0.503906 6.953125 -0.328125 Z M 6.953125 -0.328125 "/></g></g></g><g fill="#000000" fillOpacity="1"><g transform="translate(221.978324, 38.845473)"><g><path d="M 6.65625 2.234375 C 5.59375 1.910156 4.734375 1.441406 4.078125 0.828125 C 3.421875 0.210938 3.003906 -0.550781 2.828125 -1.46875 C 2.648438 -2.382812 2.75 -3.460938 3.125 -4.703125 L 5.5 -12.484375 C 5.539062 -12.628906 5.613281 -12.726562 5.71875 -12.78125 C 5.820312 -12.84375 5.941406 -12.851562 6.078125 -12.8125 L 7.0625 -12.515625 C 7.207031 -12.472656 7.304688 -12.394531 7.359375 -12.28125 C 7.421875 -12.175781 7.429688 -12.050781 7.390625 -11.90625 L 5.015625 -4.09375 C 4.628906 -2.832031 4.640625 -1.8125 5.046875 -1.03125 C 5.453125 -0.257812 6.160156 0.273438 7.171875 0.578125 C 8.191406 0.890625 9.085938 0.835938 9.859375 0.421875 C 10.640625 0.015625 11.222656 -0.816406 11.609375 -2.078125 L 13.984375 -9.890625 C 14.023438 -10.035156 14.097656 -10.132812 14.203125 -10.1875 C 14.316406 -10.25 14.4375 -10.257812 14.5625 -10.21875 L 15.5625 -9.921875 C 15.6875 -9.878906 15.773438 -9.800781 15.828125 -9.6875 C 15.890625 -9.582031 15.898438 -9.457031 15.859375 -9.3125 L 13.484375 -1.53125 C 13.109375 -0.289062 12.59375 0.65625 11.9375 1.3125 C 11.28125 1.96875 10.507812 2.367188 9.625 2.515625 C 8.738281 2.660156 7.75 2.566406 6.65625 2.234375 Z M 6.65625 2.234375 "/></g></g></g><g fill="#000000" fillOpacity="1"><g transform="translate(238.923337, 44.311732)"><g><path d="M 5.625 2.734375 C 4.570312 2.265625 3.753906 1.703125 3.171875 1.046875 C 2.597656 0.398438 2.234375 -0.269531 2.078125 -0.96875 C 1.921875 -1.664062 1.960938 -2.300781 2.203125 -2.875 C 2.242188 -2.976562 2.320312 -3.050781 2.4375 -3.09375 C 2.5625 -3.132812 2.675781 -3.132812 2.78125 -3.09375 L 3.71875 -2.671875 C 3.863281 -2.609375 3.953125 -2.523438 3.984375 -2.421875 C 4.023438 -2.316406 4.035156 -2.203125 4.015625 -2.078125 C 3.972656 -1.753906 4 -1.398438 4.09375 -1.015625 C 4.195312 -0.628906 4.421875 -0.25 4.765625 0.125 C 5.117188 0.507812 5.632812 0.859375 6.3125 1.171875 C 7.375 1.640625 8.234375 1.796875 8.890625 1.640625 C 9.554688 1.492188 10.03125 1.109375 10.3125 0.484375 C 10.5 0.0546875 10.515625 -0.347656 10.359375 -0.734375 C 10.210938 -1.117188 9.914062 -1.535156 9.46875 -1.984375 C 9.019531 -2.429688 8.425781 -2.960938 7.6875 -3.578125 C 6.90625 -4.222656 6.289062 -4.828125 5.84375 -5.390625 C 5.394531 -5.960938 5.128906 -6.535156 5.046875 -7.109375 C 4.960938 -7.691406 5.078125 -8.328125 5.390625 -9.015625 C 5.679688 -9.679688 6.117188 -10.195312 6.703125 -10.5625 C 7.285156 -10.925781 7.976562 -11.109375 8.78125 -11.109375 C 9.59375 -11.117188 10.46875 -10.914062 11.40625 -10.5 C 12.15625 -10.164062 12.769531 -9.769531 13.25 -9.3125 C 13.738281 -8.863281 14.09375 -8.382812 14.3125 -7.875 C 14.539062 -7.375 14.664062 -6.882812 14.6875 -6.40625 C 14.71875 -5.9375 14.660156 -5.515625 14.515625 -5.140625 C 14.472656 -5.054688 14.40625 -4.988281 14.3125 -4.9375 C 14.21875 -4.894531 14.109375 -4.898438 13.984375 -4.953125 L 13 -5.390625 C 12.914062 -5.429688 12.835938 -5.492188 12.765625 -5.578125 C 12.691406 -5.671875 12.65625 -5.796875 12.65625 -5.953125 C 12.820312 -6.484375 12.734375 -7.023438 12.390625 -7.578125 C 12.054688 -8.140625 11.5 -8.597656 10.71875 -8.953125 C 9.914062 -9.304688 9.203125 -9.4375 8.578125 -9.34375 C 7.953125 -9.257812 7.492188 -8.894531 7.203125 -8.25 C 7.023438 -7.832031 6.988281 -7.429688 7.09375 -7.046875 C 7.195312 -6.671875 7.453125 -6.269531 7.859375 -5.84375 C 8.273438 -5.414062 8.832031 -4.90625 9.53125 -4.3125 C 10.394531 -3.601562 11.066406 -2.960938 11.546875 -2.390625 C 12.035156 -1.816406 12.332031 -1.238281 12.4375 -0.65625 C 12.539062 -0.0820312 12.4375 0.554688 12.125 1.265625 C 11.789062 2.023438 11.296875 2.585938 10.640625 2.953125 C 9.992188 3.316406 9.242188 3.476562 8.390625 3.4375 C 7.535156 3.40625 6.613281 3.171875 5.625 2.734375 Z M 5.625 2.734375 "/></g></g></g><g fill="#000000" fillOpacity="1"><g transform="translate(253.736956, 51.284673)"><g/></g></g><g fill="#000000" fillOpacity="1"><g transform="translate(261.443056, 55.568979)"><g><path d="M 1.8125 1.25 C 1.695312 1.164062 1.628906 1.066406 1.609375 0.953125 C 1.597656 0.835938 1.628906 0.722656 1.703125 0.609375 L 9.125 -10.15625 C 9.207031 -10.28125 9.304688 -10.359375 9.421875 -10.390625 C 9.535156 -10.421875 9.648438 -10.394531 9.765625 -10.3125 L 14.296875 -7.1875 C 15.117188 -6.625 15.703125 -6.023438 16.046875 -5.390625 C 16.390625 -4.765625 16.519531 -4.132812 16.4375 -3.5 C 16.363281 -2.863281 16.132812 -2.257812 15.75 -1.6875 C 15.4375 -1.238281 15.09375 -0.898438 14.71875 -0.671875 C 14.351562 -0.453125 13.988281 -0.316406 13.625 -0.265625 C 13.269531 -0.210938 12.945312 -0.207031 12.65625 -0.25 C 12.9375 0.257812 13.078125 0.863281 13.078125 1.5625 C 13.085938 2.269531 12.863281 2.960938 12.40625 3.640625 C 11.988281 4.234375 11.46875 4.6875 10.84375 5 C 10.226562 5.320312 9.539062 5.445312 8.78125 5.375 C 8.03125 5.300781 7.257812 4.992188 6.46875 4.453125 Z M 3.96875 0.75 L 7.171875 2.96875 C 7.878906 3.445312 8.554688 3.625 9.203125 3.5 C 9.859375 3.382812 10.378906 3.050781 10.765625 2.5 C 11.160156 1.914062 11.296875 1.296875 11.171875 0.640625 C 11.054688 -0.00390625 10.644531 -0.566406 9.9375 -1.046875 L 6.734375 -3.265625 Z M 7.640625 -4.578125 L 10.6875 -2.484375 C 11.394531 -1.992188 12.039062 -1.785156 12.625 -1.859375 C 13.207031 -1.929688 13.691406 -2.25 14.078125 -2.8125 C 14.460938 -3.375 14.578125 -3.925781 14.421875 -4.46875 C 14.265625 -5.019531 13.832031 -5.539062 13.125 -6.03125 L 10.078125 -8.125 Z M 7.640625 -4.578125 "/></g></g></g><g fill="#000000" fillOpacity="1"><g transform="translate(275.430581, 65.462059)"><g><path d="M 5.109375 4.84375 C 4.273438 4.09375 3.691406 3.296875 3.359375 2.453125 C 3.023438 1.609375 2.96875 0.738281 3.1875 -0.15625 C 3.414062 -1.0625 3.957031 -1.992188 4.8125 -2.953125 L 10.234375 -9.03125 C 10.328125 -9.132812 10.429688 -9.191406 10.546875 -9.203125 C 10.671875 -9.222656 10.785156 -9.179688 10.890625 -9.078125 L 11.65625 -8.40625 C 11.769531 -8.300781 11.828125 -8.1875 11.828125 -8.0625 C 11.835938 -7.9375 11.796875 -7.820312 11.703125 -7.71875 L 6.265625 -1.625 C 5.390625 -0.644531 4.972656 0.28125 5.015625 1.15625 C 5.054688 2.039062 5.472656 2.835938 6.265625 3.546875 C 7.054688 4.242188 7.890625 4.566406 8.765625 4.515625 C 9.648438 4.460938 10.53125 3.945312 11.40625 2.96875 L 16.84375 -3.125 C 16.9375 -3.226562 17.046875 -3.285156 17.171875 -3.296875 C 17.296875 -3.304688 17.410156 -3.265625 17.515625 -3.171875 L 18.28125 -2.484375 C 18.382812 -2.398438 18.4375 -2.289062 18.4375 -2.15625 C 18.445312 -2.03125 18.40625 -1.914062 18.3125 -1.8125 L 12.890625 4.265625 C 12.035156 5.222656 11.171875 5.863281 10.296875 6.1875 C 9.421875 6.507812 8.546875 6.550781 7.671875 6.3125 C 6.804688 6.082031 5.953125 5.59375 5.109375 4.84375 Z M 5.109375 4.84375 "/></g></g></g><g fill="#000000" fillOpacity="1"><g transform="translate(288.533537, 77.502835)"><g><path d="M 1.453125 1.65625 C 1.359375 1.550781 1.316406 1.4375 1.328125 1.3125 C 1.347656 1.195312 1.410156 1.09375 1.515625 1 L 11.359375 -7.59375 C 11.472656 -7.6875 11.585938 -7.734375 11.703125 -7.734375 C 11.816406 -7.734375 11.921875 -7.679688 12.015625 -7.578125 L 15.234375 -3.890625 C 16.222656 -2.753906 16.742188 -1.617188 16.796875 -0.484375 C 16.847656 0.648438 16.351562 1.671875 15.3125 2.578125 C 14.53125 3.253906 13.722656 3.613281 12.890625 3.65625 C 12.066406 3.707031 11.269531 3.476562 10.5 2.96875 L 8.515625 8.8125 C 8.472656 8.882812 8.429688 8.941406 8.390625 8.984375 C 8.296875 9.054688 8.191406 9.085938 8.078125 9.078125 C 7.960938 9.066406 7.875 9.019531 7.8125 8.9375 L 7.171875 8.21875 C 7.023438 8.039062 6.957031 7.875 6.96875 7.71875 C 6.988281 7.5625 7.019531 7.410156 7.0625 7.265625 L 9 1.734375 L 6.6875 -0.90625 L 2.796875 2.484375 C 2.691406 2.578125 2.578125 2.617188 2.453125 2.609375 C 2.328125 2.597656 2.21875 2.539062 2.125 2.4375 Z M 7.96875 -2.03125 L 10.140625 0.453125 C 10.796875 1.210938 11.441406 1.640625 12.078125 1.734375 C 12.722656 1.828125 13.363281 1.601562 14 1.0625 C 14.601562 0.519531 14.90625 -0.0703125 14.90625 -0.71875 C 14.914062 -1.363281 14.582031 -2.070312 13.90625 -2.84375 L 11.734375 -5.328125 Z M 7.96875 -2.03125 "/></g></g></g><g fill="#000000" fillOpacity="1"><g transform="translate(299.472616, 90.363933)"><g><path d="M 3.671875 5.796875 C 3.003906 4.804688 2.625 3.847656 2.53125 2.921875 C 2.445312 1.992188 2.613281 1.125 3.03125 0.3125 C 3.445312 -0.5 4.085938 -1.226562 4.953125 -1.875 C 5.429688 -2.207031 5.941406 -2.554688 6.484375 -2.921875 C 7.035156 -3.296875 7.566406 -3.648438 8.078125 -3.984375 C 9.003906 -4.546875 9.921875 -4.867188 10.828125 -4.953125 C 11.734375 -5.046875 12.597656 -4.867188 13.421875 -4.421875 C 14.242188 -3.972656 14.984375 -3.257812 15.640625 -2.28125 C 16.160156 -1.507812 16.503906 -0.765625 16.671875 -0.046875 C 16.835938 0.671875 16.875 1.332031 16.78125 1.9375 C 16.695312 2.539062 16.535156 3.054688 16.296875 3.484375 C 16.054688 3.910156 15.804688 4.222656 15.546875 4.421875 C 15.441406 4.503906 15.335938 4.53125 15.234375 4.5 C 15.128906 4.476562 15.039062 4.414062 14.96875 4.3125 L 14.296875 3.328125 C 14.222656 3.210938 14.191406 3.113281 14.203125 3.03125 C 14.222656 2.957031 14.265625 2.859375 14.328125 2.734375 C 14.554688 2.453125 14.734375 2.097656 14.859375 1.671875 C 14.984375 1.253906 15.003906 0.796875 14.921875 0.296875 C 14.847656 -0.203125 14.613281 -0.742188 14.21875 -1.328125 C 13.613281 -2.222656 12.894531 -2.773438 12.0625 -2.984375 C 11.226562 -3.203125 10.25 -2.96875 9.125 -2.28125 C 8.113281 -1.632812 7.125 -0.960938 6.15625 -0.265625 C 5.082031 0.523438 4.488281 1.351562 4.375 2.21875 C 4.257812 3.082031 4.5 3.957031 5.09375 4.84375 C 5.488281 5.425781 5.953125 5.867188 6.484375 6.171875 C 7.015625 6.484375 7.59375 6.617188 8.21875 6.578125 C 8.84375 6.546875 9.503906 6.296875 10.203125 5.828125 L 10.90625 5.359375 L 9.21875 2.859375 C 9.144531 2.753906 9.117188 2.640625 9.140625 2.515625 C 9.171875 2.390625 9.242188 2.285156 9.359375 2.203125 L 9.890625 1.84375 C 10.015625 1.769531 10.132812 1.742188 10.25 1.765625 C 10.375 1.785156 10.472656 1.847656 10.546875 1.953125 L 13.09375 5.703125 C 13.164062 5.828125 13.1875 5.945312 13.15625 6.0625 C 13.132812 6.1875 13.0625 6.285156 12.9375 6.359375 L 11.34375 7.4375 C 10.445312 8.050781 9.53125 8.398438 8.59375 8.484375 C 7.664062 8.578125 6.773438 8.394531 5.921875 7.9375 C 5.078125 7.476562 4.328125 6.765625 3.671875 5.796875 Z M 3.671875 5.796875 "/></g></g></g><g fill="#000000" fillOpacity="1"><g transform="translate(309.003798, 104.941615)"><g><path d="M 1 1.953125 C 0.9375 1.828125 0.925781 1.707031 0.96875 1.59375 C 1.007812 1.488281 1.09375 1.40625 1.21875 1.34375 L 12.84375 -4.625 C 12.96875 -4.695312 13.085938 -4.71875 13.203125 -4.6875 C 13.328125 -4.664062 13.421875 -4.59375 13.484375 -4.46875 L 17.28125 2.90625 C 17.34375 3.03125 17.351562 3.148438 17.3125 3.265625 C 17.269531 3.378906 17.1875 3.472656 17.0625 3.546875 L 16.390625 3.875 C 16.253906 3.945312 16.128906 3.960938 16.015625 3.921875 C 15.910156 3.890625 15.828125 3.8125 15.765625 3.6875 L 12.640625 -2.375 L 8.734375 -0.359375 L 11.65625 5.3125 C 11.71875 5.4375 11.726562 5.550781 11.6875 5.65625 C 11.644531 5.769531 11.554688 5.863281 11.421875 5.9375 L 10.765625 6.265625 C 10.648438 6.328125 10.535156 6.34375 10.421875 6.3125 C 10.304688 6.28125 10.21875 6.203125 10.15625 6.078125 L 7.234375 0.40625 L 3.1875 2.484375 L 6.375 8.6875 C 6.445312 8.8125 6.46875 8.925781 6.4375 9.03125 C 6.40625 9.144531 6.320312 9.234375 6.1875 9.296875 L 5.5 9.65625 C 5.375 9.71875 5.253906 9.734375 5.140625 9.703125 C 5.023438 9.671875 4.929688 9.59375 4.859375 9.46875 Z M 1 1.953125 "/></g></g></g><g fill="#000000" fillOpacity="1"><g transform="translate(316.117923, 119.185838)"><g><path d="M 0.765625 2.0625 C 0.710938 1.925781 0.710938 1.804688 0.765625 1.703125 C 0.828125 1.597656 0.921875 1.523438 1.046875 1.484375 L 13.296875 -3.09375 C 13.429688 -3.144531 13.550781 -3.148438 13.65625 -3.109375 C 13.769531 -3.066406 13.851562 -2.976562 13.90625 -2.84375 L 15.625 1.734375 C 16.144531 3.148438 16.226562 4.398438 15.875 5.484375 C 15.53125 6.566406 14.707031 7.347656 13.40625 7.828125 C 12.445312 8.191406 11.566406 8.242188 10.765625 7.984375 C 9.972656 7.722656 9.304688 7.222656 8.765625 6.484375 L 4.859375 11.25 C 4.796875 11.300781 4.734375 11.335938 4.671875 11.359375 C 4.566406 11.398438 4.460938 11.394531 4.359375 11.34375 C 4.253906 11.289062 4.1875 11.21875 4.15625 11.125 L 3.8125 10.21875 C 3.726562 10 3.722656 9.820312 3.796875 9.6875 C 3.878906 9.550781 3.960938 9.421875 4.046875 9.296875 L 7.796875 4.796875 L 6.578125 1.5 L 1.734375 3.3125 C 1.609375 3.351562 1.488281 3.347656 1.375 3.296875 C 1.257812 3.253906 1.175781 3.164062 1.125 3.03125 Z M 8.171875 0.90625 L 9.328125 4.015625 C 9.671875 4.953125 10.125 5.578125 10.6875 5.890625 C 11.257812 6.210938 11.9375 6.226562 12.71875 5.9375 C 13.476562 5.65625 13.972656 5.210938 14.203125 4.609375 C 14.429688 4.003906 14.367188 3.222656 14.015625 2.265625 L 12.859375 -0.84375 Z M 8.171875 0.90625 "/></g></g></g><g fill="#000000" fillOpacity="1"><g transform="translate(321.797551, 135.100886)"><g><path d="M 1.265625 6.125 C 0.992188 5 0.9375 4.007812 1.09375 3.15625 C 1.257812 2.300781 1.570312 1.597656 2.03125 1.046875 C 2.488281 0.503906 3.023438 0.148438 3.640625 -0.015625 C 3.734375 -0.046875 3.832031 -0.03125 3.9375 0.03125 C 4.050781 0.101562 4.117188 0.195312 4.140625 0.3125 L 4.390625 1.3125 C 4.421875 1.457031 4.40625 1.578125 4.34375 1.671875 C 4.28125 1.773438 4.207031 1.851562 4.125 1.90625 C 3.820312 2.070312 3.546875 2.3125 3.296875 2.625 C 3.054688 2.9375 2.890625 3.347656 2.796875 3.859375 C 2.703125 4.367188 2.742188 4.988281 2.921875 5.71875 C 3.191406 6.84375 3.585938 7.617188 4.109375 8.046875 C 4.640625 8.484375 5.238281 8.617188 5.90625 8.453125 C 6.363281 8.347656 6.695312 8.117188 6.90625 7.765625 C 7.113281 7.410156 7.257812 6.914062 7.34375 6.28125 C 7.425781 5.65625 7.484375 4.867188 7.515625 3.921875 C 7.566406 2.898438 7.675781 2.035156 7.84375 1.328125 C 8.019531 0.628906 8.3125 0.0703125 8.71875 -0.34375 C 9.125 -0.757812 9.695312 -1.054688 10.4375 -1.234375 C 11.144531 -1.410156 11.816406 -1.378906 12.453125 -1.140625 C 13.097656 -0.898438 13.671875 -0.460938 14.171875 0.171875 C 14.671875 0.804688 15.039062 1.625 15.28125 2.625 C 15.476562 3.425781 15.539062 4.15625 15.46875 4.8125 C 15.40625 5.46875 15.238281 6.039062 14.96875 6.53125 C 14.707031 7.019531 14.398438 7.414062 14.046875 7.71875 C 13.691406 8.03125 13.328125 8.242188 12.953125 8.359375 C 12.859375 8.378906 12.757812 8.363281 12.65625 8.3125 C 12.5625 8.269531 12.492188 8.179688 12.453125 8.046875 L 12.203125 7.015625 C 12.179688 6.921875 12.179688 6.816406 12.203125 6.703125 C 12.222656 6.585938 12.300781 6.484375 12.4375 6.390625 C 12.957031 6.203125 13.332031 5.800781 13.5625 5.1875 C 13.800781 4.582031 13.820312 3.863281 13.625 3.03125 C 13.414062 2.175781 13.085938 1.523438 12.640625 1.078125 C 12.191406 0.640625 11.625 0.503906 10.9375 0.671875 C 10.488281 0.773438 10.144531 0.984375 9.90625 1.296875 C 9.675781 1.617188 9.515625 2.070312 9.421875 2.65625 C 9.335938 3.25 9.273438 4 9.234375 4.90625 C 9.203125 6.03125 9.101562 6.960938 8.9375 7.703125 C 8.78125 8.441406 8.503906 9.023438 8.109375 9.453125 C 7.722656 9.878906 7.15625 10.1875 6.40625 10.375 C 5.59375 10.570312 4.84375 10.523438 4.15625 10.234375 C 3.476562 9.941406 2.890625 9.445312 2.390625 8.75 C 1.898438 8.050781 1.523438 7.175781 1.265625 6.125 Z M 1.265625 6.125 "/></g></g></g></svg>