<svg xmlns="http://www.w3.org/2000/svg" xmlns:xlink="http://www.w3.org/1999/xlink" width="500" zoomAndPan="magnify" viewBox="0 0 375 374.999991" height="500" preserveAspectRatio="xMidYMid meet" version="1.0"><defs><g/><clipPath id="603011a90c"><path d="M 80.101562 131 L 294.601562 131 L 294.601562 216 L 80.101562 216 Z M 80.101562 131 " clipRule="nonzero"/></clipPath><clipPath id="8462d0c48c"><path d="M 80.101562 321 L 294.601562 321 L 294.601562 363.546875 L 80.101562 363.546875 Z M 80.101562 321 " clipRule="nonzero"/></clipPath><clipPath id="225a3cf4f1"><path d="M 122 11.796875 L 253 11.796875 L 253 96 L 122 96 Z M 122 11.796875 " clipRule="nonzero"/></clipPath></defs><g clipPath="url(#603011a90c)"><path fill="#000000" d="M 157.652344 149.414062 C 159.789062 149.414062 161.554688 150.78125 161.554688 152.445312 C 161.554688 154.113281 159.789062 155.476562 157.652344 155.476562 C 155.503906 155.476562 153.738281 154.113281 153.738281 152.445312 C 153.738281 150.78125 155.503906 149.414062 157.652344 149.414062 M 187.792969 163.175781 C 189.816406 163.175781 191.484375 164.449219 191.484375 166.035156 C 191.484375 167.601562 189.816406 168.894531 187.792969 168.894531 C 185.769531 168.894531 184.101562 167.601562 184.101562 166.035156 C 184.101562 164.449219 185.769531 163.175781 187.792969 163.175781 Z M 167.863281 168.585938 C 170.011719 168.585938 171.765625 169.957031 171.765625 171.621094 C 171.765625 173.277344 170.011719 174.648438 167.863281 174.648438 C 165.703125 174.648438 163.949219 173.277344 163.949219 171.621094 C 163.949219 169.957031 165.703125 168.585938 167.863281 168.585938 Z M 216.167969 148.613281 C 217.957031 148.613281 219.425781 149.753906 219.425781 151.148438 C 219.425781 152.53125 217.957031 153.664062 216.167969 153.664062 C 214.375 153.664062 212.90625 152.53125 212.90625 151.148438 C 212.90625 149.753906 214.375 148.613281 216.167969 148.613281 Z M 234.355469 166.851562 C 236.082031 166.851562 237.492188 167.953125 237.492188 169.300781 C 237.492188 170.640625 236.082031 171.738281 234.355469 171.738281 C 232.613281 171.738281 231.191406 170.640625 231.191406 169.300781 C 231.191406 167.953125 232.613281 166.851562 234.355469 166.851562 Z M 141.601562 159.335938 C 143.144531 159.335938 144.417969 160.335938 144.417969 161.535156 C 144.417969 162.730469 143.144531 163.714844 141.601562 163.714844 C 140.035156 163.714844 138.773438 162.730469 138.773438 161.535156 C 138.773438 160.335938 140.035156 159.335938 141.601562 159.335938 Z M 186.3125 145.378906 C 189.0625 145.378906 191.300781 147.125 191.300781 149.261719 C 191.300781 151.382812 189.0625 153.125 186.3125 153.125 C 183.558594 153.125 181.308594 151.382812 181.308594 149.261719 C 181.308594 147.125 183.558594 145.378906 186.3125 145.378906 Z M 211.402344 160.757812 C 213.625 160.757812 215.449219 162.171875 215.449219 163.898438 C 215.449219 165.628906 213.625 167.042969 211.402344 167.042969 C 209.164062 167.042969 207.339844 165.628906 207.339844 163.898438 C 207.339844 162.171875 209.164062 160.757812 211.402344 160.757812 Z M 187.519531 214.9375 L 100.003906 214.9375 C 86.988281 214.9375 80.148438 216.230469 80.792969 201.933594 C 82.605469 162.152344 124.316406 131.375 187.519531 131.375 C 250.726562 131.375 293.980469 162.824219 294.621094 204.007812 C 294.820312 216.898438 288.449219 214.9375 276.71875 214.9375 Z M 187.519531 214.9375 " fillOpacity="1" fillRule="evenodd"/></g><g clipPath="url(#8462d0c48c)"><path fill="#000000" d="M 123.203125 363.191406 L 251.839844 363.191406 C 275.175781 363.191406 294.277344 354.21875 294.277344 330.878906 C 294.277344 321.871094 291.152344 321.757812 282.0625 321.757812 L 205.414062 321.757812 C 203.105469 322.289062 201.425781 323.667969 201.511719 327.777344 C 201.609375 332.117188 204.511719 335.371094 204.546875 338.855469 C 204.574219 343.164062 203.253906 346.699219 199.289062 346.535156 C 195.238281 346.359375 194.140625 341.945312 194.546875 338.390625 C 194.980469 334.472656 197.042969 331.628906 196.941406 327.203125 C 196.894531 324.914062 195.621094 322.777344 193.644531 321.757812 C 170.890625 321.757812 141.515625 330.605469 122.808594 343.335938 C 117.363281 332.125 113.3125 326.671875 100.277344 321.757812 L 93.867188 321.757812 C 84.707031 321.757812 80.765625 321.800781 80.765625 330.878906 C 80.765625 354.207031 99.867188 363.191406 123.203125 363.191406 " fillOpacity="1" fillRule="evenodd"/></g><g clipPath="url(#225a3cf4f1)"><path fill="#000000" d="M 206.609375 13.433594 L 203.855469 11.898438 L 193.917969 11.8125 L 190.867188 13.164062 L 189.742188 95.425781 C 195.164062 95.292969 200.523438 94.476562 205.511719 92.964844 M 168.433594 13.433594 L 171.1875 11.898438 L 181.113281 11.8125 L 184.175781 13.164062 L 185.296875 95.390625 C 179.867188 95.148438 174.507812 94.222656 169.519531 92.636719 Z M 122.859375 30.246094 L 125.5 27.671875 L 136.824219 26.054688 L 138.21875 27.566406 L 141.664062 66.3125 L 126.007812 66.3125 Z M 145.539062 19.257812 L 147.921875 17.230469 L 159.925781 16.996094 L 161.183594 18.726562 L 164.148438 90.613281 C 157.480469 87.660156 151.761719 83.375 147.910156 77.839844 Z M 229.488281 19.257812 L 227.117188 17.230469 L 215.117188 16.996094 L 213.859375 18.726562 L 210.871094 91 C 217.511719 88.109375 223.230469 83.796875 227.117188 78.03125 Z M 252.183594 30.246094 L 249.542969 27.671875 L 238.21875 26.054688 L 236.824219 27.566406 L 233.378906 66.3125 L 249.035156 66.3125 Z M 252.183594 30.246094 " fillOpacity="1" fillRule="evenodd"/></g><path fill="#000000" d="M 115.015625 74.363281 L 137.070312 74.363281 C 151.28125 112.058594 222.96875 114.355469 237.972656 74.363281 L 260.023438 74.363281 L 252.554688 136.285156 C 248.234375 134.300781 243.675781 132.53125 238.886719 130.972656 C 231.476562 128.566406 223.550781 126.679688 215.191406 125.386719 C 206.871094 124.109375 198.078125 123.398438 188.890625 123.335938 C 188.449219 123.335938 188.003906 123.332031 187.519531 123.332031 C 162.355469 123.332031 140.328125 128.042969 122.476562 136.222656 " fillOpacity="1" fillRule="evenodd"/><g fill="#000000" fillOpacity="1"><g transform="translate(11.474957, 276.490925)"><g><path d="M 37.046875 -56.308594 C 37.046875 -57.132812 36.550781 -57.628906 35.730469 -57.628906 L 5.433594 -57.628906 C 4.527344 -57.628906 4.117188 -57.132812 4.117188 -56.308594 L 4.117188 -1.316406 C 4.117188 -0.492188 4.527344 0 5.433594 0 L 13.996094 0 C 14.820312 0 15.3125 -0.492188 15.3125 -1.316406 L 15.3125 -21.816406 L 30.789062 -21.816406 C 31.613281 -21.816406 32.105469 -22.226562 32.105469 -23.132812 L 32.105469 -31.367188 C 32.105469 -32.1875 31.613281 -32.683594 30.789062 -32.683594 L 15.3125 -32.683594 L 15.3125 -46.761719 L 35.730469 -46.761719 C 36.550781 -46.761719 37.046875 -47.253906 37.046875 -48.078125 Z M 37.046875 -56.308594 "/></g></g></g><g fill="#000000" fillOpacity="1"><g transform="translate(52.625, 276.490925)"><g><path d="M 42.972656 0 C 43.960938 0 44.375 -0.492188 44.125 -1.398438 L 30.460938 -56.476562 C 30.296875 -57.296875 29.800781 -57.628906 29.0625 -57.628906 L 17.617188 -57.628906 C 16.875 -57.628906 16.382812 -57.296875 16.21875 -56.476562 L 2.550781 -1.398438 C 2.304688 -0.492188 2.714844 0 3.621094 0 L 11.691406 0 C 12.429688 0 12.84375 -0.410156 13.007812 -1.152344 L 15.558594 -11.527344 L 31.035156 -11.527344 L 33.671875 -1.152344 C 33.835938 -0.410156 34.246094 0 34.988281 0 Z M 28.484375 -21.074219 L 18.113281 -21.074219 L 23.296875 -43.46875 Z M 28.484375 -21.074219 "/></g></g></g><g fill="#000000" fillOpacity="1"><g transform="translate(99.289141, 276.490925)"><g><path d="M 15.972656 -57.628906 C 8.316406 -57.628906 4.117188 -53.511719 4.117188 -45.773438 L 4.117188 -31.53125 C 4.117188 -29.964844 4.855469 -28.976562 6.339844 -28.484375 L 26.097656 -22.0625 L 26.097656 -13.75 C 26.097656 -11.527344 24.945312 -10.457031 22.804688 -10.457031 L 18.359375 -10.457031 C 16.300781 -10.457031 15.066406 -11.527344 15.066406 -13.75 L 15.066406 -17.207031 C 15.066406 -18.113281 14.652344 -18.523438 13.75 -18.523438 L 5.433594 -18.523438 C 4.609375 -18.523438 4.117188 -18.113281 4.117188 -17.207031 L 4.117188 -11.855469 C 4.117188 -4.117188 8.316406 0 15.972656 0 L 25.191406 0 C 32.929688 0 37.046875 -4.117188 37.046875 -11.855469 L 37.046875 -27.332031 C 37.046875 -28.894531 36.304688 -29.882812 34.90625 -30.378906 L 14.984375 -36.800781 L 14.984375 -43.796875 C 14.984375 -45.9375 16.21875 -47.089844 18.277344 -47.089844 L 22.804688 -47.089844 C 25.027344 -47.089844 26.097656 -45.9375 26.097656 -43.796875 L 26.097656 -40.339844 C 26.097656 -39.515625 26.589844 -39.023438 27.414062 -39.023438 L 35.730469 -39.023438 C 36.632812 -39.023438 37.046875 -39.515625 37.046875 -40.339844 L 37.046875 -45.773438 C 37.046875 -53.511719 32.929688 -57.628906 25.191406 -57.628906 Z M 15.972656 -57.628906 "/></g></g></g><g fill="#000000" fillOpacity="1"><g transform="translate(140.439183, 276.490925)"><g><path d="M 34.082031 -57.628906 C 34.988281 -57.628906 35.398438 -57.132812 35.398438 -56.308594 L 35.398438 -48.078125 C 35.398438 -47.253906 34.988281 -46.761719 34.082031 -46.761719 L 24.53125 -46.761719 L 24.53125 -1.316406 C 24.53125 -0.410156 24.121094 0 23.214844 0 L 14.652344 0 C 13.832031 0 13.335938 -0.410156 13.335938 -1.316406 L 13.335938 -46.761719 L 3.785156 -46.761719 C 2.964844 -46.761719 2.46875 -47.253906 2.46875 -48.078125 L 2.46875 -56.308594 C 2.46875 -57.132812 2.964844 -57.628906 3.785156 -57.628906 Z M 34.082031 -57.628906 "/></g></g></g><g fill="#000000" fillOpacity="1"><g transform="translate(178.297231, 276.490925)"><g/></g></g><g fill="#000000" fillOpacity="1"><g transform="translate(198.872269, 276.490925)"><g><path d="M 37.046875 -56.308594 C 37.046875 -57.132812 36.550781 -57.628906 35.730469 -57.628906 L 5.433594 -57.628906 C 4.527344 -57.628906 4.117188 -57.132812 4.117188 -56.308594 L 4.117188 -1.316406 C 4.117188 -0.492188 4.527344 0 5.433594 0 L 13.996094 0 C 14.820312 0 15.3125 -0.492188 15.3125 -1.316406 L 15.3125 -21.816406 L 30.789062 -21.816406 C 31.613281 -21.816406 32.105469 -22.226562 32.105469 -23.132812 L 32.105469 -31.367188 C 32.105469 -32.1875 31.613281 -32.683594 30.789062 -32.683594 L 15.3125 -32.683594 L 15.3125 -46.761719 L 35.730469 -46.761719 C 36.550781 -46.761719 37.046875 -47.253906 37.046875 -48.078125 Z M 37.046875 -56.308594 "/></g></g></g><g fill="#000000" fillOpacity="1"><g transform="translate(240.022312, 276.490925)"><g><path d="M 4.117188 -11.855469 C 4.117188 -4.117188 8.234375 0 15.972656 0 L 25.191406 0 C 32.929688 0 37.046875 -4.117188 37.046875 -11.855469 L 37.046875 -45.773438 C 37.046875 -53.511719 32.929688 -57.628906 25.191406 -57.628906 L 15.972656 -57.628906 C 8.234375 -57.628906 4.117188 -53.511719 4.117188 -45.773438 Z M 18.113281 -10.621094 C 15.972656 -10.621094 14.820312 -11.691406 14.820312 -13.914062 L 14.820312 -43.714844 C 14.820312 -45.855469 15.972656 -47.007812 18.113281 -47.007812 L 23.378906 -47.007812 C 25.519531 -47.007812 26.671875 -45.855469 26.671875 -43.714844 L 26.671875 -13.914062 C 26.671875 -11.691406 25.519531 -10.621094 23.378906 -10.621094 Z M 18.113281 -10.621094 "/></g></g></g><g fill="#000000" fillOpacity="1"><g transform="translate(281.172354, 276.490925)"><g><path d="M 4.117188 -11.855469 C 4.117188 -4.117188 8.234375 0 15.972656 0 L 25.191406 0 C 32.929688 0 37.046875 -4.117188 37.046875 -11.855469 L 37.046875 -45.773438 C 37.046875 -53.511719 32.929688 -57.628906 25.191406 -57.628906 L 15.972656 -57.628906 C 8.234375 -57.628906 4.117188 -53.511719 4.117188 -45.773438 Z M 18.113281 -10.621094 C 15.972656 -10.621094 14.820312 -11.691406 14.820312 -13.914062 L 14.820312 -43.714844 C 14.820312 -45.855469 15.972656 -47.007812 18.113281 -47.007812 L 23.378906 -47.007812 C 25.519531 -47.007812 26.671875 -45.855469 26.671875 -43.714844 L 26.671875 -13.914062 C 26.671875 -11.691406 25.519531 -10.621094 23.378906 -10.621094 Z M 18.113281 -10.621094 "/></g></g></g><g fill="#000000" fillOpacity="1"><g transform="translate(322.322397, 276.490925)"><g><path d="M 4.117188 -1.316406 C 4.117188 -0.410156 4.527344 0 5.433594 0 L 25.191406 0 C 32.929688 0 37.046875 -4.117188 37.046875 -11.855469 L 37.046875 -45.691406 C 37.046875 -53.429688 32.929688 -57.628906 25.191406 -57.628906 L 5.433594 -57.628906 C 4.527344 -57.628906 4.117188 -57.132812 4.117188 -56.308594 Z M 15.3125 -10.867188 L 15.3125 -46.761719 L 22.886719 -46.761719 C 25.027344 -46.761719 26.179688 -45.609375 26.179688 -43.386719 L 26.179688 -14.160156 C 26.179688 -11.9375 25.027344 -10.867188 22.886719 -10.867188 Z M 15.3125 -10.867188 "/></g></g></g><g fill="#000000" fillOpacity="1"><g transform="translate(77.405062, 309.552781)"><g><path d="M 9.09375 0 L 5.921875 -5.734375 L 5.046875 -5.734375 L 5.046875 0 L 1.34375 0 L 1.34375 -15.1875 L 7.546875 -15.1875 C 8.742188 -15.1875 9.765625 -14.976562 10.609375 -14.5625 C 11.453125 -14.144531 12.082031 -13.570312 12.5 -12.84375 C 12.925781 -12.113281 13.140625 -11.300781 13.140625 -10.40625 C 13.140625 -9.394531 12.851562 -8.492188 12.28125 -7.703125 C 11.707031 -6.910156 10.867188 -6.347656 9.765625 -6.015625 L 13.265625 0 Z M 5.046875 -8.359375 L 7.34375 -8.359375 C 8.019531 -8.359375 8.523438 -8.519531 8.859375 -8.84375 C 9.203125 -9.175781 9.375 -9.644531 9.375 -10.25 C 9.375 -10.832031 9.203125 -11.289062 8.859375 -11.625 C 8.523438 -11.957031 8.019531 -12.125 7.34375 -12.125 L 5.046875 -12.125 Z M 5.046875 -8.359375 "/></g></g></g><g fill="#000000" fillOpacity="1"><g transform="translate(100.171702, 309.552781)"><g><path d="M 5.046875 -12.234375 L 5.046875 -9.15625 L 10 -9.15625 L 10 -6.296875 L 5.046875 -6.296875 L 5.046875 -2.96875 L 10.640625 -2.96875 L 10.640625 0 L 1.34375 0 L 1.34375 -15.1875 L 10.640625 -15.1875 L 10.640625 -12.234375 Z M 5.046875 -12.234375 "/></g></g></g><g fill="#000000" fillOpacity="1"><g transform="translate(120.537005, 309.552781)"><g><path d="M 6.84375 0.15625 C 5.726562 0.15625 4.726562 -0.0234375 3.84375 -0.390625 C 2.96875 -0.753906 2.265625 -1.285156 1.734375 -1.984375 C 1.210938 -2.691406 0.9375 -3.546875 0.90625 -4.546875 L 4.84375 -4.546875 C 4.90625 -3.984375 5.097656 -3.550781 5.421875 -3.25 C 5.753906 -2.957031 6.191406 -2.8125 6.734375 -2.8125 C 7.273438 -2.8125 7.703125 -2.9375 8.015625 -3.1875 C 8.335938 -3.445312 8.5 -3.796875 8.5 -4.234375 C 8.5 -4.609375 8.375 -4.921875 8.125 -5.171875 C 7.875 -5.421875 7.5625 -5.625 7.1875 -5.78125 C 6.820312 -5.9375 6.300781 -6.113281 5.625 -6.3125 C 4.644531 -6.625 3.84375 -6.929688 3.21875 -7.234375 C 2.601562 -7.535156 2.070312 -7.976562 1.625 -8.5625 C 1.175781 -9.15625 0.953125 -9.929688 0.953125 -10.890625 C 0.953125 -12.296875 1.460938 -13.398438 2.484375 -14.203125 C 3.515625 -15.003906 4.847656 -15.40625 6.484375 -15.40625 C 8.160156 -15.40625 9.507812 -15.003906 10.53125 -14.203125 C 11.5625 -13.398438 12.113281 -12.285156 12.1875 -10.859375 L 8.1875 -10.859375 C 8.15625 -11.347656 7.972656 -11.734375 7.640625 -12.015625 C 7.304688 -12.296875 6.878906 -12.4375 6.359375 -12.4375 C 5.910156 -12.4375 5.550781 -12.316406 5.28125 -12.078125 C 5.007812 -11.847656 4.875 -11.507812 4.875 -11.0625 C 4.875 -10.570312 5.101562 -10.1875 5.5625 -9.90625 C 6.019531 -9.632812 6.738281 -9.34375 7.71875 -9.03125 C 8.707031 -8.695312 9.503906 -8.378906 10.109375 -8.078125 C 10.722656 -7.773438 11.253906 -7.332031 11.703125 -6.75 C 12.148438 -6.175781 12.375 -5.429688 12.375 -4.515625 C 12.375 -3.648438 12.15625 -2.863281 11.71875 -2.15625 C 11.28125 -1.457031 10.640625 -0.894531 9.796875 -0.46875 C 8.960938 -0.0507812 7.976562 0.15625 6.84375 0.15625 Z M 6.84375 0.15625 "/></g></g></g><g fill="#000000" fillOpacity="1"><g transform="translate(142.503214, 309.552781)"><g><path d="M 12.265625 -15.1875 L 12.265625 -12.234375 L 8.25 -12.234375 L 8.25 0 L 4.546875 0 L 4.546875 -12.234375 L 0.515625 -12.234375 L 0.515625 -15.1875 Z M 12.265625 -15.1875 "/></g></g></g><g fill="#000000" fillOpacity="1"><g transform="translate(163.950206, 309.552781)"><g><path d="M 10.796875 -2.6875 L 5.125 -2.6875 L 4.21875 0 L 0.34375 0 L 5.84375 -15.1875 L 10.125 -15.1875 L 15.625 0 L 11.703125 0 Z M 9.84375 -5.546875 L 7.96875 -11.109375 L 6.109375 -5.546875 Z M 9.84375 -5.546875 "/></g></g></g><g fill="#000000" fillOpacity="1"><g transform="translate(188.555718, 309.552781)"><g><path d="M 4.984375 -15.1875 L 4.984375 -6.109375 C 4.984375 -5.191406 5.203125 -4.488281 5.640625 -4 C 6.085938 -3.507812 6.75 -3.265625 7.625 -3.265625 C 8.488281 -3.265625 9.148438 -3.507812 9.609375 -4 C 10.066406 -4.488281 10.296875 -5.191406 10.296875 -6.109375 L 10.296875 -15.1875 L 14 -15.1875 L 14 -6.125 C 14 -4.769531 13.707031 -3.625 13.125 -2.6875 C 12.550781 -1.75 11.773438 -1.039062 10.796875 -0.5625 C 9.828125 -0.0820312 8.742188 0.15625 7.546875 0.15625 C 6.347656 0.15625 5.273438 -0.078125 4.328125 -0.546875 C 3.390625 -1.015625 2.644531 -1.722656 2.09375 -2.671875 C 1.550781 -3.617188 1.28125 -4.769531 1.28125 -6.125 L 1.28125 -15.1875 Z M 4.984375 -15.1875 "/></g></g></g><g fill="#000000" fillOpacity="1"><g transform="translate(212.468946, 309.552781)"><g><path d="M 9.09375 0 L 5.921875 -5.734375 L 5.046875 -5.734375 L 5.046875 0 L 1.34375 0 L 1.34375 -15.1875 L 7.546875 -15.1875 C 8.742188 -15.1875 9.765625 -14.976562 10.609375 -14.5625 C 11.453125 -14.144531 12.082031 -13.570312 12.5 -12.84375 C 12.925781 -12.113281 13.140625 -11.300781 13.140625 -10.40625 C 13.140625 -9.394531 12.851562 -8.492188 12.28125 -7.703125 C 11.707031 -6.910156 10.867188 -6.347656 9.765625 -6.015625 L 13.265625 0 Z M 5.046875 -8.359375 L 7.34375 -8.359375 C 8.019531 -8.359375 8.523438 -8.519531 8.859375 -8.84375 C 9.203125 -9.175781 9.375 -9.644531 9.375 -10.25 C 9.375 -10.832031 9.203125 -11.289062 8.859375 -11.625 C 8.523438 -11.957031 8.019531 -12.125 7.34375 -12.125 L 5.046875 -12.125 Z M 5.046875 -8.359375 "/></g></g></g><g fill="#000000" fillOpacity="1"><g transform="translate(235.235582, 309.552781)"><g><path d="M 10.796875 -2.6875 L 5.125 -2.6875 L 4.21875 0 L 0.34375 0 L 5.84375 -15.1875 L 10.125 -15.1875 L 15.625 0 L 11.703125 0 Z M 9.84375 -5.546875 L 7.96875 -11.109375 L 6.109375 -5.546875 Z M 9.84375 -5.546875 "/></g></g></g><g fill="#000000" fillOpacity="1"><g transform="translate(259.841087, 309.552781)"><g><path d="M 14.9375 0 L 11.234375 0 L 5.046875 -9.375 L 5.046875 0 L 1.34375 0 L 1.34375 -15.1875 L 5.046875 -15.1875 L 11.234375 -5.78125 L 11.234375 -15.1875 L 14.9375 -15.1875 Z M 14.9375 0 "/></g></g></g><g fill="#000000" fillOpacity="1"><g transform="translate(284.771097, 309.552781)"><g><path d="M 12.265625 -15.1875 L 12.265625 -12.234375 L 8.25 -12.234375 L 8.25 0 L 4.546875 0 L 4.546875 -12.234375 L 0.515625 -12.234375 L 0.515625 -15.1875 Z M 12.265625 -15.1875 "/></g></g></g></svg>