<svg width="248" height="51" viewBox="0 0 248 51" fill="none" xmlns="http://www.w3.org/2000/svg">
<g clip-path="url(#clip0_377_45)">
<path d="M244.471 43.5742H246.399V45.9557H247.17L249.098 43.5742H251.258L248.79 46.6471L251.412 50.0274H249.175L247.247 47.569H246.476V50.0274H244.548V43.5742H244.471Z" fill="#757575"/>
<path d="M235.603 43.5742H239.382C241.079 43.5742 241.927 44.4193 241.927 45.8789C241.927 46.8776 241.464 47.6458 240.693 47.9531L242.235 50.0274H239.999L238.765 48.3372H237.454V50.0274H235.525V43.5742H235.603ZM239.073 46.8776C239.69 46.8776 239.922 46.4935 239.922 46.0326C239.922 45.5716 239.69 45.1875 239.073 45.1875H237.454V46.8776H239.073Z" fill="#757575"/>
<path d="M226.039 46.8005C226.039 44.7263 227.504 43.3435 229.741 43.3435C231.978 43.3435 233.443 44.6495 233.443 46.8005C233.443 48.8748 231.978 50.2576 229.741 50.2576C227.504 50.2576 226.039 48.9516 226.039 46.8005ZM231.515 46.8005C231.515 45.6482 230.898 45.0336 229.741 45.0336C228.584 45.0336 227.967 45.725 227.967 46.8005C227.967 47.9529 228.584 48.5675 229.741 48.5675C230.898 48.6443 231.515 47.9529 231.515 46.8005Z" fill="#757575"/>
<path d="M213.699 43.5742H215.782L216.861 48.03H216.939L218.327 43.5742H220.255L221.566 48.03H221.643L222.646 43.5742H224.651L222.954 50.0274H220.409L219.252 46.1094H219.175L217.941 50.0274H215.396L213.699 43.5742Z" fill="#757575"/>
<path d="M207.914 45.2643H205.678L205.755 43.5742H212.079L212.156 45.2643H209.92V50.0274H207.992V45.2643H207.914Z" fill="#757575"/>
<path d="M198.119 43.5742H203.749L203.827 45.1107H200.047V46.0326H203.055V47.4922H200.047V48.4909H203.981L203.904 50.0274H198.119V43.5742Z" fill="#757575"/>
<path d="M188.941 43.5742H190.947L193.723 47.2617V43.5742H195.574V50.0274H193.646L190.792 46.263V50.0274H188.941V43.5742Z" fill="#757575"/>
<path d="M245.783 9.31128C237.762 9.31128 232.055 14.8425 232.055 22.5248V23.4467C232.055 31.129 237.762 36.6603 245.783 36.6603C253.804 36.6603 259.512 31.129 259.512 23.4467V22.5248C259.512 14.8425 253.804 9.31128 245.783 9.31128ZM251.413 23.2162C251.413 27.2879 249.331 30.1303 245.783 30.1303C242.235 30.1303 240.153 27.211 240.153 23.2162V22.7553C240.153 18.6837 242.235 15.8412 245.783 15.8412C249.331 15.8412 251.413 18.7605 251.413 22.7553V23.2162Z" fill="#757575"/>
<path d="M224.342 30.1299C222.028 30.1299 221.179 28.9775 221.179 26.596V15.764H230.435V9.69495H221.179V3.70276L213.312 4.8551V27.3642C213.312 33.5101 216.475 36.6598 222.799 36.6598C225.576 36.6598 228.892 35.8148 231.591 34.2783L229.355 28.7471C227.735 29.5921 225.499 30.1299 224.342 30.1299Z" fill="#757575"/>
<path d="M208.84 0.32251H200.973V36.1989H208.84V0.32251Z" fill="#757575"/>
<path d="M184.392 9.31128C180.921 9.31128 177.296 10.2332 172.9 12.6147L175.368 18.6837C179.225 16.5326 182.464 15.6108 184.778 15.6108C187.4 15.6108 188.634 16.6095 188.634 17.9155V17.9923C188.634 18.9142 187.94 19.3751 186.166 19.5287L183.081 19.836C175.445 20.6811 172.283 23.9845 172.283 28.517V28.8243C172.283 33.2032 175.908 36.5834 180.998 36.5834C184.315 36.5834 187.246 35.2006 189.02 32.6655L189.56 36.1225H196.501V20.5274C196.424 13.1524 192.182 9.31128 184.392 9.31128ZM183.698 30.6681C181.153 30.6681 179.919 29.6694 179.919 28.1329V28.0561C179.919 26.6733 180.69 25.7514 183.467 25.2905L184.701 25.1368C186.474 24.9063 187.554 24.5991 188.557 23.9845V25.9819C188.557 28.978 186.706 30.6681 183.698 30.6681Z" fill="#757575"/>
<path d="M156.703 9.31128C148.682 9.31128 142.975 14.8425 142.975 22.5248V23.4467C142.975 31.129 148.682 36.6603 156.703 36.6603C164.724 36.6603 170.432 31.129 170.432 23.4467V22.5248C170.432 14.8425 164.724 9.31128 156.703 9.31128ZM162.333 23.2162C162.333 27.2879 160.251 30.1303 156.703 30.1303C153.155 30.1303 151.073 27.211 151.073 23.2162V22.7553C151.073 18.6837 153.155 15.8412 156.703 15.8412C160.251 15.8412 162.333 18.7605 162.333 22.7553V23.2162Z" fill="#757575"/>
<path d="M139.427 0.32251H131.561V36.1989H139.427V0.32251Z" fill="#757575"/>
<path d="M115.054 9.31128C111.583 9.31128 107.959 10.2332 103.562 12.6147L106.03 18.6837C109.887 16.5326 113.126 15.6108 115.44 15.6108C118.062 15.6108 119.296 16.6095 119.296 17.9155V17.9923C119.296 18.9142 118.602 19.3751 116.828 19.5287L113.743 19.836C106.108 20.6811 102.945 23.9845 102.945 28.517V28.8243C102.945 33.2032 106.57 36.5834 111.661 36.5834C114.977 36.5834 117.908 35.2006 119.682 32.6655L120.222 36.1225H127.163V20.5274C127.086 13.1524 122.767 9.31128 115.054 9.31128ZM114.36 30.6681C111.815 30.6681 110.581 29.6694 110.581 28.1329V28.0561C110.581 26.6733 111.352 25.7514 114.129 25.2905L115.363 25.1368C117.137 24.9063 118.216 24.5991 119.219 23.9845V25.9819C119.219 28.978 117.291 30.6681 114.36 30.6681Z" fill="#757575"/>
<path d="M89.603 9.31128C86.0552 9.31128 83.1244 10.9246 81.5818 13.3829L80.9648 9.77222H74.0234V45.1876H81.8903V32.8959C83.3558 35.2006 86.2094 36.6603 89.603 36.6603C95.9274 36.6603 101.018 31.129 101.018 23.4467V22.5248C101.095 14.8425 95.9274 9.31128 89.603 9.31128ZM92.9194 23.2162C92.9194 27.2879 90.837 30.1303 87.2892 30.1303C83.7414 30.1303 81.659 27.211 81.659 23.2162V22.7553C81.659 18.6837 83.7414 15.8412 87.2892 15.8412C90.837 15.8412 92.9194 18.7605 92.9194 22.7553V23.2162Z" fill="#757575"/>
<path d="M49.8034 9.15716L40.9338 0.32251L32.0643 9.15716L36.4605 13.5361L14.248 35.7379L23.1176 44.5726L31.9872 35.7379L27.5909 31.359L49.8034 9.15716Z" fill="#757575"/>
<path d="M23.1949 0.32251L0.982422 22.4475L9.85198 31.2822L32.0644 9.15716L23.1949 0.32251Z" fill="#757575"/>
<path d="M54.2759 13.5361L31.9863 35.738L40.8559 44.5726L63.0683 22.4476L54.2759 13.5361Z" fill="#757575"/>
</g>
<defs>
<clipPath id="clip0_377_45">
<rect width="268.4" height="49.935" fill="white" transform="translate(0.984375 0.32251)"/>
</clipPath>
</defs>
</svg>
