<svg width="313" height="41" viewBox="0 0 313 41" fill="none" xmlns="http://www.w3.org/2000/svg">
<path d="M165.973 24.0466V39.4942H158.23V0.524048H165.973V16.6738H181.184V0.524048H188.926V39.424H181.184V24.0466H165.973Z" fill="#757575"/>
<path d="M0.916016 33.2449L6.67142 28.1893C9.4806 30.5766 12.9749 31.9108 16.6063 31.981C19.8951 31.981 21.8821 30.6469 21.8821 28.4702V28.3999C21.8821 26.2934 20.6488 25.2402 14.5508 23.6252C7.21955 21.7294 2.42338 19.6931 2.42338 12.1799V12.1097C2.42338 5.2987 7.76768 0.804843 15.236 0.804843C20.1692 0.734627 24.9654 2.41982 28.8023 5.57957L23.0469 10.7054C20.7173 9.09039 17.9767 8.24779 15.099 8.10736C12.0157 8.10736 10.3713 9.58191 10.3713 11.3373V11.4075C10.3713 13.8651 11.9472 14.6375 18.2507 16.3227C25.6505 18.2888 29.8301 21.0272 29.8301 27.5573V27.6978C29.8301 35.1407 24.2802 39.2835 16.4008 39.2835C10.7139 39.2835 5.23257 37.1068 0.916016 33.2449Z" fill="#757575"/>
<path d="M59.7717 19.5525C59.0181 17.8673 57.9903 16.3927 56.62 15.1288C53.8793 12.601 50.3164 11.1967 46.6165 11.2669C44.7666 11.2669 42.9852 11.618 41.3408 12.3202C39.6964 13.0223 38.1205 14.0054 36.8187 15.2693C35.5168 16.5332 34.4206 18.0077 33.6669 19.6929C32.8447 21.5185 32.4336 23.4144 32.4336 25.4507C32.4336 27.4167 32.8447 29.3828 33.6669 31.2084C34.4206 32.8936 35.4483 34.3682 36.8187 35.6321C38.1205 36.8959 39.6964 37.879 41.3408 38.5811C43.0537 39.2833 44.8351 39.6344 46.6851 39.6344C48.535 39.6344 50.385 39.2833 52.1664 38.5811C53.8793 37.879 55.3867 36.8959 56.6885 35.6321C57.9903 34.3682 59.0866 32.8936 59.8403 31.2084C60.6625 29.3828 61.0051 27.4869 61.0051 25.4507V25.3804C60.9365 23.3442 60.5939 21.3781 59.7717 19.5525ZM52.509 28.1189C52.2349 28.9615 51.7553 29.7339 51.1386 30.3658C50.522 30.9978 49.8368 31.4893 49.0831 31.8404C48.2609 32.1914 47.3702 32.4021 46.548 32.4021C45.6573 32.4021 44.8351 32.2617 44.0814 31.8404C43.3277 31.4893 42.6426 30.9978 42.0259 30.3658C41.4093 29.7339 40.9297 28.9615 40.5871 28.1189C40.2445 27.2061 40.1075 26.2933 40.1075 25.3102C40.1075 24.3272 40.2445 23.4144 40.5871 22.5016C40.9297 21.659 41.4093 20.8866 42.0259 20.2546C42.5741 19.6227 43.2592 19.1312 44.0814 18.7801C44.8351 18.429 45.7258 18.2184 46.548 18.2184C47.4387 18.2184 48.3295 18.3588 49.0831 18.7801C49.8368 19.1312 50.522 19.6227 51.1386 20.2546C51.7553 20.9568 52.1664 21.7292 52.509 22.5718C52.8516 23.4846 52.9886 24.3974 52.9886 25.3804C52.9886 26.2933 52.8516 27.2061 52.509 28.1189Z" fill="#757575"/>
<path d="M219.758 19.5526C219.005 17.8674 217.908 16.3928 216.606 15.1289C215.305 13.865 213.729 12.882 212.084 12.1798C210.303 11.4777 208.453 11.1266 206.603 11.1968C204.753 11.1968 202.972 11.5479 201.259 12.1798C199.614 12.882 198.038 13.865 196.737 15.1289C195.435 16.3928 194.339 17.8674 193.585 19.5526C192.763 21.3782 192.352 23.274 192.352 25.3103V25.3805C192.352 27.3466 192.763 29.3127 193.585 31.1383C194.339 32.8235 195.435 34.298 196.737 35.5619C198.038 36.8258 199.614 37.8089 201.259 38.511C202.972 39.2132 204.753 39.5643 206.603 39.5643C208.453 39.5643 210.371 39.2132 212.084 38.511C213.729 37.8089 215.305 36.8258 216.606 35.5619C217.908 34.298 219.005 32.8235 219.758 31.1383C220.512 29.3127 220.923 27.4168 220.923 25.3805V25.3103C220.923 23.274 220.512 21.308 219.758 19.5526ZM212.495 28.119C212.153 28.9616 211.673 29.734 211.057 30.3659C210.508 30.9979 209.755 31.4894 209.001 31.8405C207.357 32.5426 205.575 32.5426 203.931 31.8405C203.177 31.4894 202.492 30.9979 201.875 30.3659C201.259 29.734 200.779 28.9616 200.437 28.119C200.094 27.2062 199.957 26.2934 199.957 25.3103C199.957 24.3273 200.094 23.4145 200.437 22.5017C200.779 21.6591 201.259 20.8867 201.875 20.2547C202.424 19.6228 203.109 19.1313 203.931 18.7802C204.685 18.4291 205.575 18.2185 206.466 18.2185C207.357 18.2185 208.247 18.3589 209.001 18.7802C209.755 19.1313 210.44 19.6228 211.057 20.2547C211.673 20.8867 212.153 21.6591 212.495 22.5017C212.838 23.4145 212.975 24.3273 212.975 25.3103C212.975 26.2934 212.838 27.2062 212.495 28.119Z" fill="#757575"/>
<path d="M152.817 0.524048H145.006V12.9524C144.664 12.7417 144.321 12.6013 143.979 12.4609C142.197 11.7587 140.347 11.4076 138.497 11.4778C134.866 11.4778 131.303 12.8822 128.631 15.41C127.329 16.6738 126.233 18.1484 125.479 19.8336C124.657 21.589 124.314 23.5551 124.314 25.5211V25.6616C124.314 27.6276 124.726 29.5937 125.548 31.4193C126.301 33.1045 127.329 34.5791 128.7 35.843C131.372 38.3708 134.935 39.7751 138.566 39.7751C140.416 39.7751 142.266 39.4942 144.047 38.7921C145.692 38.0899 147.268 37.1069 148.569 35.843C149.871 34.5791 150.967 33.1045 151.721 31.4193C152.475 29.5937 152.886 27.6978 152.886 25.7318V25.5913C152.886 25.4509 152.886 25.3105 152.886 25.17L152.817 0.524048ZM144.39 28.4702C144.047 29.3128 143.568 30.0852 142.951 30.7172C142.403 31.3491 141.718 31.8406 140.895 32.1917C140.073 32.5428 139.251 32.7534 138.36 32.7534C137.47 32.7534 136.647 32.613 135.825 32.1917C135.072 31.8406 134.386 31.3491 133.77 30.7172C133.153 30.0852 132.673 29.3128 132.331 28.4702C131.714 26.6446 131.714 24.7487 132.331 22.9231C132.673 22.0805 133.153 21.3081 133.77 20.6762C134.318 20.0442 135.003 19.5527 135.825 19.2016C136.647 18.7803 137.538 18.5697 138.429 18.5697C139.32 18.5697 140.21 18.7101 140.964 19.1314C141.718 19.4825 142.403 19.974 143.02 20.606C143.636 21.2379 144.116 22.0103 144.458 22.8529C145.075 24.6785 145.075 26.5744 144.458 28.4L144.39 28.4702Z" fill="#757575"/>
<path d="M313.01 0.524048H305.199V12.9524C304.857 12.7417 304.514 12.6013 304.171 12.4609C302.39 11.7587 300.54 11.4076 298.69 11.4778C295.059 11.4778 291.564 12.8822 288.892 15.41C287.59 16.6738 286.494 18.1484 285.74 19.8336C284.918 21.589 284.507 23.5551 284.576 25.5211V25.6616C284.576 27.6276 284.987 29.5937 285.809 31.3491C286.563 33.0343 287.59 34.5088 288.892 35.7727C291.564 38.3005 295.127 39.7049 298.759 39.7049C300.609 39.7049 302.527 39.3538 304.24 38.7218C305.884 38.0197 307.46 37.0366 308.762 35.7727C310.064 34.5088 311.092 33.0343 311.845 31.4193C312.599 29.5937 313.01 27.6978 313.01 25.7318V25.5913C313.01 25.4509 313.01 25.3105 313.01 25.17V0.524048ZM304.651 28.4702C304.377 29.3128 303.897 30.0852 303.281 30.7172C302.733 31.3491 302.047 31.8406 301.225 32.1917C300.403 32.5428 299.581 32.7534 298.69 32.7534C297.799 32.7534 296.977 32.613 296.155 32.1917C295.401 31.8406 294.716 31.3491 294.1 30.7172C293.483 30.0852 293.003 29.3128 292.661 28.4702C292.044 26.6446 292.044 24.7487 292.661 22.9231C293.003 22.0805 293.483 21.3081 294.1 20.6762C294.648 20.0442 295.333 19.5527 296.155 19.2016C296.909 18.8506 297.799 18.6399 298.69 18.6399C299.581 18.6399 300.472 18.7803 301.225 19.2016C301.979 19.5527 302.664 20.0442 303.281 20.6762C303.897 21.3081 304.309 22.0805 304.651 22.9231C305.268 24.6785 305.268 26.6446 304.651 28.4702Z" fill="#757575"/>
<path d="M83.2737 12.0398V26.5044C83.2737 27.4874 83.1367 28.4705 82.8626 29.4535C82.6571 30.2259 82.246 30.928 81.6978 31.4898C81.2182 31.9813 80.6016 32.4026 79.9164 32.6835C79.1627 32.9643 78.409 33.1048 77.6554 33.0345C76.9017 33.0345 76.148 32.8941 75.3943 32.6835C74.6406 32.4026 74.024 31.9813 73.4758 31.4898C72.8592 30.928 72.4481 30.2259 72.174 29.4535C71.8314 28.5407 71.6944 27.4874 71.6944 26.5044V12.0398H64.4316V26.9257C64.4316 28.8918 64.7742 30.7876 65.4594 32.543C66.076 34.158 67.0353 35.5623 68.2686 36.6858C69.5019 37.8093 71.0092 38.6519 72.5851 39.2136C74.298 39.7753 76.148 40.0562 77.9294 40.0562C79.7109 40.0562 81.4238 39.7753 83.1367 39.2136C84.6441 38.6519 86.0144 37.8093 87.2477 36.756C88.4125 35.6325 89.3032 34.2282 89.8513 32.6132C90.468 30.7876 90.8106 28.8918 90.742 26.9959V12.0398H83.2737Z" fill="#757575"/>
<path d="M102.321 38.3708V23.9062C102.321 22.9232 102.458 21.9401 102.732 20.9571C102.937 20.1847 103.348 19.4825 103.896 18.9208C104.376 18.3591 104.993 18.008 105.678 17.7271C106.432 17.4463 107.185 17.3058 107.939 17.3058C108.761 17.3058 109.515 17.4463 110.268 17.7271C111.022 18.008 111.639 18.4293 112.187 18.9208C112.804 19.4825 113.215 20.1847 113.489 20.9571C113.831 21.8699 113.968 22.9232 113.968 23.9062V38.3708H121.163V23.4147C121.163 21.4486 120.82 19.5528 120.135 17.7973C119.518 16.1824 118.559 14.778 117.326 13.6546C116.092 12.5311 114.585 11.6885 113.009 11.1268C111.296 10.565 109.446 10.2842 107.665 10.2842C105.952 10.2842 104.239 10.565 102.595 11.1268C101.087 11.6885 99.6484 12.5311 98.4836 13.5844C97.3188 14.7078 96.3596 16.1122 95.8115 17.7271C95.1948 19.5528 94.8522 21.4486 94.9208 23.3445V38.3006H102.321V38.3708Z" fill="#757575"/>
<path d="M243.258 12.0398V26.5044C243.258 27.4874 243.121 28.4705 242.847 29.4535C242.641 30.2259 242.23 30.928 241.682 31.4898C241.203 32.0515 240.586 32.4026 239.901 32.6835C239.147 32.9643 238.393 33.1048 237.64 33.0345C236.818 33.0345 236.064 32.8941 235.31 32.6835C234.556 32.4026 233.94 31.9813 233.392 31.4898C232.775 30.928 232.364 30.2259 232.09 29.4535C231.747 28.5407 231.61 27.4874 231.61 26.5044V12.0398H224.416V26.9257C224.416 28.8918 224.759 30.7876 225.444 32.543C226.06 34.158 227.02 35.5623 228.253 36.6858C229.486 37.8093 230.994 38.6519 232.569 39.2136C234.282 39.7753 236.132 40.0562 237.914 40.0562C239.695 40.0562 241.477 39.7753 243.121 39.2136C244.628 38.6519 245.999 37.8093 247.164 36.756C248.328 35.6325 249.288 34.2282 249.836 32.6132C250.452 30.7876 250.795 28.8918 250.726 26.9959V12.0398H243.258Z" fill="#757575"/>
<path d="M262.24 38.3705V23.9059C262.24 22.9229 262.377 21.9399 262.651 20.9568C262.857 20.1845 263.268 19.4823 263.816 18.9206C264.296 18.3588 264.912 18.0077 265.597 17.7269C266.351 17.446 267.105 17.3056 267.858 17.3056C268.681 17.3056 269.434 17.446 270.188 17.7269C270.942 18.0077 271.558 18.429 272.106 18.9206C272.723 19.4823 273.134 20.1845 273.408 20.9568C273.751 21.8697 273.888 22.9229 273.888 23.9059V38.3705H281.151V23.4144C281.151 21.4484 280.808 19.5525 280.191 17.7971C279.575 16.1821 278.615 14.7778 277.451 13.6543C276.217 12.5309 274.71 11.6883 273.134 11.1265C271.421 10.5648 269.571 10.2137 267.79 10.2839C266.008 10.2839 264.227 10.5648 262.583 11.1265C261.075 11.6883 259.705 12.5309 258.54 13.5841C257.375 14.7076 256.485 16.1119 255.936 17.7269C255.32 19.5525 254.977 21.4484 255.046 23.3442V38.3003H262.24V38.3705Z" fill="#757575"/>
</svg>
