<svg width="331" height="67" viewBox="0 0 331 67" fill="none" xmlns="http://www.w3.org/2000/svg">
<g clip-path="url(#clip0_377_18)">
<path d="M8.64295 20.9279H2.16504V15.6469H8.64295V5.578H14.4167V15.6469H23.4999V20.9279H14.4167V42.1219C14.4167 43.6239 14.6984 44.7036 15.2617 45.3608C15.8719 45.9711 16.9046 46.2761 18.3598 46.2761H24.6266V51.5571H18.0078C14.628 51.5571 12.2105 50.806 10.7553 49.3038C9.34708 47.8018 8.64295 45.4312 8.64295 42.1922V20.9279Z" fill="#757575"/>
<path d="M43.2284 51.9797C39.7548 51.9797 36.6567 51.2052 33.934 49.656C31.2583 48.107 29.1694 45.9477 27.6674 43.1782C26.1652 40.4087 25.4141 37.2166 25.4141 33.6021C25.4141 29.9877 26.1652 26.7956 27.6674 24.0261C29.1694 21.2565 31.2583 19.0973 33.934 17.5482C36.6567 15.9991 39.7548 15.2246 43.2284 15.2246C46.7022 15.2246 49.7767 15.9991 52.4524 17.5482C55.1749 19.0973 57.2873 21.2565 58.7895 24.0261C60.2915 26.7956 61.0427 29.9877 61.0427 33.6021C61.0427 37.2166 60.2915 40.4087 58.7895 43.1782C57.2873 45.9477 55.1749 48.107 52.4524 49.656C49.7767 51.2052 46.7022 51.9797 43.2284 51.9797ZM43.2284 46.8397C45.5755 46.8397 47.6409 46.2762 49.4247 45.1498C51.2554 44.0231 52.6636 42.4506 53.6494 40.4322C54.6352 38.4136 55.1281 36.137 55.1281 33.6021C55.1281 31.0673 54.6352 28.7907 53.6494 26.7723C52.6636 24.7537 51.2554 23.1811 49.4247 22.0547C47.6409 20.928 45.5755 20.3647 43.2284 20.3647C40.8814 20.3647 38.7925 20.928 36.9617 22.0547C35.178 23.1811 33.7931 24.7537 32.8073 26.7723C31.8218 28.7907 31.3289 31.0673 31.3289 33.6021C31.3289 36.137 31.8218 38.4136 32.8073 40.4322C33.7931 42.4506 35.178 44.0231 36.9617 45.1498C38.7925 46.2762 40.8814 46.8397 43.2284 46.8397Z" fill="#757575"/>
<path d="M100.585 15.6471V49.7969C100.585 60.6404 94.6471 66.0621 82.7709 66.0621C78.1238 66.0621 74.3214 65.006 71.3643 62.8936C68.4539 60.7811 66.764 57.7769 66.2944 53.8809H72.2092C72.6786 56.134 73.8756 57.8709 75.8001 59.0912C77.7247 60.3117 80.1892 60.922 83.1934 60.922C90.9388 60.922 94.8114 57.1433 94.8114 49.5857V45.361C92.2296 49.7734 88.1222 51.9797 82.4894 51.9797C79.1564 51.9797 76.1757 51.2521 73.5468 49.7969C70.9652 48.3417 68.9233 46.2294 67.4211 43.4599C65.9659 40.6904 65.2383 37.4045 65.2383 33.6021C65.2383 29.9877 65.9659 26.7956 67.4211 24.0261C68.9233 21.2565 70.9887 19.0973 73.6174 17.5482C76.246 15.9991 79.2034 15.2246 82.4894 15.2246C85.3997 15.2246 87.8875 15.8114 89.953 16.9849C92.0184 18.1115 93.6377 19.731 94.8114 21.8433L95.5858 15.6471H100.585ZM83.0526 46.8397C85.3527 46.8397 87.3946 46.2998 89.1783 45.2201C91.0091 44.0935 92.4175 42.5444 93.4031 40.5731C94.3889 38.5544 94.8818 36.2778 94.8818 33.743C94.8818 31.1611 94.3889 28.861 93.4031 26.8426C92.4175 24.7772 91.0091 23.1811 89.1783 22.0547C87.3946 20.928 85.3527 20.3647 83.0526 20.3647C79.4849 20.3647 76.5981 21.6086 74.392 24.0966C72.2325 26.5374 71.1529 29.706 71.1529 33.6021C71.1529 37.4983 72.2325 40.6904 74.392 43.1782C76.5981 45.6192 79.4849 46.8397 83.0526 46.8397Z" fill="#757575"/>
<path d="M106.025 33.6021C106.025 29.9406 106.729 26.7253 108.138 23.9557C109.593 21.1862 111.611 19.0503 114.193 17.5482C116.775 15.9991 119.732 15.2246 123.065 15.2246C126.351 15.2246 129.261 15.9053 131.796 17.2666C134.331 18.6279 136.326 20.5994 137.781 23.1811C139.236 25.763 140.011 28.7907 140.105 32.2643C140.105 32.7807 140.058 33.6021 139.964 34.7288H112.081V35.2217C112.175 38.7423 113.254 41.5586 115.32 43.6711C117.385 45.7833 120.084 46.8397 123.417 46.8397C125.999 46.8397 128.182 46.2059 129.965 44.9384C131.796 43.6241 133.017 41.8168 133.627 39.5167H139.471C138.767 43.1782 137.007 46.1824 134.19 48.5296C131.374 50.8297 127.924 51.9797 123.839 51.9797C120.272 51.9797 117.15 51.2285 114.475 49.7265C111.799 48.1775 109.71 46.0182 108.208 43.2485C106.753 40.4322 106.025 37.2166 106.025 33.6021ZM134.12 29.9406C133.838 26.8896 132.688 24.519 130.67 22.8291C128.698 21.1392 126.187 20.2943 123.135 20.2943C120.413 20.2943 118.019 21.1862 115.953 22.9699C113.888 24.7537 112.714 27.0773 112.433 29.9406H134.12Z" fill="#757575"/>
<path d="M147.519 20.9279H141.041V15.6469H147.519V5.578H153.293V15.6469H162.376V20.9279H153.293V42.1219C153.293 43.6239 153.574 44.7036 154.138 45.3608C154.748 45.9711 155.781 46.2761 157.236 46.2761H163.503V51.5571H156.884C153.504 51.5571 151.086 50.806 149.631 49.3038C148.223 47.8018 147.519 45.4312 147.519 42.1922V20.9279Z" fill="#757575"/>
<path d="M184.052 15.2242C188.418 15.2242 191.938 16.5386 194.614 19.1673C197.29 21.7961 198.628 25.927 198.628 31.5598V51.5569H192.854V31.9119C192.854 28.2036 192.009 25.387 190.319 23.4625C188.629 21.4909 186.211 20.5052 183.066 20.5052C179.734 20.5052 177.081 21.6788 175.11 24.0257C173.185 26.3728 172.223 29.5647 172.223 33.6018V51.5569H166.449V2.26843H172.223V21.5614C173.396 19.6837 174.945 18.1581 176.87 16.9846C178.842 15.811 181.236 15.2242 184.052 15.2242Z" fill="#757575"/>
<path d="M203.562 33.6021C203.562 29.9406 204.267 26.7253 205.675 23.9557C207.13 21.1862 209.148 19.0503 211.73 17.5482C214.312 15.9991 217.269 15.2246 220.602 15.2246C223.887 15.2246 226.798 15.9053 229.332 17.2666C231.869 18.6279 233.864 20.5994 235.318 23.1811C236.773 25.763 237.549 28.7907 237.642 32.2643C237.642 32.7807 237.594 33.6021 237.501 34.7288H209.618V35.2217C209.712 38.7423 210.792 41.5586 212.856 43.6711C214.922 45.7833 217.62 46.8397 220.954 46.8397C223.536 46.8397 225.718 46.2059 227.503 44.9384C229.332 43.6241 230.554 41.8168 231.163 39.5167H237.008C236.304 43.1782 234.544 46.1824 231.727 48.5296C228.91 50.8297 225.46 51.9797 221.376 51.9797C217.81 51.9797 214.687 51.2285 212.011 49.7265C209.335 48.1775 207.247 46.0182 205.745 43.2485C204.29 40.4322 203.562 37.2166 203.562 33.6021ZM231.656 29.9406C231.375 26.8896 230.225 24.519 228.207 22.8291C226.234 21.1392 223.723 20.2943 220.673 20.2943C217.949 20.2943 215.556 21.1862 213.49 22.9699C211.424 24.7537 210.251 27.0773 209.97 29.9406H231.656Z" fill="#757575"/>
<path d="M261.311 15.647V21.2799H258.423C254.996 21.2799 252.533 22.4299 251.031 24.73C249.576 27.0302 248.848 29.8702 248.848 33.25V51.5572H243.074V15.647H248.074L248.848 21.0688C249.88 19.4258 251.218 18.1114 252.861 17.1256C254.505 16.1399 256.781 15.647 259.692 15.647H261.311Z" fill="#757575"/>
<path d="M320.121 46.2762V51.5573H316.952C314.651 51.5573 313.009 51.0879 312.023 50.1489C311.037 49.2101 310.521 47.8255 310.473 45.9947C307.703 49.9847 303.69 51.9797 298.434 51.9797C294.444 51.9797 291.227 51.0409 288.786 49.1633C286.394 47.2856 285.195 44.7272 285.195 41.4883C285.195 37.8739 286.417 35.1043 288.857 33.1798C291.346 31.2552 294.937 30.2927 299.631 30.2927H310.192V27.8284C310.192 25.4812 309.395 23.6505 307.797 22.3362C306.249 21.0219 304.067 20.3647 301.249 20.3647C298.761 20.3647 296.697 20.928 295.053 22.0547C293.457 23.1343 292.471 24.5895 292.097 26.42H286.323C286.745 22.8996 288.293 20.1535 290.969 18.1819C293.693 16.2104 297.213 15.2246 301.532 15.2246C306.133 15.2246 309.676 16.3512 312.164 18.6044C314.699 20.8107 315.966 24.0026 315.966 28.1804V43.6711C315.966 45.408 316.765 46.2762 318.36 46.2762H320.121ZM310.192 35.1512H299.067C293.715 35.1512 291.04 37.1463 291.04 41.1363C291.04 42.92 291.745 44.3517 293.152 45.4313C294.56 46.5109 296.462 47.0509 298.857 47.0509C302.377 47.0509 305.146 46.1356 307.165 44.3049C309.183 42.4271 310.192 39.9628 310.192 36.9116V35.1512Z" fill="#757575"/>
<path d="M326.287 1.776C327.367 1.776 328.26 2.12805 328.963 2.83218C329.668 3.5363 330.02 4.42818 330.02 5.50784C330.02 6.58749 329.668 7.47937 328.963 8.1835C328.26 8.88762 327.367 9.23968 326.287 9.23968C325.207 9.23968 324.317 8.88762 323.612 8.1835C322.908 7.47937 322.557 6.58749 322.557 5.50784C322.557 4.42818 322.908 3.5363 323.612 2.83218C324.317 2.12805 325.207 1.776 326.287 1.776ZM323.401 15.6472H329.175V51.5574H323.401V15.6472Z" fill="#757575"/>
<path d="M273.905 46.0892C273.905 49.109 271.427 51.5571 268.37 51.5571C265.314 51.5571 262.838 49.109 262.838 46.0892C262.838 43.0692 265.314 40.6211 268.37 40.6211C271.427 40.6211 273.905 43.0692 273.905 46.0892Z" fill="#757575"/>
</g>
<defs>
<clipPath id="clip0_377_18">
<rect width="330.819" height="66.5799" fill="white" transform="translate(0.0947266)"/>
</clipPath>
</defs>
</svg>
