<?xml version="1.0" standalone="no"?>
<!DOCTYPE svg PUBLIC "-//W3C//DTD SVG 20010904//EN"
 "http://www.w3.org/TR/2001/REC-SVG-20010904/DTD/svg10.dtd">
<svg version="1.0" xmlns="http://www.w3.org/2000/svg"
 width="500.000000pt" height="500.000000pt" viewBox="0 0 500.000000 500.000000"
 preserveAspectRatio="xMidYMid meet">

<g transform="translate(0.000000,500.000000) scale(0.100000,-0.100000)"
fill="#000000" stroke="none">
<path d="M1615 4234 c-160 -35 -305 -115 -429 -239 -107 -106 -171 -208 -215
-340 -50 -151 -52 -200 -49 -950 4 -678 4 -691 26 -770 88 -316 320 -548 637
-637 79 -22 91 -22 775 -26 751 -3 808 -1 947 47 135 46 226 104 333 211 133
133 209 270 245 440 23 109 22 1476 -1 1588 -52 254 -231 484 -469 604 -27 14
-88 39 -135 54 l-85 29 -755 2 c-638 1 -766 -1 -825 -13z m1586 -145 c269 -68
476 -275 539 -543 20 -82 21 -111 18 -813 l-3 -728 -27 -80 c-40 -118 -92
-200 -188 -295 -97 -97 -196 -156 -327 -192 -76 -22 -96 -22 -738 -26 -430 -2
-692 0 -752 7 -347 41 -606 299 -653 651 -8 58 -10 294 -7 750 4 730 3 715 67
856 95 211 273 358 500 414 69 17 129 19 781 19 685 1 708 0 790 -20z"/>
<path d="M3235 3346 c-16 -7 -116 -68 -222 -134 l-192 -121 -29 52 c-38 67
-93 118 -162 154 l-55 28 -521 3 -522 3 -21 -27 c-22 -28 -22 -31 -19 -434 l3
-405 33 -67 c39 -80 112 -148 192 -180 54 -22 68 -23 535 -26 264 -2 493 -1
510 2 66 13 70 21 75 165 l5 130 200 -125 c217 -135 239 -143 303 -104 62 38
62 42 62 542 0 431 -1 455 -20 485 -36 59 -101 84 -155 59z m35 -552 c0 -217
-3 -394 -8 -394 -4 0 -99 58 -212 128 l-205 129 -3 139 -3 140 208 131 c115
71 211 128 216 126 4 -2 7 -182 7 -399z m-678 363 c31 -18 57 -44 75 -75 l28
-47 3 -347 3 -348 -453 0 c-419 0 -456 2 -494 19 -51 23 -99 81 -113 137 -7
26 -11 167 -11 369 l0 326 458 -3 457 -3 47 -28z"/>
<path d="M1093 968 c4 -31 14 -49 34 -65 27 -22 37 -23 196 -23 92 0 167 -3
167 -8 0 -4 -83 -90 -185 -192 -159 -159 -185 -189 -185 -215 0 -33 23 -67 57
-84 14 -7 110 -11 282 -11 l261 0 0 31 c0 20 -10 40 -29 60 l-29 29 -171 0
c-94 0 -171 3 -171 8 0 4 84 90 186 192 l185 185 -5 39 c-6 51 -34 77 -93 87
-26 4 -151 8 -277 8 l-229 1 6 -42z"/>
<path d="M1881 979 c-73 -33 -118 -75 -153 -147 -29 -59 -33 -76 -32 -147 0
-95 29 -170 89 -230 62 -61 114 -80 225 -80 111 0 163 19 225 80 62 62 85 125
85 230 0 74 -4 99 -24 142 -32 68 -95 127 -162 153 -73 27 -191 27 -253 -1z
m208 -123 c151 -79 144 -285 -11 -351 -123 -51 -258 39 -258 172 0 65 17 108
58 146 58 55 143 68 211 33z"/>
<path d="M2562 982 c-132 -52 -223 -195 -209 -329 16 -152 144 -279 293 -291
120 -10 254 71 311 186 36 74 39 181 6 254 -52 115 -177 198 -294 197 -35 0
-83 -8 -107 -17z m184 -121 c51 -23 98 -80 114 -136 33 -117 -88 -249 -212
-232 -78 10 -152 83 -165 162 -8 52 15 123 55 162 63 64 132 78 208 44z"/>
<path d="M3025 987 c-3 -7 -4 -147 -3 -312 3 -281 4 -300 21 -303 10 -2 32 2
49 9 49 20 58 57 58 241 0 146 2 166 20 196 41 67 131 78 192 23 39 -35 47
-79 47 -272 1 -140 2 -146 25 -168 13 -12 40 -24 60 -28 l36 -6 0 204 c0 230
6 257 70 291 71 38 158 -1 180 -81 5 -20 10 -107 10 -193 0 -148 1 -158 23
-183 13 -16 37 -28 60 -32 l38 -6 -3 229 c-3 212 -5 232 -25 269 -76 142 -265
180 -386 79 l-28 -24 -33 25 c-75 57 -182 72 -262 36 -41 -19 -42 -19 -73 0
-36 22 -69 25 -76 6z"/>
</g>
</svg>
