<svg xmlns="http://www.w3.org/2000/svg" xmlns:xlink="http://www.w3.org/1999/xlink" width="320" zoomAndPan="magnify" viewBox="0 0 240 239.999995" height="320" preserveAspectRatio="xMidYMid meet" version="1.0"><defs><clipPath id="3eb355032e"><path d="M 52.742188 106.074219 L 187.554688 106.074219 L 187.554688 227 L 52.742188 227 Z M 52.742188 106.074219 " clip-rule="nonzero"/></clipPath><clipPath id="079ea4f743"><path d="M 52.742188 12.910156 L 187.359375 12.910156 L 187.359375 134.816406 L 52.742188 134.816406 Z M 52.742188 12.910156 " clip-rule="nonzero"/></clipPath></defs><path fill="#ffffff" d="M 110.65625 73.234375 C 110.65625 73.457031 110.632812 73.683594 110.589844 73.90625 C 110.546875 74.125 110.480469 74.339844 110.394531 74.550781 C 110.308594 74.761719 110.199219 74.957031 110.074219 75.144531 C 109.949219 75.335938 109.804688 75.507812 109.644531 75.667969 C 109.484375 75.828125 109.3125 75.972656 109.125 76.097656 C 108.933594 76.222656 108.738281 76.328125 108.527344 76.414062 C 108.316406 76.503906 108.101562 76.566406 107.878906 76.609375 C 107.660156 76.65625 107.433594 76.675781 107.207031 76.675781 C 106.984375 76.675781 106.757812 76.65625 106.535156 76.609375 C 106.3125 76.566406 106.097656 76.503906 105.890625 76.414062 C 105.679688 76.328125 105.484375 76.222656 105.292969 76.097656 C 105.105469 75.972656 104.933594 75.828125 104.769531 75.667969 C 104.609375 75.507812 104.46875 75.335938 104.34375 75.144531 C 104.214844 74.957031 104.109375 74.761719 104.023438 74.550781 C 103.9375 74.339844 103.871094 74.125 103.828125 73.90625 C 103.785156 73.683594 103.761719 73.457031 103.761719 73.234375 C 103.761719 73.003906 103.785156 72.78125 103.828125 72.558594 C 103.871094 72.339844 103.9375 72.125 104.023438 71.914062 C 104.109375 71.707031 104.214844 71.507812 104.34375 71.316406 C 104.46875 71.128906 104.609375 70.957031 104.769531 70.796875 C 104.933594 70.636719 105.105469 70.496094 105.292969 70.367188 C 105.484375 70.242188 105.679688 70.136719 105.890625 70.050781 C 106.097656 69.964844 106.3125 69.898438 106.535156 69.855469 C 106.757812 69.808594 106.984375 69.785156 107.207031 69.785156 C 107.433594 69.785156 107.660156 69.808594 107.878906 69.855469 C 108.101562 69.898438 108.316406 69.964844 108.527344 70.050781 C 108.738281 70.136719 108.933594 70.242188 109.125 70.367188 C 109.3125 70.496094 109.484375 70.636719 109.644531 70.796875 C 109.804688 70.957031 109.949219 71.128906 110.074219 71.316406 C 110.199219 71.507812 110.308594 71.707031 110.394531 71.914062 C 110.480469 72.125 110.546875 72.339844 110.589844 72.558594 C 110.632812 72.78125 110.65625 73.003906 110.65625 73.234375 Z M 110.65625 73.234375 " fill-opacity="1" fill-rule="nonzero"/><path fill="#ffffff" d="M 137.796875 73.234375 C 137.796875 73.457031 137.777344 73.683594 137.730469 73.90625 C 137.6875 74.125 137.621094 74.339844 137.535156 74.550781 C 137.449219 74.761719 137.34375 74.957031 137.21875 75.144531 C 137.09375 75.335938 136.949219 75.507812 136.789062 75.667969 C 136.628906 75.828125 136.453125 75.972656 136.265625 76.097656 C 136.078125 76.222656 135.878906 76.328125 135.671875 76.414062 C 135.460938 76.503906 135.246094 76.566406 135.023438 76.609375 C 134.804688 76.65625 134.578125 76.675781 134.351562 76.675781 C 134.125 76.675781 133.902344 76.65625 133.679688 76.609375 C 133.457031 76.566406 133.242188 76.503906 133.035156 76.414062 C 132.824219 76.328125 132.625 76.222656 132.4375 76.097656 C 132.25 75.972656 132.074219 75.828125 131.914062 75.667969 C 131.753906 75.507812 131.609375 75.335938 131.484375 75.144531 C 131.359375 74.957031 131.253906 74.761719 131.167969 74.550781 C 131.082031 74.339844 131.015625 74.125 130.972656 73.90625 C 130.925781 73.683594 130.90625 73.457031 130.90625 73.234375 C 130.90625 73.003906 130.925781 72.78125 130.972656 72.558594 C 131.015625 72.339844 131.082031 72.125 131.167969 71.914062 C 131.253906 71.707031 131.359375 71.507812 131.484375 71.316406 C 131.609375 71.128906 131.753906 70.957031 131.914062 70.796875 C 132.074219 70.636719 132.25 70.496094 132.4375 70.367188 C 132.625 70.242188 132.824219 70.136719 133.035156 70.050781 C 133.242188 69.964844 133.457031 69.898438 133.679688 69.855469 C 133.902344 69.808594 134.125 69.785156 134.351562 69.785156 C 134.578125 69.785156 134.804688 69.808594 135.023438 69.855469 C 135.246094 69.898438 135.460938 69.964844 135.671875 70.050781 C 135.878906 70.136719 136.078125 70.242188 136.265625 70.367188 C 136.453125 70.496094 136.628906 70.636719 136.789062 70.796875 C 136.949219 70.957031 137.09375 71.128906 137.21875 71.316406 C 137.34375 71.507812 137.449219 71.707031 137.535156 71.914062 C 137.621094 72.125 137.6875 72.339844 137.730469 72.558594 C 137.777344 72.78125 137.796875 73.003906 137.796875 73.234375 Z M 137.796875 73.234375 " fill-opacity="1" fill-rule="nonzero"/><path fill="#28509e" d="M 110.65625 164.859375 C 110.65625 165.085938 110.632812 165.308594 110.589844 165.53125 C 110.546875 165.753906 110.480469 165.96875 110.394531 166.179688 C 110.308594 166.390625 110.199219 166.585938 110.074219 166.773438 C 109.949219 166.964844 109.804688 167.136719 109.644531 167.296875 C 109.484375 167.457031 109.3125 167.597656 109.125 167.726562 C 108.933594 167.851562 108.738281 167.957031 108.527344 168.042969 C 108.316406 168.128906 108.101562 168.195312 107.878906 168.238281 C 107.660156 168.285156 107.433594 168.304688 107.207031 168.304688 C 106.984375 168.304688 106.757812 168.285156 106.535156 168.238281 C 106.3125 168.195312 106.097656 168.128906 105.890625 168.042969 C 105.679688 167.957031 105.484375 167.851562 105.292969 167.726562 C 105.105469 167.597656 104.933594 167.457031 104.769531 167.296875 C 104.609375 167.136719 104.46875 166.964844 104.34375 166.773438 C 104.214844 166.585938 104.109375 166.390625 104.023438 166.179688 C 103.9375 165.96875 103.871094 165.753906 103.828125 165.53125 C 103.785156 165.308594 103.761719 165.085938 103.761719 164.859375 C 103.761719 164.632812 103.785156 164.410156 103.828125 164.1875 C 103.871094 163.964844 103.9375 163.75 104.023438 163.542969 C 104.109375 163.332031 104.214844 163.132812 104.34375 162.945312 C 104.46875 162.757812 104.609375 162.585938 104.769531 162.425781 C 104.933594 162.265625 105.105469 162.121094 105.292969 161.996094 C 105.484375 161.871094 105.679688 161.765625 105.890625 161.679688 C 106.097656 161.589844 106.3125 161.527344 106.535156 161.480469 C 106.757812 161.4375 106.984375 161.414062 107.207031 161.414062 C 107.433594 161.414062 107.660156 161.4375 107.878906 161.480469 C 108.101562 161.527344 108.316406 161.589844 108.527344 161.679688 C 108.738281 161.765625 108.933594 161.871094 109.125 161.996094 C 109.3125 162.121094 109.484375 162.265625 109.644531 162.425781 C 109.804688 162.585938 109.949219 162.757812 110.074219 162.945312 C 110.199219 163.132812 110.308594 163.332031 110.394531 163.542969 C 110.480469 163.75 110.546875 163.964844 110.589844 164.1875 C 110.632812 164.410156 110.65625 164.632812 110.65625 164.859375 Z M 110.65625 164.859375 " fill-opacity="1" fill-rule="nonzero"/><path fill="#28509e" d="M 137.796875 164.859375 C 137.796875 165.085938 137.777344 165.308594 137.730469 165.53125 C 137.6875 165.753906 137.621094 165.96875 137.535156 166.179688 C 137.449219 166.390625 137.34375 166.585938 137.21875 166.773438 C 137.09375 166.964844 136.949219 167.136719 136.789062 167.296875 C 136.628906 167.457031 136.453125 167.597656 136.265625 167.726562 C 136.078125 167.851562 135.878906 167.957031 135.671875 168.042969 C 135.460938 168.128906 135.246094 168.195312 135.023438 168.238281 C 134.804688 168.285156 134.578125 168.304688 134.351562 168.304688 C 134.125 168.304688 133.902344 168.285156 133.679688 168.238281 C 133.457031 168.195312 133.242188 168.128906 133.035156 168.042969 C 132.824219 167.957031 132.625 167.851562 132.4375 167.726562 C 132.25 167.597656 132.074219 167.457031 131.914062 167.296875 C 131.753906 167.136719 131.609375 166.964844 131.484375 166.773438 C 131.359375 166.585938 131.253906 166.390625 131.167969 166.179688 C 131.082031 165.96875 131.015625 165.753906 130.972656 165.53125 C 130.925781 165.308594 130.90625 165.085938 130.90625 164.859375 C 130.90625 164.632812 130.925781 164.410156 130.972656 164.1875 C 131.015625 163.964844 131.082031 163.75 131.167969 163.542969 C 131.253906 163.332031 131.359375 163.132812 131.484375 162.945312 C 131.609375 162.757812 131.753906 162.585938 131.914062 162.425781 C 132.074219 162.265625 132.25 162.121094 132.4375 161.996094 C 132.625 161.871094 132.824219 161.765625 133.035156 161.679688 C 133.242188 161.589844 133.457031 161.527344 133.679688 161.480469 C 133.902344 161.4375 134.125 161.414062 134.351562 161.414062 C 134.578125 161.414062 134.804688 161.4375 135.023438 161.480469 C 135.246094 161.527344 135.460938 161.589844 135.671875 161.679688 C 135.878906 161.765625 136.078125 161.871094 136.265625 161.996094 C 136.453125 162.121094 136.628906 162.265625 136.789062 162.425781 C 136.949219 162.585938 137.09375 162.757812 137.21875 162.945312 C 137.34375 163.132812 137.449219 163.332031 137.535156 163.542969 C 137.621094 163.75 137.6875 163.964844 137.730469 164.1875 C 137.777344 164.410156 137.796875 164.632812 137.796875 164.859375 Z M 137.796875 164.859375 " fill-opacity="1" fill-rule="nonzero"/><g clip-path="url(#3eb355032e)"><path fill="#28509e" d="M 144.636719 106.222656 L 144.636719 106.089844 L 106.796875 106.089844 L 106.796875 134.773438 L 158.628906 134.773438 L 158.628906 166.714844 C 158.628906 185.792969 143.15625 201.277344 124.046875 201.277344 L 114.550781 201.277344 C 95.464844 201.277344 79.972656 185.8125 79.972656 166.714844 L 79.972656 161.230469 L 52.902344 161.230469 C 53.691406 197.683594 83.492188 226.980469 120.132812 226.980469 C 156.777344 226.980469 187.402344 196.875 187.402344 159.75 L 187.402344 106.222656 L 144.617188 106.222656 Z M 144.636719 106.222656 " fill-opacity="1" fill-rule="nonzero"/></g><g clip-path="url(#079ea4f743)"><path fill="#ffffff" d="M 79.953125 133.050781 L 79.953125 75.160156 C 79.953125 56.082031 95.425781 40.597656 114.535156 40.597656 L 124.03125 40.597656 C 143.117188 40.597656 158.609375 56.0625 158.609375 75.160156 L 158.609375 76.996094 L 187.328125 76.996094 C 185.699219 41.328125 156.25 12.910156 120.132812 12.910156 C 84.015625 12.910156 52.863281 43.015625 52.863281 80.140625 L 52.863281 134.753906 L 79.953125 134.753906 Z M 79.953125 133.050781 " fill-opacity="1" fill-rule="nonzero"/></g></svg>