<svg xmlns="http://www.w3.org/2000/svg" xmlns:xlink="http://www.w3.org/1999/xlink" width="1080" zoomAndPan="magnify" viewBox="0 0 810 809.999993" height="1080" preserveAspectRatio="xMidYMid meet" version="1.0"><defs><clipPath id="42dfd08544"><path d="M 178 358 L 633 358 L 633 766.128906 L 178 766.128906 Z M 178 358 " clipRule="nonzero"/></clipPath><clipPath id="634c57ddf9"><path d="M 178 43.566406 L 632.335938 43.566406 L 632.335938 455 L 178 455 Z M 178 43.566406 " clipRule="nonzero"/></clipPath></defs><path fill="#000000" d="M 373.460938 247.160156 C 373.460938 247.921875 373.386719 248.679688 373.238281 249.429688 C 373.089844 250.175781 372.867188 250.902344 372.578125 251.609375 C 372.285156 252.316406 371.925781 252.984375 371.5 253.617188 C 371.078125 254.253906 370.59375 254.839844 370.054688 255.378906 C 369.515625 255.921875 368.925781 256.402344 368.292969 256.828125 C 367.65625 257.25 366.988281 257.605469 366.277344 257.902344 C 365.574219 258.195312 364.847656 258.414062 364.097656 258.5625 C 363.351562 258.710938 362.59375 258.785156 361.828125 258.785156 C 361.066406 258.785156 360.308594 258.710938 359.558594 258.5625 C 358.808594 258.414062 358.082031 258.195312 357.378906 257.902344 C 356.671875 257.605469 356.003906 257.25 355.363281 256.828125 C 354.730469 256.402344 354.144531 255.921875 353.601562 255.378906 C 353.0625 254.839844 352.578125 254.253906 352.15625 253.617188 C 351.730469 252.984375 351.371094 252.316406 351.082031 251.609375 C 350.789062 250.902344 350.570312 250.175781 350.417969 249.429688 C 350.269531 248.679688 350.195312 247.921875 350.195312 247.160156 C 350.195312 246.394531 350.269531 245.640625 350.417969 244.890625 C 350.570312 244.144531 350.789062 243.417969 351.082031 242.710938 C 351.371094 242.007812 351.730469 241.335938 352.15625 240.699219 C 352.578125 240.066406 353.0625 239.476562 353.601562 238.9375 C 354.144531 238.398438 354.730469 237.917969 355.363281 237.492188 C 356.003906 237.066406 356.671875 236.710938 357.378906 236.417969 C 358.082031 236.125 358.808594 235.90625 359.558594 235.757812 C 360.308594 235.605469 361.066406 235.53125 361.828125 235.53125 C 362.59375 235.53125 363.351562 235.605469 364.097656 235.757812 C 364.847656 235.90625 365.574219 236.125 366.277344 236.417969 C 366.988281 236.710938 367.65625 237.066406 368.292969 237.492188 C 368.925781 237.917969 369.515625 238.398438 370.054688 238.9375 C 370.59375 239.476562 371.078125 240.066406 371.5 240.699219 C 371.925781 241.335938 372.285156 242.007812 372.578125 242.710938 C 372.867188 243.417969 373.089844 244.144531 373.238281 244.890625 C 373.386719 245.640625 373.460938 246.394531 373.460938 247.160156 Z M 373.460938 247.160156 " fillOpacity="1" fillRule="nonzero"/><path fill="#000000" d="M 465.070312 247.160156 C 465.070312 247.921875 464.996094 248.679688 464.84375 249.429688 C 464.699219 250.175781 464.476562 250.902344 464.1875 251.609375 C 463.894531 252.316406 463.535156 252.984375 463.109375 253.617188 C 462.6875 254.253906 462.203125 254.839844 461.664062 255.378906 C 461.125 255.921875 460.535156 256.402344 459.902344 256.828125 C 459.265625 257.25 458.59375 257.605469 457.886719 257.902344 C 457.183594 258.195312 456.457031 258.414062 455.707031 258.5625 C 454.960938 258.710938 454.199219 258.785156 453.4375 258.785156 C 452.675781 258.785156 451.917969 258.710938 451.167969 258.5625 C 450.417969 258.414062 449.691406 258.195312 448.988281 257.902344 C 448.28125 257.605469 447.613281 257.25 446.972656 256.828125 C 446.339844 256.402344 445.753906 255.921875 445.210938 255.378906 C 444.671875 254.839844 444.1875 254.253906 443.765625 253.617188 C 443.339844 252.984375 442.980469 252.316406 442.691406 251.609375 C 442.398438 250.902344 442.175781 250.175781 442.027344 249.429688 C 441.878906 248.679688 441.804688 247.921875 441.804688 247.160156 C 441.804688 246.394531 441.878906 245.640625 442.027344 244.890625 C 442.175781 244.144531 442.398438 243.417969 442.691406 242.710938 C 442.980469 242.007812 443.339844 241.335938 443.765625 240.699219 C 444.1875 240.066406 444.671875 239.476562 445.210938 238.9375 C 445.753906 238.398438 446.339844 237.917969 446.972656 237.492188 C 447.613281 237.066406 448.28125 236.710938 448.988281 236.417969 C 449.691406 236.125 450.417969 235.90625 451.167969 235.757812 C 451.917969 235.605469 452.675781 235.53125 453.4375 235.53125 C 454.199219 235.53125 454.960938 235.605469 455.707031 235.757812 C 456.457031 235.90625 457.183594 236.125 457.886719 236.417969 C 458.59375 236.710938 459.265625 237.066406 459.902344 237.492188 C 460.535156 237.917969 461.125 238.398438 461.664062 238.9375 C 462.203125 239.476562 462.6875 240.066406 463.109375 240.699219 C 463.535156 241.335938 463.894531 242.007812 464.1875 242.710938 C 464.476562 243.417969 464.699219 244.144531 464.84375 244.890625 C 464.996094 245.640625 465.070312 246.394531 465.070312 247.160156 Z M 465.070312 247.160156 " fillOpacity="1" fillRule="nonzero"/><path fill="#000000" d="M 373.460938 556.40625 C 373.460938 557.167969 373.386719 557.921875 373.238281 558.671875 C 373.089844 559.421875 372.867188 560.148438 372.578125 560.855469 C 372.285156 561.5625 371.925781 562.230469 371.5 562.863281 C 371.078125 563.5 370.59375 564.085938 370.054688 564.625 C 369.515625 565.167969 368.925781 565.648438 368.292969 566.074219 C 367.65625 566.496094 366.988281 566.851562 366.277344 567.148438 C 365.574219 567.4375 364.847656 567.660156 364.097656 567.808594 C 363.351562 567.957031 362.59375 568.03125 361.828125 568.03125 C 361.066406 568.03125 360.308594 567.957031 359.558594 567.808594 C 358.808594 567.660156 358.082031 567.4375 357.378906 567.148438 C 356.671875 566.851562 356.003906 566.496094 355.363281 566.074219 C 354.730469 565.648438 354.144531 565.167969 353.601562 564.625 C 353.0625 564.085938 352.578125 563.5 352.15625 562.863281 C 351.730469 562.230469 351.371094 561.5625 351.082031 560.855469 C 350.789062 560.148438 350.570312 559.421875 350.417969 558.671875 C 350.269531 557.921875 350.195312 557.167969 350.195312 556.40625 C 350.195312 555.640625 350.269531 554.886719 350.417969 554.136719 C 350.570312 553.386719 350.789062 552.660156 351.082031 551.953125 C 351.371094 551.25 351.730469 550.578125 352.15625 549.945312 C 352.578125 549.3125 353.0625 548.722656 353.601562 548.183594 C 354.144531 547.644531 354.730469 547.164062 355.363281 546.738281 C 356.003906 546.3125 356.671875 545.957031 357.378906 545.664062 C 358.082031 545.371094 358.808594 545.152344 359.558594 545 C 360.308594 544.851562 361.066406 544.777344 361.828125 544.777344 C 362.59375 544.777344 363.351562 544.851562 364.097656 545 C 364.847656 545.152344 365.574219 545.371094 366.277344 545.664062 C 366.988281 545.957031 367.65625 546.3125 368.292969 546.738281 C 368.925781 547.164062 369.515625 547.644531 370.054688 548.183594 C 370.59375 548.722656 371.078125 549.3125 371.5 549.945312 C 371.925781 550.578125 372.285156 551.25 372.578125 551.953125 C 372.867188 552.660156 373.089844 553.386719 373.238281 554.136719 C 373.386719 554.886719 373.460938 555.640625 373.460938 556.40625 Z M 373.460938 556.40625 " fillOpacity="1" fillRule="nonzero"/><path fill="#000000" d="M 465.070312 556.40625 C 465.070312 557.167969 464.996094 557.921875 464.84375 558.671875 C 464.699219 559.421875 464.476562 560.148438 464.1875 560.855469 C 463.894531 561.5625 463.535156 562.230469 463.109375 562.863281 C 462.6875 563.5 462.203125 564.085938 461.664062 564.625 C 461.125 565.167969 460.535156 565.648438 459.902344 566.074219 C 459.265625 566.496094 458.59375 566.851562 457.886719 567.148438 C 457.183594 567.4375 456.457031 567.660156 455.707031 567.808594 C 454.960938 567.957031 454.199219 568.03125 453.4375 568.03125 C 452.675781 568.03125 451.917969 567.957031 451.167969 567.808594 C 450.417969 567.660156 449.691406 567.4375 448.988281 567.148438 C 448.28125 566.851562 447.613281 566.496094 446.972656 566.074219 C 446.339844 565.648438 445.753906 565.167969 445.210938 564.625 C 444.671875 564.085938 444.1875 563.5 443.765625 562.863281 C 443.339844 562.230469 442.980469 561.5625 442.691406 560.855469 C 442.398438 560.148438 442.175781 559.421875 442.027344 558.671875 C 441.878906 557.921875 441.804688 557.167969 441.804688 556.40625 C 441.804688 555.640625 441.878906 554.886719 442.027344 554.136719 C 442.175781 553.386719 442.398438 552.660156 442.691406 551.953125 C 442.980469 551.25 443.339844 550.578125 443.765625 549.945312 C 444.1875 549.3125 444.671875 548.722656 445.210938 548.183594 C 445.753906 547.644531 446.339844 547.164062 446.972656 546.738281 C 447.613281 546.3125 448.28125 545.957031 448.988281 545.664062 C 449.691406 545.371094 450.417969 545.152344 451.167969 545 C 451.917969 544.851562 452.675781 544.777344 453.4375 544.777344 C 454.199219 544.777344 454.960938 544.851562 455.707031 545 C 456.457031 545.152344 457.183594 545.371094 457.886719 545.664062 C 458.59375 545.957031 459.265625 546.3125 459.902344 546.738281 C 460.535156 547.164062 461.125 547.644531 461.664062 548.183594 C 462.203125 548.722656 462.6875 549.3125 463.109375 549.945312 C 463.535156 550.578125 463.894531 551.25 464.1875 551.953125 C 464.476562 552.660156 464.699219 553.386719 464.84375 554.136719 C 464.996094 554.886719 465.070312 555.640625 465.070312 556.40625 Z M 465.070312 556.40625 " fillOpacity="1" fillRule="nonzero"/><g clipPath="url(#42dfd08544)"><path fill="#000000" d="M 488.144531 358.496094 L 488.144531 358.054688 L 360.4375 358.054688 L 360.4375 454.859375 L 535.375 454.859375 L 535.375 562.660156 C 535.375 627.050781 483.152344 679.304688 418.664062 679.304688 L 386.609375 679.304688 C 322.1875 679.304688 269.902344 627.113281 269.902344 562.660156 L 269.902344 544.148438 L 178.546875 544.148438 C 181.203125 667.175781 281.789062 766.0625 405.453125 766.0625 C 529.117188 766.0625 632.484375 664.457031 632.484375 539.152344 L 632.484375 358.496094 L 488.085938 358.496094 Z M 488.144531 358.496094 " fillOpacity="1" fillRule="nonzero"/></g><g clipPath="url(#634c57ddf9)"><path fill="#000000" d="M 269.839844 449.046875 L 269.839844 253.667969 C 269.839844 189.28125 322.058594 137.023438 386.550781 137.023438 L 418.605469 137.023438 C 483.023438 137.023438 535.3125 189.214844 535.3125 253.667969 L 535.3125 259.859375 L 632.230469 259.859375 C 626.730469 139.484375 527.34375 43.566406 405.453125 43.566406 C 283.558594 43.566406 178.417969 145.171875 178.417969 270.476562 L 178.417969 454.796875 L 269.839844 454.796875 Z M 269.839844 449.046875 " fillOpacity="1" fillRule="nonzero"/></g></svg>